<svg width="338" height="264" viewBox="0 0 338 264" fill="none" xmlns="http://www.w3.org/2000/svg">
<g filter="url(#filter0_d_2_3038)">
<g opacity="0.46">
<path opacity="0.46" d="M162.163 253.735L56.3214 192.727C52.4871 190.517 52.4873 184.992 56.3218 182.782L173.757 115.102C177.676 112.844 182.502 112.839 186.425 115.09L294.643 177.178C298.486 179.383 298.491 184.916 294.653 187.128L179.098 253.735C173.858 256.755 167.403 256.755 162.163 253.735Z" fill="#CDE9F9"/>
</g>
<path d="M135.646 231.711L260.921 159.129V138.801L135.646 211.098V231.711Z" fill="url(#paint0_linear_2_3038)"/>
<g opacity="0.46">
<path opacity="0.46" d="M143.121 99.8411L102.623 123.121C101.088 124.004 99.1719 122.898 99.1719 121.13V108.615C99.1719 107.794 99.6116 107.034 100.325 106.624L140.824 83.3433C142.359 82.4608 144.275 83.567 144.275 85.3351V97.8492C144.275 98.6712 143.835 99.4306 143.121 99.8411Z" fill="#CDE9F9"/>
</g>
<g opacity="0.46">
<path opacity="0.46" d="M193.174 80.533L152.675 103.813C151.141 104.696 149.224 103.59 149.224 101.821V89.3074C149.224 88.4854 149.664 87.7257 150.378 87.3155L190.876 64.0352C192.411 63.1527 194.327 64.2589 194.327 66.027V78.5411C194.327 79.3631 193.887 80.1225 193.174 80.533Z" fill="#CDE9F9"/>
</g>
<g opacity="0.46">
<path opacity="0.46" d="M196.96 55.2888L156.462 78.5692C154.927 79.4516 153.01 78.3454 153.01 76.5773V64.0632C153.01 63.2412 153.45 62.4816 154.164 62.0714L194.662 38.791C196.197 37.9086 198.113 39.0147 198.113 40.7829V53.2969C198.113 54.1192 197.673 54.8786 196.96 55.2888Z" fill="#CDE9F9"/>
</g>
<path d="M163.794 94.1914C163.804 96.1392 163.504 97.4187 162.981 98.3782C162.13 99.947 160.685 100.666 159.026 102.066C158.334 102.651 157.604 103.355 156.863 104.293C153.271 108.838 158.026 110.706 158.026 110.706C158.026 110.706 161.516 131.522 145.04 144.191C144.979 144.238 144.917 144.285 144.856 144.329C142.35 146.228 139.946 147.471 137.707 148.176C136.062 148.694 134.507 148.922 133.068 148.906C130.825 148.883 128.866 148.27 127.29 147.243C122.26 143.965 121.133 136.48 127.168 130.585C137.993 120.009 140.609 112.903 139.611 106.473C138.399 98.6368 145.487 93.4333 148.314 91.9704C153.002 89.5438 153.991 88.2156 158.228 88.5353C163.592 88.9389 163.794 94.1914 163.794 94.1914Z" fill="#A17194"/>
<path d="M133.068 148.906C130.826 148.883 128.866 148.27 127.291 147.243C125.689 145.745 124.685 143.464 124.511 140.077C124.158 133.154 133.64 125.914 133.64 125.914C126.217 139.597 130.897 146.636 133.068 148.906Z" fill="url(#paint1_linear_2_3038)"/>
<path d="M152.526 105.723C152.167 107.069 146.452 136.178 144.856 144.329C142.35 146.228 139.946 147.471 137.707 148.176C134.446 148.27 130.778 147.119 128.633 142.396C124.112 132.439 140.203 121.175 142.064 111.739C143.925 102.306 151.719 101.161 151.719 101.161C151.719 101.161 152.944 104.156 152.526 105.723Z" fill="url(#paint2_linear_2_3038)"/>
<path d="M162.982 98.3783C162.131 99.9471 160.686 100.666 159.026 102.066L159.573 98.5514C159.573 98.5514 162.322 96.1108 162.41 94.5621C162.469 93.5272 163.004 96.074 162.982 98.3783Z" fill="url(#paint3_linear_2_3038)"/>
<path d="M171.686 109.948C171.686 109.948 169.535 115.205 168.912 117.144C168.292 119.088 167.937 118.426 167.937 118.426L164.633 114.533C163.326 112.78 162.12 111.472 161.035 110.494C160.871 110.35 160.716 110.215 160.561 110.085C160.151 109.728 159.736 109.419 159.322 109.156C159.204 109.074 159.1 109.003 159.002 108.936C158.996 108.93 158.988 108.926 158.982 108.92C158.09 108.284 158.108 108.133 156.677 107.897C156.031 107.738 155.114 107.927 155.053 107.952C155.043 107.956 150.81 109.209 150.81 109.209C147.428 111.159 142.844 113.43 140.161 114.732C139.912 114.802 139.677 114.916 139.456 115.071C139.399 115.109 139.344 115.152 139.291 115.197C139.289 115.197 139.285 115.201 139.283 115.201C139.228 115.248 139.175 115.295 139.122 115.344C139.085 115.378 139.05 115.413 139.016 115.449C138.981 115.486 138.946 115.523 138.911 115.561C138.877 115.6 138.844 115.639 138.809 115.679C135.818 119.308 136.209 131.426 136.679 135.01C136.93 136.917 137.103 137.097 137.544 138.003C137.607 138.131 137.673 138.256 137.744 138.374C138.338 139.387 139.203 139.981 140.603 140.073C141.116 140.11 141.793 139.849 142.479 139.597C142.477 142.05 141.924 146.552 141.636 148.435C141.41 149.924 138.946 150.509 138.932 151.354C138.932 151.397 138.928 151.438 138.932 151.479C138.911 152.97 139.111 153.518 139.111 153.518L151.008 145.749L160.118 139.8L161.645 138.802C161.214 139.028 160.733 139.216 160.314 139.23H160.22C160.216 139.23 160.216 139.23 160.214 139.23C159.626 139.23 158.692 141.192 158.702 140.016C158.702 139.902 158.245 138.199 158.228 138.003C158.155 136.819 158.853 133.449 159.443 131.412C159.502 131.204 159.561 130.982 159.62 130.744C160 129.234 160.404 127.144 161.131 124.992C161.447 124.049 161.826 123.095 162.292 122.174C162.453 122.633 162.543 122.902 162.543 122.902C162.543 122.902 165.386 125.041 168.139 125.63C170.898 126.219 172.121 124.014 172.419 122.731C172.598 121.969 173.294 118.13 173.829 115.146C174.192 113.12 174.482 111.491 174.482 111.491C172.794 111.421 171.686 109.948 171.686 109.948Z" fill="#3C7FBE"/>
<path d="M174.482 111.491C174.482 111.491 174.192 113.121 173.829 115.146C173.294 118.131 172.598 121.969 172.419 122.731C172.121 124.014 170.898 126.219 168.139 125.63C165.386 125.041 162.543 122.902 162.543 122.902C162.543 122.902 162.453 122.633 162.292 122.175C161.827 123.095 161.447 124.049 161.131 124.992C160.404 127.144 160 129.234 159.621 130.744C159.561 130.982 159.502 131.205 159.443 131.412C158.853 133.45 158.155 136.82 158.229 138.003C158.245 138.199 158.702 139.902 158.702 140.016C158.692 141.192 159.627 139.23 160.214 139.23C160.217 139.23 160.217 139.23 160.221 139.23H160.314C160.733 139.216 161.215 139.028 161.645 138.802L160.118 139.8L151.008 145.75L139.112 153.518C139.112 153.518 138.912 152.97 138.932 151.479C138.928 151.438 138.932 151.397 138.932 151.354C138.944 150.604 140.883 150.061 141.479 148.907C141.557 148.761 141.61 148.604 141.636 148.435C141.92 146.576 142.463 142.165 142.479 139.692V139.596C141.794 139.849 141.116 140.11 140.604 140.073C139.204 139.982 138.338 139.387 137.744 138.374C137.673 138.256 137.608 138.131 137.544 138.003C137.103 137.096 136.93 136.917 136.679 135.01C136.442 133.201 136.224 129.218 136.454 125.249C136.677 121.356 137.328 117.477 138.81 115.679C138.844 115.639 138.877 115.6 138.912 115.561C138.946 115.523 138.981 115.486 139.016 115.449C139.051 115.413 139.085 115.378 139.122 115.343C139.175 115.295 139.228 115.248 139.283 115.201C139.285 115.201 139.289 115.197 139.291 115.197C139.344 115.152 139.4 115.109 139.457 115.071C139.677 114.916 139.912 114.802 140.161 114.732C142.845 113.43 147.428 111.159 150.81 109.209C150.81 109.209 155.043 107.956 155.053 107.952C155.114 107.927 156.031 107.738 156.678 107.897C158.108 108.133 158.09 108.284 158.982 108.92C158.988 108.926 158.996 108.93 159.002 108.936C159.1 109.003 159.204 109.074 159.323 109.156C159.737 109.419 160.151 109.728 160.561 110.085C160.716 110.215 160.872 110.35 161.035 110.494C162.121 111.472 163.327 112.78 164.633 114.532L167.937 118.426C167.937 118.426 168.292 119.088 168.912 117.144C169.535 115.205 171.686 109.948 171.686 109.948C171.686 109.948 172.794 111.421 174.482 111.491Z" fill="url(#paint4_linear_2_3038)"/>
<path d="M162.866 138.004C162.767 138.085 162.257 138.479 161.646 138.801L162.866 138.004Z" fill="#BD8AAE"/>
<path d="M148.797 127.594C148.238 127.668 147.943 127.615 147.943 127.615C147.943 127.615 147.611 127.541 148.797 127.594Z" fill="#2A2F6D"/>
<path d="M173.829 115.146C173.295 118.131 172.599 121.97 172.419 122.732C172.121 124.016 170.897 126.22 168.139 125.631C165.385 125.042 162.543 122.903 162.543 122.903C162.543 122.903 162.453 122.633 162.291 122.174C161.826 123.095 161.447 124.05 161.13 124.993C160.434 124.909 159.664 124.828 159.586 124.865C159.443 124.931 157.353 124.965 157.353 124.965C157.353 124.965 156.884 124.124 155.518 124.9C154.148 125.672 150.909 127.706 149.223 127.616C149.064 127.606 148.924 127.6 148.8 127.594C149.617 127.488 151.002 127.113 152.862 125.913C156.002 123.889 157.946 122.54 160.145 122.574C162.344 122.609 159.105 121.161 159.105 121.161C159.105 121.161 160.726 120.252 160.623 118.299C160.521 116.346 158.8 112.418 157.791 111.587C157.791 111.587 158.856 110.796 160.145 113.233C160.145 113.233 162.679 121.867 167.841 121.7C171.18 121.591 172.978 117.809 173.829 115.146Z" fill="url(#paint5_linear_2_3038)"/>
<path d="M160.22 139.23C160.014 139.644 159.728 139.98 159.34 140.2C157.32 141.349 141.729 149.935 138.931 151.479C138.927 151.438 138.931 151.397 138.931 151.355C138.946 150.509 141.409 149.924 141.636 148.435C141.923 146.553 142.476 142.05 142.479 139.597C142.799 139.477 143.121 139.361 143.43 139.277C147.871 138.065 151.632 136.7 152.528 135.852C153.418 135.007 153.334 135.487 152.814 134.12C152.416 133.075 152.897 131.302 152.897 131.302C149.906 132.042 145.232 132.706 144.691 132.236C144.152 131.763 144.489 126.307 145.501 120.989C146.057 118.077 144.507 116.456 142.993 115.586C142.993 115.586 146.897 116.464 146.542 120.15C146.189 123.839 145.801 128.071 146.565 130.049C146.565 130.049 146.969 131.472 150.904 130.585C154.167 129.848 158.192 129.544 159.62 130.744C159.561 130.982 159.502 131.205 159.443 131.412C158.853 133.45 158.155 136.82 158.228 138.003C158.245 138.199 158.702 139.902 158.702 140.016C158.692 141.192 159.626 139.23 160.214 139.23C160.216 139.23 160.216 139.23 160.22 139.23Z" fill="url(#paint6_linear_2_3038)"/>
<path d="M152.863 135.497L157.255 121.239L167.427 115.376L164.268 128.923L152.863 135.497Z" fill="#AECFDC"/>
<path d="M152.921 131.471C152.921 131.471 153.77 129.633 155.693 128.885C157.615 128.137 155.895 129.855 155.895 129.855C155.895 129.855 156.759 129.832 157.666 128.697C158.572 127.562 157.716 129.656 157.312 130.084C157.312 130.084 157.969 129.804 158.425 129.097C158.88 128.39 159.032 129.218 158.425 130.167C157.818 131.117 157.362 131.471 157.362 131.471C157.362 131.471 158.071 131.168 158.576 130.713C159.082 130.259 158.774 131.396 158.007 132.026L158.825 131.622C158.825 131.622 159.107 131.824 158.007 132.683C156.907 133.541 154.928 135.107 153.615 135.006C152.303 134.905 152.658 135.01 152.658 135.01C152.658 135.01 151.417 133.316 152.921 131.471Z" fill="#FDE0D9"/>
<path d="M171.704 110.57C171.704 110.57 170.962 108.684 171.367 107.876C171.772 107.068 171.907 106.496 171.907 106.277C171.907 106.058 172.379 106.505 172.311 107.022C172.244 107.54 172.244 107.54 172.244 107.54C172.244 107.54 172.791 107.051 173.054 106.22C173.316 105.389 173.703 104.661 173.829 105.015C173.956 105.368 173.678 106.479 173.678 106.479C173.678 106.479 174.588 105.539 174.639 104.923C174.689 104.307 175.372 104.282 175.22 105.04C175.069 105.797 174.639 106.58 174.639 106.58C174.639 106.58 175.448 105.822 175.651 105.368C175.853 104.914 176.258 105.09 176.03 105.646C175.802 106.201 175.347 107.023 175.347 107.023C175.347 107.023 176.156 106.656 176.384 106.277C176.612 105.899 177.194 106.228 176.612 107.023C176.03 107.817 175.372 108.626 175.246 109.358C175.119 110.09 175.027 111.463 174.112 111.711C173.197 111.959 171.704 110.57 171.704 110.57Z" fill="#FDE0D9"/>
<path d="M158.981 108.92C156.152 106.998 155.09 109.168 154.385 110.076C153.676 110.985 146.897 112.978 146.164 113.533C145.431 114.091 142.993 115.586 142.546 115.177C142.098 114.767 140.161 114.733 140.161 114.733C142.844 113.431 147.428 111.158 150.81 109.208C150.81 109.208 155.043 107.956 155.052 107.953C155.115 107.928 156.031 107.739 156.677 107.897C158.108 108.132 158.09 108.284 158.981 108.92Z" fill="url(#paint7_linear_2_3038)"/>
<path d="M158.701 99.7139C158.027 100.253 157.791 99.4107 157.791 99.4107C157.791 99.4107 156.914 100.455 156.105 100.69C155.295 100.926 155.88 99.7811 155.88 99.7811C155.88 99.7811 154.486 100.959 153.98 100.993C153.474 101.027 153.811 100.151 153.811 100.151C153.811 100.151 153.002 100.589 152.664 101.397C152.327 102.205 152.192 102.508 152.192 102.508C152.192 102.508 152.226 101.566 151.72 101.162C151.214 100.757 150.911 103.384 151.416 103.956C151.922 104.528 151.922 104.528 151.922 104.528C151.922 104.528 149.371 109.869 147.826 110.816C147.778 110.874 147.73 110.93 147.681 110.985C147.681 110.985 149.164 112.408 150.838 112.895C150.841 112.892 150.847 112.892 150.85 112.889C152.133 112.238 152.72 111.124 152.841 110.877C152.856 110.842 152.866 110.808 152.869 110.774L152.928 110.337L153.235 108.108C153.238 108.102 153.241 108.092 153.241 108.086C153.244 108.083 153.244 108.083 153.244 108.08C154.182 108.489 155.716 108.548 157.089 108.158C159.12 107.578 159.372 102.037 159.372 102.037C159.492 100.864 159.549 99.6265 159.573 98.5513C159.313 99.0053 158.998 99.4768 158.701 99.7139Z" fill="#FDE0D9"/>
<path d="M153.242 108.086C153.242 108.092 153.239 108.102 153.236 108.108L152.928 110.337C152.108 109.106 152.108 107.29 152.108 107.29C152.394 107.63 152.832 107.894 153.242 108.086Z" fill="#ECBFB9"/>
<path d="M152.108 113.003C151.704 113.071 151.273 113.019 150.838 112.895C149.164 112.408 147.681 110.985 147.681 110.985L149.571 110.337H152.928C152.928 110.337 154.08 112.678 152.108 113.003Z" fill="#FDE0D9"/>
<g opacity="0.1">
<path opacity="0.1" d="M142.993 115.586C142.993 115.586 145.257 116.842 144.592 121.554C143.927 126.267 142.796 132.44 144.126 132.971C145.456 133.502 151.507 131.687 151.507 131.687C151.507 131.687 145.123 132.96 144.691 132.236C144.259 131.511 144.418 128.758 144.667 126.674C144.917 124.589 146.148 119.835 145.416 118.428C144.685 117.02 142.993 115.586 142.993 115.586Z" fill="white"/>
</g>
<path d="M142.479 139.692V139.596C141.793 139.849 141.115 140.11 140.603 140.073C139.203 139.981 138.338 139.386 137.744 138.374C137.672 138.256 137.607 138.131 137.544 138.003C137.103 137.096 136.93 136.917 136.678 135.01C136.442 133.201 136.223 129.218 136.454 125.249C136.652 128.537 137.18 132.563 138.542 134.564C141.068 138.28 144.856 137.551 147.483 137.019C150.06 136.499 152.436 135.876 152.526 135.853C152.453 135.883 150.726 136.842 148.226 137.814C146.473 138.497 144.186 139.13 142.479 139.692Z" fill="#1C3F75"/>
<path d="M154.995 141.143L141.525 148.907H141.479C141.556 148.761 141.609 148.604 141.636 148.435C141.919 146.577 142.462 142.166 142.479 139.692V139.597L146.234 138.513C146.234 138.513 145.789 140.628 148.138 141.866C150.432 143.076 154.789 141.231 154.995 141.143Z" fill="#1C3F75"/>
<path d="M114.338 148.387C113.146 148.387 111.909 148.277 110.634 148.03C99.4234 145.856 94.111 138.923 92.0353 135.269C91.3724 134.102 91.9226 132.622 93.1863 132.164L95.0126 131.503L92.9718 132.242L93.1691 132.169C94.1692 131.803 95.2855 132.213 95.8092 133.14C97.4504 136.043 101.871 141.916 111.462 143.776C117.693 144.984 122.95 141.902 125.391 140.095C126.266 139.447 127.483 139.532 128.246 140.309C129.169 141.248 129.048 142.783 127.99 143.568C125.43 145.468 120.495 148.387 114.338 148.387Z" fill="#CDE9F9"/>
<path d="M93.5791 141.067C96.1315 141.067 98.2006 137.989 98.2006 134.191C98.2006 130.394 96.1315 127.315 93.5791 127.315C91.0267 127.315 88.9575 130.394 88.9575 134.191C88.9575 137.989 91.0267 141.067 93.5791 141.067Z" fill="#AECFDC"/>
<path d="M129.572 132.286C129.572 132.286 124.606 134.608 123.789 138.75C122.971 142.891 125.863 147.096 129.572 146.845C133.281 146.594 136.802 143.519 136.802 143.519L134.727 139.001C134.727 139.001 132.388 141.493 130.225 141.596C128.063 141.699 126.597 137.431 131.228 135.486L129.572 132.286Z" fill="url(#paint8_linear_2_3038)"/>
<path d="M101.95 159.502V152.26L96.0188 152.971C93.3688 151.844 90.1153 151.292 86.6699 151.292V151.581C87.2192 151.581 87.7613 151.596 88.2949 151.625C86.2236 151.588 83.8158 151.722 81.0745 152.045C82.9229 151.742 84.8039 151.581 86.6685 151.581L86.6697 151.292C86.6692 151.292 86.6687 151.292 86.6685 151.292C81.0335 151.293 74.8895 152.764 70.0556 155.589C69.713 155.79 69.3861 155.995 69.0667 156.203L62.6963 156.967V165.591C62.6963 165.591 62.7026 165.593 62.7125 165.597C62.8218 167.939 64.2206 170.113 66.987 171.73C69.8709 173.415 73.7896 174.233 77.9919 174.233C83.6269 174.233 89.7709 172.762 94.6045 169.936C99.4553 167.102 101.969 163.497 101.951 160.194C101.978 159.755 101.95 159.502 101.95 159.502ZM73.9753 173.671C73.0951 173.547 72.2484 173.382 71.4424 173.178C72.3115 173.382 73.1554 173.543 73.9753 173.671ZM71.3462 173.155C71.3131 173.146 71.2802 173.138 71.2474 173.129C71.2812 173.137 71.3124 173.146 71.3462 173.155Z" fill="#2A2F6D"/>
<path d="M83.1668 162.902C94.0088 161.741 102.423 157.315 101.961 153.016C101.499 148.717 92.3354 146.174 81.4934 147.335C70.6515 148.497 62.2369 152.923 62.699 157.222C63.1611 161.521 72.3248 164.064 83.1668 162.902Z" fill="#65939E"/>
<path d="M77.9924 166.199C73.7198 166.199 69.8745 165.326 67.1652 163.743C64.5051 162.189 63.0861 160.091 63.0617 157.676H63.0488V101.569H63.0505L63.0613 101.251C63.0441 97.9279 65.6584 94.4886 70.2337 91.8146C74.8534 89.1148 80.8437 87.5662 86.6688 87.5659C90.9423 87.5659 94.7867 88.4378 97.496 90.0211C98.6097 90.6719 99.5099 91.4245 100.181 92.2573L99.9541 92.4323C100.156 92.7036 100.335 92.9591 100.5 93.2131L100.743 93.0622C101.162 93.7645 101.432 94.5134 101.545 95.2989L101.551 95.3417L101.548 95.3485L101.558 95.4291C101.597 95.7507 101.61 96.0742 101.598 96.391L101.594 96.4854L101.611 96.5163V152.689L101.599 152.689C101.522 155.955 98.9084 159.331 94.4274 161.949C89.8071 164.65 83.8168 166.199 77.9924 166.199Z" fill="url(#paint9_linear_2_3038)"/>
<path d="M86.6701 87.9171C90.8806 87.9171 94.662 88.7719 97.3183 90.3243C98.3895 90.9502 99.2545 91.6715 99.8977 92.4673L99.6715 92.6418C99.869 92.907 100.044 93.1567 100.205 93.4047L100.447 93.2544C100.831 93.9014 101.081 94.5887 101.19 95.3073L101.189 95.3102L101.208 95.4716C101.245 95.774 101.258 96.0788 101.246 96.3774L101.239 96.5641L101.259 96.6018V152.372L101.246 152.372L101.246 152.69C101.168 155.829 98.6188 159.093 94.2495 161.647C89.6817 164.316 83.7562 165.847 77.9923 165.847C73.7812 165.847 69.999 164.993 67.343 163.44C64.7955 161.951 63.4366 159.957 63.4134 157.673H63.4005V101.881L63.4162 101.879L63.4129 101.249C63.3965 98.0549 65.9475 94.7266 70.4113 92.1177C74.9787 89.4484 80.9042 87.9174 86.6685 87.9171H86.6701ZM86.6701 87.2144C86.6697 87.2144 86.6694 87.2144 86.669 87.2144C81.0339 87.2146 74.8899 88.6862 70.056 91.5113C65.2055 94.346 62.6923 97.9504 62.7092 101.253L62.6968 101.254V158.698L62.7097 157.68C62.7343 160.11 64.1294 162.376 66.9875 164.047C69.8714 165.732 73.7901 166.55 77.9923 166.55C83.6273 166.55 89.7713 165.078 94.605 162.253C99.3645 159.472 101.874 155.949 101.95 152.697L101.95 152.37C101.953 152.479 101.953 152.588 101.95 152.697L101.962 159.494V96.4351C101.957 96.4252 101.955 96.4149 101.949 96.4051C101.963 96.0623 101.948 95.7229 101.907 95.3872C101.937 95.3029 101.962 95.249 101.962 95.249H101.893C101.589 93.1379 100.202 91.1953 97.6736 89.7181C94.7904 88.0326 90.8719 87.2144 86.6701 87.2144ZM100.795 93.0215C100.635 92.7762 100.452 92.5125 100.237 92.2227C100.445 92.4818 100.632 92.7479 100.795 93.0215Z" fill="#FDFEFE"/>
<g opacity="0.5">
<path opacity="0.5" d="M65.2861 156.467V101.368C65.2861 101.368 68.7473 95.792 74.6963 96.3895C80.6453 96.9869 81.6055 100.372 81.6055 100.372V161.704C81.6055 161.704 69.8739 170.346 65.2861 156.467Z" fill="url(#paint10_linear_2_3038)"/>
</g>
<path d="M68.3032 159.702C70.8556 159.702 72.9247 156.623 72.9247 152.825C72.9247 149.028 70.8556 145.949 68.3032 145.949C65.7508 145.949 63.6816 149.028 63.6816 152.825C63.6816 156.623 65.7508 159.702 68.3032 159.702Z" fill="url(#paint11_linear_2_3038)"/>
<path d="M89.0618 167.021C87.8697 167.021 86.6336 166.912 85.3582 166.665C74.1475 164.491 68.8352 157.558 66.7594 153.904C66.0965 152.737 66.6468 151.256 67.9104 150.799L69.7367 150.138L67.6959 150.877L67.8933 150.804C68.8934 150.437 70.0096 150.848 70.5334 151.775C72.1745 154.678 76.595 160.55 86.1865 162.41C92.4176 163.618 97.6739 160.536 100.115 158.729C100.99 158.081 102.207 158.167 102.97 158.943C103.894 159.883 103.772 161.417 102.714 162.203C100.154 164.102 95.2187 167.021 89.0618 167.021Z" fill="#CDE9F9"/>
<path d="M104.296 150.92C104.296 150.92 99.3296 153.242 98.5123 157.384C97.695 161.526 100.587 165.731 104.296 165.48C108.005 165.229 111.525 162.154 111.525 162.154L109.451 157.635C109.451 157.635 107.111 160.128 104.949 160.231C102.787 160.334 101.32 156.066 105.951 154.121L104.296 150.92Z" fill="url(#paint12_linear_2_3038)"/>
<g opacity="0.5">
<path opacity="0.5" d="M85.7668 157.759C85.7668 157.027 85.1652 156.467 84.423 156.467C83.6808 156.467 83.0791 157.061 83.0791 157.793C83.0791 158.525 83.6808 159.119 84.423 159.119C85.1652 159.119 85.7668 158.491 85.7668 157.759Z" fill="white"/>
</g>
<g opacity="0.5">
<path opacity="0.5" d="M81.6057 151.246C81.6057 150.247 80.7848 149.483 79.7721 149.483C78.7595 149.483 77.9385 150.293 77.9385 151.292C77.9385 152.291 78.7593 153.101 79.7721 153.101C80.7848 153.101 81.6057 152.245 81.6057 151.246Z" fill="white"/>
</g>
<g opacity="0.5">
<path opacity="0.5" d="M85.7671 142.808C85.7671 141.344 84.5638 140.225 83.0793 140.225C81.5949 140.225 80.3916 141.412 80.3916 142.876C80.3916 144.34 81.5949 145.528 83.0793 145.528C84.5638 145.528 85.7671 144.272 85.7671 142.808Z" fill="white"/>
</g>
<path d="M88.8643 133.014H84.9911C84.1593 133.014 83.4785 132.334 83.4785 131.504C83.4785 130.673 84.1593 129.994 84.9911 129.994H88.8643C89.6962 129.994 90.3769 130.673 90.3769 131.504C90.3769 132.334 89.6962 133.014 88.8643 133.014Z" fill="white"/>
<path d="M98.5598 133.014H97.031C96.2238 133.014 95.5635 132.354 95.5635 131.549C95.5635 130.743 96.2238 130.083 97.031 130.083H98.5598C99.367 130.083 100.027 130.743 100.027 131.549C100.027 132.354 99.367 133.014 98.5598 133.014Z" fill="white"/>
<path d="M200.848 105.326V101.183L197.455 101.59C195.939 100.945 194.078 100.63 192.107 100.63V100.795C192.421 100.795 192.731 100.804 193.037 100.82C191.852 100.799 190.475 100.876 188.907 101.061C189.964 100.887 191.04 100.795 192.107 100.795L192.107 100.63C192.107 100.63 192.107 100.63 192.107 100.63C188.883 100.63 185.368 101.472 182.603 103.088C182.407 103.202 182.22 103.32 182.038 103.439L178.394 103.876V108.809C178.394 108.809 178.397 108.81 178.403 108.813C178.465 110.153 179.265 111.396 180.848 112.321C182.497 113.285 184.739 113.753 187.143 113.753C190.367 113.753 193.881 112.911 196.646 111.295C199.422 109.673 200.859 107.611 200.849 105.722C200.864 105.47 200.848 105.326 200.848 105.326ZM184.845 113.431C184.342 113.36 183.857 113.266 183.396 113.149C183.893 113.266 184.376 113.358 184.845 113.431ZM183.341 113.136C183.322 113.131 183.303 113.126 183.285 113.121C183.304 113.126 183.322 113.131 183.341 113.136Z" fill="#2A2F6D"/>
<path d="M190.104 107.273C196.306 106.608 201.12 104.076 200.856 101.617C200.591 99.1581 195.349 97.7033 189.147 98.3677C182.945 99.0322 178.131 101.564 178.396 104.023C178.66 106.482 183.902 107.937 190.104 107.273Z" fill="#65939E"/>
<path d="M187.143 109.007C184.726 109.007 182.553 108.516 181.026 107.623C179.553 106.762 178.766 105.606 178.753 104.28H178.746V72.3208L178.747 72.3205L178.753 72.0036C178.743 70.1579 180.212 68.2377 182.781 66.7359C185.402 65.2046 188.801 64.3262 192.107 64.3262C194.525 64.3262 196.697 64.8176 198.224 65.7101C198.843 66.0718 199.343 66.4888 199.715 66.9496L199.585 67.0494C199.699 67.2028 199.8 67.3464 199.893 67.4886L200.031 67.4024C200.257 67.7823 200.403 68.1867 200.466 68.6095L200.465 68.6121L200.474 68.6924C200.496 68.8676 200.503 69.0445 200.496 69.2188L200.493 69.3118L200.504 69.3322V101.426H200.497C200.454 103.241 198.986 105.126 196.469 106.597C193.848 108.129 190.449 109.007 187.143 109.007Z" fill="url(#paint13_linear_2_3038)"/>
<path d="M192.107 64.6774C194.463 64.6774 196.572 65.1517 198.046 66.0131C198.623 66.3499 199.087 66.7358 199.432 67.1593L199.303 67.2588C199.412 67.4055 199.508 67.5432 199.597 67.6798L199.735 67.5941C199.927 67.9204 200.053 68.265 200.111 68.6234L200.125 68.7342C200.144 68.8914 200.15 69.0497 200.144 69.2046L200.137 69.392L200.151 69.4189V101.248H200.144L200.144 101.426C200.1 103.114 198.696 104.888 196.291 106.293C193.722 107.794 190.388 108.655 187.143 108.655C184.787 108.655 182.677 108.181 181.203 107.319C179.842 106.524 179.117 105.472 179.105 104.277H179.097V72.6324L179.108 72.6312L179.104 72.0015C179.096 70.3098 180.536 68.4547 182.959 67.0391C185.527 65.5383 188.861 64.6776 192.106 64.6774H192.107ZM192.107 63.9746C192.107 63.9746 192.107 63.9746 192.107 63.9746C188.883 63.9748 185.368 64.8165 182.603 66.4326C179.828 68.0541 178.391 70.116 178.401 72.0053L178.394 72.0062V104.867L178.401 104.284C178.415 105.675 179.213 106.971 180.848 107.926C182.497 108.89 184.739 109.358 187.143 109.358C190.367 109.358 193.881 108.516 196.647 106.9C199.369 105.309 200.805 103.294 200.848 101.434L200.848 101.247C200.85 101.309 200.85 101.371 200.848 101.434L200.855 105.322V69.2491C200.852 69.2434 200.851 69.2376 200.848 69.232C200.856 69.0359 200.847 68.8417 200.824 68.6496C200.841 68.6014 200.855 68.5707 200.855 68.5707H200.815C200.642 67.3631 199.848 66.2518 198.402 65.4066C196.753 64.4426 194.511 63.9746 192.107 63.9746ZM200.188 67.2966C200.096 67.1562 199.992 67.0054 199.868 66.8395C199.987 66.9876 200.094 67.1398 200.188 67.2966Z" fill="#FDFEFE"/>
<g opacity="0.5">
<path opacity="0.5" d="M191.591 104.329C191.591 103.91 191.246 103.59 190.822 103.59C190.397 103.59 190.053 103.93 190.053 104.349C190.053 104.768 190.397 105.107 190.822 105.107C191.246 105.107 191.591 104.748 191.591 104.329Z" fill="white"/>
</g>
<g opacity="0.5">
<path opacity="0.5" d="M189.21 100.603C189.21 100.032 188.741 99.5952 188.161 99.5952C187.582 99.5952 187.112 100.059 187.112 100.63C187.112 101.201 187.582 101.665 188.161 101.665C188.741 101.665 189.21 101.175 189.21 100.603Z" fill="white"/>
</g>
<g opacity="0.5">
<path opacity="0.5" d="M191.59 95.7762C191.59 94.9386 190.902 94.2983 190.053 94.2983C189.204 94.2983 188.516 94.9774 188.516 95.8151C188.516 96.6528 189.204 97.3319 190.053 97.3319C190.902 97.3319 191.59 96.6142 191.59 95.7762Z" fill="white"/>
</g>
<path d="M185.953 91.0374H183.737C183.262 91.0374 182.872 90.6488 182.872 90.1735C182.872 89.6984 183.261 89.3096 183.737 89.3096H185.953C186.429 89.3096 186.818 89.6982 186.818 90.1735C186.818 90.6488 186.429 91.0374 185.953 91.0374Z" fill="white"/>
<path d="M193.708 91.0374H191.493C191.017 91.0374 190.627 90.6488 190.627 90.1735C190.627 89.6984 191.017 89.3096 191.493 89.3096H193.708C194.184 89.3096 194.574 89.6982 194.574 90.1735C194.574 90.6488 194.184 91.0374 193.708 91.0374Z" fill="white"/>
<path d="M334 79.0067V131.906C334 134.907 332.396 137.682 329.792 139.183L282.996 166.156C281.466 167.036 279.76 167.479 278.053 167.479C276.347 167.479 274.641 167.037 273.112 166.156L211.937 130.893V73.1431L278.053 109.013L334 79.0067Z" fill="#CDE9F9"/>
<path d="M262.796 155.728L262.795 109.63L217.022 81.939V129.343L262.796 155.728Z" fill="url(#paint14_linear_2_3038)"/>
<path d="M135.646 211.098L262.796 137.64V131.777L140.079 202.512C140.079 202.512 136.258 204.083 135.15 205.765C134.042 207.446 135.646 211.098 135.646 211.098Z" fill="#AECFDC"/>
<path d="M262.796 131.776L138.428 203.463C136.706 204.456 135.646 206.29 135.646 208.275V233.496C135.646 235.923 133.014 237.439 130.909 236.226L96.5368 216.413C95.5599 215.85 94.958 214.809 94.958 213.683V175.751L135.646 199.204L262.796 125.913V131.776Z" fill="#3C7FBE"/>
<path d="M262.795 109.63V125.914L255.422 130.166H255.42L255.221 130.28L245.499 135.885L245.301 135.997L238.841 139.721L238.643 139.836L231.694 143.841L231.498 143.955L222.122 149.358L221.924 149.472L212.199 155.077L212.001 155.191L205.366 159.016L205.17 159.13L198.221 163.133L198.025 163.247L188.649 168.652L188.451 168.766L178.726 174.371L178.528 174.485L172.069 178.208L171.871 178.322L164.924 182.327L164.726 182.441L155.352 187.844L155.152 187.958L145.429 193.563L145.231 193.678L138.172 197.746L137.976 197.86L135.645 199.203C135.645 199.203 134.835 200.733 133.986 202.936C133.959 202.999 133.935 203.064 133.91 203.129C133.194 205.01 132.463 207.349 132.178 209.635C132.168 209.708 132.159 209.783 132.151 209.859C132.104 210.274 132.073 210.688 132.059 211.098C132.033 211.855 131.208 212.314 130.551 211.935L97.4684 190.396C95.9133 189.497 94.958 187.839 94.958 186.046V175.751L99.8928 172.907L100.091 172.793L107.15 168.724L107.348 168.61L117.071 163.005L117.269 162.891L126.645 157.488L126.841 157.374L133.79 153.368L133.988 153.254L140.446 149.532L140.645 149.418L150.37 143.811L150.566 143.699L159.942 138.294L160.14 138.18L167.087 134.176L167.285 134.06L173.92 130.238L174.116 130.124L183.841 124.519L184.039 124.405L193.415 119L193.611 118.886H193.613L200.56 114.88H200.562L200.758 114.768L207.218 111.044L207.416 110.93L217.141 105.325L217.339 105.211L226.712 99.8074L226.91 99.6934L233.858 95.6879L234.056 95.5738L236.875 93.9497L262.795 109.63Z" fill="#E7F6FD"/>
<path d="M173.92 130.237L212.002 155.191L212.199 155.077L174.116 130.123L173.92 130.237Z" fill="#AECFDC"/>
<path d="M183.841 124.518L221.924 149.472L222.122 149.358L184.039 124.404L183.841 124.518Z" fill="#AECFDC"/>
<path d="M193.611 118.885L193.415 118.999L231.498 143.955L231.694 143.841L193.613 118.885H193.611Z" fill="#AECFDC"/>
<path d="M200.562 114.879L238.841 139.721L200.758 114.767L200.562 114.879Z" fill="#AECFDC"/>
<path d="M207.218 111.043L245.301 135.997L245.499 135.885L207.416 110.929L207.218 111.043Z" fill="#AECFDC"/>
<path d="M217.338 105.209L217.141 105.324L255.222 130.28L255.421 130.165H255.42L217.338 105.209Z" fill="#AECFDC"/>
<path d="M226.712 99.8065L262.795 123.45V123.206L226.91 99.6924L226.712 99.8065Z" fill="#AECFDC"/>
<path d="M234.055 95.5728L233.857 95.6868L262.795 114.651V114.406L234.055 95.5728Z" fill="#AECFDC"/>
<path d="M107.151 168.723L145.232 193.678L145.43 193.564L107.349 168.609L107.151 168.723Z" fill="#AECFDC"/>
<path d="M99.8936 172.906L137.976 197.86L138.172 197.746L100.091 172.792L99.8936 172.906Z" fill="#AECFDC"/>
<path d="M94.9585 177.604L133.911 203.129L133.986 202.935L94.9585 177.36V177.604Z" fill="#AECFDC"/>
<path d="M94.9585 185.487L132.152 209.859L132.178 209.634L94.9585 185.243V185.487Z" fill="#AECFDC"/>
<path d="M117.071 163.005L155.152 187.959L155.352 187.844L117.269 162.891L117.071 163.005Z" fill="#AECFDC"/>
<path d="M126.646 157.487L164.726 182.441L164.924 182.327L126.841 157.373L126.646 157.487Z" fill="#AECFDC"/>
<path d="M133.791 153.367L171.872 178.322L172.07 178.208L133.989 153.253L133.791 153.367Z" fill="#AECFDC"/>
<path d="M140.446 149.531L178.529 174.485L178.727 174.371L140.646 149.417L140.446 149.531Z" fill="#AECFDC"/>
<path d="M150.371 143.81L188.451 168.766L188.649 168.652L150.567 143.698L150.371 143.81Z" fill="#AECFDC"/>
<path d="M159.942 138.293L198.025 163.247L198.221 163.133L160.14 138.179L159.942 138.293Z" fill="#AECFDC"/>
<path d="M167.087 134.175L205.17 159.129L205.366 159.015L167.285 134.059L167.087 134.175Z" fill="#AECFDC"/>
<path d="M334 79.0068V131.906C334 134.907 332.396 137.682 329.792 139.183L282.996 166.156C281.466 167.037 279.759 167.479 278.053 167.479V109.014L334 79.0068Z" fill="#AECFDC"/>
<path d="M232.28 84.8704L271.276 107.348C275.47 109.766 280.638 109.766 284.832 107.348L334 79.0073L279.728 47.7241C272.398 43.4989 263.366 43.4989 256.036 47.7241L211.936 73.1439L232.28 84.8704Z" fill="#3C7FBE"/>
<path d="M232.28 65.4197L271.276 87.8975C275.47 90.315 280.638 90.315 284.832 87.8975L334 59.5566L279.728 28.2734C272.398 24.0482 263.366 24.0482 256.036 28.2734L211.936 53.6932L232.28 65.4197Z" fill="url(#paint15_linear_2_3038)"/>
<path d="M232.28 75.6351L271.276 98.1129C275.47 100.53 280.638 100.53 284.832 98.1129L334 69.7719L279.728 38.4887C272.398 34.2635 263.366 34.2635 256.036 38.4887L211.936 63.9085L232.28 75.6351Z" fill="url(#paint16_linear_2_3038)"/>
<g opacity="0.44">
<path opacity="0.44" d="M144.441 186.319C157.84 186.319 168.703 179.853 168.703 171.877C168.703 163.901 157.84 157.436 144.441 157.436C131.042 157.436 120.18 163.901 120.18 171.877C120.18 179.853 131.042 186.319 144.441 186.319Z" fill="#AECFDC"/>
</g>
<path d="M143.998 149.957L127.787 159.301C126.542 160.019 125.775 161.344 125.775 162.779V170.029C125.775 171.377 126.453 172.634 127.579 173.378L143.718 184.036C144.985 184.873 146.616 184.926 147.934 184.173L164.437 174.753C165.69 174.038 166.463 172.708 166.463 171.267V163.95C166.463 162.581 165.765 161.307 164.611 160.569L148.181 150.054C146.915 149.243 145.301 149.206 143.998 149.957Z" fill="#3C7FBE"/>
<path d="M143.998 149.957L127.787 159.301C126.542 160.019 125.775 161.344 125.775 162.779V170.029C125.775 171.377 126.453 172.634 127.579 173.378L143.718 184.036C144.985 184.873 146.616 184.926 147.934 184.173L164.437 174.753C165.69 174.038 166.463 172.708 166.463 171.267V163.95C166.463 162.581 165.765 161.307 164.611 160.569L148.181 150.054C146.915 149.243 145.301 149.206 143.998 149.957Z" fill="url(#paint17_linear_2_3038)"/>
<path d="M130.248 158.867L145.072 150.322C145.716 149.952 146.512 149.97 147.137 150.37L162.069 159.926C163.326 160.731 163.278 162.581 161.98 163.318L147.156 171.743C146.518 172.105 145.732 172.087 145.112 171.695L130.179 162.259C128.917 161.462 128.955 159.613 130.248 158.867Z" fill="white"/>
<path d="M131.067 158.912L145.116 150.886C145.725 150.538 146.48 150.555 147.072 150.931L161.223 159.907C162.414 160.662 162.368 162.4 161.139 163.092L147.09 171.005C146.486 171.345 145.741 171.328 145.153 170.96L131.002 162.098C129.806 161.349 129.842 159.612 131.067 158.912Z" fill="url(#paint18_linear_2_3038)"/>
<path d="M135.207 164.731L146.119 158.366L156.918 165.469L161.138 163.092C161.138 163.092 162.823 162.325 162.631 161.426C162.44 160.527 162.44 160.527 162.44 160.527L146.715 150.371C146.715 150.371 146.537 149.858 143.85 151.359C141.163 152.86 130.259 159.166 130.259 159.166C130.259 159.166 128.962 160.476 130.259 161.928C131.556 163.381 135.207 164.731 135.207 164.731Z" fill="url(#paint19_linear_2_3038)"/>
<path d="M154.145 161.226C154.145 156.942 150.624 153.669 146.282 153.669C141.94 153.669 138.419 157.142 138.419 161.426C138.419 165.71 141.94 169.183 146.282 169.183C150.625 169.183 154.145 165.51 154.145 161.226Z" fill="url(#paint20_linear_2_3038)"/>
<path d="M150.123 164.251C150.119 164.246 150.116 164.243 150.116 164.243L148.643 161.059C148.643 160.857 147.57 160.693 146.246 160.693C144.923 160.693 143.85 160.857 143.85 161.059L142.123 164.22C142.076 164.26 142.052 164.301 142.052 164.344C142.052 164.707 143.868 165.002 146.108 165.002C148.348 165.002 150.164 164.707 150.164 164.344C150.163 164.312 150.149 164.281 150.123 164.251Z" fill="white"/>
<path d="M150.117 164.244C149.817 163.6 148.166 160.06 147.976 159.56C147.821 159.154 147.792 158.876 147.788 158.759V156.569H147.787C147.787 156.565 147.788 156.561 147.788 156.557C147.788 156.395 147.114 156.264 146.282 156.264C145.451 156.264 144.777 156.396 144.777 156.557C144.777 156.561 144.777 156.565 144.778 156.569H144.777V158.696H144.775C144.651 159.786 142.54 163.497 142.123 164.221C142.077 164.261 142.052 164.302 142.052 164.344C142.052 164.708 143.868 165.003 146.108 165.003C148.348 165.003 150.164 164.708 150.164 164.344C150.164 164.31 150.148 164.276 150.117 164.244Z" fill="white"/>
<path d="M146.282 156.85C147.113 156.85 147.787 156.718 147.787 156.556C147.787 156.394 147.113 156.263 146.282 156.263C145.45 156.263 144.776 156.394 144.776 156.556C144.776 156.718 145.45 156.85 146.282 156.85Z" fill="white"/>
<path d="M146.246 161.426C147.569 161.426 148.642 161.262 148.642 161.059C148.642 160.857 147.569 160.693 146.246 160.693C144.922 160.693 143.85 160.857 143.85 161.059C143.85 161.262 144.922 161.426 146.246 161.426Z" fill="white"/>
<path d="M146.107 165.002C148.347 165.002 150.163 164.707 150.163 164.344C150.163 163.98 148.347 163.685 146.107 163.685C143.867 163.685 142.051 163.98 142.051 164.344C142.051 164.707 143.867 165.002 146.107 165.002Z" fill="white"/>
<path d="M154.145 161.226C154.145 156.942 150.624 153.669 146.282 153.669C141.94 153.669 138.419 157.142 138.419 161.426C138.419 165.71 141.94 169.183 146.282 169.183C150.625 169.183 154.145 165.51 154.145 161.226Z" fill="url(#paint21_linear_2_3038)"/>
<g opacity="0.44">
<path opacity="0.44" d="M190.031 159.385C203.43 159.385 214.292 152.919 214.292 144.943C214.292 136.968 203.43 130.502 190.031 130.502C176.631 130.502 165.769 136.968 165.769 144.943C165.769 152.919 176.631 159.385 190.031 159.385Z" fill="#AECFDC"/>
</g>
<path d="M188.207 123.831L171.995 133.176C170.751 133.893 169.984 135.219 169.984 136.654V143.903C169.984 145.251 170.661 146.509 171.787 147.253L187.927 157.911C189.194 158.747 190.824 158.8 192.143 158.048L208.646 148.628C209.899 147.913 210.672 146.583 210.672 145.142V137.824C210.672 136.456 209.974 135.182 208.82 134.443L192.39 123.928C191.123 123.118 189.51 123.08 188.207 123.831Z" fill="#3C7FBE"/>
<path d="M189.588 123.023L173.376 132.368C172.131 133.085 171.365 134.411 171.365 135.845V143.095C171.365 144.443 172.042 145.701 173.168 146.445L189.307 157.103C190.574 157.939 192.205 157.992 193.524 157.239L210.027 147.82C211.279 147.105 212.053 145.774 212.053 144.333V137.016C212.053 135.648 211.355 134.374 210.201 133.635L193.771 123.12C192.504 122.309 190.89 122.272 189.588 123.023Z" fill="url(#paint22_linear_2_3038)"/>
<path d="M174.456 132.742L189.281 124.197C189.924 123.826 190.72 123.844 191.346 124.245L206.278 133.801C207.535 134.605 207.486 136.455 206.188 137.193L191.365 145.617C190.726 145.98 189.94 145.961 189.32 145.569L174.387 136.134C173.126 135.337 173.163 133.487 174.456 132.742Z" fill="white"/>
<path d="M175.275 132.786L189.324 124.76C189.934 124.412 190.689 124.429 191.281 124.805L205.432 133.781C206.623 134.536 206.577 136.274 205.347 136.966L191.299 144.879C190.694 145.219 189.949 145.202 189.361 144.834L175.21 135.972C174.014 135.223 174.05 133.486 175.275 132.786Z" fill="url(#paint23_linear_2_3038)"/>
<path d="M179.415 138.606L190.327 132.24L201.127 139.343L205.347 136.966C205.347 136.966 207.031 136.2 206.84 135.3C206.649 134.401 206.649 134.401 206.649 134.401L190.924 124.246C190.924 124.246 190.745 123.733 188.058 125.234C185.372 126.735 174.467 133.04 174.467 133.04C174.467 133.04 173.171 134.35 174.467 135.803C175.764 137.255 179.415 138.606 179.415 138.606Z" fill="url(#paint24_linear_2_3038)"/>
<path d="M198.353 135.1C198.353 130.816 194.833 127.543 190.491 127.543C186.148 127.543 182.628 131.016 182.628 135.3C182.628 139.584 186.148 143.057 190.491 143.057C194.833 143.057 198.353 139.384 198.353 135.1Z" fill="url(#paint25_linear_2_3038)"/>
<path d="M194.332 138.125C194.328 138.12 194.325 138.118 194.325 138.118L192.851 134.934C192.851 134.732 191.779 134.567 190.455 134.567C189.132 134.567 188.059 134.732 188.059 134.934L186.332 138.095C186.285 138.135 186.261 138.176 186.261 138.218C186.261 138.582 188.077 138.876 190.317 138.876C192.557 138.876 194.373 138.582 194.373 138.218C194.372 138.186 194.358 138.155 194.332 138.125Z" fill="white"/>
<path d="M194.325 138.118C194.025 137.474 192.374 133.935 192.184 133.435C192.029 133.028 192 132.75 191.996 132.633V130.443H191.995C191.995 130.439 191.996 130.436 191.996 130.432C191.996 130.27 191.322 130.139 190.49 130.139C189.659 130.139 188.985 130.27 188.985 130.432C188.985 130.436 188.985 130.439 188.986 130.443H188.985V132.57H188.983C188.859 133.66 186.748 137.371 186.331 138.096C186.285 138.135 186.26 138.177 186.26 138.219C186.26 138.582 188.076 138.877 190.316 138.877C192.556 138.877 194.372 138.583 194.372 138.219C194.372 138.184 194.356 138.151 194.325 138.118Z" fill="white"/>
<path d="M190.491 130.724C191.322 130.724 191.996 130.593 191.996 130.431C191.996 130.269 191.322 130.138 190.491 130.138C189.659 130.138 188.985 130.269 188.985 130.431C188.985 130.593 189.659 130.724 190.491 130.724Z" fill="white"/>
<path d="M190.455 135.301C191.778 135.301 192.851 135.136 192.851 134.934C192.851 134.732 191.778 134.567 190.455 134.567C189.131 134.567 188.059 134.732 188.059 134.934C188.059 135.136 189.131 135.301 190.455 135.301Z" fill="white"/>
<path d="M190.316 138.876C192.556 138.876 194.372 138.581 194.372 138.218C194.372 137.854 192.556 137.559 190.316 137.559C188.076 137.559 186.26 137.854 186.26 138.218C186.26 138.581 188.076 138.876 190.316 138.876Z" fill="white"/>
<path d="M198.353 135.1C198.353 130.816 194.833 127.543 190.491 127.543C186.148 127.543 182.628 131.016 182.628 135.3C182.628 139.584 186.148 143.057 190.491 143.057C194.833 143.057 198.353 139.384 198.353 135.1Z" fill="url(#paint26_linear_2_3038)"/>
<g opacity="0.44">
<path opacity="0.44" d="M234.933 133.101C248.332 133.101 259.194 126.636 259.194 118.66C259.194 110.684 248.332 104.218 234.933 104.218C221.534 104.218 210.671 110.684 210.671 118.66C210.671 126.636 221.534 133.101 234.933 133.101Z" fill="#AECFDC"/>
</g>
<path d="M234.49 96.7393L218.279 106.084C217.034 106.801 216.268 108.127 216.268 109.562V116.811C216.268 118.159 216.945 119.417 218.071 120.161L234.21 130.819C235.477 131.656 237.108 131.708 238.427 130.956L254.929 121.536C256.182 120.821 256.955 119.491 256.955 118.05V110.732C256.955 109.364 256.258 108.09 255.104 107.351L238.673 96.8365C237.407 96.0258 235.793 95.9883 234.49 96.7393Z" fill="#3C7FBE"/>
<path d="M234.49 96.7393L218.279 106.084C217.034 106.801 216.268 108.127 216.268 109.562V116.811C216.268 118.159 216.945 119.417 218.071 120.161L234.21 130.819C235.477 131.656 237.108 131.708 238.427 130.956L254.929 121.536C256.182 120.821 256.955 119.491 256.955 118.05V110.732C256.955 109.364 256.258 108.09 255.104 107.351L238.673 96.8365C237.407 96.0258 235.793 95.9883 234.49 96.7393Z" fill="url(#paint27_linear_2_3038)"/>
<path d="M220.739 105.65L235.564 97.1045C236.207 96.7339 237.004 96.7522 237.629 97.1523L252.561 106.708C253.818 107.513 253.769 109.363 252.472 110.1L237.648 118.525C237.01 118.888 236.223 118.869 235.603 118.477L220.67 109.041C219.409 108.244 219.447 106.395 220.739 105.65Z" fill="white"/>
<path d="M221.559 105.694L235.607 97.6684C236.217 97.3203 236.972 97.3376 237.564 97.7134L251.715 106.689C252.906 107.445 252.86 109.182 251.63 109.874L237.582 117.787C236.978 118.128 236.233 118.11 235.645 117.742L221.493 108.88C220.298 108.131 220.333 106.394 221.559 105.694Z" fill="url(#paint28_linear_2_3038)"/>
<path d="M225.699 111.513L236.611 105.148L247.41 112.251L251.63 109.874C251.63 109.874 253.315 109.107 253.124 108.208C252.932 107.309 252.932 107.309 252.932 107.309L237.207 97.1533C237.207 97.1533 237.029 96.6407 234.342 98.1416C231.655 99.6424 220.751 105.948 220.751 105.948C220.751 105.948 219.455 107.258 220.751 108.71C222.047 110.163 225.699 111.513 225.699 111.513Z" fill="url(#paint29_linear_2_3038)"/>
<path d="M244.636 108.009C244.636 103.725 241.116 100.451 236.774 100.451C232.431 100.451 228.911 103.924 228.911 108.208C228.911 112.492 232.431 115.965 236.774 115.965C241.116 115.965 244.636 112.293 244.636 108.009Z" fill="url(#paint30_linear_2_3038)"/>
<path d="M240.615 111.033C240.612 111.028 240.609 111.026 240.609 111.026L239.135 107.842C239.135 107.64 238.062 107.476 236.738 107.476C235.415 107.476 234.342 107.64 234.342 107.842L232.615 111.003C232.569 111.043 232.544 111.084 232.544 111.126C232.544 111.49 234.36 111.785 236.6 111.785C238.84 111.785 240.656 111.49 240.656 111.126C240.656 111.095 240.641 111.064 240.615 111.033Z" fill="white"/>
<path d="M240.609 111.026C240.309 110.383 238.658 106.843 238.468 106.343C238.313 105.936 238.285 105.659 238.28 105.541V103.351H238.279C238.28 103.348 238.28 103.344 238.28 103.34C238.28 103.178 237.606 103.047 236.775 103.047C235.943 103.047 235.269 103.178 235.269 103.34C235.269 103.344 235.269 103.348 235.27 103.351H235.269V105.479H235.267C235.143 106.569 233.032 110.28 232.616 111.004C232.569 111.044 232.544 111.085 232.544 111.127C232.544 111.491 234.36 111.785 236.6 111.785C238.84 111.785 240.656 111.491 240.656 111.127C240.656 111.093 240.64 111.059 240.609 111.026Z" fill="white"/>
<path d="M236.774 103.632C237.605 103.632 238.28 103.501 238.28 103.339C238.28 103.177 237.605 103.046 236.774 103.046C235.942 103.046 235.268 103.177 235.268 103.339C235.268 103.501 235.942 103.632 236.774 103.632Z" fill="white"/>
<path d="M236.738 108.209C238.062 108.209 239.134 108.045 239.134 107.842C239.134 107.64 238.062 107.476 236.738 107.476C235.415 107.476 234.342 107.64 234.342 107.842C234.342 108.045 235.415 108.209 236.738 108.209Z" fill="white"/>
<path d="M236.599 111.784C238.84 111.784 240.655 111.489 240.655 111.126C240.655 110.762 238.84 110.467 236.599 110.467C234.359 110.467 232.543 110.762 232.543 111.126C232.543 111.489 234.359 111.784 236.599 111.784Z" fill="white"/>
<path d="M244.636 108.009C244.636 103.725 241.116 100.451 236.774 100.451C232.431 100.451 228.911 103.924 228.911 108.208C228.911 112.492 232.431 115.965 236.774 115.965C241.116 115.965 244.636 112.293 244.636 108.009Z" fill="url(#paint31_linear_2_3038)"/>
</g>
<defs>
<filter id="filter0_d_2_3038" x="-4" y="0" width="342" height="264" filterUnits="userSpaceOnUse" color-interpolation-filters="sRGB">
<feFlood flood-opacity="0" result="BackgroundImageFix"/>
<feColorMatrix in="SourceAlpha" type="matrix" values="0 0 0 0 0 0 0 0 0 0 0 0 0 0 0 0 0 0 127 0" result="hardAlpha"/>
<feOffset dy="4"/>
<feGaussianBlur stdDeviation="2"/>
<feComposite in2="hardAlpha" operator="out"/>
<feColorMatrix type="matrix" values="0 0 0 0 0 0 0 0 0 0 0 0 0 0 0 0 0 0 0.25 0"/>
<feBlend mode="normal" in2="BackgroundImageFix" result="effect1_dropShadow_2_3038"/>
<feBlend mode="normal" in="SourceGraphic" in2="effect1_dropShadow_2_3038" result="shape"/>
</filter>
<linearGradient id="paint0_linear_2_3038" x1="135.646" y1="185.256" x2="260.921" y2="185.256" gradientUnits="userSpaceOnUse">
<stop stop-color="#6B385F"/>
<stop offset="0.4197" stop-color="#6F3B62" stop-opacity="0.7323"/>
<stop offset="0.5218" stop-color="#764268" stop-opacity="0.6035"/>
<stop offset="0.6937" stop-color="#8C567A" stop-opacity="0.3865"/>
<stop offset="0.9131" stop-color="#B5799B" stop-opacity="0.1096"/>
<stop offset="1" stop-color="#CC8DAE" stop-opacity="0"/>
</linearGradient>
<linearGradient id="paint1_linear_2_3038" x1="124.501" y1="137.41" x2="133.64" y2="137.41" gradientUnits="userSpaceOnUse">
<stop stop-color="#6B385F"/>
<stop offset="0.4197" stop-color="#6F3B62" stop-opacity="0.7323"/>
<stop offset="0.5218" stop-color="#764268" stop-opacity="0.6035"/>
<stop offset="0.6937" stop-color="#8C567A" stop-opacity="0.3865"/>
<stop offset="0.9131" stop-color="#B5799B" stop-opacity="0.1096"/>
<stop offset="1" stop-color="#CC8DAE" stop-opacity="0"/>
</linearGradient>
<linearGradient id="paint2_linear_2_3038" x1="127.836" y1="124.671" x2="152.613" y2="124.671" gradientUnits="userSpaceOnUse">
<stop offset="0.2595" stop-color="#6B385F"/>
<stop offset="0.6487" stop-color="#6F3B62" stop-opacity="0.7323"/>
<stop offset="0.7105" stop-color="#764268" stop-opacity="0.6035"/>
<stop offset="0.8146" stop-color="#8C567A" stop-opacity="0.3865"/>
<stop offset="0.9474" stop-color="#B5799B" stop-opacity="0.1096"/>
<stop offset="1" stop-color="#CC8DAE" stop-opacity="0"/>
</linearGradient>
<linearGradient id="paint3_linear_2_3038" x1="159.026" y1="98.1954" x2="162.982" y2="98.1954" gradientUnits="userSpaceOnUse">
<stop stop-color="#6B385F"/>
<stop offset="0.4197" stop-color="#6F3B62" stop-opacity="0.7323"/>
<stop offset="0.5218" stop-color="#764268" stop-opacity="0.6035"/>
<stop offset="0.6937" stop-color="#8C567A" stop-opacity="0.3865"/>
<stop offset="0.9131" stop-color="#B5799B" stop-opacity="0.1096"/>
<stop offset="1" stop-color="#CC8DAE" stop-opacity="0"/>
</linearGradient>
<linearGradient id="paint4_linear_2_3038" x1="136.356" y1="130.676" x2="174.482" y2="130.676" gradientUnits="userSpaceOnUse">
<stop offset="0.1342" stop-color="#1D4989"/>
<stop offset="0.9351" stop-color="white" stop-opacity="0"/>
</linearGradient>
<linearGradient id="paint5_linear_2_3038" x1="148.8" y1="119.541" x2="173.829" y2="119.541" gradientUnits="userSpaceOnUse">
<stop offset="0.3423" stop-color="#1D4989"/>
<stop offset="0.9818" stop-color="#2575AE" stop-opacity="0.4681"/>
<stop offset="1" stop-color="#29ABE2" stop-opacity="0"/>
</linearGradient>
<linearGradient id="paint6_linear_2_3038" x1="138.93" y1="133.533" x2="160.22" y2="133.533" gradientUnits="userSpaceOnUse">
<stop offset="0.3423" stop-color="#1D4989"/>
<stop offset="1" stop-color="#29ABE2" stop-opacity="0"/>
</linearGradient>
<linearGradient id="paint7_linear_2_3038" x1="140.161" y1="111.54" x2="158.981" y2="111.54" gradientUnits="userSpaceOnUse">
<stop offset="0.3423" stop-color="#1D4989"/>
<stop offset="1" stop-color="#29ABE2" stop-opacity="0"/>
</linearGradient>
<linearGradient id="paint8_linear_2_3038" x1="123.65" y1="139.571" x2="136.802" y2="139.571" gradientUnits="userSpaceOnUse">
<stop offset="0.0607" stop-color="#28A8E0"/>
<stop offset="0.9984" stop-color="#29ABE2" stop-opacity="0"/>
</linearGradient>
<linearGradient id="paint9_linear_2_3038" x1="63.0487" y1="126.882" x2="101.61" y2="126.882" gradientUnits="userSpaceOnUse">
<stop offset="0.0607" stop-color="#28A8E0"/>
<stop offset="0.9984" stop-color="#29ABE2" stop-opacity="0"/>
</linearGradient>
<linearGradient id="paint10_linear_2_3038" x1="65.2862" y1="130.354" x2="81.6055" y2="130.354" gradientUnits="userSpaceOnUse">
<stop offset="0.4247" stop-color="white"/>
<stop offset="1" stop-color="#2484C6" stop-opacity="0"/>
</linearGradient>
<linearGradient id="paint11_linear_2_3038" x1="63.6816" y1="152.825" x2="72.9247" y2="152.825" gradientUnits="userSpaceOnUse">
<stop stop-color="#6B385F"/>
<stop offset="0.4197" stop-color="#6F3B62" stop-opacity="0.7323"/>
<stop offset="0.5218" stop-color="#764268" stop-opacity="0.6035"/>
<stop offset="0.6937" stop-color="#8C567A" stop-opacity="0.3865"/>
<stop offset="0.9131" stop-color="#B5799B" stop-opacity="0.1096"/>
<stop offset="1" stop-color="#CC8DAE" stop-opacity="0"/>
</linearGradient>
<linearGradient id="paint12_linear_2_3038" x1="98.3731" y1="158.205" x2="111.525" y2="158.205" gradientUnits="userSpaceOnUse">
<stop offset="0.0607" stop-color="#28A8E0"/>
<stop offset="0.9984" stop-color="#29ABE2" stop-opacity="0"/>
</linearGradient>
<linearGradient id="paint13_linear_2_3038" x1="178.746" y1="86.6665" x2="200.503" y2="86.6665" gradientUnits="userSpaceOnUse">
<stop offset="0.0607" stop-color="#28A8E0"/>
<stop offset="0.9984" stop-color="#29ABE2" stop-opacity="0"/>
</linearGradient>
<linearGradient id="paint14_linear_2_3038" x1="217.022" y1="118.833" x2="262.796" y2="118.833" gradientUnits="userSpaceOnUse">
<stop stop-color="#29ABE2" stop-opacity="0"/>
<stop offset="0.2747" stop-color="#20439C" stop-opacity="0.8757"/>
<stop offset="0.7514" stop-color="#21409A"/>
</linearGradient>
<linearGradient id="paint15_linear_2_3038" x1="211.936" y1="57.4075" x2="334" y2="57.4075" gradientUnits="userSpaceOnUse">
<stop offset="0.0607" stop-color="#28A8E0"/>
<stop offset="0.9984" stop-color="#29ABE2" stop-opacity="0"/>
</linearGradient>
<linearGradient id="paint16_linear_2_3038" x1="211.936" y1="67.6229" x2="334" y2="67.6229" gradientUnits="userSpaceOnUse">
<stop offset="0.0607" stop-color="#28A8E0"/>
<stop offset="0.9984" stop-color="#29ABE2" stop-opacity="0"/>
</linearGradient>
<linearGradient id="paint17_linear_2_3038" x1="125.775" y1="167.061" x2="166.463" y2="167.061" gradientUnits="userSpaceOnUse">
<stop offset="0.3062" stop-color="#29ABE2" stop-opacity="0"/>
<stop offset="0.6875" stop-color="#28A8E0" stop-opacity="0.8614"/>
<stop offset="0.9037" stop-color="#28A8E0"/>
</linearGradient>
<linearGradient id="paint18_linear_2_3038" x1="130.126" y1="160.943" x2="162.089" y2="160.943" gradientUnits="userSpaceOnUse">
<stop stop-color="white"/>
<stop offset="0.9052" stop-color="#2484C6" stop-opacity="0"/>
</linearGradient>
<linearGradient id="paint19_linear_2_3038" x1="129.683" y1="157.878" x2="162.647" y2="157.878" gradientUnits="userSpaceOnUse">
<stop offset="0.3423" stop-color="#1D4989"/>
<stop offset="1" stop-color="#29ABE2" stop-opacity="0"/>
</linearGradient>
<linearGradient id="paint20_linear_2_3038" x1="138.419" y1="161.426" x2="154.145" y2="161.426" gradientUnits="userSpaceOnUse">
<stop stop-color="#BD8AAE"/>
<stop offset="1" stop-color="#2484C6" stop-opacity="0"/>
</linearGradient>
<linearGradient id="paint21_linear_2_3038" x1="138.419" y1="161.426" x2="154.145" y2="161.426" gradientUnits="userSpaceOnUse">
<stop offset="0.3062" stop-color="#29ABE2" stop-opacity="0"/>
<stop offset="0.6875" stop-color="#28A8E0" stop-opacity="0.8614"/>
<stop offset="0.9037" stop-color="#28A8E0"/>
</linearGradient>
<linearGradient id="paint22_linear_2_3038" x1="171.365" y1="140.127" x2="212.053" y2="140.127" gradientUnits="userSpaceOnUse">
<stop offset="0.3062" stop-color="#29ABE2" stop-opacity="0"/>
<stop offset="0.6875" stop-color="#28A8E0" stop-opacity="0.8614"/>
<stop offset="0.9037" stop-color="#28A8E0"/>
</linearGradient>
<linearGradient id="paint23_linear_2_3038" x1="174.334" y1="134.817" x2="206.298" y2="134.817" gradientUnits="userSpaceOnUse">
<stop stop-color="white"/>
<stop offset="0.9052" stop-color="#2484C6" stop-opacity="0"/>
</linearGradient>
<linearGradient id="paint24_linear_2_3038" x1="173.891" y1="131.752" x2="206.855" y2="131.752" gradientUnits="userSpaceOnUse">
<stop offset="0.3423" stop-color="#1D4989"/>
<stop offset="1" stop-color="#29ABE2" stop-opacity="0"/>
</linearGradient>
<linearGradient id="paint25_linear_2_3038" x1="182.628" y1="135.3" x2="198.353" y2="135.3" gradientUnits="userSpaceOnUse">
<stop stop-color="#BD8AAE"/>
<stop offset="1" stop-color="#2484C6" stop-opacity="0"/>
</linearGradient>
<linearGradient id="paint26_linear_2_3038" x1="182.628" y1="135.3" x2="198.353" y2="135.3" gradientUnits="userSpaceOnUse">
<stop offset="0.3062" stop-color="#29ABE2" stop-opacity="0"/>
<stop offset="0.6875" stop-color="#28A8E0" stop-opacity="0.8614"/>
<stop offset="0.9037" stop-color="#28A8E0"/>
</linearGradient>
<linearGradient id="paint27_linear_2_3038" x1="216.267" y1="113.843" x2="256.955" y2="113.843" gradientUnits="userSpaceOnUse">
<stop offset="0.3062" stop-color="#29ABE2" stop-opacity="0"/>
<stop offset="0.6875" stop-color="#28A8E0" stop-opacity="0.8614"/>
<stop offset="0.9037" stop-color="#28A8E0"/>
</linearGradient>
<linearGradient id="paint28_linear_2_3038" x1="220.618" y1="107.725" x2="252.581" y2="107.725" gradientUnits="userSpaceOnUse">
<stop stop-color="white"/>
<stop offset="0.9052" stop-color="#2484C6" stop-opacity="0"/>
</linearGradient>
<linearGradient id="paint29_linear_2_3038" x1="220.175" y1="104.66" x2="253.139" y2="104.66" gradientUnits="userSpaceOnUse">
<stop offset="0.3423" stop-color="#1D4989"/>
<stop offset="1" stop-color="#29ABE2" stop-opacity="0"/>
</linearGradient>
<linearGradient id="paint30_linear_2_3038" x1="228.911" y1="108.208" x2="244.636" y2="108.208" gradientUnits="userSpaceOnUse">
<stop stop-color="#BD8AAE"/>
<stop offset="1" stop-color="#2484C6" stop-opacity="0"/>
</linearGradient>
<linearGradient id="paint31_linear_2_3038" x1="228.911" y1="108.208" x2="244.636" y2="108.208" gradientUnits="userSpaceOnUse">
<stop offset="0.3062" stop-color="#29ABE2" stop-opacity="0"/>
<stop offset="0.6875" stop-color="#28A8E0" stop-opacity="0.8614"/>
<stop offset="0.9037" stop-color="#28A8E0"/>
</linearGradient>
</defs>
</svg>
