<svg width="803" height="616" viewBox="0 0 803 616" fill="none" xmlns="http://www.w3.org/2000/svg">
<g filter="url(#filter0_d_2_3948)">
<path d="M491.665 592.175C453.123 570.92 452.753 535.926 490.847 514.411C528.94 492.896 590.305 492.716 627.216 514.011C664.126 535.307 664.494 570.301 628.034 591.776C591.574 613.25 530.208 613.431 491.665 592.175Z" fill="#E7F6FD"/>
<g opacity="0.46">
<path opacity="0.46" d="M280.822 579.695L72.6475 459.258C65.1062 454.895 65.1063 443.989 72.6487 439.627L303.625 306.02C311.332 301.562 320.824 301.553 328.54 305.996L541.386 428.564C548.945 432.916 548.956 443.839 541.406 448.207L314.129 579.695C303.823 585.657 291.126 585.657 280.822 579.695Z" fill="#CDE9F9"/>
</g>
<g opacity="0.46">
<path opacity="0.46" d="M413.008 173.35V185.387C413.008 189.523 410.764 192.884 407.627 194.685C404.523 196.463 400.537 196.714 396.986 194.674L265.895 119.035L209.008 86.2194C205.697 84.3096 203.661 80.7629 203.661 76.9324V18.6347C203.661 10.3953 212.548 5.24435 219.671 9.35858L242.936 22.7817V69.0204C242.936 72.8509 244.972 76.3976 248.294 78.3074L413.008 173.35Z" fill="#CDE9F9"/>
</g>
<path d="M482.086 119.177V177.475C482.086 185.714 473.187 190.865 466.064 186.762L442.811 173.35V127.089C442.811 123.259 440.763 119.723 437.452 117.813L272.739 22.7818V10.7228C272.739 2.4834 281.637 -2.66758 288.76 1.44666L476.738 109.901C480.049 111.811 482.086 115.347 482.086 119.177Z" fill="url(#paint0_linear_2_3948)"/>
<g opacity="0.46">
<path opacity="0.46" d="M688.108 352.514V370.848C688.108 379.087 679.209 384.238 672.086 380.124L484.108 271.67C480.797 269.76 478.761 266.224 478.761 262.393V204.096C478.761 195.856 487.648 190.705 494.771 194.82L542.629 222.43V262.393C542.629 266.224 544.666 269.76 547.977 271.67L688.108 352.514Z" fill="#CDE9F9"/>
</g>
<path d="M799 310.009V368.307C799 376.546 790.102 381.697 782.979 377.583L735.132 349.973V310.009C735.132 306.179 733.085 302.643 729.774 300.733L589.653 219.889V201.555C589.653 199.547 590.176 197.724 591.08 196.175C593.879 191.362 600.283 189.168 605.675 192.279L698.863 246.047L793.642 300.733C796.964 302.643 799 306.179 799 310.009Z" fill="url(#paint1_linear_2_3948)"/>
<path d="M266.732 554.625C266.732 533.279 249.256 516.968 227.698 516.968C206.141 516.968 188.665 534.273 188.665 555.619C188.665 576.965 206.141 594.27 227.698 594.27C249.256 594.27 266.732 575.972 266.732 554.625Z" fill="url(#paint2_linear_2_3948)"/>
<path d="M602.332 384.259C602.332 372.125 592.397 362.854 580.144 362.854C567.89 362.854 557.957 372.69 557.957 384.824C557.957 396.958 567.891 406.794 580.144 406.794C592.398 406.794 602.332 396.393 602.332 384.259Z" fill="url(#paint3_linear_2_3948)"/>
<path d="M311.106 584.705C311.106 572.57 301.172 563.3 288.919 563.3C276.665 563.3 266.732 573.136 266.732 585.27C266.732 597.404 276.666 607.24 288.919 607.24C301.172 607.24 311.106 596.838 311.106 584.705Z" fill="url(#paint4_linear_2_3948)"/>
<path d="M110.748 434.999C110.748 405.811 86.8521 383.508 57.3741 383.508C27.8961 383.508 4 407.169 4 436.359C4 465.547 27.8961 489.21 57.3741 489.21C86.8521 489.21 110.748 464.187 110.748 434.999Z" fill="url(#paint5_linear_2_3948)"/>
<path d="M615.368 418.748C615.368 400.501 600.429 386.558 582.002 386.558C563.574 386.558 548.635 401.35 548.635 419.598C548.635 437.846 563.574 452.637 582.002 452.637C600.429 452.637 615.368 436.994 615.368 418.748Z" fill="url(#paint6_linear_2_3948)"/>
<path d="M299.799 194.666L320.273 201.678L499.113 305.144L459.975 294.84L299.799 194.666Z" fill="#CDE9F9"/>
<path d="M127.003 294.636L299.799 194.666L472.595 294.636L299.799 394.606L127.003 294.636Z" fill="#2A2F6D"/>
<path d="M127.003 305.549V440.953C127.003 443.203 128.201 445.284 130.146 446.41L292.488 540.331C297.012 542.948 302.586 542.948 307.109 540.331L469.451 446.41C471.397 445.285 472.595 443.205 472.595 440.953V295.121C472.595 294.906 472.363 294.771 472.177 294.878L302.943 392.787C300.998 393.912 298.601 393.912 296.656 392.787L136.435 300.094C132.243 297.668 127.003 300.699 127.003 305.549Z" fill="#3DBBED"/>
<path d="M127.003 294.635V440.81C127.003 443.148 128.248 445.31 130.27 446.48L292.423 540.292C296.988 542.933 302.611 542.933 307.175 540.292L472.595 444.59V295.462C472.595 295.095 472.198 294.865 471.881 295.049L299.799 394.606L127.003 294.635Z" fill="url(#paint7_linear_2_3948)"/>
<path d="M213.4 344.621L299.799 294.636L386.196 344.621L472.595 294.636L299.799 194.666L127.003 294.636L213.4 344.621Z" fill="url(#paint8_linear_2_3948)"/>
<path d="M356.882 361.934V511.534L420.852 474.526V324.571L356.882 361.934Z" fill="#DE5FA3"/>
<path d="M176.188 423.06V473.044L242.715 511.534V427.631L213.401 444.59L176.188 423.06Z" fill="#DE5FA3"/>
<path d="M356.882 361.934V511.534L420.852 474.526V324.571L356.882 361.934Z" fill="url(#paint9_linear_2_3948)"/>
<path d="M176.188 423.06V473.044L242.715 511.534V427.631L213.401 444.59L176.188 423.06Z" fill="url(#paint10_linear_2_3948)"/>
<path d="M299.799 194.666V294.636L386.196 344.621L472.595 294.636L299.799 194.666Z" fill="url(#paint11_linear_2_3948)"/>
<path d="M213.4 344.621L299.799 294.635L386.196 344.621L299.799 394.606L213.4 344.621Z" fill="url(#paint12_linear_2_3948)"/>
<path opacity="0.69" d="M299.798 536.037V394.607L213.4 444.592L127.001 393.955V438.907C127.001 442.425 128.874 445.674 131.915 447.434L292.431 540.299C295.705 542.193 299.798 539.825 299.798 536.037Z" fill="#3C7FBE"/>
<path d="M299.491 394.607L285.92 412.308L239.424 472.952L66.9663 373.163L86.6801 347.452L127.033 294.818L299.491 394.607Z" fill="#CDE9F9"/>
<g opacity="0.32">
<path opacity="0.32" d="M299.491 394.607L285.92 412.308C276.335 414.655 262.525 419.206 242.713 427.63C185.63 451.89 191.261 408.347 149.394 362.992C132.109 344.276 108.485 342.77 86.6802 347.452L127.033 294.818L299.491 394.607Z" fill="url(#paint13_linear_2_3948)"/>
</g>
<path d="M289.293 368.552C288.531 368.552 287.739 368.453 286.937 368.256C281.69 366.984 276.224 361.844 272.668 354.842L232.004 274.778C224.381 259.77 220.184 243.825 220.184 229.878C220.184 220.144 223.108 212.425 228.419 208.141L228.987 207.683L228.965 207.612L229.856 207.098C229.856 207.098 230.211 206.86 230.272 206.824C230.663 206.587 231.063 206.37 231.468 206.168L265.173 186.758C265.454 186.581 268.124 185.053 268.441 184.877L270.812 183.515C272.557 182.913 274.456 182.607 276.46 182.607C281.193 182.607 286.518 184.313 291.857 187.54C304.256 195.039 315.574 211.357 320.348 223.6L320.811 224.786L323.104 223.45L323.207 223.343C326.13 220.348 330.516 218.698 335.559 218.698C340.676 218.698 346.235 220.425 351.635 223.692C369.655 234.588 384.315 261.29 384.315 283.215C384.315 289.554 383.45 295.316 381.745 300.341C379.674 306.734 376.391 311.683 371.981 315.062L331.288 345.932C330.866 346.255 330.387 346.533 329.818 346.784L329.713 346.836L296.317 366.101C295.952 366.309 295.521 366.443 295 366.509L294.782 366.536L293.709 367.156C293.291 367.441 292.929 367.649 292.559 367.823L292.208 368.024L291.924 368.093C291.078 368.398 290.192 368.552 289.293 368.552ZM228.489 211.744C224.746 215.71 222.767 221.98 222.767 229.878C222.767 243.363 226.851 258.828 234.267 273.426L274.931 353.49C278.092 359.714 283.025 364.438 287.497 365.522C288.065 365.659 288.616 365.725 289.185 365.725C289.355 365.725 289.523 365.72 289.687 365.708L291.455 365.586L290.547 364.061C270.816 330.896 258.258 308.682 257.775 306.085C257.211 303.066 240.255 245.64 230.325 212.184L229.787 210.371L228.489 211.744Z" fill="url(#paint14_linear_2_3948)"/>
<path d="M276.461 183.698C280.996 183.698 286.126 185.35 291.295 188.474C303.486 195.848 314.63 211.926 319.336 223.997L320.262 226.371L322.461 225.09L323.526 224.469L323.782 224.319L323.989 224.107C326.704 221.324 330.814 219.789 335.562 219.789C340.481 219.789 345.845 221.462 351.075 224.627C368.805 235.348 383.229 261.631 383.229 283.216C383.229 289.434 382.384 295.077 380.707 300.02C378.71 306.184 375.552 310.954 371.329 314.19L330.626 345.067C330.275 345.334 329.869 345.569 329.381 345.784L329.273 345.832L329.171 345.891L295.778 365.154C295.54 365.29 295.241 365.38 294.865 365.428L294.43 365.482L294.05 365.701L293.167 366.211L293.114 366.242L291.484 363.501C268.161 324.298 259.331 308.028 258.845 305.884C258.141 302.111 234.106 221.098 231.368 211.872L230.292 208.245L227.697 210.994C223.759 215.167 221.678 221.697 221.678 229.878C221.678 243.532 225.804 259.173 233.296 273.92L273.959 353.984C277.31 360.58 282.398 365.408 287.244 366.583C287.885 366.738 288.538 366.816 289.184 366.816C289.38 366.816 289.572 366.809 289.763 366.796L292.547 366.603C292.4 366.687 292.251 366.764 292.099 366.835L292.016 366.875L291.937 366.92L291.885 366.95L291.56 367.066C290.828 367.327 290.066 367.461 289.294 367.461C288.62 367.461 287.915 367.371 287.193 367.195C282.249 365.996 277.056 361.073 273.64 354.346L232.977 274.283C225.43 259.425 221.275 243.655 221.275 229.878C221.275 220.481 224.055 213.063 229.104 208.992L229.97 208.292L230.401 208.045L230.446 208.018L230.49 207.99C230.565 207.942 230.639 207.892 230.713 207.84C230.755 207.812 230.795 207.783 230.836 207.757C231.189 207.545 231.566 207.337 231.955 207.144L232.014 207.115L232.07 207.082L265.718 187.703L265.746 187.687L265.799 187.652C266.062 187.49 268.618 186.024 268.997 185.813L271.264 184.512C272.868 183.972 274.616 183.698 276.461 183.698ZM276.462 181.516C274.319 181.516 272.272 181.843 270.36 182.517L267.915 183.921C267.617 184.086 264.832 185.679 264.632 185.81L230.984 205.19C230.553 205.405 230.127 205.637 229.71 205.889C229.574 205.971 229.448 206.066 229.314 206.152L227.678 207.095L227.737 207.292C222.15 211.796 219.095 219.696 219.095 229.878C219.095 243.99 223.335 260.114 231.035 275.272L271.698 355.336C275.395 362.615 281.137 367.973 286.679 369.317C287.576 369.536 288.451 369.644 289.292 369.644C290.347 369.644 291.349 369.46 292.292 369.123L292.341 369.206L293.022 368.813C293.448 368.613 293.858 368.376 294.253 368.103L295.136 367.594C295.73 367.518 296.316 367.36 296.86 367.048L330.257 347.783C330.904 347.498 331.457 347.177 331.945 346.804L372.641 315.931C377.244 312.404 380.671 307.194 382.776 300.694C384.499 295.618 385.405 289.732 385.405 283.217C385.405 260.952 370.508 233.831 352.198 222.76C346.206 219.134 340.504 217.609 335.56 217.609C329.999 217.609 325.398 219.539 322.429 222.584L321.364 223.205C316.517 210.774 305.036 194.238 292.421 186.607C286.927 183.285 281.436 181.516 276.462 181.516ZM289.185 364.633C288.734 364.633 288.26 364.583 287.754 364.461C283.579 363.448 278.924 358.944 275.901 352.993L235.238 272.93C227.896 258.479 223.856 243.189 223.856 229.878C223.856 222.241 225.76 216.224 229.28 212.494C240.389 249.921 256.176 303.455 256.704 306.284C257.449 310.279 280.376 349.093 289.613 364.618C289.472 364.629 289.329 364.633 289.185 364.633Z" fill="white"/>
<path d="M287.469 367.053C282.631 367.053 276.665 361.96 272.961 354.666L232.296 274.601C224.852 259.945 220.751 244.415 220.751 230.874C220.751 216.699 227.16 207.893 237.475 207.893C241.761 207.893 246.408 209.39 251.289 212.341C263.139 219.509 274.309 235.689 278.803 247.272C279.516 249.114 280.992 250.401 282.391 250.401C283.139 250.401 283.8 250.03 284.206 249.382C286.434 245.837 290.763 243.803 296.084 243.803C300.811 243.803 305.992 245.425 311.067 248.495C328.43 258.998 342.558 284.73 342.558 305.858C342.558 319.221 338.59 329.622 331.385 335.145L290.701 366.009C289.788 366.701 288.7 367.053 287.469 367.053Z" fill="url(#paint15_linear_2_3948)"/>
<path d="M237.472 206.801L237.474 208.984C241.502 208.984 246.084 210.468 250.726 213.275C262.369 220.317 273.358 236.25 277.787 247.665C278.673 249.954 280.524 251.49 282.391 251.49C283.52 251.49 284.518 250.934 285.129 249.962C287.152 246.741 291.146 244.892 296.085 244.892C300.612 244.892 305.599 246.46 310.505 249.428C327.579 259.755 341.47 285.069 341.47 305.857C341.47 318.872 337.653 328.966 330.733 334.27L290.045 365.137C289.314 365.691 288.472 365.96 287.469 365.96C283.718 365.96 277.863 361.91 273.931 354.17L233.266 274.104C225.898 259.599 221.84 244.245 221.84 230.871C221.84 217.369 227.83 208.982 237.473 208.982V206.801H237.472ZM237.474 206.801C226.911 206.8 219.661 215.619 219.661 230.873C219.661 244.57 223.81 260.304 231.324 275.096L271.989 355.162C276.005 363.068 282.403 368.145 287.468 368.145C288.899 368.145 290.224 367.74 291.359 366.879L332.046 336.012C339.519 330.283 343.647 319.556 343.647 305.858V305.857C343.647 284.355 329.312 258.254 311.63 247.559C306.016 244.164 300.668 242.71 296.085 242.71C290.23 242.71 285.622 245.079 283.285 248.799C283.066 249.147 282.749 249.308 282.391 249.308C281.517 249.308 280.393 248.361 279.818 246.875C275.533 235.831 264.449 219.025 251.852 211.405H251.851C246.684 208.282 241.8 206.801 237.474 206.801Z" fill="white"/>
<path d="M348.475 413.089C348.475 413.089 344.133 408.102 345.069 403.561C346.005 399.02 343.475 394.623 341.827 394.281C340.179 393.941 341.68 398.125 340.508 400.68C339.336 403.235 338.712 404.182 335.999 402.76C333.286 401.338 327.501 396.052 324.866 395.292C322.23 394.531 323.78 397.434 326.508 399.829C329.236 402.222 330.133 404.129 330.133 404.129C330.133 404.129 321.657 400.44 317.907 399.879C314.156 399.318 315.372 402.798 321.049 405.478C326.726 408.159 326.726 408.159 326.726 408.159C326.726 408.159 318.286 405.336 316.341 406.441C314.395 407.545 314.14 408.783 317.393 409.671C320.646 410.559 326.195 413.86 326.195 413.86C326.195 413.86 320.257 413.492 317.984 414.097C315.711 414.703 315.698 416.853 319.655 417.457C323.612 418.06 326.901 419.816 330.468 423.352C334.035 426.888 343.008 430.25 346.948 426.761C350.888 423.272 348.475 413.089 348.475 413.089Z" fill="#FDE0D9"/>
<path d="M611.826 275.386C611.826 275.386 611.296 267.528 613.995 264.859C616.693 262.188 619.725 258.942 620.689 256.344C621.654 253.746 624.006 253.803 623.162 256.856C622.317 259.91 622.317 259.91 622.317 259.91C622.317 259.91 625.386 257.526 629.995 256.007C634.603 254.488 639.094 255.627 635.763 257.2C632.431 258.774 630.77 260.582 630.77 260.582C630.77 260.582 636.842 259.256 638.484 260.671C640.125 262.087 637.277 262.359 635.495 263.712C633.713 265.065 633.713 265.065 633.713 265.065C633.713 265.065 638.792 264.394 640.27 265.56C641.748 266.727 638.933 266.841 636.537 268.041C634.142 269.243 634.142 269.243 634.142 269.243C634.142 269.243 637.887 269.802 639.763 270.621C641.638 271.439 638.406 273.569 636.261 273.555C634.116 273.542 630.95 278.483 629.616 280.789C628.282 283.095 621.415 286.194 617.918 284.394C614.421 282.594 611.826 275.386 611.826 275.386Z" fill="#FDE0D9"/>
<path d="M489.055 318.321C489.948 321.18 482.542 330.532 475.963 334.33C469.385 338.139 472.674 335.705 472.674 335.705L467.969 325.654L466.259 321.998C466.215 322.02 466.161 322.031 466.117 322.053C456.652 325.818 444.584 323.941 442.472 317.076C440.348 310.179 449.616 282.395 449.616 282.395C456.794 272.584 488.815 278.237 490.427 287.611C491.309 292.762 483.108 301.787 481.779 309.503C480.701 315.843 486.517 321.529 486.517 321.529C486.517 321.529 488.162 315.461 489.055 318.321Z" fill="#FDE0D9"/>
<path d="M569.693 417.317C569.693 417.317 641.352 466.692 652.574 468.525C663.794 470.357 716.781 447.745 716.781 447.745C716.781 447.745 718.459 436.471 709.7 432.076C709.7 432.076 670.175 439.394 662.631 438.48C655.088 437.565 608.267 386.474 573.1 388.281C537.931 390.086 569.693 417.317 569.693 417.317Z" fill="#2A2F6D"/>
<path d="M749.462 486.141C749.462 486.141 749.461 486.141 736.174 494.37C726.23 500.525 687.848 511.634 666.195 516.763C658.898 518.499 653.507 519.557 651.731 519.513C644.674 519.339 632.704 514.93 589.268 494.326C565.23 482.922 549.699 469.521 540.616 459.819C533.286 451.994 530.16 446.581 530.16 446.581C530.16 446.581 555.711 397.636 576.231 401.238C578.889 401.707 581.361 402.503 583.648 403.562C599.049 410.71 606.858 429.993 615.811 443.646C626.114 459.328 648.9 476.963 655.315 480.226C661.73 483.489 661.37 482.125 674.135 479.593C686.9 477.073 739.822 464.13 739.822 464.13C741.587 465.275 743.057 466.52 744.266 467.807C752.032 476.047 749.462 486.141 749.462 486.141Z" fill="#3C7FBE"/>
<path d="M666.195 516.764C658.898 518.499 653.506 519.558 651.731 519.514C644.673 519.339 632.704 514.931 589.268 494.327C565.23 482.922 549.699 469.521 540.615 459.819L552.28 451.504C552.28 451.504 562.006 474.072 600.889 495.396C628.282 510.402 650.185 516.087 666.195 516.764Z" fill="url(#paint16_linear_2_3948)"/>
<path d="M744.266 467.807C709.892 478.688 664.627 497.753 656.6 499.161C645.251 501.158 636.025 492.907 620.69 476.549C605.365 460.19 556.539 425.355 556.539 425.355L583.648 403.562C599.048 410.71 606.858 429.993 615.811 443.646C626.114 459.328 648.899 476.963 655.314 480.226C661.729 483.489 661.37 482.125 674.135 479.593C686.9 477.072 739.822 464.13 739.822 464.13C741.586 465.275 743.057 466.52 744.266 467.807Z" fill="url(#paint17_linear_2_3948)"/>
<path d="M545.408 334.352C541.258 335.334 538.448 335.956 538.448 335.956C538.448 335.956 538.971 336.818 539.918 338.302C545.288 346.727 564.403 375.407 580.544 383.406L592.764 388.197C592.764 388.197 591.751 392.409 589.747 398.662C586.273 409.434 579.847 426.251 570.491 437.96C570.491 437.96 570.469 437.982 570.437 438.026C568.912 439.925 567.311 441.693 565.633 443.275C559.24 449.288 554.023 453.184 549.939 455.705C542.543 460.289 538.916 460.343 538.916 460.343C538.916 460.343 484.491 435.199 460.04 388.175C460.04 388.175 460.018 388.208 459.974 388.262L459.963 388.273C458.526 390.238 436.318 420.292 425.154 424.537C413.62 428.935 343.391 428.935 343.391 428.935C343.391 428.935 343.315 428.564 343.217 427.888C342.846 425.181 342.171 417.586 345.046 409.903C345.046 409.903 413.74 400.223 419.044 393.25C424.337 386.276 435.381 362.42 442.994 352.042C442.994 352.042 483.718 310.758 511.6 305.225C514.454 304.657 517.264 304.155 520.02 303.697C544.242 299.648 564.588 299.157 575.839 293.657C588.375 287.534 610.997 273.173 610.997 273.173C610.997 273.173 617.172 274.45 619.187 278.739C621.202 283.027 620.614 289.04 620.614 289.04C620.614 289.04 584.77 320.688 577.81 324.737C572.909 327.596 555.33 332.005 545.408 334.352Z" fill="#CDE9F9"/>
<path d="M429.826 268.981C429.826 268.981 436.34 287.398 451.63 286.688C466.918 285.977 471.46 292.081 470.684 297.409C469.909 302.736 469.909 302.736 469.909 302.736C469.909 302.736 473.284 297.301 476.938 296.766C480.593 296.23 476.506 306.684 474.322 309.46C472.14 312.236 472.14 312.236 472.14 312.236C472.14 312.236 487.43 309.951 496.252 299.974C505.075 289.996 501.627 277.016 495.383 276.047C495.383 276.047 499.476 254.619 481.682 250.293C463.887 245.966 459.404 253.65 452.36 250.309C445.317 246.967 446.789 248.886 446.789 248.886L448.222 251.702C448.695 252.633 447.862 253.704 446.849 253.453C444.687 252.917 441.601 251.853 439.559 249.867C438.888 249.214 437.766 249.668 437.804 250.604C437.9 252.965 438.287 256.015 439.555 257.72C439.555 257.72 435.585 254.182 433.211 250.971C432.446 249.937 430.815 250.256 430.466 251.495C429.156 256.147 427.429 264.327 429.826 268.981Z" fill="#2A2F6D"/>
<path d="M739.758 467.563C739.758 467.563 748.353 485.266 751.614 485.081C754.874 484.894 773.22 500.096 775.784 499.12C778.348 498.144 779.223 483.475 775.656 479.939C772.089 476.403 764.964 474.499 762.646 469.069C760.328 463.64 755.469 462.204 751.882 461.893C748.294 461.582 742.271 461.627 739.758 467.563Z" fill="#222457"/>
<path d="M713.177 443.342C713.177 443.342 729.34 451.42 732.33 454.621C735.322 457.823 740.315 457.565 736.86 449.318C733.404 441.071 730.861 438.823 729.772 434.724C728.683 430.625 721.771 427.688 717.759 429.441C713.746 431.193 709.06 435.173 709.06 435.173L713.177 443.342Z" fill="#222457"/>
<path d="M466.411 359.015C466.367 358.666 466.346 358.415 466.346 358.251C466.357 358.415 466.378 358.666 466.411 359.015Z" fill="#2A2F6D"/>
<path d="M570.436 438.025C568.912 439.924 567.311 441.692 565.633 443.275C547.64 460.212 538.916 460.343 538.916 460.343C538.916 460.343 484.491 435.199 460.039 388.174C460.039 388.174 436.699 420.15 425.154 424.537C413.619 428.935 343.391 428.935 343.391 428.935C343.391 428.935 343.314 428.564 343.216 427.887C366.916 425.595 420.786 419.757 428.628 413.504C438.735 405.439 457.186 385.053 462.392 376.999C466.64 370.43 466.574 361.961 466.411 359.069C466.923 363.904 470.081 384.704 487.933 401.052C508.278 419.659 520.008 447.247 542.815 445.261C564.206 443.395 569.816 438.615 570.436 438.025Z" fill="url(#paint18_linear_2_3948)"/>
<path d="M620.614 289.04C620.614 289.04 584.77 320.688 577.81 324.737C570.862 328.786 538.448 335.956 538.448 335.956C538.448 335.956 537.501 334.472 538.448 335.956L518.69 320.348C518.69 320.348 562.922 321.179 589.541 304.821C616.149 288.473 619.188 278.738 619.188 278.738C621.202 283.027 620.614 289.04 620.614 289.04Z" fill="url(#paint19_linear_2_3948)"/>
<path d="M520.02 303.696C516.992 304.886 513.049 306.13 507.93 307.341C486.496 312.438 457.535 341.445 448.669 349.619C439.804 357.792 426.32 387.662 422.061 394.264C417.803 400.856 384.801 405.439 375.576 409.706C366.351 413.973 345.047 409.902 345.047 409.902C345.047 409.902 413.74 400.223 419.044 393.249C424.338 386.276 435.382 362.42 442.995 352.041C442.995 352.041 483.718 310.757 511.601 305.224C514.454 304.657 517.264 304.155 520.02 303.696Z" fill="#E7F6FD"/>
<g opacity="0.22">
<path opacity="0.22" d="M592.764 388.196C592.764 388.196 591.751 392.409 589.747 398.662C576.111 394.548 550.701 385.064 541.868 369.415C529.571 347.61 518.222 326.275 507.81 320.59C498.999 315.766 506.69 309.488 525.342 324.558C526.221 325.268 526.679 325.223 526.985 326.313C527.156 326.921 529.048 327.761 530.154 328.677C533.475 331.425 538.448 335.956 538.448 335.956C538.448 335.956 538.971 336.819 539.918 338.303C545.288 346.728 564.403 375.407 580.544 383.406L592.764 388.196Z" fill="url(#paint20_linear_2_3948)"/>
</g>
<path d="M549.938 455.705C542.543 460.289 538.916 460.343 538.916 460.343C538.916 460.343 484.491 435.2 460.039 388.175C460.039 388.175 460.017 388.208 459.974 388.262C461.183 385.48 462.326 382.686 462.326 382.686C462.326 382.686 475.636 411.387 504.172 434.359C522.491 449.114 539.863 454.057 549.938 455.705Z" fill="url(#paint21_linear_2_3948)"/>
<path d="M473.033 315.09C473.033 315.09 471.138 321.834 467.969 325.654L466.259 321.998C466.215 322.02 466.161 322.03 466.117 322.052C468.601 320.372 471.291 318.058 473.033 315.09Z" fill="#ECBFB9"/>
<path d="M271.433 213.684C271.433 213.684 282.453 212.453 288.526 200.511Z" fill="#E7F6FD"/>
<path d="M271.854 217.48L271.01 209.888L271.432 213.685L270.98 209.893C271.352 209.846 280.125 208.618 285.13 198.778L291.922 202.247C284.996 215.864 272.388 217.42 271.854 217.48Z" fill="#E7F6FD"/>
<path d="M226.906 103.928C226.906 103.928 232.393 113.582 245.742 114.449Z" fill="#17A1DB"/>
<path d="M223.594 105.818L230.22 102.039L226.906 103.929L230.204 102.014C230.395 102.337 234.989 109.925 245.988 110.639L245.495 118.262C230.273 117.272 223.86 106.285 223.594 105.818Z" fill="#17A1DB"/>
<path d="M195.715 201.49C195.715 201.49 204.202 204.038 211.631 198.584Z" fill="url(#paint22_linear_2_3948)"/>
<path d="M195.101 203.926L196.328 199.05L195.714 201.488L196.305 199.044C196.593 199.126 203.409 201.004 209.532 196.51L213.73 200.655C205.257 206.875 195.511 204.05 195.101 203.926Z" fill="url(#paint23_linear_2_3948)"/>
<path d="M322.036 149.011C322.036 149.011 333.056 147.78 339.129 135.837Z" fill="#BD8AAE"/>
<path d="M322.457 152.807L321.613 145.215L322.036 149.012L321.584 145.219C321.955 145.172 330.728 143.945 335.733 134.104L342.525 137.574C335.599 151.191 322.991 152.747 322.457 152.807Z" fill="#BD8AAE"/>
<path d="M346.207 200.592C346.207 200.592 351.694 210.247 365.042 211.113Z" fill="#17A1DB"/>
<path d="M342.894 202.482L349.519 198.703L346.206 200.593L349.504 198.678C349.695 199.001 354.289 206.589 365.288 207.304L364.795 214.926C349.573 213.937 343.16 202.949 342.894 202.482Z" fill="#17A1DB"/>
<path d="M239.334 169.209C239.334 169.209 247.821 171.757 255.25 166.303Z" fill="#BD8AAE"/>
<path d="M238.721 171.647L239.948 166.771L239.334 169.209L239.925 166.764C240.213 166.846 247.029 168.724 253.152 164.23L257.35 168.375C248.877 174.595 239.131 171.77 238.721 171.647Z" fill="#BD8AAE"/>
<path d="M275.211 138.583C275.211 138.583 280.145 145.467 290.341 145.053Z" fill="url(#paint24_linear_2_3948)"/>
<path d="M272.85 140.281L277.574 136.882L275.211 138.581L277.56 136.863C277.729 137.093 281.821 142.48 290.223 142.14L290.458 147.962C278.832 148.436 273.089 140.615 272.85 140.281Z" fill="url(#paint25_linear_2_3948)"/>
<path d="M351.418 252.223C351.418 252.223 347.06 259.487 351.471 268.705Z" fill="#E7F6FD"/>
<path d="M348.926 250.72L353.91 253.723L351.418 252.222L353.921 253.704C353.778 253.951 350.457 259.848 354.092 267.444L348.848 269.963C343.817 259.45 348.715 251.072 348.926 250.72Z" fill="#E7F6FD"/>
<path d="M303.717 175.928C303.717 175.928 305.196 182.535 311.591 185.448Z" fill="url(#paint26_linear_2_3948)"/>
<path d="M301.87 176.43L305.565 175.427L303.718 175.929L305.561 175.409C305.613 175.632 306.914 180.876 312.184 183.276L311.001 187.622C303.707 184.299 301.942 176.749 301.87 176.43Z" fill="url(#paint27_linear_2_3948)"/>
</g>
<defs>
<filter id="filter0_d_2_3948" x="0" y="0" width="803" height="616" filterUnits="userSpaceOnUse" color-interpolation-filters="sRGB">
<feFlood flood-opacity="0" result="BackgroundImageFix"/>
<feColorMatrix in="SourceAlpha" type="matrix" values="0 0 0 0 0 0 0 0 0 0 0 0 0 0 0 0 0 0 127 0" result="hardAlpha"/>
<feOffset dy="4"/>
<feGaussianBlur stdDeviation="2"/>
<feComposite in2="hardAlpha" operator="out"/>
<feColorMatrix type="matrix" values="0 0 0 0 0 0 0 0 0 0 0 0 0 0 0 0 0 0 0.25 0"/>
<feBlend mode="normal" in2="BackgroundImageFix" result="effect1_dropShadow_2_3948"/>
<feBlend mode="normal" in="SourceGraphic" in2="effect1_dropShadow_2_3948" result="shape"/>
</filter>
<linearGradient id="paint0_linear_2_3948" x1="272.739" y1="94.1016" x2="482.085" y2="94.1016" gradientUnits="userSpaceOnUse">
<stop offset="0.0607" stop-color="#28A8E0"/>
<stop offset="0.9984" stop-color="#29ABE2" stop-opacity="0"/>
</linearGradient>
<linearGradient id="paint1_linear_2_3948" x1="589.653" y1="284.932" x2="799" y2="284.932" gradientUnits="userSpaceOnUse">
<stop offset="0.0607" stop-color="#28A8E0"/>
<stop offset="0.9984" stop-color="#29ABE2" stop-opacity="0"/>
</linearGradient>
<linearGradient id="paint2_linear_2_3948" x1="188.664" y1="555.62" x2="266.732" y2="555.62" gradientUnits="userSpaceOnUse">
<stop stop-color="#BD8AAE"/>
<stop offset="1" stop-color="#2484C6" stop-opacity="0"/>
</linearGradient>
<linearGradient id="paint3_linear_2_3948" x1="557.957" y1="384.824" x2="602.332" y2="384.824" gradientUnits="userSpaceOnUse">
<stop offset="0.0607" stop-color="#28A8E0"/>
<stop offset="0.9984" stop-color="#29ABE2" stop-opacity="0"/>
</linearGradient>
<linearGradient id="paint4_linear_2_3948" x1="266.731" y1="585.269" x2="311.106" y2="585.269" gradientUnits="userSpaceOnUse">
<stop offset="0.0607" stop-color="#28A8E0"/>
<stop offset="0.9984" stop-color="#29ABE2" stop-opacity="0"/>
</linearGradient>
<linearGradient id="paint5_linear_2_3948" x1="4.00152" y1="436.358" x2="110.749" y2="436.358" gradientUnits="userSpaceOnUse">
<stop offset="0.0607" stop-color="#28A8E0"/>
<stop offset="0.9984" stop-color="#29ABE2" stop-opacity="0"/>
</linearGradient>
<linearGradient id="paint6_linear_2_3948" x1="548.636" y1="419.598" x2="615.368" y2="419.598" gradientUnits="userSpaceOnUse">
<stop stop-color="#21409A"/>
<stop offset="0.9984" stop-color="#29ABE2" stop-opacity="0"/>
</linearGradient>
<linearGradient id="paint7_linear_2_3948" x1="127.003" y1="418.454" x2="472.595" y2="418.454" gradientUnits="userSpaceOnUse">
<stop offset="0.0607" stop-color="#3C7FBE"/>
<stop offset="0.5484" stop-color="#1B75BC" stop-opacity="0.53"/>
<stop offset="0.9984" stop-color="#29ABE2" stop-opacity="0"/>
</linearGradient>
<linearGradient id="paint8_linear_2_3948" x1="127.003" y1="269.644" x2="472.595" y2="269.644" gradientUnits="userSpaceOnUse">
<stop stop-color="#BD8AAE"/>
<stop offset="1" stop-color="#2484C6" stop-opacity="0"/>
</linearGradient>
<linearGradient id="paint9_linear_2_3948" x1="388.867" y1="511.535" x2="388.867" y2="324.571" gradientUnits="userSpaceOnUse">
<stop offset="0.1616" stop-color="#BD8AAE"/>
<stop offset="1" stop-color="#2484C6" stop-opacity="0"/>
</linearGradient>
<linearGradient id="paint10_linear_2_3948" x1="209.451" y1="511.534" x2="209.451" y2="423.06" gradientUnits="userSpaceOnUse">
<stop offset="0.1616" stop-color="#BD8AAE"/>
<stop offset="1" stop-color="#2484C6" stop-opacity="0"/>
</linearGradient>
<linearGradient id="paint11_linear_2_3948" x1="299.799" y1="269.644" x2="472.595" y2="269.644" gradientUnits="userSpaceOnUse">
<stop stop-color="#BD8AAE"/>
<stop offset="1" stop-color="#2484C6" stop-opacity="0"/>
</linearGradient>
<linearGradient id="paint12_linear_2_3948" x1="213.401" y1="344.621" x2="386.197" y2="344.621" gradientUnits="userSpaceOnUse">
<stop stop-color="#21409A"/>
<stop offset="0.9984" stop-color="#29ABE2" stop-opacity="0"/>
</linearGradient>
<linearGradient id="paint13_linear_2_3948" x1="86.6798" y1="364.698" x2="299.49" y2="364.698" gradientUnits="userSpaceOnUse">
<stop offset="0.0607" stop-color="#28A8E0"/>
<stop offset="0.9984" stop-color="#29ABE2" stop-opacity="0"/>
</linearGradient>
<linearGradient id="paint14_linear_2_3948" x1="220.184" y1="275.58" x2="384.317" y2="275.58" gradientUnits="userSpaceOnUse">
<stop offset="0.0607" stop-color="#28A8E0"/>
<stop offset="0.9984" stop-color="#29ABE2" stop-opacity="0"/>
</linearGradient>
<linearGradient id="paint15_linear_2_3948" x1="220.75" y1="287.473" x2="342.558" y2="287.473" gradientUnits="userSpaceOnUse">
<stop offset="0.0607" stop-color="#28A8E0"/>
<stop offset="0.9984" stop-color="#29ABE2" stop-opacity="0"/>
</linearGradient>
<linearGradient id="paint16_linear_2_3948" x1="540.615" y1="485.509" x2="666.195" y2="485.509" gradientUnits="userSpaceOnUse">
<stop stop-color="#BD8AAE"/>
<stop offset="1" stop-color="#2484C6" stop-opacity="0"/>
</linearGradient>
<linearGradient id="paint17_linear_2_3948" x1="556.538" y1="451.508" x2="744.265" y2="451.508" gradientUnits="userSpaceOnUse">
<stop stop-color="#21409A"/>
<stop offset="0.9984" stop-color="#29ABE2" stop-opacity="0"/>
</linearGradient>
<linearGradient id="paint18_linear_2_3948" x1="343.216" y1="409.706" x2="570.436" y2="409.706" gradientUnits="userSpaceOnUse">
<stop stop-color="#A7A9AC"/>
<stop offset="1" stop-color="#2484C6" stop-opacity="0"/>
</linearGradient>
<linearGradient id="paint19_linear_2_3948" x1="518.69" y1="307.347" x2="620.694" y2="307.347" gradientUnits="userSpaceOnUse">
<stop stop-color="#A7A9AC"/>
<stop offset="1" stop-color="#2484C6" stop-opacity="0"/>
</linearGradient>
<linearGradient id="paint20_linear_2_3948" x1="504.168" y1="356.876" x2="592.764" y2="356.876" gradientUnits="userSpaceOnUse">
<stop offset="0.0607" stop-color="#28A8E0"/>
<stop offset="0.9984" stop-color="#29ABE2" stop-opacity="0"/>
</linearGradient>
<linearGradient id="paint21_linear_2_3948" x1="459.973" y1="421.515" x2="549.937" y2="421.515" gradientUnits="userSpaceOnUse">
<stop stop-color="#A7A9AC"/>
<stop offset="1" stop-color="#2484C6" stop-opacity="0"/>
</linearGradient>
<linearGradient id="paint22_linear_2_3948" x1="195.715" y1="200.333" x2="211.631" y2="200.333" gradientUnits="userSpaceOnUse">
<stop offset="0.1616" stop-color="#BD8AAE"/>
<stop offset="1" stop-color="#2484C6" stop-opacity="0"/>
</linearGradient>
<linearGradient id="paint23_linear_2_3948" x1="195.101" y1="200.592" x2="213.73" y2="200.592" gradientUnits="userSpaceOnUse">
<stop offset="0.1616" stop-color="#BD8AAE"/>
<stop offset="1" stop-color="#2484C6" stop-opacity="0"/>
</linearGradient>
<linearGradient id="paint24_linear_2_3948" x1="275.212" y1="141.827" x2="290.341" y2="141.827" gradientUnits="userSpaceOnUse">
<stop offset="0.0607" stop-color="#28A8E0"/>
<stop offset="0.9984" stop-color="#29ABE2" stop-opacity="0"/>
</linearGradient>
<linearGradient id="paint25_linear_2_3948" x1="272.85" y1="142.425" x2="290.459" y2="142.425" gradientUnits="userSpaceOnUse">
<stop offset="0.0607" stop-color="#28A8E0"/>
<stop offset="0.9984" stop-color="#29ABE2" stop-opacity="0"/>
</linearGradient>
<linearGradient id="paint26_linear_2_3948" x1="303.717" y1="180.688" x2="311.592" y2="180.688" gradientUnits="userSpaceOnUse">
<stop stop-color="#21409A"/>
<stop offset="0.9984" stop-color="#29ABE2" stop-opacity="0"/>
</linearGradient>
<linearGradient id="paint27_linear_2_3948" x1="301.87" y1="181.515" x2="312.183" y2="181.515" gradientUnits="userSpaceOnUse">
<stop stop-color="#21409A"/>
<stop offset="0.9984" stop-color="#29ABE2" stop-opacity="0"/>
</linearGradient>
</defs>
</svg>
