<svg width="1920" height="662" viewBox="0 0 1920 662" fill="none" xmlns="http://www.w3.org/2000/svg">
<rect y="0.000244141" width="1920" height="662" fill="#B070FF"/>
<mask id="mask0_6_4" style="mask-type:alpha" maskUnits="userSpaceOnUse" x="0" y="0" width="1920" height="663">
<rect y="0.000244141" width="1920" height="662" fill="#7C14FD"/>
</mask>
<g mask="url(#mask0_6_4)">
<path opacity="0.4" fill-rule="evenodd" clip-rule="evenodd" d="M1956.86 1215C2240.8 1215 2470.98 983.979 2470.98 699C2470.98 414.021 2240.8 183 1956.86 183C1672.92 183 1442.73 414.021 1442.73 699C1442.73 983.979 1672.92 1215 1956.86 1215ZM1956.86 1040.97C1768.68 1040.97 1616.13 887.865 1616.13 699C1616.13 510.136 1768.68 357.031 1956.86 357.031C2145.04 357.031 2297.58 510.136 2297.58 699C2297.58 887.865 2145.04 1040.97 1956.86 1040.97Z" fill="url(#paint0_linear_6_4)"/>
<path opacity="0.4" fill-rule="evenodd" clip-rule="evenodd" d="M-93.6585 386C232.655 386 497.185 120.505 497.185 -207C497.185 -534.505 232.655 -800 -93.6585 -800C-419.972 -800 -684.502 -534.505 -684.502 -207C-684.502 120.505 -419.972 386 -93.6585 386ZM-93.6584 186C-309.917 186 -485.229 10.0479 -485.229 -207C-485.229 -424.048 -309.917 -600 -93.6584 -600C122.6 -600 297.912 -424.048 297.912 -207C297.912 10.0479 122.6 186 -93.6584 186Z" fill="url(#paint1_linear_6_4)"/>
</g>
<g opacity="0.3" clip-path="url(#clip0_6_4)">
<path d="M1680.67 207.837C1680.67 206.212 1681.99 204.896 1683.61 204.896C1685.23 204.896 1686.55 206.212 1686.55 207.837C1686.55 209.461 1685.23 210.782 1683.61 210.782C1681.99 210.782 1680.67 209.461 1680.67 207.837Z" fill="#E54884"/>
<path d="M1555.84 357.505C1555.84 355.127 1557.77 353.198 1560.14 353.198C1562.52 353.198 1564.44 355.127 1564.44 357.505C1564.44 359.883 1562.52 361.811 1560.14 361.811C1557.77 361.811 1555.84 359.883 1555.84 357.505Z" stroke="#4BDFEA" stroke-width="4"/>
<path d="M1536.43 294.306C1536.43 291.928 1538.36 289.999 1540.73 289.999C1543.11 289.999 1545.03 291.928 1545.03 294.306C1545.03 296.684 1543.11 298.612 1540.73 298.612C1538.36 298.612 1536.43 296.684 1536.43 294.306Z" stroke="#4BDFEA" stroke-width="4"/>
<path d="M1500.84 325.739L1495.66 324.139L1500.84 322.539L1502.43 317.357L1504.03 322.539L1509.21 324.139L1504.03 325.739L1502.43 330.921L1500.84 325.739Z" fill="#F44D99"/>
<path d="M848.118 10.2226C849.999 8.77633 852.7 9.12887 854.148 11.0127C855.595 12.8965 855.239 15.6027 853.359 17.049C851.479 18.4993 848.782 18.1469 847.334 16.2631C845.886 14.3793 846.238 11.673 848.118 10.2226Z" stroke="#4BDFEA" stroke-width="4"/>
<path d="M713.743 182.221C715.029 181.232 716.873 181.471 717.864 182.76C718.85 184.048 718.612 185.895 717.326 186.888C716.04 187.876 714.196 187.637 713.205 186.349C712.218 185.061 712.457 183.213 713.743 182.221Z" fill="#E54884"/>
<path d="M629.747 237.901C631.628 236.454 634.329 236.807 635.777 238.691C637.224 240.575 636.868 243.281 634.988 244.727C633.108 246.177 630.41 245.825 628.963 243.941C627.515 242.057 627.867 239.351 629.747 237.901Z" stroke="#4BDFEA" stroke-width="4"/>
<path d="M667.922 183.959C669.802 182.508 672.5 182.861 673.947 184.749C675.395 186.633 675.043 189.335 673.159 190.785C671.278 192.235 668.581 191.883 667.133 189.999C665.686 188.111 666.038 185.409 667.922 183.959Z" stroke="#4BDFEA" stroke-width="4"/>
<path d="M621.347 174.856L619.459 169.771L623.879 172.903L628.954 171.011L625.824 175.439L627.713 180.523L623.293 177.388L618.217 179.284L621.347 174.856Z" fill="#F44D99"/>
<path d="M160.746 289.1L158.858 284.016L163.277 287.147L168.353 285.255L165.223 289.683L167.111 294.768L162.691 291.632L157.616 293.528L160.746 289.1Z" fill="#F44D99"/>
<path d="M1077.36 595.521C1077.36 594.407 1078.27 593.5 1079.38 593.5C1080.5 593.5 1081.4 594.407 1081.4 595.521C1081.4 596.64 1080.5 597.547 1079.38 597.547C1078.27 597.547 1077.36 596.64 1077.36 595.521Z" fill="#F44D99"/>
<path d="M1086.05 551.209C1086.05 550.079 1086.96 549.159 1088.09 549.159C1089.22 549.159 1090.13 550.079 1090.13 551.209C1090.13 552.34 1089.22 553.255 1088.09 553.255C1086.96 553.255 1086.05 552.34 1086.05 551.209Z" fill="#FFE843"/>
<path d="M319.085 420.525C319.085 418.901 320.399 417.584 322.025 417.584C323.647 417.584 324.961 418.901 324.961 420.525C324.961 422.15 323.647 423.47 322.025 423.47C320.399 423.47 319.085 422.15 319.085 420.525Z" fill="#E54884"/>
<path d="M311.936 521.174C311.936 518.796 313.861 516.867 316.235 516.867C318.608 516.867 320.533 518.796 320.533 521.174C320.533 523.552 318.608 525.48 316.235 525.48C313.861 525.48 311.936 523.552 311.936 521.174Z" stroke="#4BDFEA" stroke-width="4"/>
<path d="M278.776 471.749C278.776 469.371 280.701 467.442 283.074 467.442C285.448 467.442 287.373 469.371 287.373 471.749C287.373 474.127 285.448 476.055 283.074 476.055C280.701 476.055 278.776 474.127 278.776 471.749Z" stroke="#4BDFEA" stroke-width="4"/>
<path d="M185.757 505.613L180.581 504.013L185.757 502.412L187.35 497.231L188.948 502.412L194.124 504.013L188.948 505.613L187.35 510.794L185.757 505.613Z" fill="#F44D99"/>
<path d="M362.153 443.139L353.321 440.409L362.153 437.678L364.879 428.83L367.604 437.678L376.437 440.409L367.604 443.139L364.879 451.987L362.153 443.139Z" fill="#F44D99"/>
<path d="M936.308 334.943C936.308 333.764 937.262 332.808 938.439 332.808C939.616 332.808 940.57 333.764 940.57 334.943C940.57 336.122 939.616 337.078 938.439 337.078C937.262 337.078 936.308 336.122 936.308 334.943Z" fill="#E54884"/>
<path d="M1806.66 422.66C1805.41 421.947 1804.97 420.351 1805.68 419.095C1806.4 417.84 1807.99 417.402 1809.25 418.119C1810.5 418.832 1810.94 420.428 1810.22 421.684C1809.51 422.94 1807.92 423.377 1806.66 422.66Z" fill="#FFE843"/>
<path d="M967.547 351.343L961.137 349.362L967.547 347.385L969.52 340.964L971.498 347.385L977.903 349.362L971.498 351.343L969.52 357.76L967.547 351.343Z" fill="#F44D99"/>
<path d="M1775.89 31.9293C1773.82 30.7544 1773.1 28.1251 1774.28 26.0589C1775.45 23.9886 1778.08 23.2675 1780.14 24.4464C1782.2 25.6213 1782.92 28.2507 1781.75 30.3169C1780.58 32.383 1777.95 33.1042 1775.89 31.9293Z" fill="#4BDFEA"/>
<path d="M1901.67 125.524L1892.84 122.794L1901.67 120.063L1904.4 111.215L1907.12 120.063L1915.95 122.794L1907.12 125.524L1904.4 134.372L1901.67 125.524Z" fill="#F44D99"/>
<path d="M1881.63 9.23417C1882.91 8.24569 1884.76 8.48474 1885.75 9.773C1886.73 11.0613 1886.49 12.9086 1885.21 13.9011C1883.92 14.8896 1882.08 14.6505 1881.09 13.3623C1880.1 12.074 1880.34 10.2267 1881.63 9.23417Z" fill="#E54884"/>
<path d="M1224.7 100.395C1222.64 99.2198 1221.92 96.5906 1223.09 94.5245C1224.27 92.4544 1226.89 91.7333 1228.95 92.9122C1231.02 94.087 1231.74 96.7162 1230.56 98.7823C1229.39 100.848 1226.77 101.569 1224.7 100.395Z" fill="#4BDFEA"/>
<path d="M1330.44 77.6997C1331.73 76.7112 1333.57 76.9503 1334.56 78.2385C1335.55 79.5268 1335.31 81.3741 1334.02 82.3667C1332.74 83.3551 1330.89 83.1161 1329.9 81.8278C1328.92 80.5395 1329.15 78.6922 1330.44 77.6997Z" fill="#E54884"/>
<path d="M1304.03 12.5927C1305.91 11.1424 1308.61 11.4948 1310.05 13.3827C1311.5 15.2664 1311.15 17.9686 1309.27 19.4189C1307.39 20.8692 1304.69 20.5167 1303.24 18.6329C1301.79 16.7451 1302.14 14.043 1304.03 12.5927Z" stroke="#E1E84D" stroke-width="4"/>
<path d="M452.918 39.6343C452.918 37.3979 454.726 35.587 456.958 35.587C459.186 35.587 460.998 37.3979 460.998 39.6343C460.998 41.8707 459.186 43.6816 456.958 43.6816C454.726 43.6816 452.918 41.8707 452.918 39.6343Z" fill="#F44D99"/>
<path d="M419.585 17.932C419.585 16.4938 420.749 15.3271 422.185 15.3271C423.621 15.3271 424.785 16.4938 424.785 17.932C424.785 19.3701 423.621 20.5369 422.185 20.5369C420.749 20.5369 419.585 19.3701 419.585 17.932Z" fill="#FFE843"/>
<path d="M373.658 23.4296C373.658 21.9914 374.823 20.8246 376.258 20.8246C377.694 20.8246 378.858 21.9914 378.858 23.4296C378.858 24.8679 377.694 26.0347 376.258 26.0347C374.823 26.0347 373.658 24.8679 373.658 23.4296Z" fill="#FFE843"/>
<path d="M413.373 156.37L408.019 154.717L413.373 153.064L415.023 147.696L416.677 153.064L422.031 154.717L416.677 156.37L415.023 161.738L413.373 156.37Z" fill="#FFE843"/>
<path d="M1804.91 636.236C1805.73 635.608 1806.89 635.762 1807.52 636.577C1808.14 637.391 1807.99 638.558 1807.18 639.186C1806.36 639.809 1805.2 639.66 1804.57 638.845C1803.95 638.031 1804.1 636.864 1804.91 636.236Z" fill="#E54884"/>
<path d="M1775.95 637.334C1777.14 636.418 1778.85 636.641 1779.76 637.832C1780.68 639.023 1780.45 640.733 1779.27 641.649C1778.08 642.564 1776.37 642.341 1775.46 641.15C1774.54 639.959 1774.77 638.25 1775.95 637.334Z" stroke="#4BDFEA" stroke-width="2.528"/>
<path d="M1746.52 631.581L1745.33 628.369L1748.12 630.35L1751.33 629.151L1749.35 631.95L1750.55 635.163L1747.75 633.182L1744.54 634.381L1746.52 631.581Z" fill="#F44D99"/>
<path d="M1372.58 250.431C1372.58 248.75 1373.94 247.389 1375.61 247.389C1377.29 247.389 1378.64 248.75 1378.64 250.431C1378.64 252.108 1377.29 253.469 1375.61 253.469C1373.94 253.469 1372.58 252.108 1372.58 250.431Z" stroke="#4BDFEA" stroke-width="2.824"/>
<path d="M1517.24 564.829C1515.83 564.647 1514.84 563.355 1515.02 561.945C1515.21 560.535 1516.5 559.543 1517.9 559.725C1519.31 559.911 1520.3 561.204 1520.12 562.609C1519.93 564.019 1518.64 565.012 1517.24 564.829Z" fill="#E54884"/>
<path d="M1603.55 582.432C1601.49 582.164 1600.04 580.273 1600.31 578.211C1600.57 576.148 1602.46 574.694 1604.52 574.966C1606.58 575.233 1608.03 577.125 1607.76 579.187C1607.49 581.249 1605.6 582.699 1603.55 582.432Z" stroke="#4BDFEA" stroke-width="3.498"/>
<path d="M1546.65 592.143C1544.59 591.871 1543.14 589.984 1543.4 587.922C1543.68 585.859 1545.56 584.405 1547.62 584.672C1549.68 584.944 1551.13 586.832 1550.86 588.894C1550.59 590.956 1548.71 592.41 1546.65 592.143Z" stroke="#4BDFEA" stroke-width="3.498"/>
<path d="M1569.82 626.623L1567.85 630.937L1567.06 626.262L1562.75 624.285L1567.42 623.487L1569.39 619.173L1570.19 623.848L1574.49 625.821L1569.82 626.623Z" fill="#F44D99"/>
<path d="M1392.61 373.349C1392.99 374.743 1392.17 376.181 1390.78 376.562C1389.39 376.947 1387.96 376.128 1387.58 374.735C1387.19 373.341 1388.01 371.903 1389.4 371.522C1390.79 371.137 1392.23 371.955 1392.61 373.349Z" fill="#FFE843"/>
<path d="M1245.49 461.333C1244.47 461.204 1243.76 460.268 1243.89 459.251C1244.03 458.23 1244.96 457.513 1245.97 457.647C1246.99 457.78 1247.71 458.712 1247.57 459.733C1247.44 460.75 1246.51 461.467 1245.49 461.333Z" fill="#E54884"/>
<path d="M1307.87 474.054C1306.38 473.859 1305.33 472.494 1305.52 471.003C1305.72 469.513 1307.08 468.463 1308.57 468.658C1310.05 468.852 1311.11 470.217 1310.91 471.708C1310.72 473.199 1309.35 474.248 1307.87 474.054Z" stroke="#4BDFEA" stroke-width="2.528"/>
<path d="M1266.74 481.071C1265.26 480.876 1264.21 479.511 1264.4 478.02C1264.6 476.529 1265.96 475.48 1267.45 475.675C1268.94 475.869 1269.98 477.234 1269.79 478.725C1269.6 480.216 1268.23 481.265 1266.74 481.071Z" stroke="#4BDFEA" stroke-width="2.528"/>
<path d="M1283.49 505.99L1282.07 509.109L1281.5 505.73L1278.38 504.304L1281.75 503.725L1283.18 500.606L1283.76 503.988L1286.87 505.414L1283.49 505.99Z" fill="#F44D99"/>
<path d="M933.457 444.585C934.322 445.712 934.112 447.328 932.988 448.195C931.864 449.062 930.25 448.851 929.385 447.725C928.519 446.599 928.734 444.982 929.858 444.115C930.982 443.248 932.592 443.459 933.457 444.585Z" fill="#E54884"/>
<path d="M884.853 370.999C886.119 372.648 885.811 375.01 884.165 376.278C882.52 377.546 880.158 377.238 878.892 375.589C877.631 373.94 877.938 371.578 879.584 370.31C881.226 369.042 883.587 369.35 884.853 370.999Z" stroke="#4BDFEA" stroke-width="3.498"/>
<path d="M931.941 404.442C933.207 406.091 932.899 408.453 931.253 409.721C929.608 410.989 927.25 410.681 925.984 409.032C924.718 407.383 925.026 405.021 926.672 403.753C928.317 402.485 930.675 402.793 931.941 404.442Z" stroke="#4BDFEA" stroke-width="3.498"/>
<path d="M939.891 363.638L944.327 361.985L941.589 365.858L943.243 370.302L939.377 367.56L934.941 369.217L937.675 365.344L936.025 360.9L939.891 363.638Z" fill="#F44D99"/>
<path d="M857.653 435.624C857.653 433.039 859.748 430.941 862.328 430.941C864.912 430.941 867.007 433.039 867.007 435.624C867.007 438.213 864.912 440.311 862.328 440.311C859.748 440.311 857.653 438.213 857.653 435.624Z" fill="#F44D99"/>
<path d="M819.063 410.498C819.063 408.833 820.409 407.484 822.071 407.484C823.733 407.484 825.084 408.833 825.084 410.498C825.084 412.168 823.733 413.517 822.071 413.517C820.409 413.517 819.063 412.168 819.063 410.498Z" fill="#FFE843"/>
<path d="M765.893 416.863C765.893 415.198 767.24 413.849 768.902 413.849C770.564 413.849 771.915 415.198 771.915 416.863C771.915 418.532 770.564 419.881 768.902 419.881C767.24 419.881 765.893 418.532 765.893 416.863Z" fill="#FFE843"/>
<path d="M0.0607912 9.95915C0.0607913 8.79642 1.00315 7.85248 2.16382 7.85248C3.32448 7.85248 4.2627 8.79642 4.2627 9.95915C4.2627 11.1178 3.32448 12.0618 2.16382 12.0618C1.00315 12.0618 0.060791 11.1178 0.0607912 9.95915Z" fill="#F44D99"/>
<path d="M1071.71 322.028C1071.71 319.338 1073.89 317.159 1076.58 317.159C1079.27 317.159 1081.44 319.338 1081.44 322.028C1081.44 324.722 1079.27 326.902 1076.58 326.902C1073.89 326.902 1071.71 324.722 1071.71 322.028Z" fill="#F44D99"/>
<path d="M1422.62 263.484C1422.62 261.754 1424.02 260.349 1425.75 260.349C1427.48 260.349 1428.88 261.754 1428.88 263.484C1428.88 265.218 1427.48 266.624 1425.75 266.624C1424.02 266.624 1422.62 265.218 1422.62 263.484Z" fill="#FFE843"/>
<path d="M977.992 301.655C977.992 300.399 979.011 299.378 980.265 299.378C981.518 299.378 982.533 300.399 982.533 301.655C982.533 302.911 981.518 303.931 980.265 303.931C979.011 303.931 977.992 302.911 977.992 301.655Z" fill="#FFE843"/>
<path d="M1024.1 462.601L1017.65 460.608L1024.1 458.619L1026.09 452.157L1028.07 458.619L1034.52 460.608L1028.07 462.601L1026.09 469.063L1024.1 462.601Z" fill="#FFE843"/>
<path d="M710.233 438.452C709.4 438.452 708.724 437.775 708.724 436.941C708.724 436.106 709.4 435.426 710.233 435.426C711.066 435.426 711.741 436.106 711.741 436.941C711.741 437.775 711.066 438.452 710.233 438.452Z" fill="#FFE843"/>
<path d="M550.745 549.277C549.876 549.277 549.172 548.572 549.172 547.701C549.172 546.83 549.876 546.125 550.745 546.125C551.615 546.125 552.318 546.83 552.318 547.701C552.318 548.572 551.615 549.277 550.745 549.277Z" fill="#E54884"/>
<path d="M562.84 526.157L561.38 530.901L559.92 526.157L555.185 524.694L559.92 523.232L561.38 518.492L562.84 523.232L567.571 524.694L562.84 526.157Z" fill="#F44D99"/>
<path d="M541.222 449.058C539.24 449.058 537.631 447.445 537.631 445.46C537.631 443.471 539.24 441.859 541.222 441.859C543.207 441.859 544.816 443.471 544.816 445.46C544.816 447.445 543.207 449.058 541.222 449.058Z" fill="#F44D99"/>
<path d="M526.199 518.427C525.273 518.427 524.521 517.673 524.521 516.746C524.521 515.818 525.273 515.064 526.199 515.064C527.125 515.064 527.877 515.818 527.877 516.746C527.877 517.673 527.125 518.427 526.199 518.427Z" fill="#FFE843"/>
<path d="M644.891 484.304L643.419 489.076L641.951 484.304L637.188 482.833L641.951 481.358L643.419 476.586L644.891 481.358L649.655 482.833L644.891 484.304Z" fill="#FFE843"/>
<path d="M1794.21 251.44C1794.21 248.867 1796.29 246.777 1798.87 246.777C1801.44 246.777 1803.52 248.867 1803.52 251.44C1803.52 254.021 1801.44 256.111 1798.87 256.111C1796.29 256.111 1794.21 254.021 1794.21 251.44Z" fill="#FFE843"/>
<path d="M1085.31 134.36C1085.31 131.788 1087.39 129.697 1089.97 129.697C1092.54 129.697 1094.62 131.788 1094.62 134.36C1094.62 136.941 1092.54 139.031 1089.97 139.031C1087.39 139.031 1085.31 136.941 1085.31 134.36Z" fill="#FFE843"/>
<path d="M1865.34 489.57L1855.75 486.609L1865.34 483.643L1868.3 474.034L1871.26 483.643L1880.86 486.609L1871.26 489.57L1868.3 499.184L1865.34 489.57Z" fill="#FFE843"/>
<path d="M1694.47 567.957C1694.47 565.287 1696.63 563.124 1699.29 563.124C1701.96 563.124 1704.12 565.287 1704.12 567.957C1704.12 570.623 1701.96 572.786 1699.29 572.786C1696.63 572.786 1694.47 570.623 1694.47 567.957Z" stroke="#4BDFEA" stroke-width="4.489"/>
<path d="M1657.26 512.496C1657.26 509.826 1659.42 507.663 1662.09 507.663C1664.75 507.663 1666.91 509.826 1666.91 512.496C1666.91 515.162 1664.75 517.325 1662.09 517.325C1659.42 517.325 1657.26 515.162 1657.26 512.496Z" stroke="#4BDFEA" stroke-width="4.489"/>
<path d="M82.8273 196.55C82.8273 194.314 84.635 192.503 86.8632 192.503C89.0955 192.503 90.9033 194.314 90.9033 196.55C90.9033 198.782 89.0955 200.593 86.8632 200.593C84.635 200.593 82.8273 198.782 82.8273 196.55Z" fill="#F44D99"/>
<path d="M258.406 207.82C258.406 205.77 260.064 204.109 262.106 204.109C264.152 204.109 265.811 205.77 265.811 207.82C265.811 209.866 264.152 211.527 262.106 211.527C260.064 211.527 258.406 209.866 258.406 207.82Z" fill="#FFE843"/>
<path d="M199.111 76.2775C199.111 73.8994 201.036 71.9751 203.409 71.9751C205.783 71.9751 207.708 73.8994 207.708 76.2775C207.708 78.6555 205.783 80.584 203.409 80.584C201.036 80.584 199.111 78.6555 199.111 76.2775Z" stroke="#4BDFEA" stroke-width="6"/>
<path d="M121.229 105.868C119.976 105.151 119.539 103.554 120.255 102.299C120.966 101.047 122.559 100.605 123.813 101.322C125.066 102.035 125.503 103.631 124.791 104.887C124.076 106.143 122.483 106.581 121.229 105.868Z" fill="#FFE843"/>
<path d="M132.835 404.855L131.541 400.885L127.578 399.589L131.541 398.296L132.835 394.322L134.125 398.296L138.092 399.589L134.125 400.885L132.835 404.855Z" fill="#FFE843"/>
<path d="M1563.89 134.83C1563.02 133.732 1619.05 87.451 1620.42 86.3572L1701.88 21.1246C1703.26 20.0267 1705.87 19.8242 1705.45 21.2502C1705.04 22.6803 1706.4 24.001 1705.03 25.0948L1625.23 88.8689" fill="url(#paint2_linear_6_4)"/>
<path d="M1211.67 758.717C1210.8 757.619 1266.82 711.338 1268.2 710.244L1349.66 645.011C1351.04 643.913 1353.64 643.711 1353.23 645.137C1352.81 646.567 1354.18 647.888 1352.81 648.981L1273.01 712.756" fill="url(#paint3_linear_6_4)"/>
<path d="M305.424 701.594C304.555 700.496 360.583 654.215 361.954 653.122L443.415 587.885C444.794 586.791 447.402 586.589 446.986 588.015C446.569 589.445 447.936 590.765 446.565 591.859L366.766 655.633" fill="url(#paint4_linear_6_4)"/>
<path d="M170.095 68.0779C169.379 67.1744 215.581 29.012 216.713 28.1086L283.887 -25.6834C285.019 -26.5868 287.174 -26.7529 286.831 -25.5781L286.827 -25.574C286.483 -24.3951 287.611 -23.3094 286.479 -22.406L220.68 30.1828" fill="url(#paint5_linear_6_4)"/>
<path d="M55.5398 53.2098C61.4925 47.2504 71.1333 47.2423 77.0779 53.1976C83.0225 59.1489 83.0143 68.8111 77.0617 74.7704C71.1131 80.7338 61.4683 80.7419 55.5278 74.7866C49.5832 68.8313 49.5912 59.1732 55.5398 53.2098Z" fill="#FFBC4A"/>
<path d="M74.7152 51.3144C75.2369 51.837 75.1439 52.7809 74.4848 53.4413C73.8296 54.0976 72.8875 54.1907 72.3658 53.6681L69.531 50.8322C69.0376 50.338 68.2046 50.3705 67.5495 51.0268C67.0561 51.5251 66.7811 52.2583 67.1046 52.5824L77.0002 62.4997C77.5663 63.0628 77.3762 64.1728 76.717 64.8291C76.0619 65.4895 74.9539 65.6799 74.3918 65.1127L66.87 57.5816C66.4737 57.1846 65.5518 57.5086 64.9857 58.0758C64.46 58.6025 64.6055 58.9751 64.4397 59.8542L68.5644 63.9825C69.0375 64.4605 68.9042 65.3639 68.2491 66.0242C67.5939 66.6805 66.6882 66.8142 66.2151 66.3362L60.8407 60.9562C60.4363 60.551 59.6921 60.6402 59.033 61.2965C58.5072 61.8232 58.2283 62.524 58.5235 62.8198L64.1566 68.463C64.6135 68.9208 64.3346 69.9417 63.6795 70.6021C63.0244 71.2584 62.0012 71.5339 61.5442 71.0761L55.9919 65.5178C55.5714 65.0965 54.8151 65.1694 54.156 65.8298C53.6303 66.3564 53.3634 67.0654 53.6667 67.3692L56.7521 70.4604C57.1727 70.8817 56.9949 71.7405 56.3357 72.3968C55.6806 73.0572 54.8233 73.2353 54.3986 72.814L53.6222 72.0322C54.1116 73.045 54.8111 73.8998 55.6118 74.7019C61.5523 80.6572 71.1526 80.6895 77.1052 74.7302C83.0579 68.7669 83.0619 59.1089 77.1214 53.1537C76.2681 52.2988 75.156 51.7559 74.3594 50.9619L74.7152 51.3144Z" fill="#FF9151"/>
<path d="M707.822 81.5684C713.775 75.609 723.415 75.6009 729.36 81.5562C735.305 87.5075 735.297 97.1697 729.344 103.129C723.395 109.092 713.75 109.101 707.81 103.145C701.865 97.19 701.873 87.5318 707.822 81.5684Z" fill="#FFBC4A"/>
<path d="M726.999 79.673C727.52 80.1956 727.427 81.1395 726.768 81.7999C726.113 82.4562 725.171 82.5493 724.649 82.0267L721.814 79.1908C721.321 78.6966 720.488 78.7291 719.833 79.3854C719.339 79.8837 719.064 80.6169 719.388 80.941L729.283 90.8583C729.849 91.4214 729.659 92.5314 729 93.1877C728.345 93.8481 727.237 94.0385 726.675 93.4713L719.153 85.9402C718.757 85.5432 717.835 85.8672 717.269 86.4344C716.743 86.9611 716.889 87.3337 716.723 88.2129L720.848 92.3411C721.321 92.8191 721.187 93.7225 720.532 94.3828C719.877 95.0391 718.971 95.1728 718.498 94.6948L713.124 89.3148C712.719 88.9096 711.975 88.9988 711.316 89.6551C710.791 90.1818 710.512 90.8826 710.807 91.1784L716.44 96.8217C716.897 97.2794 716.618 98.3004 715.963 98.9607C715.308 99.617 714.284 99.8926 713.828 99.4348L708.275 93.8764C707.855 93.4551 707.098 93.528 706.439 94.1884C705.914 94.715 705.647 95.424 705.95 95.7279L709.036 98.819C709.456 99.2403 709.278 100.099 708.619 100.755C707.964 101.416 707.107 101.594 706.682 101.173L705.906 100.391C706.395 101.404 707.094 102.258 707.895 103.061C713.836 109.016 723.436 109.048 729.388 103.089C735.341 97.1255 735.345 87.4675 729.405 81.5122C728.551 80.6574 727.439 80.1145 726.643 79.3205L726.999 79.673Z" fill="#FF9151"/>
<path d="M848.519 535.701C856.053 528.154 868.253 528.146 875.775 535.681C883.297 543.216 883.289 555.443 875.759 562.986C868.225 570.534 856.024 570.542 848.499 563.006C840.977 555.471 840.989 543.245 848.519 535.701Z" fill="#FFBC4A"/>
<path d="M872.786 533.297C873.449 533.962 873.328 535.157 872.499 535.987C871.666 536.818 870.473 536.939 869.814 536.279L866.227 532.686C865.604 532.062 864.549 532.102 863.72 532.933C863.093 533.561 862.745 534.492 863.153 534.906L875.681 547.452C876.397 548.169 876.151 549.571 875.322 550.402C874.493 551.236 873.089 551.479 872.378 550.762L862.858 541.23C862.357 540.723 861.188 541.136 860.472 541.854C859.805 542.522 859.995 542.992 859.785 544.106L865.002 549.332C865.604 549.936 865.434 551.082 864.601 551.913C863.772 552.743 862.628 552.913 862.025 552.31L855.227 545.5C854.714 544.985 853.772 545.099 852.943 545.933C852.275 546.597 851.924 547.485 852.296 547.857L859.421 555C860.003 555.579 859.651 556.875 858.818 557.706C857.989 558.536 856.695 558.889 856.117 558.31L849.093 551.273C848.559 550.738 847.601 550.835 846.768 551.666C846.1 552.334 845.765 553.233 846.149 553.618L850.051 557.528C850.581 558.062 850.359 559.148 849.525 559.983C848.696 560.813 847.609 561.04 847.075 560.505L846.092 559.521C846.707 560.801 847.597 561.883 848.608 562.896C856.129 570.431 868.281 570.475 875.811 562.932C883.345 555.385 883.353 543.162 875.831 535.623C874.751 534.545 873.344 533.856 872.337 532.848L872.786 533.297Z" fill="#FF9151"/>
<path d="M1208.86 305.917C1208.86 314.355 1202.04 321.194 1193.63 321.194C1185.21 321.194 1178.4 314.355 1178.4 305.917C1178.4 297.482 1185.21 290.639 1193.63 290.639C1202.04 290.639 1208.86 297.482 1208.86 305.917Z" fill="#6679BF"/>
<path d="M1190.2 312.641C1190.2 310.741 1191.73 309.202 1193.63 309.202C1195.52 309.202 1197.06 310.741 1197.06 312.641C1197.06 314.541 1195.52 316.081 1193.63 316.081C1191.73 316.081 1190.2 314.541 1190.2 312.641Z" fill="#303B72"/>
<path d="M1194.25 316.081C1194.25 314.699 1195.37 313.577 1196.74 313.577C1198.12 313.577 1199.24 314.699 1199.24 316.081C1199.24 317.462 1198.12 318.584 1196.74 318.584C1195.37 318.584 1194.25 317.462 1194.25 316.081Z" fill="#303B72"/>
<path d="M1197.21 298.081C1197.21 296.959 1198.12 296.048 1199.24 296.048C1200.36 296.048 1201.26 296.959 1201.26 298.081C1201.26 299.204 1200.36 300.111 1199.24 300.111C1198.12 300.111 1197.21 299.204 1197.21 298.081Z" fill="#303B72"/>
<path d="M1181.89 307.663C1181.89 306.8 1182.59 306.103 1183.45 306.103C1184.31 306.103 1185 306.8 1185 307.663C1185 308.525 1184.31 309.226 1183.45 309.226C1182.59 309.226 1181.89 308.525 1181.89 307.663Z" fill="#303B72"/>
<path d="M1185.05 298.098C1185.05 296.283 1186.52 294.812 1188.32 294.812C1190.13 294.812 1191.6 296.283 1191.6 298.098C1191.6 299.913 1190.13 301.383 1188.32 301.383C1186.52 301.383 1185.05 299.913 1185.05 298.098Z" fill="#303B72"/>
<path d="M106.08 461.483C106.08 469.922 99.2622 476.76 90.8509 476.76C82.4395 476.76 75.6215 469.922 75.6215 461.483C75.6215 453.048 82.4395 446.206 90.8509 446.206C99.2622 446.206 106.08 453.048 106.08 461.483Z" fill="#6679BF"/>
<path d="M87.4218 468.208C87.4218 466.308 88.9584 464.769 90.851 464.769C92.7436 464.769 94.2803 466.308 94.2803 468.208C94.2803 470.108 92.7436 471.647 90.851 471.647C88.9584 471.647 87.4218 470.108 87.4218 468.208Z" fill="#303B72"/>
<path d="M91.4736 471.647C91.4736 470.266 92.5938 469.144 93.9688 469.144C95.3478 469.144 96.4639 470.266 96.4639 471.647C96.4639 473.029 95.3478 474.151 93.9687 474.151C92.5938 474.151 91.4736 473.029 91.4736 471.647Z" fill="#303B72"/>
<path d="M94.4377 453.648C94.4377 452.526 95.3438 451.614 96.4641 451.614C97.5844 451.614 98.4902 452.526 98.4902 453.648C98.4902 454.77 97.5844 455.677 96.4641 455.677C95.3438 455.677 94.4377 454.77 94.4377 453.648Z" fill="#303B72"/>
<path d="M79.1189 463.229C79.1189 462.366 79.8146 461.669 80.6718 461.669C81.5331 461.669 82.2285 462.366 82.2285 463.229C82.2285 464.092 81.5331 464.793 80.6718 464.793C79.8146 464.793 79.1189 464.092 79.1189 463.229Z" fill="#303B72"/>
<path d="M82.2772 453.664C82.2772 451.849 83.741 450.379 85.5486 450.379C87.3563 450.379 88.8242 451.849 88.8242 453.664C88.8242 455.479 87.3563 456.95 85.5486 456.95C83.741 456.95 82.2772 455.479 82.2772 453.664Z" fill="#303B72"/>
<path d="M1125.22 37.4023C1128.69 27.7725 1139.3 22.7977 1148.9 26.2898C1158.5 29.782 1163.46 40.4204 1159.98 50.0501C1156.5 59.6799 1145.9 64.6547 1136.29 61.1666C1126.69 57.6704 1121.73 47.032 1125.22 37.4023Z" fill="#FFA283"/>
<path d="M1132.74 38.8441L1147.19 44.1026C1147.58 44.5036 1147.77 45.0222 1147.58 45.5489C1147.33 46.2457 1146.55 46.5819 1145.83 46.3226L1141.69 44.8196C1140.93 44.5401 1140.11 44.8763 1139.85 45.5731C1139.6 46.2699 1140.02 47.0559 1140.78 47.3314L1144.85 48.81C1144.31 48.7452 1143.75 49.1382 1143.53 49.7378C1143.28 50.4346 1143.58 51.1922 1144.19 51.415L1148.69 53.0557C1149.05 53.4446 1149.21 53.9997 1149.01 54.5588C1148.76 55.2556 1148.05 55.6648 1147.43 55.4419L1139.33 52.4967C1138.66 52.2536 1137.91 52.6182 1137.66 53.311C1137.41 54.0078 1137.75 54.7694 1138.42 55.0125L1146.64 58.0024C1147.03 58.2738 1147.16 58.8814 1146.96 59.4364C1146.7 60.1332 1146.03 60.4979 1145.44 60.2791L1137.59 57.427C1136.9 57.1758 1136.13 57.5323 1135.88 58.2291C1135.63 58.9219 1135.99 59.6916 1136.68 59.9428L1142.71 62.1305C1142.76 62.1548 1142.8 62.2237 1142.85 62.2683C1150.32 62.167 1157.29 57.504 1159.98 50.0457C1163.46 40.4119 1158.5 29.7774 1148.9 26.2853C1148.09 25.9895 1147.28 25.718 1146.46 25.5398C1146.22 26.2285 1146.54 26.9131 1147.14 27.136L1151.64 28.7727C1152 29.1616 1152.16 29.7206 1151.96 30.2757C1151.71 30.9725 1151 31.3858 1150.38 31.163L1142.28 28.2136C1141.61 27.9706 1140.87 28.3352 1140.61 29.032C1140.36 29.7248 1140.7 30.4864 1141.37 30.7294L1149.59 33.7192C1149.94 34.1041 1150.09 34.6551 1149.89 35.2142C1149.63 35.911 1148.94 36.3283 1148.35 36.1135L1140.51 33.2615C1139.81 33.0062 1139.05 33.3668 1138.8 34.0636C1138.54 34.7564 1138.9 35.522 1139.6 35.7773L1145.61 37.9649C1146.09 38.2687 1146.28 38.917 1146.08 39.4761C1145.86 40.0757 1145.25 40.42 1144.63 40.3227L1133.65 36.3283C1132.83 36.0285 1131.96 36.3485 1131.7 37.0453C1131.45 37.7422 1131.92 38.5443 1132.74 38.8441Z" fill="#FE5E78"/>
<path d="M1829.67 387.832C1833.14 378.202 1843.75 373.228 1853.35 376.72C1862.95 380.212 1867.91 390.85 1864.43 400.48C1860.95 410.11 1850.35 415.085 1840.74 411.597C1831.14 408.1 1826.18 397.462 1829.67 387.832Z" fill="#FFA283"/>
<path d="M1837.19 389.275L1851.64 394.533C1852.03 394.934 1852.22 395.453 1852.03 395.979C1851.78 396.676 1851 397.012 1850.28 396.753L1846.14 395.246C1845.38 394.971 1844.55 395.307 1844.3 396.004C1844.05 396.7 1844.47 397.486 1845.23 397.762L1849.3 399.241C1848.76 399.176 1848.2 399.569 1847.98 400.168C1847.73 400.865 1848.02 401.623 1848.64 401.845L1853.14 403.486C1853.5 403.875 1853.66 404.43 1853.46 404.989C1853.21 405.686 1852.5 406.095 1851.88 405.872L1843.78 402.927C1843.11 402.684 1842.36 403.049 1842.11 403.741C1841.86 404.438 1842.2 405.2 1842.87 405.443L1851.09 408.433C1851.48 408.7 1851.61 409.312 1851.41 409.867C1851.15 410.564 1850.48 410.928 1849.89 410.71L1842.04 407.858C1841.35 407.606 1840.58 407.963 1840.33 408.66C1840.08 409.352 1840.44 410.122 1841.13 410.373L1847.16 412.561C1847.21 412.585 1847.25 412.654 1847.3 412.699C1854.77 412.597 1861.74 407.934 1864.43 400.476C1867.91 390.842 1862.95 380.208 1853.35 376.716C1852.54 376.42 1851.73 376.149 1850.91 375.97C1850.67 376.659 1850.98 377.344 1851.59 377.567L1856.09 379.203C1856.45 379.592 1856.61 380.151 1856.41 380.706C1856.16 381.403 1855.45 381.816 1854.83 381.593L1846.73 378.644C1846.06 378.401 1845.32 378.766 1845.06 379.462C1844.81 380.155 1845.15 380.917 1845.82 381.16L1854.04 384.15C1854.39 384.535 1854.54 385.086 1854.34 385.645C1854.08 386.341 1853.39 386.759 1852.8 386.544L1844.96 383.692C1844.26 383.437 1843.5 383.797 1843.24 384.494C1842.99 385.187 1843.35 385.953 1844.05 386.208L1850.06 388.395C1850.54 388.699 1850.73 389.347 1850.53 389.907C1850.31 390.506 1849.7 390.85 1849.08 390.753L1838.1 386.759C1837.28 386.459 1836.41 386.779 1836.15 387.476C1835.9 388.173 1836.37 388.975 1837.19 389.275Z" fill="#FE5E78"/>
</g>
<g opacity="0.1">
<path d="M254.603 0.000244141V662" stroke="#F4EBFF" stroke-width="2"/>
<path d="M723.869 0.000244141V662" stroke="#F4EBFF" stroke-width="2"/>
<path d="M1193.14 0.000244141V662" stroke="#F4EBFF" stroke-width="2"/>
<path d="M1662.4 0.000244141V662" stroke="#F4EBFF" stroke-width="2"/>
</g>
<defs>
<linearGradient id="paint0_linear_6_4" x1="2470.98" y1="184.376" x2="1445.48" y2="184.376" gradientUnits="userSpaceOnUse">
<stop stop-color="white"/>
<stop offset="1" stop-color="white" stop-opacity="0.01"/>
</linearGradient>
<linearGradient id="paint1_linear_6_4" x1="497.185" y1="-798.419" x2="-681.352" y2="-798.419" gradientUnits="userSpaceOnUse">
<stop stop-color="white" stop-opacity="0.01"/>
<stop offset="1" stop-color="white"/>
</linearGradient>
<linearGradient id="paint2_linear_6_4" x1="1693.97" y1="121.482" x2="1564.65" y2="135.452" gradientUnits="userSpaceOnUse">
<stop stop-color="white"/>
<stop offset="1" stop-color="#2AB0FF"/>
</linearGradient>
<linearGradient id="paint3_linear_6_4" x1="1341.74" y1="745.368" x2="1212.42" y2="759.338" gradientUnits="userSpaceOnUse">
<stop stop-color="white"/>
<stop offset="1" stop-color="#2AB0FF"/>
</linearGradient>
<linearGradient id="paint4_linear_6_4" x1="435.503" y1="688.246" x2="306.179" y2="702.216" gradientUnits="userSpaceOnUse">
<stop stop-color="white"/>
<stop offset="1" stop-color="#2AB0FF"/>
</linearGradient>
<linearGradient id="paint5_linear_6_4" x1="277.345" y1="57.2008" x2="170.705" y2="68.721" gradientUnits="userSpaceOnUse">
<stop stop-color="white"/>
<stop offset="1" stop-color="#2AB0FF"/>
</linearGradient>
<clipPath id="clip0_6_4">
<rect width="1916.01" height="662" fill="white" transform="translate(1916.01 662) rotate(-180)"/>
</clipPath>
</defs>
</svg>
