<svg width="1920" height="7090" viewBox="0 0 1920 7090" fill="none" xmlns="http://www.w3.org/2000/svg">
<g clip-path="url(#clip0_8_2)">
<rect width="1920" height="7090" fill="#FAF7FF"/>
<g opacity="0.2" clip-path="url(#clip1_8_2)">
<path d="M1772.86 145.745C1776.88 142.655 1782.66 143.408 1785.76 147.433C1788.86 151.457 1788.1 157.238 1784.08 160.328C1780.05 163.426 1774.28 162.673 1771.18 158.649C1768.08 154.625 1768.84 148.843 1772.86 145.745Z" stroke="#4BDFEA" stroke-width="4"/>
<path d="M1854.55 30.5076C1858.57 27.4092 1864.34 28.1621 1867.44 32.1953C1870.54 36.2198 1869.79 41.9926 1865.76 45.0911C1861.73 48.1895 1855.96 47.4363 1852.86 43.4119C1849.76 39.3787 1850.52 33.606 1854.55 30.5076Z" stroke="#4BDFEA" stroke-width="4"/>
<path d="M1754.89 11.0608L1750.85 0.199017L1760.3 6.88912L1771.16 2.84742L1764.47 12.307L1768.51 23.1687L1759.05 16.47L1748.19 20.5203L1754.89 11.0608Z" fill="#F44D99"/>
<path d="M1485.32 513.188C1488.07 511.076 1492.01 511.587 1494.13 514.339C1496.24 517.092 1495.73 521.038 1492.98 523.159C1490.23 525.27 1486.28 524.76 1484.16 522.008C1482.05 519.255 1482.56 515.309 1485.32 513.188Z" fill="#E54884"/>
<path d="M1305.57 632.139C1309.6 629.049 1315.38 629.802 1318.48 633.826C1321.57 637.851 1320.81 643.632 1316.79 646.722C1312.77 649.82 1306.99 649.067 1303.9 645.043C1300.8 641.018 1301.55 635.237 1305.57 632.139Z" stroke="#4BDFEA" stroke-width="4"/>
<path d="M1387.26 516.901C1391.29 513.803 1397.06 514.556 1400.16 518.589C1403.25 522.613 1402.5 528.386 1398.47 531.484C1394.45 534.583 1388.67 533.83 1385.58 529.805C1382.48 525.772 1383.23 520 1387.26 516.901Z" stroke="#4BDFEA" stroke-width="4"/>
<path d="M1287.6 497.454L1283.56 486.592L1293.02 493.283L1303.88 489.241L1297.18 498.7L1301.22 509.562L1291.76 502.863L1280.9 506.914L1287.6 497.454Z" fill="#F44D99"/>
<path d="M301.975 741.516L297.934 730.655L307.392 737.345L318.252 733.303L311.554 742.763L315.595 753.624L306.137 746.926L295.277 750.976L301.975 741.516Z" fill="#F44D99"/>
<path d="M1596.42 1658.32C1594.47 1657.21 1593.79 1654.73 1594.89 1652.79C1596 1650.85 1598.48 1650.16 1600.42 1651.27C1602.36 1652.38 1603.04 1654.85 1601.94 1656.8C1600.83 1658.74 1598.35 1659.42 1596.42 1658.32Z" fill="#FFE843"/>
<path d="M1639.68 1708.25L1625.98 1704.01L1639.68 1699.79L1643.92 1686.07L1648.14 1699.79L1661.85 1704.01L1648.14 1708.25L1643.92 1721.95L1639.68 1708.25Z" fill="#F44D99"/>
<path d="M1714.26 2144.64L1695.36 2138.81L1714.26 2132.97L1720.09 2114.07L1725.92 2132.97L1744.82 2138.81L1725.92 2144.64L1720.09 2163.54L1714.26 2144.64Z" fill="#F44D99"/>
<path d="M640.8 1022.28C640.8 1018.81 643.612 1016 647.091 1016C650.561 1016 653.373 1018.81 653.373 1022.28C653.373 1025.75 650.561 1028.58 647.091 1028.58C643.612 1028.58 640.8 1025.75 640.8 1022.28Z" fill="#E54884"/>
<path d="M625.5 1237.3C625.5 1232.22 629.619 1228.1 634.699 1228.1C639.779 1228.1 643.898 1232.22 643.898 1237.3C643.898 1242.38 639.779 1246.5 634.699 1246.5C629.619 1246.5 625.5 1242.38 625.5 1237.3Z" stroke="#4BDFEA" stroke-width="4"/>
<path d="M554.543 1131.71C554.543 1126.63 558.661 1122.51 563.741 1122.51C568.82 1122.51 572.939 1126.63 572.939 1131.71C572.939 1136.79 568.82 1140.91 563.741 1140.91C558.661 1140.91 554.543 1136.79 554.543 1131.71Z" stroke="#4BDFEA" stroke-width="4"/>
<path d="M355.496 1204.06L344.42 1200.64L355.496 1197.22L358.906 1186.15L362.324 1197.22L373.4 1200.64L362.324 1204.06L358.906 1215.13L355.496 1204.06Z" fill="#F44D99"/>
<path d="M732.959 1070.59L714.059 1064.76L732.959 1058.93L738.791 1040.03L744.624 1058.93L763.523 1064.76L744.624 1070.59L738.791 1089.5L732.959 1070.59Z" fill="#F44D99"/>
<path d="M1746.26 1628.92C1746.26 1625.23 1749.24 1622.24 1752.93 1622.24C1756.62 1622.24 1759.6 1625.23 1759.6 1628.92C1759.6 1632.6 1756.62 1635.59 1752.93 1635.59C1749.24 1635.59 1746.26 1632.6 1746.26 1628.92Z" stroke="#4BDFEA" stroke-width="2.901"/>
<path d="M1694.8 1552.34C1694.8 1548.65 1697.78 1545.67 1701.47 1545.67C1705.16 1545.67 1708.14 1548.65 1708.14 1552.34C1708.14 1556.02 1705.16 1559.01 1701.47 1559.01C1697.78 1559.01 1694.8 1556.02 1694.8 1552.34Z" stroke="#4BDFEA" stroke-width="2.901"/>
<path d="M639.934 1887.75C639.934 1884.28 642.747 1881.47 646.226 1881.47C649.696 1881.47 652.509 1884.28 652.509 1887.75C652.509 1891.22 649.696 1894.04 646.226 1894.04C642.747 1894.04 639.934 1891.22 639.934 1887.75Z" fill="#E54884"/>
<path d="M624.635 2102.77C624.635 2097.69 628.754 2093.57 633.834 2093.57C638.913 2093.57 643.032 2097.69 643.032 2102.77C643.032 2107.85 638.913 2111.97 633.834 2111.97C628.754 2111.97 624.635 2107.85 624.635 2102.77Z" stroke="#4BDFEA" stroke-width="4"/>
<path d="M309.65 1963.43C309.65 1958.35 313.769 1954.23 318.849 1954.23C323.929 1954.23 328.048 1958.35 328.048 1963.43C328.048 1968.51 323.929 1972.63 318.849 1972.63C313.769 1972.63 309.65 1968.51 309.65 1963.43Z" stroke="#4BDFEA" stroke-width="4"/>
<path d="M110.604 2043.56L99.5274 2040.14L110.604 2036.73L114.013 2025.66L117.431 2036.73L128.508 2040.14L117.431 2043.56L114.013 2054.63L110.604 2043.56Z" fill="#F44D99"/>
<path d="M222.459 1768.55C219.776 1767.03 218.841 1763.62 220.364 1760.94C221.896 1758.25 225.306 1757.32 227.988 1758.85C230.663 1760.37 231.606 1763.78 230.074 1766.47C228.551 1769.15 225.141 1770.08 222.459 1768.55Z" fill="#FFE843"/>
<path d="M38.0878 1664.31L19.1888 1658.47L38.0878 1652.64L43.9205 1633.74L49.7527 1652.64L68.6521 1658.47L49.7527 1664.31L43.9205 1683.21L38.0878 1664.31Z" fill="#F44D99"/>
<path d="M1126.18 2037.33C1126.18 2033.68 1129.15 2030.71 1132.8 2030.71C1136.46 2030.71 1139.42 2033.68 1139.42 2037.33C1139.42 2040.98 1136.46 2043.95 1132.8 2043.95C1129.15 2043.95 1126.18 2040.98 1126.18 2037.33Z" fill="#FFE843"/>
<path d="M1009.4 1716.07C1009.4 1707.73 1016.16 1700.98 1024.49 1700.98C1032.83 1700.98 1039.59 1707.73 1039.59 1716.07C1039.59 1724.41 1032.83 1731.17 1024.49 1731.17C1016.16 1731.17 1009.4 1724.41 1009.4 1716.07Z" stroke="#4BDFEA" stroke-width="4.759"/>
<path d="M1323.82 2010.47C1323.82 2004.42 1328.71 1999.52 1334.75 1999.52C1340.8 1999.52 1345.69 2004.42 1345.69 2010.47C1345.69 2016.51 1340.8 2021.41 1334.75 2021.41C1328.71 2021.41 1323.82 2016.51 1323.82 2010.47Z" stroke="#4BDFEA" stroke-width="4.759"/>
<path d="M927.185 208.578C927.185 203.8 931.054 199.932 935.831 199.932C940.599 199.932 944.476 203.8 944.476 208.578C944.476 213.356 940.599 217.224 935.831 217.224C931.054 217.224 927.185 213.356 927.185 208.578Z" fill="#F44D99"/>
<path d="M855.855 162.215C855.855 159.142 858.347 156.65 861.419 156.65C864.491 156.65 866.983 159.142 866.983 162.215C866.983 165.287 864.491 167.78 861.419 167.78C858.347 167.78 855.855 165.287 855.855 162.215Z" fill="#FFE843"/>
<path d="M757.578 173.959C757.578 170.887 760.07 168.394 763.142 168.394C766.214 168.394 768.707 170.887 768.707 173.959C768.707 177.032 766.214 179.524 763.142 179.524C760.07 179.524 757.578 177.032 757.578 173.959Z" fill="#FFE843"/>
<path d="M842.564 457.963L831.106 454.432L842.564 450.901L846.094 439.433L849.633 450.901L861.091 454.432L849.633 457.963L846.094 469.43L842.564 457.963Z" fill="#FFE843"/>
<path d="M1851.47 916.48C1854.18 920.002 1853.52 925.048 1850 927.757C1846.47 930.465 1841.42 929.808 1838.71 926.285C1836.01 922.763 1836.67 917.717 1840.19 915.008C1843.71 912.3 1848.76 912.957 1851.47 916.48Z" stroke="#4BDFEA" stroke-width="3.498"/>
<path d="M1793.27 1054.54C1793.27 1049.02 1797.75 1044.53 1803.27 1044.53C1808.8 1044.53 1813.28 1049.02 1813.28 1054.54C1813.28 1060.07 1808.8 1064.55 1803.27 1064.55C1797.75 1064.55 1793.27 1060.07 1793.27 1054.54Z" fill="#F44D99"/>
<path d="M1710.69 1000.86C1710.69 997.306 1713.57 994.424 1717.12 994.424C1720.68 994.424 1723.57 997.306 1723.57 1000.86C1723.57 1004.43 1720.68 1007.31 1717.12 1007.31C1713.57 1007.31 1710.69 1004.43 1710.69 1000.86Z" fill="#FFE843"/>
<path d="M1596.91 1014.46C1596.91 1010.9 1599.79 1008.02 1603.35 1008.02C1606.9 1008.02 1609.79 1010.9 1609.79 1014.46C1609.79 1018.03 1606.9 1020.91 1603.35 1020.91C1599.79 1020.91 1596.91 1018.03 1596.91 1014.46Z" fill="#FFE843"/>
<path d="M407.434 1991.12C407.434 1986.04 411.553 1981.92 416.633 1981.92C421.712 1981.92 425.831 1986.04 425.831 1991.12C425.831 1996.2 421.712 2000.32 416.633 2000.32C411.553 2000.32 407.434 1996.2 407.434 1991.12Z" stroke="#4BDFEA" stroke-width="4"/>
<path d="M365.898 1856.11C365.898 1851.03 370.017 1846.91 375.096 1846.91C380.176 1846.91 384.295 1851.03 384.295 1856.11C384.295 1861.19 380.176 1865.31 375.096 1865.31C370.017 1865.31 365.898 1861.19 365.898 1856.11Z" stroke="#4BDFEA" stroke-width="4"/>
<path d="M289.73 1923.26L278.654 1919.84L289.73 1916.43L293.14 1905.36L296.558 1916.43L307.634 1919.84L296.558 1923.26L293.14 1934.33L289.73 1923.26Z" fill="#F44D99"/>
<path d="M15.2683 1762.38C15.2683 1758.79 18.1761 1755.88 21.7588 1755.88C25.3502 1755.88 28.2493 1758.79 28.2493 1762.38C28.2493 1765.96 25.3502 1768.87 21.7588 1768.87C18.1761 1768.87 15.2683 1765.96 15.2683 1762.38Z" stroke="#4BDFEA" stroke-width="2.824"/>
<path d="M58.1382 2032.76C58.9516 2035.74 57.2036 2038.81 54.2268 2039.62C51.25 2040.45 48.1779 2038.7 47.3645 2035.72C46.5424 2032.74 48.2902 2029.67 51.267 2028.86C54.2438 2028.04 57.3161 2029.78 58.1382 2032.76Z" fill="#FFE843"/>
<path d="M122.355 1790.27C122.355 1786.57 125.358 1783.57 129.061 1783.57C132.756 1783.57 135.759 1786.57 135.759 1790.27C135.759 1793.97 132.756 1796.97 129.061 1796.97C125.358 1796.97 122.355 1793.97 122.355 1790.27Z" fill="#FFE843"/>
<path d="M1477.8 1060.58C1476.02 1060.58 1474.58 1059.13 1474.58 1057.35C1474.58 1055.57 1476.02 1054.12 1477.8 1054.12C1479.59 1054.12 1481.03 1055.57 1481.03 1057.35C1481.03 1059.13 1479.59 1060.58 1477.8 1060.58Z" fill="#FFE843"/>
<path d="M1136.52 1297.34C1134.66 1297.34 1133.15 1295.83 1133.15 1293.97C1133.15 1292.11 1134.66 1290.6 1136.52 1290.6C1138.38 1290.6 1139.89 1292.11 1139.89 1293.97C1139.89 1295.83 1138.38 1297.34 1136.52 1297.34Z" fill="#E54884"/>
<path d="M1162.4 1247.95L1159.28 1258.08L1156.16 1247.95L1146.02 1244.82L1156.16 1241.7L1159.28 1231.57L1162.4 1241.7L1172.53 1244.82L1162.4 1247.95Z" fill="#F44D99"/>
<path d="M1116.14 1083.24C1111.9 1083.24 1108.46 1079.79 1108.46 1075.55C1108.46 1071.3 1111.9 1067.86 1116.14 1067.86C1120.39 1067.86 1123.84 1071.3 1123.84 1075.55C1123.84 1079.79 1120.39 1083.24 1116.14 1083.24Z" fill="#F44D99"/>
<path d="M1083.99 1231.43C1082.01 1231.43 1080.4 1229.82 1080.4 1227.84C1080.4 1225.86 1082.01 1224.25 1083.99 1224.25C1085.98 1224.25 1087.59 1225.86 1087.59 1227.84C1087.59 1229.82 1085.98 1231.43 1083.99 1231.43Z" fill="#FFE843"/>
<path d="M1337.98 1158.53L1334.83 1168.73L1331.69 1158.53L1321.5 1155.39L1331.69 1152.24L1334.83 1142.05L1337.98 1152.24L1348.18 1155.39L1337.98 1158.53Z" fill="#FFE843"/>
<path d="M897.6 2157.46C897.6 2151.96 902.056 2147.5 907.568 2147.5C913.072 2147.5 917.528 2151.96 917.528 2157.46C917.528 2162.97 913.072 2167.44 907.568 2167.44C902.056 2167.44 897.6 2162.97 897.6 2157.46Z" fill="#FFE843"/>
<path d="M1232.14 1584.42C1232.14 1579.65 1236.01 1575.78 1240.78 1575.78C1245.55 1575.78 1249.42 1579.65 1249.42 1584.42C1249.42 1589.2 1245.55 1593.07 1240.78 1593.07C1236.01 1593.07 1232.14 1589.2 1232.14 1584.42Z" stroke="#F44D99" stroke-width="2"/>
<path d="M135.24 543.8C135.24 539.022 139.108 535.154 143.876 535.154C148.653 535.154 152.521 539.022 152.521 543.8C152.521 548.569 148.653 552.437 143.876 552.437C139.108 552.437 135.24 548.569 135.24 543.8Z" fill="#F44D99"/>
<path d="M510.955 567.877C510.955 563.498 514.503 559.949 518.873 559.949C523.251 559.949 526.799 563.498 526.799 567.877C526.799 572.248 523.251 575.797 518.873 575.797C514.503 575.797 510.955 572.248 510.955 567.877Z" fill="#FFE843"/>
<path d="M384.07 286.859C384.07 281.779 388.189 277.668 393.269 277.668C398.348 277.668 402.467 281.779 402.467 286.859C402.467 291.94 398.348 296.06 393.269 296.06C388.189 296.06 384.07 291.94 384.07 286.859Z" stroke="#4BDFEA" stroke-width="6"/>
<path d="M217.413 350.073C214.731 348.541 213.796 345.131 215.328 342.448C216.851 339.774 220.26 338.831 222.943 340.363C225.625 341.886 226.559 345.296 225.036 347.979C223.505 350.662 220.096 351.596 217.413 350.073Z" fill="#FFE843"/>
<path d="M242.249 988.807L239.48 980.325L231 977.556L239.48 974.795L242.249 966.305L245.01 974.795L253.499 977.556L245.01 980.325L242.249 988.807Z" fill="#FFE843"/>
<path d="M1122.45 1567.51C1117.68 1567.51 1113.81 1563.64 1113.81 1558.87C1113.81 1554.1 1117.68 1550.22 1122.45 1550.22C1127.23 1550.22 1131.1 1554.1 1131.1 1558.87C1131.1 1563.64 1127.23 1567.51 1122.45 1567.51Z" fill="#F44D99"/>
<path d="M401.992 2053.67C399.145 2050.08 583.255 1898.24 587.772 1894.65L855.474 1680.63C859.991 1677.04 868.575 1676.36 867.2 1681.05C865.832 1685.74 870.332 1690.07 865.815 1693.66L603.582 1902.9" fill="url(#paint0_linear_8_2)"/>
<path d="M611.568 1622.74C609.707 1620.39 729.601 1521.52 732.534 1519.18L906.849 1379.82C909.8 1377.48 915.382 1377.05 914.491 1380.09C913.599 1383.15 916.524 1385.97 913.591 1388.31L742.832 1524.55" fill="url(#paint1_linear_8_2)"/>
<path d="M321.981 269.342C320.449 267.412 419.315 185.885 421.738 183.955L565.481 69.0383C567.904 67.1083 572.516 66.7535 571.78 69.2634L571.772 69.272C571.036 71.7905 573.45 74.11 571.027 76.04L430.227 188.386" fill="url(#paint2_linear_8_2)"/>
<path d="M482.25 1762.83C482.25 1740.02 500.716 1721.52 523.501 1721.52C546.277 1721.52 564.744 1740.02 564.744 1762.83C564.744 1785.64 546.277 1804.14 523.501 1804.14C500.716 1804.14 482.25 1785.64 482.25 1762.83Z" fill="#FFBC4A"/>
<path d="M515.377 1722.45C517.376 1722.45 519.003 1724.44 519.003 1726.96C519.003 1729.47 517.376 1731.46 515.377 1731.46L504.517 1731.46C502.631 1731.46 501.09 1733.12 501.09 1735.63C501.09 1737.53 501.973 1739.46 503.219 1739.46L541.147 1739.46C543.319 1739.46 545.067 1741.95 545.067 1744.46C545.067 1746.98 543.319 1749.48 541.147 1749.48L512.331 1749.48C510.808 1749.48 509.666 1751.86 509.666 1754.04C509.666 1756.05 510.652 1756.48 512.019 1758.48L527.821 1758.48C529.646 1758.48 531.118 1760.47 531.118 1762.99C531.118 1765.5 529.646 1767.49 527.821 1767.49L507.234 1767.49C505.677 1767.49 504.422 1769.09 504.422 1771.61C504.422 1773.62 505.227 1775.49 506.352 1775.49L527.942 1775.49C529.69 1775.49 531.118 1777.98 531.118 1780.5C531.118 1783.01 529.69 1785.5 527.942 1785.5L506.663 1785.5C505.053 1785.5 503.738 1787.11 503.738 1789.62C503.738 1791.64 504.586 1793.51 505.746 1793.51L517.566 1793.51C519.184 1793.51 520.482 1795.5 520.482 1798.01C520.482 1800.53 519.184 1802.52 517.566 1802.52L514.581 1802.52C517.454 1803.52 520.439 1803.82 523.503 1803.82C546.278 1803.82 564.745 1785.48 564.745 1762.66C564.745 1739.85 546.278 1721.36 523.503 1721.36C520.24 1721.36 517.064 1722.45 514.018 1722.45L515.377 1722.45Z" fill="#FF9151"/>
<path d="M76.8458 237.579C89.5837 224.848 110.214 224.831 122.934 237.553C135.655 250.267 135.638 270.909 122.9 283.64C110.17 296.379 89.5319 296.397 76.82 283.674C64.0994 270.952 64.1165 250.319 76.8458 237.579Z" fill="#FFBC4A"/>
<path d="M117.881 233.531C118.997 234.647 118.798 236.664 117.388 238.074C115.986 239.476 113.97 239.675 112.853 238.559L106.787 232.501C105.731 231.445 103.949 231.514 102.547 232.916C101.491 233.981 100.903 235.547 101.595 236.239L122.77 257.426C123.982 258.629 123.575 261 122.164 262.402C120.762 263.813 118.391 264.22 117.189 263.008L101.093 246.919C100.245 246.071 98.2724 246.764 97.0609 247.975C95.936 249.1 96.2474 249.896 95.8926 251.775L104.719 260.594C105.731 261.615 105.446 263.545 104.044 264.956C102.642 266.358 100.704 266.643 99.6916 265.622L88.1912 254.129C87.3258 253.263 85.7334 253.454 84.3229 254.856C83.198 255.981 82.6011 257.478 83.2328 258.11L95.2867 270.166C96.2646 271.144 95.6678 273.325 94.2659 274.735C92.864 276.137 90.6745 276.726 89.6967 275.748L77.8155 263.874C76.9156 262.974 75.2973 263.129 73.8868 264.54C72.7619 265.665 72.1908 267.18 72.8398 267.829L79.4423 274.433C80.3422 275.333 79.9617 277.167 78.5511 278.57C77.1493 279.98 75.3147 280.361 74.4061 279.461L72.7447 277.79C73.7918 279.954 75.2888 281.78 77.0022 283.494C89.714 296.216 110.257 296.285 122.995 283.554C135.733 270.815 135.742 250.182 123.03 237.46C121.204 235.634 118.824 234.474 117.119 232.778L117.881 233.531Z" fill="#FF9151"/>
<path d="M1472.65 298.163C1485.38 285.431 1506.01 285.414 1518.73 298.137C1531.46 310.85 1531.44 331.492 1518.7 344.223C1505.97 356.963 1485.33 356.98 1472.62 344.258C1459.9 331.535 1459.92 310.902 1472.65 298.163Z" fill="#FFBC4A"/>
<path d="M1513.68 294.114C1514.8 295.23 1514.6 297.247 1513.19 298.657C1511.79 300.059 1509.77 300.258 1508.65 299.142L1502.59 293.084C1501.53 292.028 1499.75 292.097 1498.35 293.499C1497.29 294.564 1496.7 296.13 1497.4 296.822L1518.57 318.009C1519.78 319.212 1519.37 321.583 1517.96 322.986C1516.56 324.396 1514.19 324.803 1512.99 323.591L1496.89 307.502C1496.05 306.654 1494.07 307.347 1492.86 308.558C1491.74 309.683 1492.05 310.479 1491.69 312.358L1500.52 321.177C1501.53 322.198 1501.25 324.128 1499.84 325.539C1498.44 326.941 1496.5 327.226 1495.49 326.205L1483.99 314.712C1483.13 313.846 1481.53 314.037 1480.12 315.439C1479 316.564 1478.4 318.061 1479.03 318.693L1491.09 330.749C1492.06 331.727 1491.47 333.908 1490.07 335.318C1488.66 336.72 1486.47 337.309 1485.5 336.331L1473.62 324.457C1472.72 323.557 1471.1 323.712 1469.69 325.123C1468.56 326.248 1467.99 327.763 1468.64 328.412L1475.24 335.016C1476.14 335.916 1475.76 337.751 1474.35 339.153C1472.95 340.563 1471.12 340.944 1470.21 340.044L1468.55 338.374C1469.59 340.537 1471.09 342.363 1472.8 344.077C1485.51 356.799 1506.06 356.869 1518.79 344.137C1531.53 331.398 1531.54 310.765 1518.83 298.043C1517 296.217 1514.62 295.057 1512.92 293.361L1513.68 294.114Z" fill="#FF9151"/>
<path d="M1773.72 1308.34C1789.84 1292.21 1815.95 1292.2 1832.04 1308.29C1848.14 1324.39 1848.12 1350.51 1832.01 1366.63C1815.89 1382.75 1789.78 1382.77 1773.67 1366.67C1757.58 1350.57 1757.61 1324.45 1773.72 1308.34Z" fill="#FFBC4A"/>
<path d="M1825.65 1303.2C1827.07 1304.62 1826.81 1307.17 1825.03 1308.95C1823.25 1310.72 1820.7 1310.98 1819.29 1309.57L1811.61 1301.89C1810.28 1300.56 1808.02 1300.65 1806.25 1302.42C1804.9 1303.76 1804.16 1305.75 1805.03 1306.64L1831.84 1333.44C1833.37 1334.97 1832.85 1337.97 1831.07 1339.74C1829.3 1341.52 1826.3 1342.04 1824.77 1340.51L1804.4 1320.15C1803.33 1319.07 1800.83 1319.95 1799.3 1321.48C1797.87 1322.91 1798.28 1323.91 1797.83 1326.29L1808.99 1337.46C1810.28 1338.75 1809.91 1341.2 1808.13 1342.97C1806.36 1344.74 1803.91 1345.11 1802.62 1343.82L1788.07 1329.27C1786.97 1328.17 1784.96 1328.41 1783.18 1330.2C1781.76 1331.61 1781 1333.51 1781.8 1334.31L1797.05 1349.56C1798.29 1350.8 1797.54 1353.57 1795.76 1355.35C1793.98 1357.12 1791.21 1357.87 1789.98 1356.64L1774.95 1341.6C1773.8 1340.46 1771.75 1340.67 1769.97 1342.44C1768.54 1343.87 1767.82 1345.79 1768.65 1346.61L1777 1354.97C1778.13 1356.11 1777.65 1358.43 1775.87 1360.21C1774.1 1361.98 1771.77 1362.47 1770.63 1361.33L1768.53 1359.22C1769.84 1361.96 1771.74 1364.27 1773.91 1366.43C1790 1382.53 1816.01 1382.63 1832.12 1366.51C1848.24 1350.39 1848.26 1324.28 1832.16 1308.17C1829.85 1305.87 1826.84 1304.4 1824.69 1302.24L1825.65 1303.2Z" fill="#FF9151"/>
<path d="M184.997 1109.78C184.997 1127.81 170.408 1142.42 152.409 1142.42C134.41 1142.42 119.82 1127.81 119.82 1109.78C119.82 1091.76 134.41 1077.15 152.409 1077.15C170.408 1077.15 184.997 1091.76 184.997 1109.78Z" fill="#6679BF"/>
<path d="M145.07 1124.15C145.07 1120.09 148.359 1116.8 152.408 1116.8C156.458 1116.8 159.746 1120.09 159.746 1124.15C159.746 1128.21 156.458 1131.5 152.408 1131.5C148.359 1131.5 145.07 1128.21 145.07 1124.15Z" fill="#303B72"/>
<path d="M153.741 1131.5C153.741 1128.55 156.138 1126.15 159.08 1126.15C162.031 1126.15 164.42 1128.55 164.42 1131.5C164.42 1134.45 162.031 1136.85 159.08 1136.85C156.138 1136.85 153.741 1134.45 153.741 1131.5Z" fill="#303B72"/>
<path d="M160.083 1093.04C160.083 1090.65 162.022 1088.7 164.419 1088.7C166.817 1088.7 168.755 1090.65 168.755 1093.04C168.755 1095.44 166.817 1097.38 164.419 1097.38C162.022 1097.38 160.083 1095.44 160.083 1093.04Z" fill="#303B72"/>
<path d="M127.305 1113.51C127.305 1111.67 128.793 1110.18 130.628 1110.18C132.471 1110.18 133.958 1111.67 133.958 1113.51C133.958 1115.36 132.471 1116.85 130.628 1116.85C128.793 1116.85 127.305 1115.36 127.305 1113.51Z" fill="#303B72"/>
<path d="M134.063 1093.08C134.063 1089.2 137.195 1086.06 141.063 1086.06C144.931 1086.06 148.073 1089.2 148.073 1093.08C148.073 1096.96 144.931 1100.1 141.063 1100.1C137.195 1100.1 134.063 1096.96 134.063 1093.08Z" fill="#303B72"/>
</g>
</g>
<defs>
<linearGradient id="paint0_linear_8_2" x1="829.56" y1="2009.06" x2="404.588" y2="2055.04" gradientUnits="userSpaceOnUse">
<stop stop-color="white"/>
<stop offset="1" stop-color="#2AB0FF"/>
</linearGradient>
<linearGradient id="paint1_linear_8_2" x1="889.918" y1="1594.22" x2="613.193" y2="1624.16" gradientUnits="userSpaceOnUse">
<stop stop-color="white"/>
<stop offset="1" stop-color="#2AB0FF"/>
</linearGradient>
<linearGradient id="paint2_linear_8_2" x1="551.483" y1="246.105" x2="323.296" y2="270.797" gradientUnits="userSpaceOnUse">
<stop stop-color="white"/>
<stop offset="1" stop-color="#2AB0FF"/>
</linearGradient>
<clipPath id="clip0_8_2">
<rect width="1920" height="7090" fill="white"/>
</clipPath>
<clipPath id="clip1_8_2">
<rect width="4100" height="2168" fill="white" transform="translate(4058 2168) rotate(-180)"/>
</clipPath>
</defs>
</svg>
