<svg width="161" height="104" viewBox="0 0 161 104" fill="none" xmlns="http://www.w3.org/2000/svg">
<path opacity="0.05" d="M41.664 103.304C35.328 103.304 29.616 102.008 24.528 99.416C19.44 96.728 15.072 93.08 11.424 88.472C7.872 83.864 5.136 78.44 3.216 72.2C1.296 65.864 0.336001 59.048 0.336001 51.752C0.336001 44.456 1.296 37.688 3.216 31.448C5.136 25.112 7.872 19.64 11.424 15.032C15.072 10.424 19.44 6.82399 24.528 4.23199C29.616 1.54399 35.328 0.199993 41.664 0.199993C48 0.199993 53.712 1.54399 58.8 4.23199C63.888 6.82399 68.208 10.424 71.76 15.032C75.408 19.64 78.192 25.112 80.112 31.448C82.032 37.688 82.992 44.456 82.992 51.752C82.992 59.048 82.032 65.864 80.112 72.2C78.192 78.44 75.408 83.864 71.76 88.472C68.208 93.08 63.888 96.728 58.8 99.416C53.712 102.008 48 103.304 41.664 103.304ZM41.664 85.448C45.12 85.448 48.24 84.632 51.024 83C53.808 81.272 56.16 78.92 58.08 75.944C60.096 72.872 61.584 69.272 62.544 65.144C63.6 61.016 64.128 56.552 64.128 51.752C64.128 46.856 63.6 42.392 62.544 38.36C61.584 34.232 60.096 30.68 58.08 27.704C56.16 24.632 53.808 22.28 51.024 20.648C48.24 18.92 45.12 18.056 41.664 18.056C38.112 18.056 34.944 18.92 32.16 20.648C29.376 22.28 27.024 24.632 25.104 27.704C23.184 30.68 21.696 34.232 20.64 38.36C19.68 42.392 19.2 46.856 19.2 51.752C19.2 56.552 19.68 61.016 20.64 65.144C21.696 69.272 23.184 72.872 25.104 75.944C27.024 78.92 29.376 81.272 32.16 83C34.944 84.632 38.112 85.448 41.664 85.448ZM94.5615 101V83.864C100.226 78.296 105.458 73.112 110.258 68.312C112.274 66.296 114.338 64.232 116.45 62.12C118.562 60.008 120.53 58.04 122.354 56.216C124.178 54.392 125.81 52.76 127.25 51.32C128.69 49.784 129.794 48.584 130.562 47.72C132.098 45.896 133.442 44.264 134.594 42.824C135.842 41.384 136.802 39.992 137.474 38.648C138.242 37.208 138.818 35.816 139.202 34.472C139.586 33.032 139.778 31.496 139.778 29.864C139.778 26.696 138.53 23.96 136.034 21.656C133.538 19.256 130.13 18.056 125.81 18.056C121.49 18.056 118.13 19.304 115.73 21.8C113.33 24.2 111.698 26.936 110.834 30.008L93.6975 22.952C94.4655 20.36 95.7135 17.72 97.4415 15.032C99.1695 12.248 101.378 9.8 104.066 7.688C106.754 5.48 109.922 3.704 113.57 2.35999C117.314 0.919992 121.49 0.199993 126.098 0.199993C131.09 0.199993 135.602 0.967995 139.634 2.504C143.666 3.944 147.074 5.96 149.858 8.552C152.642 11.144 154.802 14.216 156.338 17.768C157.874 21.224 158.642 24.968 158.642 29C158.642 35.144 157.106 40.808 154.034 45.992C151.058 51.08 147.41 55.832 143.09 60.248L130.706 72.632C127.442 75.896 123.746 79.544 119.618 83.576L120.194 84.44H160.082V101H94.5615Z" fill="#7C14FD"/>
</svg>
