<svg width="165" height="104" viewBox="0 0 165 104" fill="none" xmlns="http://www.w3.org/2000/svg">
<path opacity="0.05" d="M41.664 103.304C35.328 103.304 29.616 102.008 24.528 99.416C19.44 96.728 15.072 93.08 11.424 88.472C7.872 83.864 5.136 78.44 3.216 72.2C1.296 65.864 0.336001 59.048 0.336001 51.752C0.336001 44.456 1.296 37.688 3.216 31.448C5.136 25.112 7.872 19.64 11.424 15.032C15.072 10.424 19.44 6.82399 24.528 4.23199C29.616 1.54399 35.328 0.199993 41.664 0.199993C48 0.199993 53.712 1.54399 58.8 4.23199C63.888 6.82399 68.208 10.424 71.76 15.032C75.408 19.64 78.192 25.112 80.112 31.448C82.032 37.688 82.992 44.456 82.992 51.752C82.992 59.048 82.032 65.864 80.112 72.2C78.192 78.44 75.408 83.864 71.76 88.472C68.208 93.08 63.888 96.728 58.8 99.416C53.712 102.008 48 103.304 41.664 103.304ZM41.664 85.448C45.12 85.448 48.24 84.632 51.024 83C53.808 81.272 56.16 78.92 58.08 75.944C60.096 72.872 61.584 69.272 62.544 65.144C63.6 61.016 64.128 56.552 64.128 51.752C64.128 46.856 63.6 42.392 62.544 38.36C61.584 34.232 60.096 30.68 58.08 27.704C56.16 24.632 53.808 22.28 51.024 20.648C48.24 18.92 45.12 18.056 41.664 18.056C38.112 18.056 34.944 18.92 32.16 20.648C29.376 22.28 27.024 24.632 25.104 27.704C23.184 30.68 21.696 34.232 20.64 38.36C19.68 42.392 19.2 46.856 19.2 51.752C19.2 56.552 19.68 61.016 20.64 65.144C21.696 69.272 23.184 72.872 25.104 75.944C27.024 78.92 29.376 81.272 32.16 83C34.944 84.632 38.112 85.448 41.664 85.448ZM129.808 103.304C125.776 103.304 121.888 102.776 118.144 101.72C114.496 100.664 111.136 99.08 108.064 96.968C104.992 94.76 102.256 92.024 99.8558 88.76C97.5518 85.496 95.7758 81.704 94.5278 77.384L112.24 70.328C113.488 75.128 115.6 78.776 118.576 81.272C121.552 83.672 125.296 84.872 129.808 84.872C131.824 84.872 133.744 84.584 135.568 84.008C137.392 83.336 138.976 82.424 140.32 81.272C141.664 80.12 142.72 78.776 143.488 77.24C144.352 75.608 144.784 73.784 144.784 71.768C144.784 67.544 143.2 64.232 140.032 61.832C136.96 59.432 132.688 58.232 127.216 58.232H118.72V41.096H126.496C128.416 41.096 130.288 40.856 132.112 40.376C133.936 39.896 135.52 39.176 136.864 38.216C138.304 37.16 139.408 35.864 140.176 34.328C141.04 32.696 141.472 30.824 141.472 28.712C141.472 25.448 140.32 22.808 138.016 20.792C135.712 18.68 132.592 17.624 128.656 17.624C124.432 17.624 121.168 18.776 118.864 21.08C116.656 23.288 115.12 25.784 114.256 28.568L96.9758 21.512C97.8398 19.112 99.1358 16.664 100.864 14.168C102.592 11.576 104.752 9.27199 107.344 7.256C110.032 5.144 113.152 3.46399 116.704 2.21599C120.256 0.871993 124.336 0.199993 128.944 0.199993C133.648 0.199993 137.92 0.871993 141.76 2.21599C145.696 3.55999 149.056 5.43199 151.84 7.832C154.624 10.136 156.784 12.92 158.32 16.184C159.856 19.352 160.624 22.808 160.624 26.552C160.624 29.432 160.24 32.024 159.472 34.328C158.8 36.632 157.888 38.696 156.736 40.52C155.584 42.344 154.24 43.928 152.704 45.272C151.264 46.52 149.776 47.528 148.24 48.296V49.448C152.848 51.272 156.64 54.2 159.616 58.232C162.688 62.264 164.224 67.352 164.224 73.496C164.224 77.816 163.408 81.8 161.776 85.448C160.144 89 157.792 92.12 154.72 94.808C151.744 97.496 148.144 99.56 143.92 101C139.696 102.536 134.992 103.304 129.808 103.304Z" fill="#7C14FD"/>
</svg>
