<svg width="172" height="104" viewBox="0 0 172 104" fill="none" xmlns="http://www.w3.org/2000/svg">
<path opacity="0.05" d="M41.664 103.304C35.328 103.304 29.616 102.008 24.528 99.416C19.44 96.728 15.072 93.08 11.424 88.472C7.872 83.864 5.136 78.44 3.216 72.2C1.296 65.864 0.336001 59.048 0.336001 51.752C0.336001 44.456 1.296 37.688 3.216 31.448C5.136 25.112 7.872 19.64 11.424 15.032C15.072 10.424 19.44 6.82399 24.528 4.23199C29.616 1.54399 35.328 0.199993 41.664 0.199993C48 0.199993 53.712 1.54399 58.8 4.23199C63.888 6.82399 68.208 10.424 71.76 15.032C75.408 19.64 78.192 25.112 80.112 31.448C82.032 37.688 82.992 44.456 82.992 51.752C82.992 59.048 82.032 65.864 80.112 72.2C78.192 78.44 75.408 83.864 71.76 88.472C68.208 93.08 63.888 96.728 58.8 99.416C53.712 102.008 48 103.304 41.664 103.304ZM41.664 85.448C45.12 85.448 48.24 84.632 51.024 83C53.808 81.272 56.16 78.92 58.08 75.944C60.096 72.872 61.584 69.272 62.544 65.144C63.6 61.016 64.128 56.552 64.128 51.752C64.128 46.856 63.6 42.392 62.544 38.36C61.584 34.232 60.096 30.68 58.08 27.704C56.16 24.632 53.808 22.28 51.024 20.648C48.24 18.92 45.12 18.056 41.664 18.056C38.112 18.056 34.944 18.92 32.16 20.648C29.376 22.28 27.024 24.632 25.104 27.704C23.184 30.68 21.696 34.232 20.64 38.36C19.68 42.392 19.2 46.856 19.2 51.752C19.2 56.552 19.68 61.016 20.64 65.144C21.696 69.272 23.184 72.872 25.104 75.944C27.024 78.92 29.376 81.272 32.16 83C34.944 84.632 38.112 85.448 41.664 85.448ZM140.608 101V82.856H95.1038V67.592L138.88 2.504H159.328V65.288H171.712V82.856H159.328V101H140.608ZM140.608 30.584H139.456L115.984 65.288H140.608V30.584Z" fill="#7C14FD"/>
</svg>
