<svg width="2001" height="748" viewBox="0 0 2001 748" fill="none" xmlns="http://www.w3.org/2000/svg">
<g opacity="0.3" clip-path="url(#clip0_8_3558)">
<path d="M1755.23 234.837C1755.23 233.001 1756.6 231.513 1758.3 231.513C1759.99 231.513 1761.36 233.001 1761.36 234.837C1761.36 236.672 1759.99 238.165 1758.3 238.165C1756.6 238.165 1755.23 236.672 1755.23 234.837Z" fill="#E54884"/>
<path fill-rule="evenodd" clip-rule="evenodd" d="M1629.35 406.554C1630.68 406.554 1631.75 405.386 1631.75 403.947C1631.75 402.509 1630.68 401.341 1629.35 401.341C1628.02 401.341 1626.94 402.509 1626.94 403.947C1626.94 405.386 1628.02 406.554 1629.35 406.554ZM1635.92 403.947C1635.92 407.883 1632.98 411.073 1629.35 411.073C1625.72 411.073 1622.78 407.883 1622.78 403.947C1622.78 400.012 1625.72 396.822 1629.35 396.822C1632.98 396.822 1635.92 400.012 1635.92 403.947Z" fill="#4BDFEA"/>
<path fill-rule="evenodd" clip-rule="evenodd" d="M1609.08 335.145C1610.41 335.145 1611.48 333.977 1611.48 332.539C1611.48 331.101 1610.41 329.933 1609.08 329.933C1607.75 329.933 1606.67 331.101 1606.67 332.539C1606.67 333.977 1607.75 335.145 1609.08 335.145ZM1615.65 332.539C1615.65 336.474 1612.71 339.665 1609.08 339.665C1605.45 339.665 1602.5 336.474 1602.5 332.539C1602.5 328.603 1605.45 325.413 1609.08 325.413C1612.71 325.413 1615.65 328.603 1615.65 332.539Z" fill="#4BDFEA"/>
<path d="M1567.41 368.056L1562.01 366.247L1567.41 364.439L1569.08 358.585L1570.75 364.439L1576.15 366.247L1570.75 368.056L1569.08 373.91L1567.41 368.056Z" fill="#F44D99"/>
<path fill-rule="evenodd" clip-rule="evenodd" d="M886.573 16.9967C887.383 18.1374 888.891 18.3498 889.942 17.4728L889.945 17.4709C890.996 16.5963 891.193 14.9589 890.386 13.8219C889.576 12.6817 888.063 12.4678 887.011 13.3421C885.96 14.2202 885.764 15.8582 886.573 16.9967ZM892.484 21.0552C889.608 23.4546 885.483 22.8704 883.27 19.7543C881.055 16.6362 881.594 12.1593 884.469 9.75958L884.471 9.75772C887.347 7.36473 891.475 7.94767 893.689 11.0643C895.905 14.1839 895.36 18.6613 892.484 21.0552Z" fill="#4BDFEA"/>
<path d="M745.404 205.893C746.747 204.776 748.673 205.046 749.708 206.502C750.738 207.957 750.489 210.045 749.146 211.166C747.803 212.283 745.877 212.013 744.842 210.557C743.812 209.102 744.061 207.014 745.404 205.893Z" fill="#E54884"/>
<path fill-rule="evenodd" clip-rule="evenodd" d="M658.514 274.252C659.325 275.393 660.833 275.605 661.884 274.728L661.886 274.726L661.886 274.726C662.937 273.852 663.135 272.214 662.328 271.077C661.518 269.937 660.004 269.723 658.952 270.598C657.901 271.476 657.706 273.114 658.514 274.252ZM664.426 278.311C661.549 280.71 657.425 280.126 655.211 277.01C652.997 273.892 653.535 269.415 656.411 267.015L656.413 267.013C659.289 264.62 663.417 265.203 665.63 268.32C667.846 271.439 667.301 275.917 664.426 278.311Z" fill="#4BDFEA"/>
<path fill-rule="evenodd" clip-rule="evenodd" d="M698.379 213.304C699.189 214.444 700.697 214.656 701.748 213.779L701.75 213.778C702.804 212.899 703 211.266 702.191 210.128L702.19 210.126C701.379 208.983 699.872 208.771 698.821 209.647L698.82 209.649C697.766 210.526 697.568 212.159 698.379 213.304ZM704.29 217.361C701.413 219.761 697.289 219.177 695.075 216.06L695.074 216.059C692.861 212.937 693.398 208.465 696.28 206.065C696.28 206.065 696.28 206.065 696.28 206.065L697.55 207.857L696.279 206.066C696.279 206.066 696.279 206.065 696.28 206.065C699.156 203.665 703.282 204.25 705.495 207.371" fill="#4BDFEA"/>
<path d="M648.91 197.571L646.938 191.826L651.554 195.365L656.854 193.227L653.585 198.23L655.558 203.975L650.942 200.432L645.641 202.574L648.91 197.571Z" fill="#F44D99"/>
<path d="M167.876 326.657L165.904 320.912L170.52 324.45L175.82 322.313L172.551 327.316L174.524 333.061L169.908 329.518L164.608 331.66L167.876 326.657Z" fill="#F44D99"/>
<path d="M1125.15 672.885C1125.15 671.626 1126.1 670.601 1127.26 670.601C1128.43 670.601 1129.37 671.626 1129.37 672.885C1129.37 674.148 1128.43 675.174 1127.26 675.174C1126.1 675.174 1125.15 674.148 1125.15 672.885Z" fill="#F44D99"/>
<path d="M1134.22 622.816C1134.22 621.539 1135.18 620.5 1136.36 620.5C1137.54 620.5 1138.49 621.539 1138.49 622.816C1138.49 624.093 1137.54 625.128 1136.36 625.128C1135.18 625.128 1134.22 624.093 1134.22 622.816Z" fill="#FFE843"/>
<path d="M333.239 475.155C333.239 473.32 334.612 471.832 336.31 471.832C338.003 471.832 339.376 473.32 339.376 475.155C339.376 476.991 338.003 478.483 336.31 478.483C334.612 478.483 333.239 476.991 333.239 475.155Z" fill="#E54884"/>
<path fill-rule="evenodd" clip-rule="evenodd" d="M330.262 591.485C331.591 591.485 332.667 590.317 332.667 588.879C332.667 587.44 331.591 586.273 330.262 586.273C328.934 586.273 327.857 587.44 327.857 588.879C327.857 590.317 328.934 591.485 330.262 591.485ZM336.836 588.879C336.836 592.814 333.892 596.004 330.262 596.004C326.632 596.004 323.688 592.814 323.688 588.879C323.688 584.943 326.632 581.753 330.262 581.753C333.892 581.753 336.836 584.943 336.836 588.879Z" fill="#4BDFEA"/>
<path fill-rule="evenodd" clip-rule="evenodd" d="M295.631 535.639C296.959 535.639 298.036 534.471 298.036 533.033C298.036 531.595 296.959 530.427 295.631 530.427C294.303 530.427 293.226 531.595 293.226 533.033C293.226 534.471 294.303 535.639 295.631 535.639ZM302.205 533.033C302.205 536.969 299.261 540.159 295.631 540.159C292.001 540.159 289.057 536.969 289.057 533.033C289.057 529.097 292.001 525.907 295.631 525.907C299.261 525.907 302.205 529.097 302.205 533.033Z" fill="#4BDFEA"/>
<path d="M193.998 571.297L188.591 569.489L193.998 567.68L195.661 561.826L197.33 567.68L202.736 569.489L197.33 571.297L195.661 577.151L193.998 571.297Z" fill="#F44D99"/>
<path d="M378.218 500.707L368.994 497.622L378.218 494.536L381.064 484.539L383.911 494.536L393.135 497.622L383.911 500.707L381.064 510.704L378.218 500.707Z" fill="#F44D99"/>
<path d="M977.842 378.455C977.842 377.123 978.839 376.043 980.068 376.043C981.297 376.043 982.294 377.123 982.294 378.455C982.294 379.787 981.297 380.868 980.068 380.868C978.839 380.868 977.842 379.787 977.842 378.455Z" fill="#E54884"/>
<path d="M1886.81 477.567C1885.5 476.762 1885.04 474.958 1885.78 473.539C1886.53 472.12 1888.2 471.626 1889.5 472.436C1890.81 473.242 1891.27 475.045 1890.52 476.464C1889.78 477.883 1888.12 478.378 1886.81 477.567Z" fill="#FFE843"/>
<path d="M1010.47 396.985L1003.77 394.747L1010.47 392.513L1012.53 385.258L1014.59 392.513L1021.28 394.747L1014.59 396.985L1012.53 404.236L1010.47 396.985Z" fill="#F44D99"/>
<path d="M1854.66 36.077C1852.51 34.7495 1851.76 31.7786 1852.99 29.444C1854.21 27.1048 1856.95 26.2899 1859.11 27.622C1861.26 28.9496 1862.01 31.9205 1860.79 34.2551C1859.56 36.5897 1856.82 37.4045 1854.66 36.077Z" fill="#4BDFEA"/>
<path d="M1986.03 141.831L1976.8 138.746L1986.03 135.66L1988.88 125.663L1991.72 135.66L2000.95 138.746L1991.72 141.831L1988.88 151.828L1986.03 141.831Z" fill="#F44D99"/>
<path d="M1965.09 10.4335C1966.44 9.31665 1968.36 9.58676 1969.4 11.0424C1970.43 12.498 1970.18 14.5853 1968.84 15.7067C1967.49 16.8236 1965.57 16.5535 1964.53 15.0979C1963.5 13.6423 1963.75 11.555 1965.09 10.4335Z" fill="#E54884"/>
<path d="M1279.03 113.436C1276.87 112.109 1276.12 109.138 1277.35 106.804C1278.57 104.465 1281.32 103.65 1283.47 104.982C1285.62 106.309 1286.38 109.28 1285.15 111.615C1283.93 113.949 1281.18 114.764 1279.03 113.436Z" fill="#4BDFEA"/>
<path d="M1389.46 87.7933C1390.8 86.6765 1392.73 86.9466 1393.76 88.4022C1394.79 89.8578 1394.54 91.9451 1393.2 93.0666C1391.86 94.1835 1389.93 93.9134 1388.9 92.4577C1387.87 91.0021 1388.11 88.9148 1389.46 87.7933Z" fill="#E54884"/>
<path fill-rule="evenodd" clip-rule="evenodd" d="M1362.7 19.6755C1363.51 20.8152 1365.02 21.0273 1366.07 20.1505L1366.08 20.1491C1367.13 19.2706 1367.33 17.6377 1366.52 16.4997L1366.52 16.4978C1365.7 15.3544 1364.2 15.1424 1363.15 16.0191L1363.14 16.0205C1362.09 16.8978 1361.89 18.5311 1362.7 19.6755ZM1368.62 23.7329C1365.74 26.1324 1361.61 25.5481 1359.4 22.4321L1359.4 22.4302C1357.19 19.3087 1357.72 14.8368 1360.6 12.4367M1368.62 23.7329C1371.5 21.3339 1372.03 16.8616 1369.82 13.7429Z" fill="#E1E84D"/>
<path d="M473.01 44.7828C473.01 42.2559 474.898 40.2097 477.229 40.2097C479.556 40.2097 481.448 42.2559 481.448 44.7828C481.448 47.3097 479.556 49.356 477.229 49.356C474.898 49.356 473.01 47.3097 473.01 44.7828Z" fill="#F44D99"/>
<path d="M438.197 20.2613C438.197 18.6363 439.413 17.3181 440.912 17.3181C442.412 17.3181 443.628 18.6363 443.628 20.2613C443.628 21.8862 442.412 23.2046 440.912 23.2046C439.413 23.2046 438.197 21.8862 438.197 20.2613Z" fill="#FFE843"/>
<path d="M390.233 26.4731C390.233 24.848 391.449 23.5296 392.949 23.5296C394.448 23.5296 395.664 24.848 395.664 26.4731C395.664 28.0981 394.448 29.4165 392.949 29.4165C391.449 29.4165 390.233 28.0981 390.233 26.4731Z" fill="#FFE843"/>
<path d="M431.71 176.684L426.118 174.816L431.71 172.949L433.433 166.883L435.16 172.949L440.752 174.816L435.16 176.684L433.433 182.749L431.71 176.684Z" fill="#FFE843"/>
<path d="M1884.98 718.889C1885.83 718.18 1887.05 718.354 1887.7 719.274C1888.35 720.194 1888.19 721.512 1887.34 722.221C1886.49 722.926 1885.28 722.757 1884.62 721.837C1883.97 720.917 1884.13 719.599 1884.98 718.889Z" fill="#E54884"/>
<path fill-rule="evenodd" clip-rule="evenodd" d="M1855.26 723.57C1855.77 724.293 1856.73 724.425 1857.39 723.872C1858.05 723.319 1858.18 722.284 1857.67 721.563C1857.16 720.843 1856.2 720.707 1855.54 721.262C1854.87 721.815 1854.75 722.849 1855.26 723.57ZM1859 726.137C1857.18 727.653 1854.57 727.282 1853.17 725.314L1853.17 725.312C1851.77 723.341 1852.11 720.513 1853.93 718.997C1855.75 717.482 1858.36 717.85 1859.76 719.822C1861.15 721.793 1860.82 724.621 1859 726.137Z" fill="#4BDFEA"/>
<path d="M1824 713.629L1822.75 709.999L1825.67 712.238L1829.02 710.883L1826.95 714.046L1828.2 717.676L1825.28 715.437L1821.93 716.792L1824 713.629Z" fill="#F44D99"/>
<path fill-rule="evenodd" clip-rule="evenodd" d="M1436.63 284.802C1437.57 284.802 1438.33 283.979 1438.33 282.964C1438.33 281.943 1437.57 281.122 1436.63 281.122C1435.7 281.122 1434.94 281.945 1434.94 282.964C1434.94 283.978 1435.7 284.802 1436.63 284.802ZM1441.27 282.964C1441.27 285.739 1439.2 287.993 1436.63 287.993C1434.07 287.993 1431.99 285.741 1431.99 282.964C1431.99 280.184 1434.07 277.931 1436.63 277.931C1439.2 277.931 1441.27 280.186 1441.27 282.964Z" fill="#4BDFEA"/>
<path d="M1584.54 638.206C1583.07 638 1582.04 636.54 1582.23 634.947C1582.42 633.354 1583.77 632.233 1585.24 632.439C1586.71 632.649 1587.74 634.109 1587.55 635.698C1587.36 637.291 1586.01 638.412 1584.54 638.206Z" fill="#E54884"/>
<path fill-rule="evenodd" clip-rule="evenodd" d="M1674.91 656.135C1676.07 656.298 1677.12 655.416 1677.27 654.174L1677.27 654.171C1677.42 652.924 1676.61 651.78 1675.46 651.619L1675.46 651.618C1674.31 651.454 1673.25 652.334 1673.1 653.58C1672.95 654.832 1673.77 655.974 1674.91 656.135ZM1680.89 654.685C1680.48 658.102 1677.59 660.497 1674.44 660.055C1671.29 659.612 1669.08 656.479 1669.49 653.071C1669.9 649.657 1672.78 647.251 1675.93 647.699C1679.08 648.143 1681.3 651.272 1680.89 654.685Z" fill="#4BDFEA"/>
<path fill-rule="evenodd" clip-rule="evenodd" d="M1617.85 665.14C1618 663.895 1617.19 662.752 1616.03 662.586C1614.88 662.425 1613.83 663.304 1613.68 664.554C1613.53 665.799 1614.34 666.942 1615.49 667.108C1616.64 667.268 1617.7 666.39 1617.85 665.14ZM1621.46 665.654C1621.05 669.063 1618.17 671.47 1615.02 671.027L1615.02 671.027C1611.87 670.578 1609.65 667.457 1610.06 664.043L1610.06 664.04C1610.48 660.631 1613.36 658.224 1616.5 658.667L1616.51 658.667C1619.65 659.116 1621.87 662.237 1621.46 665.65L1621.46 665.654L1621.46 665.654Z" fill="#4BDFEA"/>
<path d="M1639.46 708.026L1637.4 712.901L1636.57 707.619L1632.07 705.385L1636.95 704.483L1639 699.608L1639.84 704.891L1644.34 707.12L1639.46 708.026Z" fill="#F44D99"/>
<path d="M1454.39 421.85C1454.78 423.425 1453.93 425.05 1452.48 425.48C1451.02 425.915 1449.53 424.991 1449.13 423.416C1448.73 421.841 1449.58 420.216 1451.03 419.786C1452.49 419.351 1453.99 420.276 1454.39 421.85Z" fill="#FFE843"/>
<path d="M1300.74 521.265C1299.68 521.118 1298.93 520.061 1299.07 518.912C1299.21 517.758 1300.18 516.948 1301.24 517.099C1302.31 517.25 1303.05 518.303 1302.91 519.456C1302.77 520.605 1301.8 521.416 1300.74 521.265Z" fill="#E54884"/>
<path fill-rule="evenodd" clip-rule="evenodd" d="M1366.05 534.222C1366.88 534.339 1367.65 533.703 1367.76 532.803C1367.87 531.902 1367.28 531.075 1366.45 530.957M1365.71 537.054C1367.98 537.375 1370.07 535.641 1370.37 533.172C1370.67 530.704 1369.06 528.446 1366.79 528.124L1366.79 528.124C1364.51 527.803 1362.43 529.538 1362.13 532.006C1361.83 534.472 1363.44 536.732 1365.71 537.054M1364.74 532.376C1364.64 533.278 1365.22 534.104 1366.05 534.222L1366.05 534.222M1364.74 532.376C1364.85 531.474 1365.61 530.839 1366.45 530.957Z" fill="#4BDFEA"/>
<path fill-rule="evenodd" clip-rule="evenodd" d="M1323.11 542.15C1323.94 542.268 1324.7 541.632 1324.81 540.731C1324.92 539.828 1324.33 539.003 1323.5 538.885C1322.67 538.767 1321.91 539.403 1321.8 540.304C1321.69 541.207 1322.27 542.032 1323.11 542.15ZM1327.42 541.1C1327.13 543.568 1325.04 545.304 1322.77 544.982C1320.49 544.66 1318.89 542.401 1319.18 539.934C1319.48 537.467 1321.57 535.731 1323.84 536.053C1326.12 536.374 1327.72 538.634 1327.42 541.1Z" fill="#4BDFEA"/>
<path d="M1340.43 571.722L1338.94 575.247L1338.34 571.429L1335.09 569.818L1338.61 569.164L1340.1 565.639L1340.7 569.461L1343.95 571.072L1340.43 571.722Z" fill="#F44D99"/>
<path d="M974.865 502.341C975.769 503.613 975.549 505.44 974.375 506.419C973.201 507.399 971.516 507.161 970.612 505.888C969.708 504.616 969.932 502.789 971.106 501.81C972.28 500.83 973.961 501.068 974.865 502.341Z" fill="#E54884"/>
<path fill-rule="evenodd" clip-rule="evenodd" d="M919.325 423.178C920.033 424.174 921.354 424.361 922.276 423.593C923.196 422.826 923.368 421.398 922.66 420.401C921.951 419.402 920.63 419.218 919.714 419.983L919.713 419.984C918.792 420.751 918.62 422.18 919.325 423.178ZM924.498 426.727C921.982 428.824 918.371 428.316 916.435 425.587L916.433 425.584C914.504 422.857 914.973 418.95 917.49 416.851C917.49 416.851 917.49 416.851 917.491 416.851L918.602 418.417L917.489 416.852C917.489 416.852 917.49 416.852 917.49 416.851C920.003 414.752 923.614 415.263 925.549 417.991C927.485 420.719 927.015 424.628 924.498 426.727Z" fill="#4BDFEA"/>
<path fill-rule="evenodd" clip-rule="evenodd" d="M968.505 460.964C969.213 461.962 970.531 462.148 971.452 461.38C972.372 460.613 972.544 459.186 971.836 458.188C971.128 457.19 969.81 457.003 968.889 457.771C967.969 458.538 967.797 459.966 968.505 460.964ZM973.674 464.514C971.158 466.611 967.551 466.102 965.615 463.374C963.68 460.646 964.15 456.736 966.667 454.638C969.183 452.54 972.79 453.049 974.726 455.778C976.661 458.506 976.191 462.415 973.674 464.514Z" fill="#4BDFEA"/>
<path d="M981.584 410.878L986.217 409.01L983.358 413.387L985.085 418.408L981.048 415.309L976.415 417.181L979.27 412.805L977.547 407.784L981.584 410.878Z" fill="#F44D99"/>
<path d="M895.699 492.215C895.699 489.295 897.886 486.924 900.581 486.924C903.28 486.924 905.467 489.295 905.467 492.216C905.467 495.141 903.28 497.512 900.581 497.512C897.886 497.512 895.699 495.141 895.699 492.215Z" fill="#F44D99"/>
<path d="M855.396 463.826C855.396 461.945 856.802 460.421 858.538 460.421C860.274 460.421 861.684 461.945 861.684 463.826C861.684 465.712 860.274 467.236 858.538 467.236C856.802 467.236 855.396 465.712 855.396 463.826Z" fill="#FFE843"/>
<path d="M799.867 471.017C799.867 469.136 801.274 467.611 803.01 467.611C804.746 467.611 806.156 469.136 806.156 471.017C806.156 472.903 804.746 474.427 803.01 474.427C801.274 474.427 799.867 472.903 799.867 471.017Z" fill="#FFE843"/>
<path d="M0.063202 11.2527C0.0632021 9.93888 1.04739 8.87231 2.25958 8.87231C3.47177 8.87231 4.45163 9.93888 4.45163 11.2527C4.45163 12.5619 3.47177 13.6284 2.25958 13.6284C1.04739 13.6284 0.0632018 12.5619 0.063202 11.2527Z" fill="#F44D99"/>
<path d="M1119.25 363.862C1119.25 360.823 1121.53 358.36 1124.34 358.36C1127.14 358.36 1129.42 360.823 1129.42 363.862C1129.42 366.906 1127.14 369.369 1124.34 369.369C1121.53 369.369 1119.25 366.906 1119.25 363.862Z" fill="#F44D99"/>
<path d="M1485.73 297.713C1485.73 295.759 1487.19 294.17 1489 294.17C1490.8 294.17 1492.27 295.759 1492.27 297.713C1492.27 299.672 1490.8 301.261 1489 301.261C1487.19 301.261 1485.73 299.672 1485.73 297.713Z" fill="#FFE843"/>
<path d="M1021.38 340.842C1021.38 339.423 1022.44 338.269 1023.75 338.269C1025.06 338.269 1026.12 339.423 1026.12 340.842C1026.12 342.261 1025.06 343.415 1023.75 343.415C1022.44 343.415 1021.38 342.261 1021.38 340.842Z" fill="#FFE843"/>
<path d="M1069.53 522.697L1062.79 520.445L1069.53 518.198L1071.6 510.897L1073.68 518.198L1080.41 520.445L1073.68 522.697L1071.6 529.999L1069.53 522.697Z" fill="#FFE843"/>
<path d="M741.738 495.411C740.868 495.411 740.163 494.646 740.163 493.703C740.163 492.76 740.868 491.991 741.738 491.991C742.608 491.991 743.314 492.76 743.314 493.703C743.314 494.646 742.608 495.411 741.738 495.411Z" fill="#FFE843"/>
<path d="M575.176 620.633C574.268 620.633 573.533 619.836 573.533 618.852C573.533 617.868 574.268 617.071 575.176 617.071C576.084 617.071 576.819 617.868 576.819 618.852C576.819 619.836 576.084 620.633 575.176 620.633Z" fill="#E54884"/>
<path d="M587.808 594.509L586.283 599.869L584.758 594.509L579.813 592.856L584.758 591.204L586.283 585.848L587.808 591.204L592.749 592.856L587.808 594.509Z" fill="#F44D99"/>
<path d="M565.23 507.395C563.161 507.395 561.48 505.573 561.48 503.33C561.48 501.082 563.161 499.26 565.23 499.26C567.304 499.26 568.984 501.082 568.984 503.33C568.984 505.573 567.304 507.395 565.23 507.395Z" fill="#F44D99"/>
<path d="M549.54 585.775C548.573 585.775 547.788 584.923 547.788 583.875C547.788 582.827 548.573 581.976 549.54 581.976C550.507 581.976 551.293 582.827 551.293 583.875C551.293 584.923 550.507 585.775 549.54 585.775Z" fill="#FFE843"/>
<path d="M673.498 547.219L671.961 552.611L670.428 547.219L665.453 545.557L670.428 543.891L671.961 538.499L673.498 543.891L678.473 545.557L673.498 547.219Z" fill="#FFE843"/>
<path d="M1873.8 284.104C1873.8 281.197 1875.97 278.835 1878.66 278.835C1881.35 278.835 1883.52 281.197 1883.52 284.104C1883.52 287.02 1881.35 289.382 1878.66 289.382C1875.97 289.382 1873.8 287.02 1873.8 284.104Z" fill="#FFE843"/>
<path d="M1133.45 151.814C1133.45 148.908 1135.63 146.546 1138.32 146.546C1141.01 146.546 1143.18 148.908 1143.18 151.814C1143.18 154.73 1141.01 157.092 1138.32 157.092C1135.63 157.092 1133.45 154.73 1133.45 151.814Z" fill="#FFE843"/>
<path d="M1948.09 553.17L1938.07 549.824L1948.09 546.473L1951.18 535.615L1954.27 546.473L1964.29 549.824L1954.27 553.17L1951.18 564.032L1948.09 553.17Z" fill="#FFE843"/>
<path fill-rule="evenodd" clip-rule="evenodd" d="M1774.67 644.66C1776.17 644.66 1777.37 643.349 1777.37 641.74C1777.37 640.125 1776.17 638.815 1774.67 638.815C1773.18 638.815 1771.97 640.125 1771.97 641.74C1771.97 643.349 1773.18 644.66 1774.67 644.66ZM1782.05 641.74C1782.05 646.155 1778.75 649.732 1774.67 649.732C1770.6 649.732 1767.3 646.155 1767.3 641.74C1767.3 637.322 1770.6 633.743 1774.67 633.743C1778.75 633.743 1782.05 637.322 1782.05 641.74Z" fill="#4BDFEA"/>
<path fill-rule="evenodd" clip-rule="evenodd" d="M1735.81 581.994C1737.31 581.994 1738.51 580.686 1738.51 579.074C1738.51 577.456 1737.3 576.149 1735.81 576.149C1734.32 576.149 1733.12 577.459 1733.12 579.074C1733.12 580.683 1734.32 581.994 1735.81 581.994ZM1743.19 579.074C1743.19 583.486 1739.89 587.066 1735.81 587.066C1731.74 587.066 1728.44 583.489 1728.44 579.074C1728.44 574.656 1731.74 571.077 1735.81 571.077C1739.89 571.077 1743.19 574.659 1743.19 579.074Z" fill="#4BDFEA"/>
<path d="M86.5015 222.083C86.5015 219.557 88.3894 217.511 90.7165 217.511C93.0479 217.511 94.9359 219.557 94.9359 222.083C94.9359 224.606 93.0479 226.652 90.7165 226.652C88.3894 226.652 86.5015 224.606 86.5015 222.083Z" fill="#F44D99"/>
<path d="M269.869 234.818C269.869 232.502 271.6 230.625 273.733 230.625C275.87 230.625 277.602 232.502 277.602 234.818C277.602 237.13 275.87 239.006 273.733 239.006C271.6 239.006 269.869 237.13 269.869 234.818Z" fill="#FFE843"/>
<path fill-rule="evenodd" clip-rule="evenodd" d="M212.432 87.6625C213.185 87.6625 213.795 87.0003 213.795 86.1862C213.795 85.3764 213.189 84.7147 212.432 84.7147C211.675 84.7147 211.069 85.3764 211.069 86.1862C211.069 87.0003 211.679 87.6625 212.432 87.6625ZM220.048 86.1862C220.048 90.7461 216.637 94.4419 212.432 94.4419C208.227 94.4419 204.816 90.7461 204.816 86.1862C204.816 81.6221 208.231 77.9352 212.432 77.9352C216.633 77.9352 220.048 81.6221 220.048 86.1862Z" fill="#4BDFEA"/>
<path d="M126.606 119.62C125.297 118.81 124.841 117.007 125.589 115.588C126.332 114.173 127.996 113.674 129.305 114.484C130.614 115.29 131.07 117.094 130.327 118.513C129.579 119.932 127.915 120.426 126.606 119.62Z" fill="#FFE843"/>
<path d="M138.727 457.449L137.376 452.963L133.237 451.499L137.376 450.038L138.727 445.548L140.075 450.038L144.218 451.499L140.075 452.963L138.727 457.449Z" fill="#FFE843"/>
<path d="M1633.26 152.345C1632.36 151.105 1690.87 98.8114 1692.3 97.5755L1777.38 23.8686C1778.82 22.6281 1781.54 22.3993 1781.11 24.0106C1780.67 25.6264 1782.1 27.1187 1780.67 28.3546L1697.33 100.414" fill="url(#paint0_linear_8_3558)"/>
<path d="M1265.42 857.281C1264.51 856.04 1323.02 803.747 1324.45 802.511L1409.53 728.804C1410.97 727.563 1413.69 727.335 1413.26 728.946C1412.82 730.562 1414.25 732.054 1412.82 733.29L1329.48 805.349" fill="url(#paint1_linear_8_3558)"/>
<path d="M318.973 792.738C318.065 791.497 376.579 739.204 378.01 737.968L463.085 664.257C464.525 663.021 467.249 662.792 466.814 664.403C466.379 666.019 467.806 667.511 466.375 668.747L383.036 740.806" fill="url(#paint2_linear_8_3558)"/>
<path d="M177.641 76.9219C176.893 75.9011 225.144 32.781 226.327 31.7603L296.48 -29.0199C297.663 -30.0406 299.914 -30.2283 299.555 -28.9008L299.551 -28.8962C299.192 -27.5642 300.37 -26.3374 299.187 -25.3166L230.47 34.1039" fill="url(#paint3_linear_8_3558)"/>
<path d="M58.0032 60.1221C64.2199 53.3885 74.2884 53.3794 80.4967 60.1083C86.7049 66.8327 86.6965 77.7501 80.4797 84.4836C74.2672 91.2218 64.1946 91.2309 57.9906 84.502C51.7823 77.773 51.7907 66.8602 58.0032 60.1221Z" fill="#FFBC4A"/>
<path d="M78.0295 57.9804C78.5743 58.5709 78.4772 59.6375 77.7888 60.3836C77.1047 61.1252 76.1207 61.2304 75.5759 60.6399L72.6153 57.4356C72.1 56.8772 71.2301 56.9139 70.5459 57.6555C70.0307 58.2185 69.7434 59.0469 70.0813 59.4131L80.4158 70.6188C81.0071 71.2551 80.8085 72.5093 80.1201 73.2509C79.4359 73.997 78.2787 74.2121 77.6917 73.5713L69.8363 65.0618C69.4224 64.6132 68.4597 64.9794 67.8684 65.6202C67.3194 66.2153 67.4714 66.6364 67.2982 67.6297L71.6059 72.2943C72.1 72.8344 71.9607 73.8551 71.2765 74.6012C70.5924 75.3428 69.6464 75.4938 69.1523 74.9537L63.5395 68.8748C63.1172 68.417 62.34 68.5178 61.6516 69.2593C61.1026 69.8544 60.8113 70.6463 61.1196 70.9805L67.0025 77.3569C67.4797 77.8741 67.1885 79.0277 66.5043 79.7738C65.8201 80.5154 64.7515 80.8267 64.2743 80.3095L58.4757 74.029C58.0365 73.553 57.2467 73.6354 56.5583 74.3815C56.0093 74.9766 55.7306 75.7777 56.0473 76.121L59.2696 79.6137C59.7088 80.0897 59.5231 81.0602 58.8347 81.8017C58.1505 82.5479 57.2552 82.7492 56.8117 82.2731L56.0009 81.3897C56.5119 82.5341 57.2425 83.4999 58.0787 84.4063C64.2828 91.1352 74.3088 91.1717 80.5255 84.4383C86.7422 77.7002 86.7464 66.7876 80.5424 60.0586C79.6513 59.0928 78.4899 58.4793 77.6579 57.5821L78.0295 57.9804Z" fill="#FF9151"/>
<path d="M739.221 92.1646C745.438 85.431 755.506 85.4219 761.715 92.1508C767.923 98.8752 767.915 109.793 761.698 116.526C755.485 123.264 745.413 123.273 739.208 116.544C733 109.815 733.009 98.9027 739.221 92.1646Z" fill="#FFBC4A"/>
<path d="M759.248 90.0229C759.793 90.6134 759.696 91.6799 759.007 92.4261C758.323 93.1676 757.339 93.2728 756.794 92.6823L753.834 89.4781C753.319 88.9196 752.449 88.9563 751.764 89.6979C751.249 90.2609 750.962 91.0894 751.3 91.4556L761.634 102.661C762.225 103.298 762.027 104.552 761.339 105.293C760.654 106.039 759.497 106.255 758.91 105.614L751.055 97.1042C750.641 96.6556 749.678 97.0218 749.087 97.6627C748.538 98.2578 748.69 98.6788 748.517 99.6722L752.824 104.337C753.319 104.877 753.179 105.898 752.495 106.644C751.811 107.385 750.865 107.536 750.371 106.996L744.758 100.917C744.336 100.459 743.559 100.56 742.87 101.302C742.321 101.897 742.03 102.689 742.338 103.023L748.221 109.399C748.698 109.917 748.407 111.07 747.723 111.816C747.039 112.558 745.97 112.869 745.493 112.352L739.694 106.071C739.255 105.595 738.465 105.678 737.777 106.424C737.228 107.019 736.949 107.82 737.266 108.163L740.488 111.656C740.928 112.132 740.742 113.103 740.053 113.844C739.369 114.59 738.474 114.792 738.03 114.316L737.219 113.432C737.731 114.577 738.461 115.542 739.297 116.449C745.501 123.178 755.527 123.214 761.744 116.481C767.961 109.743 767.965 98.83 761.761 92.1011C760.87 91.1352 759.708 90.5218 758.876 89.6246L759.248 90.0229Z" fill="#FF9151"/>
<path d="M886.159 605.294C894.027 596.766 906.768 596.757 914.624 605.271C922.479 613.785 922.471 627.6 914.607 636.123C906.739 644.651 893.997 644.66 886.138 636.146C878.282 627.632 878.295 613.817 886.159 605.294Z" fill="#FFBC4A"/>
<path d="M911.503 602.578C912.195 603.328 912.069 604.679 911.203 605.617C910.333 606.555 909.087 606.693 908.398 605.947L904.652 601.886C904.002 601.181 902.9 601.227 902.034 602.166C901.379 602.875 901.016 603.928 901.443 604.395L914.526 618.571C915.274 619.382 915.016 620.965 914.151 621.904C913.285 622.847 911.819 623.121 911.076 622.311L901.134 611.54C900.611 610.968 899.39 611.435 898.643 612.245C897.946 613.001 898.144 613.532 897.925 614.79L903.373 620.695C904.002 621.377 903.825 622.673 902.955 623.611C902.089 624.55 900.894 624.742 900.264 624.06L893.165 616.365C892.629 615.784 891.645 615.912 890.779 616.855C890.082 617.606 889.715 618.608 890.103 619.029L897.545 627.099C898.153 627.754 897.785 629.219 896.915 630.157C896.049 631.096 894.698 631.494 894.094 630.839L886.758 622.888C886.201 622.284 885.2 622.394 884.33 623.332C883.633 624.087 883.282 625.104 883.684 625.538L887.759 629.956C888.312 630.56 888.08 631.787 887.21 632.73C886.344 633.668 885.208 633.924 884.651 633.32L883.625 632.208C884.266 633.654 885.196 634.877 886.251 636.021C894.107 644.535 906.798 644.585 914.662 636.062C922.53 627.534 922.538 613.724 914.683 605.205C913.555 603.987 912.085 603.209 911.034 602.069L911.503 602.578Z" fill="#FF9151"/>
<path d="M1262.48 345.658C1262.48 355.193 1255.36 362.919 1246.57 362.919C1237.79 362.919 1230.67 355.193 1230.67 345.658C1230.67 336.127 1237.79 328.396 1246.57 328.396C1255.36 328.396 1262.48 336.127 1262.48 345.658Z" fill="#6679BF"/>
<path d="M1242.99 353.256C1242.99 351.109 1244.6 349.37 1246.57 349.37C1248.55 349.37 1250.16 351.109 1250.16 353.256C1250.16 355.403 1248.55 357.143 1246.57 357.143C1244.6 357.143 1242.99 355.403 1242.99 353.256Z" fill="#303B72"/>
<path d="M1247.23 357.143C1247.23 355.582 1248.4 354.314 1249.83 354.314C1251.27 354.314 1252.44 355.582 1252.44 357.143C1252.44 358.704 1251.27 359.972 1249.83 359.972C1248.4 359.972 1247.23 358.704 1247.23 357.143Z" fill="#303B72"/>
<path d="M1250.32 336.805C1250.32 335.537 1251.27 334.507 1252.44 334.507C1253.61 334.507 1254.55 335.537 1254.55 336.805C1254.55 338.073 1253.61 339.098 1252.44 339.098C1251.27 339.098 1250.32 338.073 1250.32 336.805Z" fill="#303B72"/>
<path d="M1234.32 347.631C1234.32 346.656 1235.05 345.868 1235.94 345.868C1236.84 345.868 1237.57 346.656 1237.57 347.631C1237.57 348.606 1236.84 349.397 1235.94 349.397C1235.05 349.397 1234.32 348.606 1234.32 347.631Z" fill="#303B72"/>
<path d="M1237.62 336.823C1237.62 334.772 1239.15 333.111 1241.04 333.111C1242.93 333.111 1244.46 334.772 1244.46 336.823C1244.46 338.874 1242.93 340.536 1241.04 340.536C1239.15 340.536 1237.62 338.874 1237.62 336.823Z" fill="#303B72"/>
<path d="M110.786 521.434C110.786 530.968 103.665 538.695 94.8809 538.695C86.0965 538.695 78.976 530.968 78.976 521.434C78.976 511.903 86.0965 504.172 94.881 504.172C103.665 504.172 110.786 511.903 110.786 521.434Z" fill="#6679BF"/>
<path d="M91.2994 529.032C91.2994 526.885 92.9042 525.146 94.8807 525.146C96.8571 525.146 98.462 526.885 98.462 529.032C98.462 531.179 96.8571 532.918 94.8807 532.918C92.9042 532.918 91.2994 531.179 91.2994 529.032Z" fill="#303B72"/>
<path d="M95.5312 532.919C95.5312 531.358 96.701 530.09 98.137 530.09C99.5772 530.09 100.743 531.358 100.743 532.919C100.743 534.48 99.5772 535.748 98.137 535.748C96.701 535.748 95.5312 534.48 95.5312 532.919Z" fill="#303B72"/>
<path d="M98.6265 512.581C98.6265 511.313 99.5727 510.283 100.743 510.283C101.913 510.283 102.859 511.313 102.859 512.581C102.859 513.849 101.913 514.874 100.743 514.874C99.5727 514.874 98.6265 513.849 98.6265 512.581Z" fill="#303B72"/>
<path d="M82.6288 523.406C82.6288 522.432 83.3553 521.644 84.2506 521.644C85.1501 521.644 85.8763 522.432 85.8763 523.406C85.8763 524.381 85.1501 525.173 84.2506 525.173C83.3553 525.173 82.6288 524.381 82.6288 523.406Z" fill="#303B72"/>
<path d="M85.927 512.599C85.927 510.548 87.4558 508.887 89.3436 508.887C91.2315 508.887 92.7646 510.548 92.7646 512.599C92.7646 514.65 91.2315 516.312 89.3436 516.312C87.4558 516.312 85.927 514.65 85.927 512.599Z" fill="#303B72"/>
<path d="M1175.13 42.2607C1178.76 31.38 1189.84 25.7589 1199.87 29.7047C1209.89 33.6505 1215.07 45.6709 1211.44 56.5516C1207.8 67.4323 1196.73 73.0535 1186.7 69.1122C1176.67 65.1619 1171.49 53.1414 1175.13 42.2607Z" fill="#FFA283"/>
<path d="M1182.99 43.8896L1198.08 49.8313C1198.49 50.2844 1198.69 50.8704 1198.49 51.4655C1198.23 52.2528 1197.41 52.6327 1196.66 52.3397L1192.34 50.6415C1191.54 50.3256 1190.68 50.7055 1190.42 51.4928C1190.16 52.2802 1190.59 53.1683 1191.38 53.4795L1195.63 55.1503C1195.07 55.077 1194.49 55.5211 1194.26 56.1986C1194 56.9859 1194.3 57.842 1194.94 58.0937L1199.64 59.9475C1200.02 60.387 1200.19 61.0142 1199.98 61.6459C1199.72 62.4332 1198.97 62.8955 1198.33 62.6438L1189.87 59.3159C1189.17 59.0412 1188.39 59.4532 1188.13 60.236C1187.86 61.0233 1188.22 61.8839 1188.92 62.1585L1197.5 65.5368C1197.91 65.8435 1198.04 66.53 1197.83 67.1571C1197.57 67.9445 1196.87 68.3565 1196.25 68.1093L1188.06 64.8867C1187.33 64.6029 1186.53 65.0057 1186.27 65.793C1186.01 66.5758 1186.38 67.4455 1187.11 67.7293L1193.4 70.2013C1193.45 70.2287 1193.5 70.3066 1193.55 70.3569C1201.35 70.2425 1208.62 64.9737 1211.44 56.5465C1215.07 45.6611 1209.89 33.6451 1199.87 29.6993C1199.02 29.3651 1198.17 29.0584 1197.31 28.857C1197.07 29.6352 1197.39 30.4087 1198.02 30.6605L1202.72 32.5099C1203.1 32.9493 1203.27 33.581 1203.06 34.2081C1202.8 34.9954 1202.05 35.4624 1201.41 35.2107L1192.95 31.8782C1192.25 31.6036 1191.47 32.0155 1191.21 32.8029C1190.95 33.5856 1191.3 34.4462 1192 34.7208L1200.59 38.099C1200.95 38.5339 1201.1 39.1565 1200.9 39.7882C1200.63 40.5755 1199.91 41.047 1199.29 40.8044L1191.1 37.5818C1190.37 37.2934 1189.57 37.7008 1189.31 38.4881C1189.05 39.2709 1189.42 40.136 1190.15 40.4244L1196.43 42.8962C1196.93 43.2395 1197.13 43.9721 1196.92 44.6038C1196.69 45.2812 1196.05 45.6702 1195.4 45.5604L1183.94 41.047C1183.08 40.7083 1182.17 41.0699 1181.9 41.8572C1181.64 42.6446 1182.13 43.5509 1182.99 43.8896Z" fill="#FE5E78"/>
<path d="M1910.83 438.215C1914.46 427.334 1925.54 421.713 1935.56 425.659C1945.59 429.604 1950.77 441.625 1947.14 452.506C1943.5 463.386 1932.43 469.008 1922.4 465.066C1912.37 461.116 1907.19 449.095 1910.83 438.215Z" fill="#FFA283"/>
<path d="M1918.69 439.844L1933.78 445.786C1934.19 446.239 1934.39 446.825 1934.19 447.42C1933.93 448.207 1933.11 448.587 1932.35 448.294L1928.03 446.592C1927.24 446.28 1926.38 446.66 1926.12 447.448C1925.85 448.235 1926.29 449.123 1927.08 449.434L1931.33 451.105C1930.77 451.032 1930.19 451.476 1929.96 452.153C1929.7 452.941 1930 453.797 1930.64 454.048L1935.34 455.902C1935.72 456.342 1935.89 456.969 1935.68 457.6C1935.42 458.388 1934.67 458.85 1934.03 458.598L1925.57 455.271C1924.87 454.996 1924.09 455.408 1923.83 456.191C1923.56 456.978 1923.92 457.839 1924.62 458.113L1933.2 461.491C1933.61 461.793 1933.74 462.485 1933.53 463.112C1933.27 463.899 1932.57 464.311 1931.95 464.064L1923.76 460.841C1923.03 460.558 1922.23 460.96 1921.97 461.748C1921.71 462.531 1922.08 463.4 1922.81 463.684L1929.09 466.156C1929.15 466.183 1929.2 466.261 1929.25 466.312C1937.05 466.197 1944.32 460.928 1947.14 452.501C1950.77 441.616 1945.59 429.6 1935.56 425.654C1934.72 425.32 1933.87 425.013 1933.01 424.812C1932.77 425.59 1933.09 426.364 1933.72 426.615L1938.42 428.465C1938.8 428.904 1938.97 429.536 1938.76 430.163C1938.5 430.95 1937.75 431.417 1937.11 431.165L1928.65 427.833C1927.95 427.558 1927.17 427.97 1926.91 428.758C1926.64 429.54 1927 430.401 1927.7 430.676L1936.29 434.054C1936.65 434.489 1936.8 435.111 1936.59 435.743C1936.33 436.53 1935.61 437.002 1934.99 436.759L1926.8 433.537C1926.07 433.248 1925.27 433.656 1925.01 434.443C1924.74 435.226 1925.12 436.091 1925.85 436.379L1932.13 438.851C1932.63 439.194 1932.83 439.927 1932.62 440.558C1932.39 441.236 1931.75 441.625 1931.1 441.515L1919.64 437.002C1918.78 436.663 1917.87 437.025 1917.6 437.812C1917.34 438.599 1917.83 439.506 1918.69 439.844Z" fill="#FE5E78"/>
</g>
<defs>
<linearGradient id="paint0_linear_8_3558" x1="1769.11" y1="137.263" x2="1633.83" y2="150.771" gradientUnits="userSpaceOnUse">
<stop stop-color="white"/>
<stop offset="1" stop-color="#2AB0FF"/>
</linearGradient>
<linearGradient id="paint1_linear_8_3558" x1="1401.26" y1="842.198" x2="1265.98" y2="855.706" gradientUnits="userSpaceOnUse">
<stop stop-color="white"/>
<stop offset="1" stop-color="#2AB0FF"/>
</linearGradient>
<linearGradient id="paint2_linear_8_3558" x1="454.821" y1="777.655" x2="319.533" y2="791.163" gradientUnits="userSpaceOnUse">
<stop stop-color="white"/>
<stop offset="1" stop-color="#2AB0FF"/>
</linearGradient>
<linearGradient id="paint3_linear_8_3558" x1="289.649" y1="64.6317" x2="178.09" y2="75.7708" gradientUnits="userSpaceOnUse">
<stop stop-color="white"/>
<stop offset="1" stop-color="#2AB0FF"/>
</linearGradient>
<clipPath id="clip0_8_3558">
<rect width="2001" height="748" fill="white" transform="translate(2001 748) rotate(-180)"/>
</clipPath>
</defs>
</svg>
