<svg width="940" height="746" viewBox="0 0 940 746" fill="none" xmlns="http://www.w3.org/2000/svg">
<g filter="url(#filter0_dd_8_860)">
<path d="M928.705 416.949V436.934C928.705 444.339 924.746 451.179 918.326 454.864L518.167 684.623C499.36 695.422 476.229 695.39 457.452 684.541L82.3656 467.831C77.0528 464.762 73.7804 459.09 73.7804 452.953V433.263C75.0283 428.288 78.1852 423.723 83.2419 420.797L121.833 398.512L194.554 400.17L871.666 415.645L928.705 416.949Z" fill="url(#paint0_linear_8_860)"/>
<path d="M918.694 436.067L912.762 439.496L897.285 448.44L513.628 670.065C495.255 680.676 472.625 680.676 454.261 670.065L110.928 471.741L91.1296 460.3L83.2326 455.735C69.7946 447.974 69.7946 428.567 83.2419 420.797L494.901 183.036C508.637 175.107 525.558 175.089 539.312 182.999L918.666 401.111C932.132 408.862 932.151 428.297 918.694 436.067Z" fill="#2A2F6D"/>
<path d="M918.694 436.067L912.762 439.496L897.285 448.44L524.626 232.759L110.928 471.741L91.1296 460.3L83.2326 455.735C69.7946 447.974 69.7946 428.567 83.2419 420.797L494.901 183.036C508.637 175.107 525.558 175.089 539.312 182.999L918.666 401.111C932.132 408.863 932.151 428.297 918.694 436.067Z" fill="#242D60"/>
<path d="M928.705 420.294C928.193 426.499 924.859 432.508 918.694 436.067L912.762 439.496L871.666 415.645L529.255 216.948C523.202 213.445 515.733 213.445 509.689 216.958L194.554 400.17L91.1296 460.3L83.2326 455.735C78.1852 452.819 75.0283 448.263 73.7804 443.288C72.9516 439.999 72.9516 436.542 73.7804 433.263C75.0283 428.288 78.1852 423.723 83.2419 420.797L121.833 398.512L494.901 183.036C508.637 175.107 525.558 175.089 539.312 182.999L918.666 401.111C924.859 404.67 928.211 410.717 928.705 416.949C928.798 418.058 928.798 419.185 928.705 420.294Z" fill="url(#paint1_linear_8_860)"/>
<g opacity="0.49">
<path opacity="0.49" d="M112.906 678.617L6.88036 617.37C3.03988 615.152 3.03988 609.605 6.88036 607.387L124.521 539.442C128.446 537.175 133.281 537.171 137.21 539.43L245.616 601.76C249.465 603.974 249.471 609.529 245.626 611.75L129.871 678.616C124.621 681.649 118.154 681.649 112.906 678.617Z" fill="url(#paint2_linear_8_860)"/>
</g>
<g opacity="0.49">
<path opacity="0.49" d="M652.092 360.605C630.547 348.135 630.903 327.882 652.883 315.6C674.862 303.318 709.531 303.318 729.922 315.6C750.314 327.882 749.959 348.134 729.132 360.605C708.305 373.076 673.638 373.076 652.092 360.605Z" fill="url(#paint3_linear_8_860)"/>
</g>
<g opacity="0.49">
<path opacity="0.49" d="M401.58 313.164C388.72 305.72 388.932 293.632 402.053 286.3C415.173 278.969 435.866 278.969 448.039 286.3C460.211 293.631 459.999 305.72 447.566 313.164C435.135 320.609 414.441 320.609 401.58 313.164Z" fill="url(#paint4_linear_8_860)"/>
</g>
<g opacity="0.49">
<path opacity="0.49" d="M755.594 464.595C748.574 460.532 748.69 453.933 755.852 449.93C763.014 445.929 774.31 445.929 780.955 449.93C787.599 453.932 787.484 460.531 780.697 464.595C773.91 468.658 762.614 468.658 755.594 464.595Z" fill="url(#paint5_linear_8_860)"/>
</g>
<g opacity="0.46">
<path opacity="0.46" d="M239.701 252.28L79.3791 345.559C73.3027 349.095 65.6785 344.729 65.6478 337.696L65.4336 287.926C65.4196 284.656 67.1518 281.628 69.9772 279.984L230.3 186.705C236.377 183.169 244.001 187.535 244.031 194.568L244.246 244.339C244.259 247.608 242.527 250.636 239.701 252.28Z" fill="#CDE9F9"/>
</g>
<g opacity="0.46">
<path opacity="0.46" d="M438.007 174.635L277.685 267.914C271.609 271.45 263.985 267.083 263.954 260.051L263.74 210.281C263.726 207.011 265.458 203.982 268.283 202.339L428.605 109.06C434.682 105.524 442.306 109.89 442.337 116.923L442.551 166.693C442.565 169.963 440.833 172.992 438.007 174.635Z" fill="#CDE9F9"/>
</g>
<g opacity="0.46">
<path opacity="0.46" d="M452.602 74.1706L292.28 167.451C286.203 170.987 278.579 166.621 278.548 159.588L278.334 109.817C278.32 106.548 280.052 103.519 282.878 101.876L443.2 8.59612C449.276 5.06045 456.9 9.42624 456.931 16.4594L457.145 66.23C457.159 69.4992 455.426 72.5271 452.602 74.1706Z" fill="#CDE9F9"/>
</g>
<g opacity="0.49">
<path opacity="0.49" d="M261.063 727.974C237.797 715.163 237.574 694.071 260.569 681.103C283.563 668.135 320.607 668.026 342.888 680.862C365.17 693.697 365.392 714.789 343.383 727.733C321.373 740.677 284.33 740.785 261.063 727.974Z" fill="url(#paint6_linear_8_860)"/>
</g>
<g opacity="0.46">
<path opacity="0.46" d="M639.435 25.1639V208.754C639.435 217.729 644.22 226.023 651.989 230.512L897.542 372.407C914.286 382.083 935.219 369.994 935.219 350.649V166.029C935.219 157.026 930.404 148.71 922.597 144.232L677.044 3.36667C660.3 -6.23882 639.435 5.85421 639.435 25.1639Z" fill="url(#paint7_linear_8_860)"/>
</g>
<path d="M761.598 80.8664V85.0207L779.044 95.0883V90.9331L761.598 80.8664Z" fill="white"/>
<path d="M761.598 88.4558V92.611L779.044 102.678V98.5234L761.598 88.4558Z" fill="white"/>
<path d="M761.598 96.0452V100.2L779.044 110.268V106.113L761.598 96.0452Z" fill="white"/>
<path d="M893.256 183.764V179.61L785.588 117.479V121.634L893.256 183.764Z" fill="white"/>
<path d="M761.598 103.635V107.79L779.044 117.857V113.702L761.598 103.635Z" fill="white"/>
<path d="M761.598 111.226V115.38L779.044 125.447V121.291L761.598 111.226Z" fill="white"/>
<path d="M893.256 191.354V187.199L785.588 125.069V129.224L893.256 191.354Z" fill="white"/>
<path d="M761.598 133.995V138.149L779.044 148.216V144.061L761.598 133.995Z" fill="white"/>
<path d="M761.598 141.584V145.739L779.044 155.805V151.651L761.598 141.584Z" fill="white"/>
<path d="M761.598 171.942V176.098L779.044 186.164V182.009L761.598 171.942Z" fill="white"/>
<path d="M761.598 179.533V183.687L779.044 193.754V189.599L761.598 179.533Z" fill="white"/>
<path d="M853.513 232.573L785.588 193.376V197.532L853.513 236.728V232.573Z" fill="white"/>
<path d="M857.093 234.639V238.794L893.256 259.662V255.507L857.093 234.639Z" fill="white"/>
<path d="M819.714 205.48L785.588 185.786V189.941L819.714 209.635V205.48Z" fill="white"/>
<path d="M823.295 207.545V211.7L893.256 252.071V247.917L823.295 207.545Z" fill="white"/>
<path d="M884.053 219.837V223.992L893.256 229.302V225.148L884.053 219.837Z" fill="white"/>
<path d="M833.966 183.345L785.588 155.428V159.582L833.966 187.5V183.345Z" fill="white"/>
<path d="M814.144 111.188L785.588 94.7101V98.8653L814.144 115.343V111.188Z" fill="white"/>
<path d="M860.95 138.198L817.724 113.254V117.409L860.95 142.354V138.198Z" fill="white"/>
<path d="M835.757 131.25L805.323 113.687V117.842L835.757 135.405V131.25Z" fill="white"/>
<path d="M867.689 149.677L839.337 133.316V137.471L867.689 153.831V149.677Z" fill="white"/>
<path d="M871.269 151.742V155.897L893.256 168.585V164.43L871.269 151.742Z" fill="white"/>
<path d="M791.213 113.136V117.29L814.144 130.521V126.367L791.213 113.136Z" fill="white"/>
<path d="M884.286 166.843L817.724 128.434V132.589L884.286 170.998V166.843Z" fill="white"/>
<path d="M846.177 167.622L802.678 142.52V146.675L846.177 171.777V167.622Z" fill="white"/>
<path d="M884.286 189.612L849.757 169.688V173.843L884.286 193.768V189.612Z" fill="white"/>
<path d="M880.473 210.181L837.547 185.411V189.566L880.473 214.336V210.181Z" fill="white"/>
<path d="M857.093 204.28V208.435L880.473 221.925V217.771L857.093 204.28Z" fill="white"/>
<path d="M794.007 167.876L785.588 163.017V167.172L794.007 172.031V167.876Z" fill="white"/>
<path d="M809.777 176.975V181.131L853.513 206.368V202.214L809.777 176.975Z" fill="white"/>
<path d="M806.197 174.91L797.587 169.942V174.096L806.197 179.065V174.91Z" fill="white"/>
<path d="M845.422 205.135L797.587 177.531V181.687L845.422 209.289V205.135Z" fill="white"/>
<path d="M658.755 27.5937V151.576C658.755 155.639 660.936 159.39 664.468 161.398L724.083 195.293C729.228 198.218 735.613 194.501 735.613 188.58V67.333C735.613 63.0483 733.302 59.0971 729.569 56.9981L667.817 22.2879C663.763 20.009 658.755 22.941 658.755 27.5937Z" fill="url(#paint8_linear_8_860)"/>
<path opacity="0.5" d="M775.941 212.563L808.148 231.168C809.459 231.926 810.266 233.324 810.266 234.838V302.637C810.266 304.96 807.752 306.413 805.74 305.251L774.15 287.003C772.917 286.291 772.158 284.975 772.158 283.551V214.748C772.158 212.806 774.26 211.592 775.941 212.563Z" fill="url(#paint9_linear_8_860)"/>
<path d="M776.047 214.224C775.693 214.022 775.404 214.187 775.404 214.591C775.404 214.996 775.693 215.496 776.047 215.703C776.401 215.91 776.691 215.745 776.691 215.336C776.692 214.927 776.402 214.426 776.047 214.224Z" stroke="white" stroke-width="0.25" stroke-miterlimit="10"/>
<path d="M778.112 215.439C777.758 215.237 777.468 215.402 777.468 215.806C777.468 216.211 777.758 216.711 778.112 216.918C778.466 217.125 778.755 216.96 778.755 216.551C778.755 216.142 778.466 215.641 778.112 215.439Z" stroke="white" stroke-width="0.25" stroke-miterlimit="10"/>
<path d="M780.143 216.552C779.789 216.349 779.499 216.514 779.499 216.919C779.499 217.323 779.789 217.823 780.143 218.03C780.497 218.237 780.786 218.072 780.786 217.663C780.786 217.254 780.497 216.754 780.143 216.552Z" stroke="white" stroke-width="0.25" stroke-miterlimit="10"/>
<path d="M824.821 244.765V285.813C824.821 287.584 825.765 289.221 827.297 290.109L854.166 305.673C856.146 306.82 858.624 305.391 858.624 303.102V262.803C858.624 260.681 857.489 258.721 855.648 257.666L828.955 242.368C827.114 241.313 824.821 242.643 824.821 244.765Z" fill="white"/>
<path d="M867.133 269.246V309.929C867.133 311.935 868.202 313.788 869.939 314.79L887.723 325.064C889.854 326.295 892.52 324.756 892.52 322.293V283.098C892.52 280.532 891.152 278.162 888.931 276.879L871.425 266.767C869.518 265.665 867.133 267.042 867.133 269.246Z" fill="#17A1DB"/>
</g>
<defs>
<filter id="filter0_dd_8_860" x="0" y="0" width="939.219" height="745.512" filterUnits="userSpaceOnUse" color-interpolation-filters="sRGB">
<feFlood flood-opacity="0" result="BackgroundImageFix"/>
<feColorMatrix in="SourceAlpha" type="matrix" values="0 0 0 0 0 0 0 0 0 0 0 0 0 0 0 0 0 0 127 0" result="hardAlpha"/>
<feOffset dy="4"/>
<feGaussianBlur stdDeviation="2"/>
<feComposite in2="hardAlpha" operator="out"/>
<feColorMatrix type="matrix" values="0 0 0 0 0 0 0 0 0 0 0 0 0 0 0 0 0 0 0.25 0"/>
<feBlend mode="normal" in2="BackgroundImageFix" result="effect1_dropShadow_8_860"/>
<feColorMatrix in="SourceAlpha" type="matrix" values="0 0 0 0 0 0 0 0 0 0 0 0 0 0 0 0 0 0 127 0" result="hardAlpha"/>
<feOffset dy="4"/>
<feGaussianBlur stdDeviation="2"/>
<feComposite in2="hardAlpha" operator="out"/>
<feColorMatrix type="matrix" values="0 0 0 0 0 0 0 0 0 0 0 0 0 0 0 0 0 0 0.25 0"/>
<feBlend mode="normal" in2="effect1_dropShadow_8_860" result="effect2_dropShadow_8_860"/>
<feBlend mode="normal" in="SourceGraphic" in2="effect2_dropShadow_8_860" result="shape"/>
</filter>
<linearGradient id="paint0_linear_8_860" x1="73.7805" y1="545.606" x2="928.705" y2="545.606" gradientUnits="userSpaceOnUse">
<stop stop-color="#BD8AAE"/>
<stop offset="1" stop-color="#2484C6" stop-opacity="0"/>
</linearGradient>
<linearGradient id="paint1_linear_8_860" x1="73.1589" y1="318.689" x2="928.775" y2="318.689" gradientUnits="userSpaceOnUse">
<stop offset="0.0536" stop-color="#1F479A"/>
<stop offset="0.2572" stop-color="#3C7FBE"/>
<stop offset="0.6965" stop-color="#28A8E0"/>
<stop offset="0.9493" stop-color="#29ABE2" stop-opacity="0"/>
</linearGradient>
<linearGradient id="paint2_linear_8_860" x1="3.99898" y1="609.315" x2="248.506" y2="609.315" gradientUnits="userSpaceOnUse">
<stop offset="0.2572" stop-color="#3C7FBE"/>
<stop offset="0.6965" stop-color="#28A8E0"/>
<stop offset="0.9493" stop-color="#29ABE2" stop-opacity="0"/>
</linearGradient>
<linearGradient id="paint3_linear_8_860" x1="636.163" y1="338.174" x2="744.988" y2="338.174" gradientUnits="userSpaceOnUse">
<stop offset="0.2572" stop-color="#3C7FBE"/>
<stop offset="0.6965" stop-color="#28A8E0"/>
<stop offset="0.9493" stop-color="#29ABE2" stop-opacity="0"/>
</linearGradient>
<linearGradient id="paint4_linear_8_860" x1="392.072" y1="299.775" x2="457.032" y2="299.775" gradientUnits="userSpaceOnUse">
<stop offset="0.2572" stop-color="#3C7FBE"/>
<stop offset="0.6965" stop-color="#28A8E0"/>
<stop offset="0.9493" stop-color="#29ABE2" stop-opacity="0"/>
</linearGradient>
<linearGradient id="paint5_linear_8_860" x1="750.403" y1="457.286" x2="785.862" y2="457.286" gradientUnits="userSpaceOnUse">
<stop offset="0.2572" stop-color="#3C7FBE"/>
<stop offset="0.6965" stop-color="#28A8E0"/>
<stop offset="0.9493" stop-color="#29ABE2" stop-opacity="0"/>
</linearGradient>
<linearGradient id="paint6_linear_8_860" x1="243.467" y1="704.409" x2="359.745" y2="704.409" gradientUnits="userSpaceOnUse">
<stop offset="0.2572" stop-color="#3C7FBE"/>
<stop offset="0.6965" stop-color="#28A8E0"/>
<stop offset="0.9493" stop-color="#29ABE2" stop-opacity="0"/>
</linearGradient>
<linearGradient id="paint7_linear_8_860" x1="639.435" y1="187.907" x2="935.22" y2="187.907" gradientUnits="userSpaceOnUse">
<stop offset="0.0607" stop-color="#28A8E0"/>
<stop offset="0.9984" stop-color="#29ABE2" stop-opacity="0"/>
</linearGradient>
<linearGradient id="paint8_linear_8_860" x1="658.755" y1="108.906" x2="735.613" y2="108.906" gradientUnits="userSpaceOnUse">
<stop offset="0.0607" stop-color="#28A8E0"/>
<stop offset="0.9984" stop-color="#29ABE2" stop-opacity="0"/>
</linearGradient>
<linearGradient id="paint9_linear_8_860" x1="772.159" y1="258.941" x2="810.266" y2="258.941" gradientUnits="userSpaceOnUse">
<stop stop-color="#21409A"/>
<stop offset="0.9984" stop-color="#BD8AAE"/>
</linearGradient>
</defs>
</svg>
