<svg width="1920" height="995" viewBox="0 0 1920 995" fill="none" xmlns="http://www.w3.org/2000/svg">
<path d="M0 276.892L127.292 346.5C254.583 416.94 478.743 482.435 733.327 449C987.91 414.267 1272.92 311.625 1527.5 276.892C1782.08 243.457 2036.67 379.793 2291.25 363.562C2545.83 347.332 2800.42 172.043 2927.71 86.6707L3055 0V831L2927.71 995.5C2800.42 995.5 2545.83 995.5 2291.25 995.5C2036.67 995.5 1782.08 995.5 1527.5 995.5C1272.92 995.5 1018.33 995.5 763.75 995.5C509.167 995.5 254.583 995.5 127.292 995.5H0L0 276.892Z" fill="#B070FF"/>
<path opacity="0.4" fill-rule="evenodd" clip-rule="evenodd" d="M2079.12 1342C2363.07 1342 2593.25 1110.98 2593.25 826C2593.25 541.021 2363.07 310 2079.12 310C1795.18 310 1565 541.021 1565 826C1565 1110.98 1795.18 1342 2079.12 1342ZM2079.12 1167.97C1890.95 1167.97 1738.4 1014.86 1738.4 826C1738.4 637.135 1890.95 484.03 2079.12 484.03C2267.3 484.03 2419.85 637.135 2419.85 826C2419.85 1014.86 2267.3 1167.97 2079.12 1167.97Z" fill="url(#paint0_linear_643_8)"/>
<path opacity="0.4" fill-rule="evenodd" clip-rule="evenodd" d="M-164 1303C163.505 1303 429 1037.5 429 710C429 382.495 163.505 117 -164 117C-491.505 117 -757 382.495 -757 710C-757 1037.5 -491.505 1303 -164 1303ZM-164 1103C-381.048 1103 -557 927.048 -557 710C-557 492.952 -381.048 317 -164 317C53.0479 317 229 492.952 229 710C229 927.048 53.0479 1103 -164 1103Z" fill="url(#paint1_linear_643_8)"/>
<defs>
<linearGradient id="paint0_linear_643_8" x1="2593.25" y1="311.376" x2="1567.74" y2="311.376" gradientUnits="userSpaceOnUse">
<stop stop-color="white"/>
<stop offset="1" stop-color="white" stop-opacity="0.01"/>
</linearGradient>
<linearGradient id="paint1_linear_643_8" x1="429" y1="118.581" x2="-753.838" y2="118.581" gradientUnits="userSpaceOnUse">
<stop stop-color="white" stop-opacity="0.01"/>
<stop offset="1" stop-color="white"/>
</linearGradient>
</defs>
</svg>
