<svg width="2275" height="6735" viewBox="0 0 2275 6735" fill="none" xmlns="http://www.w3.org/2000/svg">
<mask id="mask0_8_3762" style="mask-type:alpha" maskUnits="userSpaceOnUse" x="509" y="5843" width="901" height="557">
<rect x="510" y="5843.49" width="899.122" height="556.236" fill="#C4C4C4"/>
</mask>
<g mask="url(#mask0_8_3762)">
</g>
<g opacity="0.2" clip-path="url(#clip0_8_3762)">
<path d="M1668.86 5833.93C1672.89 5830.73 1678.67 5831.51 1681.76 5835.67C1684.86 5839.83 1684.1 5845.8 1680.08 5849C1676.05 5852.2 1670.28 5851.42 1667.18 5847.26C1664.08 5843.1 1664.84 5837.13 1668.86 5833.93Z" stroke="#4BDFEA" stroke-width="4"/>
<path d="M1381.32 6213.68C1384.07 6211.5 1388.01 6212.03 1390.13 6214.87C1392.24 6217.72 1391.73 6221.8 1388.98 6223.99C1386.23 6226.17 1382.28 6225.64 1380.16 6222.8C1378.05 6219.95 1378.56 6215.88 1381.32 6213.68Z" fill="#E54884"/>
<path d="M1201.58 6336.62C1205.6 6333.43 1211.38 6334.21 1214.48 6338.37C1217.58 6342.52 1216.81 6348.5 1212.79 6351.69C1208.77 6354.89 1202.99 6354.12 1199.9 6349.96C1196.8 6345.8 1197.55 6339.82 1201.58 6336.62Z" stroke="#4BDFEA" stroke-width="4"/>
<path d="M1283.26 6217.52C1287.29 6214.32 1293.06 6215.1 1296.16 6219.27C1299.25 6223.42 1298.5 6229.39 1294.47 6232.59C1290.45 6235.8 1284.67 6235.02 1281.58 6230.86C1278.48 6226.69 1279.23 6220.72 1283.26 6217.52Z" stroke="#4BDFEA" stroke-width="4"/>
<path d="M1183.6 6197.42L1179.56 6186.2L1189.02 6193.11L1199.88 6188.93L1193.18 6198.71L1197.22 6209.94L1187.76 6203.01L1176.9 6207.2L1183.6 6197.42Z" fill="#F44D99"/>
<path d="M197.975 6449.66L193.934 6438.44L203.392 6445.35L214.252 6441.18L207.554 6450.95L211.596 6462.18L202.138 6455.25L191.277 6459.44L197.975 6449.66Z" fill="#F44D99"/>
<path d="M536.8 6739.84C536.8 6736.25 539.613 6733.35 543.091 6733.35C546.561 6733.35 549.373 6736.25 549.373 6739.84C549.373 6743.43 546.561 6746.34 543.091 6746.34C539.613 6746.34 536.8 6743.43 536.8 6739.84Z" fill="#E54884"/>
<path d="M1857.57 6550.88C1857.57 6548.28 1859.62 6546.17 1862.14 6546.17C1864.65 6546.17 1866.7 6548.28 1866.7 6550.88C1866.7 6553.49 1864.65 6555.6 1862.14 6555.6C1859.62 6555.6 1857.57 6553.49 1857.57 6550.88Z" fill="#E54884"/>
<path d="M1924.42 6587.09L1910.71 6582.72L1924.42 6578.35L1928.65 6564.17L1932.88 6578.35L1946.58 6582.72L1932.88 6587.09L1928.65 6601.26L1924.42 6587.09Z" fill="#F44D99"/>
<path d="M823.186 5898.86C823.186 5893.93 827.054 5889.93 831.831 5889.93C836.599 5889.93 840.476 5893.93 840.476 5898.86C840.476 5903.8 836.599 5907.8 831.831 5907.8C827.054 5907.8 823.186 5903.8 823.186 5898.86Z" fill="#F44D99"/>
<path d="M751.855 5850.95C751.855 5847.77 754.347 5845.2 757.419 5845.2C760.491 5845.2 762.983 5847.77 762.983 5850.95C762.983 5854.12 760.491 5856.7 757.419 5856.7C754.347 5856.7 751.855 5854.12 751.855 5850.95Z" fill="#FFE843"/>
<path d="M653.578 5863.09C653.578 5859.91 656.071 5857.33 659.143 5857.33C662.215 5857.33 664.707 5859.91 664.707 5863.09C664.707 5866.26 662.215 5868.84 659.143 5868.84C656.071 5868.84 653.578 5866.26 653.578 5863.09Z" fill="#FFE843"/>
<path d="M738.564 6156.61L727.107 6152.96L738.564 6149.31L742.094 6137.46L745.634 6149.31L757.091 6152.96L745.634 6156.61L742.094 6168.46L738.564 6156.61Z" fill="#FFE843"/>
<path d="M1747.47 6630.49C1750.18 6634.13 1749.52 6639.35 1746 6642.15C1742.48 6644.95 1737.42 6644.27 1734.71 6640.63C1732.01 6636.99 1732.67 6631.77 1736.19 6628.97C1739.71 6626.17 1744.76 6626.85 1747.47 6630.49Z" stroke="#4BDFEA" stroke-width="3.498"/>
<path d="M1848.23 6704.33C1850.94 6707.97 1850.28 6713.19 1846.76 6715.99C1843.24 6718.78 1838.19 6718.1 1835.48 6714.46C1832.77 6710.82 1833.43 6705.61 1836.95 6702.81C1840.48 6700.01 1845.52 6700.69 1848.23 6704.33Z" stroke="#4BDFEA" stroke-width="3.498"/>
<path d="M1865.24 6614.24L1874.73 6610.59L1868.88 6619.14L1872.42 6628.95L1864.14 6622.9L1854.65 6626.56L1860.5 6618L1856.97 6608.19L1865.24 6614.24Z" fill="#F44D99"/>
<path d="M1606.69 6717.7C1606.69 6714.03 1609.57 6711.05 1613.12 6711.05C1616.68 6711.05 1619.57 6714.03 1619.57 6717.7C1619.57 6721.39 1616.68 6724.37 1613.12 6724.37C1609.57 6724.37 1606.69 6721.39 1606.69 6717.7Z" fill="#FFE843"/>
<path d="M1492.91 6731.75C1492.91 6728.08 1495.79 6725.1 1499.35 6725.1C1502.9 6725.1 1505.79 6728.08 1505.79 6731.75C1505.79 6735.44 1502.9 6738.42 1499.35 6738.42C1495.79 6738.42 1492.91 6735.44 1492.91 6731.75Z" fill="#FFE843"/>
<path d="M31.2399 6245.32C31.2399 6240.38 35.1081 6236.39 39.8763 6236.39C44.6532 6236.39 48.5216 6240.38 48.5216 6245.32C48.5216 6250.25 44.6532 6254.25 39.8763 6254.25C35.1081 6254.25 31.2399 6250.25 31.2399 6245.32Z" fill="#F44D99"/>
<path d="M406.955 6270.21C406.955 6265.68 410.503 6262.01 414.873 6262.01C419.252 6262.01 422.8 6265.68 422.8 6270.21C422.8 6274.72 419.252 6278.39 414.873 6278.39C410.503 6278.39 406.955 6274.72 406.955 6270.21Z" fill="#FFE843"/>
<path d="M280.07 5979.77C280.07 5974.52 284.189 5970.27 289.269 5970.27C294.348 5970.27 298.467 5974.52 298.467 5979.77C298.467 5985.02 294.348 5989.28 289.269 5989.28C284.189 5989.28 280.07 5985.02 280.07 5979.77Z" stroke="#4BDFEA" stroke-width="6"/>
<path d="M113.413 6045.1C110.731 6043.52 109.797 6039.99 111.328 6037.22C112.851 6034.46 116.26 6033.48 118.943 6035.07C121.625 6036.64 122.56 6040.16 121.037 6042.94C119.505 6045.71 116.096 6046.68 113.413 6045.1Z" fill="#FFE843"/>
<path d="M138.25 6705.24L135.48 6696.48L127 6693.61L135.48 6690.76L138.25 6681.99L141.01 6690.76L149.499 6693.61L141.01 6696.48L138.25 6705.24Z" fill="#FFE843"/>
<path d="M217.981 5961.67C216.45 5959.67 315.315 5875.41 317.738 5873.42L461.481 5754.65C463.904 5752.65 468.516 5752.29 467.781 5754.88L467.772 5754.89C467.036 5757.49 469.451 5759.89 467.028 5761.88L326.227 5878" fill="url(#paint0_linear_8_3762)"/>
<path d="M-27.1539 5928.84C-14.416 5915.68 6.21408 5915.66 18.9347 5928.81C31.6553 5941.95 31.6379 5963.28 18.9 5976.44C6.17077 5989.61 -14.4677 5989.63 -27.1797 5976.48C-39.9003 5963.33 -39.8832 5942 -27.1539 5928.84Z" fill="#FFBC4A"/>
<path d="M13.8811 5924.65C14.9973 5925.81 14.7985 5927.89 13.388 5929.35C11.9861 5930.8 9.97008 5931 8.85379 5929.85L2.78751 5923.59C1.7318 5922.5 -0.050726 5922.57 -1.45258 5924.02C-2.5083 5925.12 -3.09682 5926.74 -2.40454 5927.45L18.7706 5949.35C19.9821 5950.59 19.5752 5953.04 18.1647 5954.49C16.7628 5955.95 14.3918 5956.37 13.1889 5955.12L-2.90651 5938.49C-3.75455 5937.61 -5.72724 5938.33 -6.93872 5939.58C-8.06366 5940.74 -7.75223 5941.57 -8.10702 5943.51L0.719224 5952.62C1.73167 5953.68 1.4463 5955.67 0.044442 5957.13C-1.35741 5958.58 -3.29559 5958.88 -4.30805 5957.82L-15.8085 5945.94C-16.6738 5945.05 -18.2662 5945.24 -19.6767 5946.69C-20.8017 5947.86 -21.3986 5949.4 -20.7669 5950.06L-8.71293 5962.52C-7.73509 5963.53 -8.33191 5965.78 -9.73376 5967.24C-11.1356 5968.69 -13.3252 5969.3 -14.303 5968.29L-26.1841 5956.01C-27.0841 5955.08 -28.7023 5955.24 -30.1128 5956.7C-31.2378 5957.87 -31.8089 5959.43 -31.1599 5960.1L-24.5574 5966.93C-23.6574 5967.86 -24.038 5969.75 -25.4485 5971.2C-26.8504 5972.66 -28.6849 5973.05 -29.5935 5972.12L-31.2549 5970.4C-30.2079 5972.63 -28.7109 5974.52 -26.9975 5976.29C-14.2856 5989.44 6.25752 5989.51 18.9954 5976.35C31.7332 5963.19 31.7419 5941.86 19.03 5928.71C17.2041 5926.83 14.8244 5925.63 13.1197 5923.88L13.8811 5924.65Z" fill="#FF9151"/>
<path d="M1368.65 5991.45C1381.38 5978.29 1402.01 5978.28 1414.74 5991.42C1427.46 6004.56 1427.44 6025.9 1414.7 6039.06C1401.97 6052.22 1381.33 6052.24 1368.62 6039.09C1355.9 6025.94 1355.92 6004.62 1368.65 5991.45Z" fill="#FFBC4A"/>
<path d="M1409.68 5987.27C1410.8 5988.42 1410.6 5990.5 1409.19 5991.96C1407.79 5993.41 1405.77 5993.62 1404.65 5992.46L1398.59 5986.2C1397.53 5985.11 1395.75 5985.18 1394.35 5986.63C1393.29 5987.73 1392.7 5989.35 1393.4 5990.07L1414.57 6011.96C1415.78 6013.21 1415.38 6015.66 1413.96 6017.11C1412.56 6018.56 1410.19 6018.98 1408.99 6017.73L1392.89 6001.1C1392.05 6000.23 1390.07 6000.94 1388.86 6002.2C1387.74 6003.36 1388.05 6004.18 1387.69 6006.12L1396.52 6015.24C1397.53 6016.29 1397.25 6018.29 1395.84 6019.74C1394.44 6021.19 1392.5 6021.49 1391.49 6020.43L1379.99 6008.55C1379.13 6007.66 1377.53 6007.86 1376.12 6009.31C1375 6010.47 1374.4 6012.02 1375.03 6012.67L1387.09 6025.13C1388.07 6026.14 1387.47 6028.39 1386.07 6029.85C1384.66 6031.3 1382.48 6031.91 1381.5 6030.9L1369.62 6018.63C1368.72 6017.7 1367.1 6017.86 1365.69 6019.32C1364.56 6020.48 1363.99 6022.04 1364.64 6022.71L1371.24 6029.54C1372.14 6030.47 1371.76 6032.37 1370.35 6033.82C1368.95 6035.27 1367.12 6035.67 1366.21 6034.74L1364.55 6033.01C1365.59 6035.25 1367.09 6037.13 1368.8 6038.9C1381.51 6052.05 1402.06 6052.12 1414.8 6038.97C1427.53 6025.8 1427.54 6004.48 1414.83 5991.33C1413 5989.44 1410.62 5988.24 1408.92 5986.49L1409.68 5987.27Z" fill="#FF9151"/>
</g>
<path d="M1631.66 6641.55C1593.12 6619.58 1592.75 6583.41 1630.85 6561.18C1668.94 6538.94 1730.31 6538.75 1767.22 6560.76C1804.13 6582.77 1804.49 6618.94 1768.03 6641.13C1731.57 6663.33 1670.21 6663.51 1631.66 6641.55Z" fill="#E7F6FD"/>
<g opacity="0.46">
<path opacity="0.46" d="M1420.82 6628.65L1212.65 6504.17C1205.11 6499.67 1205.11 6488.39 1212.65 6483.88L1443.63 6345.8C1451.33 6341.19 1460.82 6341.18 1468.54 6345.78L1681.39 6472.45C1688.94 6476.95 1688.96 6488.24 1681.41 6492.75L1454.13 6628.65C1443.82 6634.81 1431.13 6634.81 1420.82 6628.65Z" fill="#CDE9F9"/>
</g>
<g opacity="0.46">
<path opacity="0.46" d="M1553.01 6208.68V6221.12C1553.01 6225.4 1550.76 6228.87 1547.63 6230.73C1544.52 6232.57 1540.54 6232.83 1536.99 6230.72L1405.89 6152.55L1349.01 6118.63C1345.7 6116.66 1343.66 6112.99 1343.66 6109.04V6048.78C1343.66 6040.27 1352.55 6034.94 1359.67 6039.2L1382.94 6053.07V6100.86C1382.94 6104.82 1384.97 6108.48 1388.29 6110.46L1553.01 6208.68Z" fill="#CDE9F9"/>
</g>
<path d="M1622.09 6152.7V6212.95C1622.09 6221.46 1613.19 6226.79 1606.06 6222.55L1582.81 6208.68V6160.87C1582.81 6156.91 1580.76 6153.26 1577.45 6151.29L1412.74 6053.07V6040.61C1412.74 6032.09 1421.64 6026.77 1428.76 6031.02L1616.74 6143.11C1620.05 6145.08 1622.09 6148.74 1622.09 6152.7Z" fill="url(#paint1_linear_8_3762)"/>
<g opacity="0.46">
<path opacity="0.46" d="M1828.11 6393.85V6412.8C1828.11 6421.32 1819.21 6426.64 1812.09 6422.39L1624.11 6310.3C1620.8 6308.33 1618.76 6304.67 1618.76 6300.71V6240.46C1618.76 6231.95 1627.65 6226.62 1634.77 6230.87L1682.63 6259.41V6300.71C1682.63 6304.67 1684.67 6308.33 1687.98 6310.3L1828.11 6393.85Z" fill="#CDE9F9"/>
</g>
<path d="M1939 6349.92V6410.17C1939 6418.69 1930.1 6424.01 1922.98 6419.76L1875.13 6391.23V6349.92C1875.13 6345.96 1873.08 6342.31 1869.77 6340.34L1729.65 6256.78V6237.83C1729.65 6235.76 1730.18 6233.88 1731.08 6232.27C1733.88 6227.3 1740.28 6225.03 1745.67 6228.25L1838.86 6283.82L1933.64 6340.34C1936.96 6342.31 1939 6345.96 1939 6349.92Z" fill="url(#paint2_linear_8_3762)"/>
<path d="M1406.73 6602.74C1406.73 6580.68 1389.26 6563.82 1367.7 6563.82C1346.14 6563.82 1328.67 6581.7 1328.67 6603.76C1328.67 6625.83 1346.14 6643.71 1367.7 6643.71C1389.26 6643.71 1406.73 6624.8 1406.73 6602.74Z" fill="url(#paint3_linear_8_3762)"/>
<path d="M1742.33 6426.66C1742.33 6414.12 1732.4 6404.54 1720.14 6404.54C1707.89 6404.54 1697.96 6414.7 1697.96 6427.25C1697.96 6439.79 1707.89 6449.95 1720.14 6449.95C1732.4 6449.95 1742.33 6439.2 1742.33 6426.66Z" fill="url(#paint4_linear_8_3762)"/>
<path d="M1451.11 6633.82C1451.11 6621.28 1441.17 6611.7 1428.92 6611.7C1416.66 6611.7 1406.73 6621.87 1406.73 6634.41C1406.73 6646.95 1416.67 6657.12 1428.92 6657.12C1441.17 6657.12 1451.11 6646.36 1451.11 6633.82Z" fill="url(#paint5_linear_8_3762)"/>
<path d="M1250.75 6479.1C1250.75 6448.94 1226.85 6425.88 1197.37 6425.88C1167.9 6425.88 1144 6450.34 1144 6480.51C1144 6510.67 1167.9 6535.13 1197.37 6535.13C1226.85 6535.13 1250.75 6509.27 1250.75 6479.1Z" fill="url(#paint6_linear_8_3762)"/>
<path d="M1755.37 6462.31C1755.37 6443.45 1740.43 6429.04 1722 6429.04C1703.57 6429.04 1688.64 6444.33 1688.64 6463.18C1688.64 6482.04 1703.57 6497.33 1722 6497.33C1740.43 6497.33 1755.37 6481.16 1755.37 6462.31Z" fill="url(#paint7_linear_8_3762)"/>
<path d="M1439.8 6230.71L1460.27 6237.96L1639.11 6344.9L1599.97 6334.25L1439.8 6230.71Z" fill="#CDE9F9"/>
<path d="M1267 6334.03L1439.8 6230.71L1612.59 6334.03L1439.8 6437.36L1267 6334.03Z" fill="#2A2F6D"/>
<path d="M1267 6345.31V6485.26C1267 6487.58 1268.2 6489.73 1270.15 6490.9L1432.49 6587.96C1437.01 6590.67 1442.59 6590.67 1447.11 6587.96L1609.45 6490.9C1611.4 6489.73 1612.59 6487.58 1612.59 6485.26V6334.54C1612.59 6334.31 1612.36 6334.17 1612.18 6334.29L1442.94 6435.48C1441 6436.64 1438.6 6436.64 1436.66 6435.48L1276.43 6339.68C1272.24 6337.17 1267 6340.3 1267 6345.31Z" fill="#3DBBED"/>
<path d="M1267 6334.03V6485.11C1267 6487.52 1268.25 6489.76 1270.27 6490.97L1432.42 6587.92C1436.99 6590.65 1442.61 6590.65 1447.17 6587.92L1612.59 6489.01V6334.89C1612.59 6334.51 1612.2 6334.27 1611.88 6334.46L1439.8 6437.36L1267 6334.03Z" fill="url(#paint8_linear_8_3762)"/>
<path d="M1353.4 6385.7L1439.8 6334.03L1526.2 6385.7L1612.59 6334.03L1439.8 6230.71L1267 6334.03L1353.4 6385.7Z" fill="url(#paint9_linear_8_3762)"/>
<path d="M1496.88 6403.59V6558.2L1560.85 6519.95V6364.97L1496.88 6403.59Z" fill="#DE5FA3"/>
<path d="M1316.19 6466.76V6518.42L1382.71 6558.2V6471.49L1353.4 6489.01L1316.19 6466.76Z" fill="#DE5FA3"/>
<path d="M1496.88 6403.59V6558.2L1560.85 6519.95V6364.97L1496.88 6403.59Z" fill="url(#paint10_linear_8_3762)"/>
<path d="M1316.19 6466.76V6518.42L1382.71 6558.2V6471.49L1353.4 6489.01L1316.19 6466.76Z" fill="url(#paint11_linear_8_3762)"/>
<path d="M1439.8 6230.71V6334.03L1526.2 6385.7L1612.59 6334.03L1439.8 6230.71Z" fill="url(#paint12_linear_8_3762)"/>
<path d="M1353.4 6385.69L1439.8 6334.03L1526.2 6385.69L1439.8 6437.36L1353.4 6385.69Z" fill="url(#paint13_linear_8_3762)"/>
<path opacity="0.69" d="M1439.8 6583.53V6437.36L1353.4 6489.02L1267 6436.68V6483.14C1267 6486.78 1268.87 6490.14 1271.91 6491.95L1432.43 6587.93C1435.71 6589.89 1439.8 6587.44 1439.8 6583.53Z" fill="#3C7FBE"/>
<path d="M1439.49 6437.36L1425.92 6455.65L1379.42 6518.33L1206.97 6415.19L1226.68 6388.62L1267.03 6334.22L1439.49 6437.36Z" fill="#CDE9F9"/>
<g opacity="0.32">
<path opacity="0.32" d="M1439.49 6437.36L1425.92 6455.65C1416.33 6458.08 1402.52 6462.78 1382.71 6471.49C1325.63 6496.56 1331.26 6451.56 1289.39 6404.68C1272.11 6385.34 1248.48 6383.78 1226.68 6388.62L1267.03 6334.22L1439.49 6437.36Z" fill="url(#paint14_linear_8_3762)"/>
</g>
<path d="M1429.29 6410.43C1428.53 6410.43 1427.74 6410.33 1426.94 6410.12C1421.69 6408.81 1416.22 6403.49 1412.67 6396.26L1372 6313.51C1364.38 6298 1360.18 6281.52 1360.18 6267.11C1360.18 6257.05 1363.11 6249.07 1368.42 6244.64L1368.99 6244.17L1368.97 6244.09L1369.86 6243.56C1369.86 6243.56 1370.21 6243.32 1370.27 6243.28C1370.66 6243.04 1371.06 6242.81 1371.47 6242.6L1405.17 6222.54C1405.45 6222.36 1408.12 6220.78 1408.44 6220.6L1410.81 6219.19C1412.56 6218.57 1414.46 6218.25 1416.46 6218.25C1421.19 6218.25 1426.52 6220.01 1431.86 6223.35C1444.26 6231.1 1455.57 6247.96 1460.35 6260.62L1460.81 6261.84L1463.1 6260.46L1463.21 6260.35C1466.13 6257.26 1470.52 6255.55 1475.56 6255.55C1480.68 6255.55 1486.24 6257.34 1491.64 6260.71C1509.66 6271.97 1524.32 6299.57 1524.32 6322.23C1524.32 6328.78 1523.45 6334.74 1521.74 6339.93C1519.67 6346.54 1516.39 6351.65 1511.98 6355.15L1471.29 6387.05C1470.87 6387.38 1470.39 6387.67 1469.82 6387.93L1469.71 6387.98L1436.32 6407.89C1435.95 6408.11 1435.52 6408.25 1435 6408.32L1434.78 6408.34L1433.71 6408.99C1433.29 6409.28 1432.93 6409.5 1432.56 6409.67L1432.21 6409.88L1431.92 6409.95C1431.08 6410.27 1430.19 6410.43 1429.29 6410.43ZM1368.49 6248.36C1364.75 6252.46 1362.77 6258.94 1362.77 6267.11C1362.77 6281.04 1366.85 6297.03 1374.27 6312.11L1414.93 6394.86C1418.09 6401.29 1423.02 6406.18 1427.5 6407.3C1428.07 6407.44 1428.62 6407.51 1429.18 6407.51C1429.35 6407.51 1429.52 6407.5 1429.69 6407.49L1431.45 6407.36L1430.55 6405.79C1410.82 6371.51 1398.26 6348.55 1397.77 6345.87C1397.21 6342.75 1380.25 6283.4 1370.32 6248.82L1369.79 6246.95L1368.49 6248.36Z" fill="url(#paint15_linear_8_3762)"/>
<path d="M1416.46 6219.38C1421 6219.38 1426.13 6221.09 1431.3 6224.31C1443.49 6231.94 1454.63 6248.55 1459.34 6261.03L1460.26 6263.48L1462.46 6262.16L1463.53 6261.52L1463.78 6261.36L1463.99 6261.14C1466.7 6258.27 1470.81 6256.68 1475.56 6256.68C1480.48 6256.68 1485.85 6258.41 1491.08 6261.68C1508.81 6272.76 1523.23 6299.92 1523.23 6322.23C1523.23 6328.66 1522.38 6334.49 1520.71 6339.6C1518.71 6345.97 1515.55 6350.9 1511.33 6354.24L1470.63 6386.16C1470.28 6386.43 1469.87 6386.67 1469.38 6386.9L1469.27 6386.95L1469.17 6387.01L1435.78 6406.92C1435.54 6407.06 1435.24 6407.15 1434.86 6407.2L1434.43 6407.26L1434.05 6407.48L1433.17 6408.01L1433.11 6408.04L1431.48 6405.21C1408.16 6364.69 1399.33 6347.88 1398.85 6345.66C1398.14 6341.76 1374.11 6258.03 1371.37 6248.5L1370.29 6244.75L1367.7 6247.59C1363.76 6251.9 1361.68 6258.65 1361.68 6267.11C1361.68 6281.22 1365.8 6297.38 1373.3 6312.62L1413.96 6395.37C1417.31 6402.19 1422.4 6407.18 1427.24 6408.39C1427.89 6408.55 1428.54 6408.63 1429.18 6408.63C1429.38 6408.63 1429.57 6408.63 1429.76 6408.61L1432.55 6408.41C1432.4 6408.5 1432.25 6408.58 1432.1 6408.65L1432.02 6408.69L1431.94 6408.74L1431.88 6408.77L1431.56 6408.89C1430.83 6409.16 1430.07 6409.3 1429.29 6409.3C1428.62 6409.3 1427.91 6409.21 1427.19 6409.03C1422.25 6407.79 1417.06 6402.7 1413.64 6395.75L1372.98 6313C1365.43 6297.64 1361.27 6281.35 1361.27 6267.11C1361.27 6257.39 1364.06 6249.73 1369.1 6245.52L1369.97 6244.8L1370.4 6244.54L1370.45 6244.51L1370.49 6244.48C1370.57 6244.44 1370.64 6244.38 1370.71 6244.33C1370.75 6244.3 1370.8 6244.27 1370.84 6244.24C1371.19 6244.02 1371.57 6243.81 1371.96 6243.61L1372.01 6243.58L1372.07 6243.55L1405.72 6223.52L1405.75 6223.5L1405.8 6223.47C1406.06 6223.3 1408.62 6221.78 1409 6221.57L1411.26 6220.22C1412.87 6219.66 1414.62 6219.38 1416.46 6219.38ZM1416.46 6217.12C1414.32 6217.12 1412.27 6217.46 1410.36 6218.16L1407.91 6219.61C1407.62 6219.78 1404.83 6221.43 1404.63 6221.56L1370.98 6241.59C1370.55 6241.81 1370.13 6242.05 1369.71 6242.31C1369.57 6242.4 1369.45 6242.5 1369.31 6242.59L1367.68 6243.56L1367.74 6243.76C1362.15 6248.42 1359.1 6256.58 1359.1 6267.11C1359.1 6281.69 1363.34 6298.36 1371.03 6314.02L1411.7 6396.77C1415.4 6404.29 1421.14 6409.83 1426.68 6411.22C1427.58 6411.45 1428.45 6411.56 1429.29 6411.56C1430.35 6411.56 1431.35 6411.37 1432.29 6411.02L1432.34 6411.1L1433.02 6410.7C1433.45 6410.49 1433.86 6410.25 1434.25 6409.96L1435.14 6409.44C1435.73 6409.36 1436.32 6409.2 1436.86 6408.87L1470.26 6388.96C1470.9 6388.67 1471.46 6388.34 1471.95 6387.95L1512.64 6356.04C1517.24 6352.4 1520.67 6347.01 1522.78 6340.3C1524.5 6335.05 1525.41 6328.97 1525.41 6322.23C1525.41 6299.22 1510.51 6271.19 1492.2 6259.75C1486.21 6256 1480.5 6254.43 1475.56 6254.43C1470 6254.43 1465.4 6256.42 1462.43 6259.57L1461.36 6260.21C1456.52 6247.36 1445.04 6230.27 1432.42 6222.39C1426.93 6218.95 1421.44 6217.12 1416.46 6217.12ZM1429.18 6406.38C1428.73 6406.38 1428.26 6406.33 1427.75 6406.2C1423.58 6405.15 1418.92 6400.5 1415.9 6394.35L1375.24 6311.6C1367.9 6296.67 1363.86 6280.86 1363.86 6267.11C1363.86 6259.21 1365.76 6252.99 1369.28 6249.14C1380.39 6287.82 1396.18 6343.15 1396.7 6346.07C1397.45 6350.2 1420.38 6390.32 1429.61 6406.36C1429.47 6406.37 1429.33 6406.38 1429.18 6406.38Z" fill="white"/>
<path d="M1427.47 6408.88C1422.63 6408.88 1416.67 6403.61 1412.96 6396.08L1372.3 6313.33C1364.85 6298.18 1360.75 6282.13 1360.75 6268.14C1360.75 6253.49 1367.16 6244.38 1377.48 6244.38C1381.76 6244.38 1386.41 6245.93 1391.29 6248.98C1403.14 6256.39 1414.31 6273.11 1418.8 6285.08C1419.52 6286.99 1420.99 6288.32 1422.39 6288.32C1423.14 6288.32 1423.8 6287.93 1424.21 6287.26C1426.43 6283.6 1430.76 6281.5 1436.08 6281.5C1440.81 6281.5 1445.99 6283.17 1451.07 6286.35C1468.43 6297.2 1482.56 6323.8 1482.56 6345.63C1482.56 6359.44 1478.59 6370.19 1471.39 6375.9L1430.7 6407.8C1429.79 6408.52 1428.7 6408.88 1427.47 6408.88Z" fill="url(#paint16_linear_8_3762)"/>
<path d="M1377.47 6243.26L1377.47 6245.51C1381.5 6245.51 1386.08 6247.05 1390.73 6249.95C1402.37 6257.23 1413.36 6273.69 1417.79 6285.49C1418.67 6287.86 1420.52 6289.44 1422.39 6289.44C1423.52 6289.44 1424.52 6288.87 1425.13 6287.86C1427.15 6284.53 1431.15 6282.62 1436.08 6282.62C1440.61 6282.62 1445.6 6284.24 1450.51 6287.31C1467.58 6297.98 1481.47 6324.15 1481.47 6345.63C1481.47 6359.08 1477.65 6369.52 1470.73 6375L1430.05 6406.9C1429.31 6407.47 1428.47 6407.75 1427.47 6407.75C1423.72 6407.75 1417.86 6403.56 1413.93 6395.56L1373.27 6312.82C1365.9 6297.82 1361.84 6281.96 1361.84 6268.13C1361.84 6254.18 1367.83 6245.51 1377.47 6245.51V6243.26H1377.47ZM1377.47 6243.26C1366.91 6243.26 1359.66 6252.37 1359.66 6268.14C1359.66 6282.29 1363.81 6298.55 1371.32 6313.84L1411.99 6396.59C1416.01 6404.76 1422.4 6410.01 1427.47 6410.01C1428.9 6410.01 1430.22 6409.59 1431.36 6408.7L1472.05 6376.8C1479.52 6370.88 1483.65 6359.79 1483.65 6345.63V6345.63C1483.65 6323.41 1469.31 6296.43 1451.63 6285.38C1446.02 6281.87 1440.67 6280.37 1436.08 6280.37C1430.23 6280.37 1425.62 6282.82 1423.29 6286.66C1423.07 6287.02 1422.75 6287.19 1422.39 6287.19C1421.52 6287.19 1420.39 6286.21 1419.82 6284.67C1415.53 6273.26 1404.45 6255.89 1391.85 6248.01H1391.85C1386.68 6244.79 1381.8 6243.26 1377.47 6243.26Z" fill="white"/>
<path d="M1488.48 6456.46C1488.48 6456.46 1484.13 6451.3 1485.07 6446.61C1486 6441.92 1483.47 6437.37 1481.83 6437.02C1480.18 6436.67 1481.68 6440.99 1480.51 6443.63C1479.34 6446.27 1478.71 6447.25 1476 6445.78C1473.29 6444.31 1467.5 6438.85 1464.87 6438.06C1462.23 6437.28 1463.78 6440.28 1466.51 6442.75C1469.24 6445.23 1470.13 6447.2 1470.13 6447.2C1470.13 6447.2 1461.66 6443.38 1457.91 6442.81C1454.16 6442.23 1455.37 6445.82 1461.05 6448.59C1466.73 6451.36 1466.73 6451.36 1466.73 6451.36C1466.73 6451.36 1458.29 6448.45 1456.34 6449.59C1454.4 6450.73 1454.14 6452.01 1457.39 6452.93C1460.65 6453.84 1466.2 6457.25 1466.2 6457.25C1466.2 6457.25 1460.26 6456.87 1457.98 6457.5C1455.71 6458.13 1455.7 6460.35 1459.66 6460.97C1463.61 6461.6 1466.9 6463.41 1470.47 6467.06C1474.04 6470.72 1483.01 6474.19 1486.95 6470.59C1490.89 6466.98 1488.48 6456.46 1488.48 6456.46Z" fill="#FDE0D9"/>
<path d="M1751.83 6314.14C1751.83 6314.14 1751.3 6306.02 1754 6303.26C1756.69 6300.5 1759.73 6297.14 1760.69 6294.46C1761.65 6291.77 1764.01 6291.83 1763.16 6294.99C1762.32 6298.15 1762.32 6298.15 1762.32 6298.15C1762.32 6298.15 1765.39 6295.68 1770 6294.11C1774.6 6292.54 1779.09 6293.72 1775.76 6295.34C1772.43 6296.97 1770.77 6298.84 1770.77 6298.84C1770.77 6298.84 1776.84 6297.47 1778.48 6298.93C1780.13 6300.4 1777.28 6300.68 1775.5 6302.07C1773.71 6303.47 1773.71 6303.47 1773.71 6303.47C1773.71 6303.47 1778.79 6302.78 1780.27 6303.99C1781.75 6305.19 1778.93 6305.31 1776.54 6306.55C1774.14 6307.79 1774.14 6307.79 1774.14 6307.79C1774.14 6307.79 1777.89 6308.37 1779.76 6309.22C1781.64 6310.06 1778.41 6312.26 1776.26 6312.25C1774.12 6312.23 1770.95 6317.34 1769.62 6319.72C1768.28 6322.11 1761.41 6325.31 1757.92 6323.45C1754.42 6321.59 1751.83 6314.14 1751.83 6314.14Z" fill="#FDE0D9"/>
<path d="M1629.05 6358.51C1629.95 6361.47 1622.54 6371.13 1615.96 6375.06C1609.38 6379 1612.67 6376.48 1612.67 6376.48L1607.97 6366.09L1606.26 6362.31C1606.21 6362.34 1606.16 6362.35 1606.12 6362.37C1596.65 6366.26 1584.58 6364.32 1582.47 6357.23C1580.35 6350.1 1589.62 6321.38 1589.62 6321.38C1596.79 6311.24 1628.81 6317.09 1630.43 6326.77C1631.31 6332.1 1623.11 6341.43 1621.78 6349.4C1620.7 6355.95 1626.52 6361.83 1626.52 6361.83C1626.52 6361.83 1628.16 6355.56 1629.05 6358.51Z" fill="#FDE0D9"/>
<path d="M1709.69 6460.83C1709.69 6460.83 1781.35 6511.86 1792.57 6513.75C1803.79 6515.65 1856.78 6492.28 1856.78 6492.28C1856.78 6492.28 1858.46 6480.62 1849.7 6476.08C1849.7 6476.08 1810.17 6483.65 1802.63 6482.7C1795.09 6481.75 1748.27 6428.95 1713.1 6430.82C1677.93 6432.68 1709.69 6460.83 1709.69 6460.83Z" fill="#2A2F6D"/>
<path d="M1889.46 6531.96C1889.46 6531.96 1889.46 6531.96 1876.17 6540.46C1866.23 6546.82 1827.85 6558.31 1806.2 6563.61C1798.9 6565.4 1793.51 6566.49 1791.73 6566.45C1784.67 6566.27 1772.7 6561.71 1729.27 6540.42C1705.23 6528.63 1689.7 6514.78 1680.62 6504.75C1673.29 6496.67 1670.16 6491.07 1670.16 6491.07C1670.16 6491.07 1695.71 6440.49 1716.23 6444.21C1718.89 6444.69 1721.36 6445.52 1723.65 6446.61C1739.05 6454 1746.86 6473.93 1755.81 6488.04C1766.11 6504.25 1788.9 6522.47 1795.31 6525.85C1801.73 6529.22 1801.37 6527.81 1814.14 6525.19C1826.9 6522.59 1879.82 6509.21 1879.82 6509.21C1881.59 6510.39 1883.06 6511.68 1884.27 6513.01C1892.03 6521.53 1889.46 6531.96 1889.46 6531.96Z" fill="#3C7FBE"/>
<path d="M1806.19 6563.61C1798.9 6565.4 1793.51 6566.49 1791.73 6566.45C1784.67 6566.27 1772.7 6561.71 1729.27 6540.42C1705.23 6528.63 1689.7 6514.78 1680.61 6504.75L1692.28 6496.16C1692.28 6496.16 1702.01 6519.48 1740.89 6541.52C1768.28 6557.03 1790.18 6562.91 1806.19 6563.61Z" fill="url(#paint17_linear_8_3762)"/>
<path d="M1884.27 6513.01C1849.89 6524.26 1804.63 6543.96 1796.6 6545.41C1785.25 6547.48 1776.03 6538.95 1760.69 6522.04C1745.37 6505.14 1696.54 6469.14 1696.54 6469.14L1723.65 6446.61C1739.05 6454 1746.86 6473.93 1755.81 6488.04C1766.11 6504.25 1788.9 6522.47 1795.31 6525.85C1801.73 6529.22 1801.37 6527.81 1814.14 6525.19C1826.9 6522.59 1879.82 6509.21 1879.82 6509.21C1881.59 6510.39 1883.06 6511.68 1884.27 6513.01Z" fill="url(#paint18_linear_8_3762)"/>
<path d="M1685.41 6375.08C1681.26 6376.1 1678.45 6376.74 1678.45 6376.74C1678.45 6376.74 1678.97 6377.63 1679.92 6379.16C1685.29 6387.87 1704.4 6417.51 1720.54 6425.78L1732.76 6430.73C1732.76 6430.73 1731.75 6435.09 1729.75 6441.55C1726.27 6452.68 1719.85 6470.06 1710.49 6482.16C1710.49 6482.16 1710.47 6482.19 1710.44 6482.23C1708.91 6484.19 1707.31 6486.02 1705.63 6487.66C1699.24 6493.87 1694.02 6497.9 1689.94 6500.5C1682.54 6505.24 1678.92 6505.3 1678.92 6505.3C1678.92 6505.3 1624.49 6479.31 1600.04 6430.71C1600.04 6430.71 1600.02 6430.74 1599.97 6430.8L1599.96 6430.81C1598.53 6432.84 1576.32 6463.9 1565.15 6468.29C1553.62 6472.84 1483.39 6472.84 1483.39 6472.84C1483.39 6472.84 1483.31 6472.45 1483.22 6471.75C1482.85 6468.96 1482.17 6461.11 1485.05 6453.17C1485.05 6453.17 1553.74 6443.16 1559.04 6435.95C1564.34 6428.75 1575.38 6404.09 1582.99 6393.36C1582.99 6393.36 1623.72 6350.7 1651.6 6344.98C1654.45 6344.39 1657.26 6343.87 1660.02 6343.4C1684.24 6339.22 1704.59 6338.71 1715.84 6333.02C1728.38 6326.7 1751 6311.85 1751 6311.85C1751 6311.85 1757.17 6313.17 1759.19 6317.6C1761.2 6322.04 1760.61 6328.25 1760.61 6328.25C1760.61 6328.25 1724.77 6360.96 1717.81 6365.15C1712.91 6368.1 1695.33 6372.66 1685.41 6375.08Z" fill="#CDE9F9"/>
<path d="M1569.83 6307.52C1569.83 6307.52 1576.34 6326.55 1591.63 6325.82C1606.92 6325.09 1611.46 6331.39 1610.68 6336.9C1609.91 6342.41 1609.91 6342.41 1609.91 6342.41C1609.91 6342.41 1613.28 6336.79 1616.94 6336.24C1620.59 6335.68 1616.51 6346.49 1614.32 6349.36C1612.14 6352.23 1612.14 6352.23 1612.14 6352.23C1612.14 6352.23 1627.43 6349.86 1636.25 6339.55C1645.07 6329.24 1641.63 6315.83 1635.38 6314.82C1635.38 6314.82 1639.48 6292.68 1621.68 6288.21C1603.89 6283.73 1599.4 6291.68 1592.36 6288.22C1585.32 6284.77 1586.79 6286.75 1586.79 6286.75L1588.22 6289.66C1588.7 6290.62 1587.86 6291.73 1586.85 6291.47C1584.69 6290.92 1581.6 6289.82 1579.56 6287.77C1578.89 6287.09 1577.77 6287.56 1577.8 6288.53C1577.9 6290.97 1578.29 6294.12 1579.56 6295.88C1579.56 6295.88 1575.59 6292.23 1573.21 6288.91C1572.45 6287.84 1570.81 6288.17 1570.47 6289.45C1569.16 6294.26 1567.43 6302.71 1569.83 6307.52Z" fill="#2A2F6D"/>
<path d="M1879.76 6512.76C1879.76 6512.76 1888.35 6531.05 1891.61 6530.86C1894.87 6530.67 1913.22 6546.38 1915.78 6545.37C1918.35 6544.36 1919.22 6529.2 1915.66 6525.55C1912.09 6521.89 1904.96 6519.93 1902.65 6514.31C1900.33 6508.7 1895.47 6507.22 1891.88 6506.9C1888.29 6506.58 1882.27 6506.62 1879.76 6512.76Z" fill="#222457"/>
<path d="M1853.18 6487.72C1853.18 6487.72 1869.34 6496.07 1872.33 6499.38C1875.32 6502.69 1880.32 6502.42 1876.86 6493.9C1873.4 6485.38 1870.86 6483.05 1869.77 6478.82C1868.68 6474.58 1861.77 6471.55 1857.76 6473.36C1853.75 6475.17 1849.06 6479.28 1849.06 6479.28L1853.18 6487.72Z" fill="#222457"/>
<path d="M1606.41 6400.57C1606.37 6400.21 1606.35 6399.95 1606.35 6399.78C1606.36 6399.95 1606.38 6400.21 1606.41 6400.57Z" fill="#2A2F6D"/>
<path d="M1710.44 6482.23C1708.91 6484.19 1707.31 6486.02 1705.63 6487.66C1687.64 6505.16 1678.92 6505.3 1678.92 6505.3C1678.92 6505.3 1624.49 6479.31 1600.04 6430.71C1600.04 6430.71 1576.7 6463.76 1565.15 6468.29C1553.62 6472.84 1483.39 6472.84 1483.39 6472.84C1483.39 6472.84 1483.31 6472.45 1483.22 6471.75C1506.92 6469.38 1560.79 6463.35 1568.63 6456.89C1578.74 6448.55 1597.19 6427.48 1602.39 6419.16C1606.64 6412.37 1606.57 6403.62 1606.41 6400.63C1606.92 6405.62 1610.08 6427.12 1627.93 6444.02C1648.28 6463.25 1660.01 6491.76 1682.82 6489.71C1704.21 6487.78 1709.82 6482.84 1710.44 6482.23Z" fill="url(#paint19_linear_8_3762)"/>
<path d="M1760.61 6328.25C1760.61 6328.25 1724.77 6360.96 1717.81 6365.14C1710.86 6369.33 1678.45 6376.74 1678.45 6376.74C1678.45 6376.74 1677.5 6375.21 1678.45 6376.74L1658.69 6360.61C1658.69 6360.61 1702.92 6361.47 1729.54 6344.56C1756.15 6327.67 1759.19 6317.6 1759.19 6317.6C1761.2 6322.04 1760.61 6328.25 1760.61 6328.25Z" fill="url(#paint20_linear_8_3762)"/>
<path d="M1660.02 6343.4C1656.99 6344.63 1653.05 6345.91 1647.93 6347.17C1626.5 6352.43 1597.54 6382.41 1588.67 6390.86C1579.8 6399.31 1566.32 6430.18 1562.06 6437C1557.8 6443.81 1524.8 6448.55 1515.58 6452.96C1506.35 6457.37 1485.05 6453.17 1485.05 6453.17C1485.05 6453.17 1553.74 6443.16 1559.04 6435.95C1564.34 6428.75 1575.38 6404.09 1582.99 6393.36C1582.99 6393.36 1623.72 6350.7 1651.6 6344.98C1654.45 6344.39 1657.26 6343.87 1660.02 6343.4Z" fill="#E7F6FD"/>
<g opacity="0.22">
<path opacity="0.22" d="M1732.76 6430.73C1732.76 6430.73 1731.75 6435.08 1729.75 6441.55C1716.11 6437.3 1690.7 6427.49 1681.87 6411.32C1669.57 6388.79 1658.22 6366.74 1647.81 6360.86C1639 6355.87 1646.69 6349.38 1665.34 6364.96C1666.22 6365.69 1666.68 6365.65 1666.98 6366.77C1667.16 6367.4 1669.05 6368.27 1670.15 6369.22C1673.48 6372.06 1678.45 6376.74 1678.45 6376.74C1678.45 6376.74 1678.97 6377.63 1679.92 6379.17C1685.29 6387.87 1704.4 6417.51 1720.54 6425.78L1732.76 6430.73Z" fill="url(#paint21_linear_8_3762)"/>
</g>
<path d="M1689.94 6500.5C1682.54 6505.24 1678.92 6505.3 1678.92 6505.3C1678.92 6505.3 1624.49 6479.31 1600.04 6430.71C1600.04 6430.71 1600.02 6430.74 1599.97 6430.8C1601.18 6427.92 1602.33 6425.04 1602.33 6425.04C1602.33 6425.04 1615.64 6454.7 1644.17 6478.44C1662.49 6493.69 1679.86 6498.8 1689.94 6500.5Z" fill="url(#paint22_linear_8_3762)"/>
<path d="M1613.03 6355.17C1613.03 6355.17 1611.14 6362.15 1607.97 6366.09L1606.26 6362.31C1606.22 6362.34 1606.16 6362.35 1606.12 6362.37C1608.6 6360.63 1611.29 6358.24 1613.03 6355.17Z" fill="#ECBFB9"/>
<path d="M1411.43 6250.37C1411.43 6250.37 1422.45 6249.1 1428.53 6236.75Z" fill="#E7F6FD"/>
<path d="M1411.85 6254.29L1411.01 6246.45L1411.43 6250.37L1410.98 6246.45C1411.35 6246.4 1420.13 6245.13 1425.13 6234.96L1431.92 6238.55C1425 6252.62 1412.39 6254.23 1411.85 6254.29Z" fill="#E7F6FD"/>
<path d="M1366.91 6136.94C1366.91 6136.94 1372.39 6146.91 1385.74 6147.81Z" fill="#17A1DB"/>
<path d="M1363.59 6138.89L1370.22 6134.98L1366.91 6136.94L1370.2 6134.96C1370.39 6135.29 1374.99 6143.13 1385.99 6143.87L1385.49 6151.75C1370.27 6150.73 1363.86 6139.37 1363.59 6138.89Z" fill="#17A1DB"/>
<path d="M1335.71 6237.77C1335.71 6237.77 1344.2 6240.4 1351.63 6234.76Z" fill="url(#paint23_linear_8_3762)"/>
<path d="M1335.1 6240.29L1336.33 6235.25L1335.71 6237.77L1336.3 6235.24C1336.59 6235.32 1343.41 6237.26 1349.53 6232.62L1353.73 6236.9C1345.26 6243.33 1335.51 6240.41 1335.1 6240.29Z" fill="url(#paint24_linear_8_3762)"/>
<path d="M1462.04 6183.53C1462.04 6183.53 1473.06 6182.26 1479.13 6169.91Z" fill="#BD8AAE"/>
<path d="M1462.46 6187.45L1461.61 6179.61L1462.04 6183.53L1461.58 6179.61C1461.96 6179.56 1470.73 6178.29 1475.73 6168.12L1482.52 6171.71C1475.6 6185.78 1462.99 6187.39 1462.46 6187.45Z" fill="#BD8AAE"/>
<path d="M1486.21 6236.84C1486.21 6236.84 1491.69 6246.82 1505.04 6247.71Z" fill="#17A1DB"/>
<path d="M1482.89 6238.79L1489.52 6234.89L1486.21 6236.84L1489.5 6234.86C1489.69 6235.19 1494.29 6243.04 1505.29 6243.78L1504.79 6251.65C1489.57 6250.63 1483.16 6239.28 1482.89 6238.79Z" fill="#17A1DB"/>
<path d="M1379.33 6204.4C1379.33 6204.4 1387.82 6207.04 1395.25 6201.4Z" fill="#BD8AAE"/>
<path d="M1378.72 6206.92L1379.95 6201.88L1379.33 6204.4L1379.93 6201.88C1380.21 6201.96 1387.03 6203.9 1393.15 6199.26L1397.35 6203.54C1388.88 6209.97 1379.13 6207.05 1378.72 6206.92Z" fill="#BD8AAE"/>
<path d="M1415.21 6172.75C1415.21 6172.75 1420.15 6179.87 1430.34 6179.44Z" fill="url(#paint25_linear_8_3762)"/>
<path d="M1412.85 6174.51L1417.57 6170.99L1415.21 6172.75L1417.56 6170.98C1417.73 6171.21 1421.82 6176.78 1430.22 6176.43L1430.46 6182.45C1418.83 6182.94 1413.09 6174.85 1412.85 6174.51Z" fill="url(#paint26_linear_8_3762)"/>
<path d="M1491.42 6290.2C1491.42 6290.2 1487.06 6297.71 1491.47 6307.23Z" fill="#E7F6FD"/>
<path d="M1488.93 6288.65L1493.91 6291.75L1491.42 6290.2L1493.92 6291.73C1493.78 6291.99 1490.46 6298.08 1494.09 6305.93L1488.85 6308.54C1483.82 6297.67 1488.71 6289.01 1488.93 6288.65Z" fill="#E7F6FD"/>
<path d="M1443.72 6211.35C1443.72 6211.35 1445.2 6218.18 1451.59 6221.19Z" fill="url(#paint27_linear_8_3762)"/>
<path d="M1441.87 6211.87L1445.56 6210.83L1443.72 6211.35L1445.56 6210.81C1445.61 6211.04 1446.91 6216.46 1452.18 6218.94L1451 6223.43C1443.71 6220 1441.94 6212.2 1441.87 6211.87Z" fill="url(#paint28_linear_8_3762)"/>
<path d="M864 0V6453.27" stroke="#F4EBFF" stroke-width="2"/>
<path d="M1334 0V6453.27" stroke="#F4EBFF" stroke-width="2"/>
<path d="M1804 0V6453.27" stroke="#F4EBFF" stroke-width="2"/>
<path d="M2274 0V6453.27" stroke="#F4EBFF" stroke-width="2"/>
<defs>
<linearGradient id="paint0_linear_8_3762" x1="447.483" y1="5937.65" x2="219.127" y2="5961.56" gradientUnits="userSpaceOnUse">
<stop stop-color="white"/>
<stop offset="1" stop-color="#2AB0FF"/>
</linearGradient>
<linearGradient id="paint1_linear_8_3762" x1="1412.74" y1="6126.78" x2="1622.09" y2="6126.78" gradientUnits="userSpaceOnUse">
<stop offset="0.0607" stop-color="#28A8E0"/>
<stop offset="0.9984" stop-color="#29ABE2" stop-opacity="0"/>
</linearGradient>
<linearGradient id="paint2_linear_8_3762" x1="1729.65" y1="6324.01" x2="1939" y2="6324.01" gradientUnits="userSpaceOnUse">
<stop offset="0.0607" stop-color="#28A8E0"/>
<stop offset="0.9984" stop-color="#29ABE2" stop-opacity="0"/>
</linearGradient>
<linearGradient id="paint3_linear_8_3762" x1="1328.66" y1="6603.76" x2="1406.73" y2="6603.76" gradientUnits="userSpaceOnUse">
<stop stop-color="#BD8AAE"/>
<stop offset="1" stop-color="#2484C6" stop-opacity="0"/>
</linearGradient>
<linearGradient id="paint4_linear_8_3762" x1="1697.96" y1="6427.25" x2="1742.33" y2="6427.25" gradientUnits="userSpaceOnUse">
<stop offset="0.0607" stop-color="#28A8E0"/>
<stop offset="0.9984" stop-color="#29ABE2" stop-opacity="0"/>
</linearGradient>
<linearGradient id="paint5_linear_8_3762" x1="1406.73" y1="6634.41" x2="1451.11" y2="6634.41" gradientUnits="userSpaceOnUse">
<stop offset="0.0607" stop-color="#28A8E0"/>
<stop offset="0.9984" stop-color="#29ABE2" stop-opacity="0"/>
</linearGradient>
<linearGradient id="paint6_linear_8_3762" x1="1144" y1="6480.51" x2="1250.75" y2="6480.51" gradientUnits="userSpaceOnUse">
<stop offset="0.0607" stop-color="#28A8E0"/>
<stop offset="0.9984" stop-color="#29ABE2" stop-opacity="0"/>
</linearGradient>
<linearGradient id="paint7_linear_8_3762" x1="1688.64" y1="6463.18" x2="1755.37" y2="6463.18" gradientUnits="userSpaceOnUse">
<stop stop-color="#21409A"/>
<stop offset="0.9984" stop-color="#29ABE2" stop-opacity="0"/>
</linearGradient>
<linearGradient id="paint8_linear_8_3762" x1="1267" y1="6462" x2="1612.59" y2="6462" gradientUnits="userSpaceOnUse">
<stop offset="0.0607" stop-color="#3C7FBE"/>
<stop offset="0.5484" stop-color="#1B75BC" stop-opacity="0.53"/>
<stop offset="0.9984" stop-color="#29ABE2" stop-opacity="0"/>
</linearGradient>
<linearGradient id="paint9_linear_8_3762" x1="1267" y1="6308.2" x2="1612.59" y2="6308.2" gradientUnits="userSpaceOnUse">
<stop stop-color="#BD8AAE"/>
<stop offset="1" stop-color="#2484C6" stop-opacity="0"/>
</linearGradient>
<linearGradient id="paint10_linear_8_3762" x1="1528.87" y1="6558.2" x2="1528.87" y2="6364.97" gradientUnits="userSpaceOnUse">
<stop offset="0.1616" stop-color="#BD8AAE"/>
<stop offset="1" stop-color="#2484C6" stop-opacity="0"/>
</linearGradient>
<linearGradient id="paint11_linear_8_3762" x1="1349.45" y1="6558.2" x2="1349.45" y2="6466.76" gradientUnits="userSpaceOnUse">
<stop offset="0.1616" stop-color="#BD8AAE"/>
<stop offset="1" stop-color="#2484C6" stop-opacity="0"/>
</linearGradient>
<linearGradient id="paint12_linear_8_3762" x1="1439.8" y1="6308.2" x2="1612.59" y2="6308.2" gradientUnits="userSpaceOnUse">
<stop stop-color="#BD8AAE"/>
<stop offset="1" stop-color="#2484C6" stop-opacity="0"/>
</linearGradient>
<linearGradient id="paint13_linear_8_3762" x1="1353.4" y1="6385.69" x2="1526.2" y2="6385.69" gradientUnits="userSpaceOnUse">
<stop stop-color="#21409A"/>
<stop offset="0.9984" stop-color="#29ABE2" stop-opacity="0"/>
</linearGradient>
<linearGradient id="paint14_linear_8_3762" x1="1226.68" y1="6406.45" x2="1439.49" y2="6406.45" gradientUnits="userSpaceOnUse">
<stop offset="0.0607" stop-color="#28A8E0"/>
<stop offset="0.9984" stop-color="#29ABE2" stop-opacity="0"/>
</linearGradient>
<linearGradient id="paint15_linear_8_3762" x1="1360.18" y1="6314.34" x2="1524.32" y2="6314.34" gradientUnits="userSpaceOnUse">
<stop offset="0.0607" stop-color="#28A8E0"/>
<stop offset="0.9984" stop-color="#29ABE2" stop-opacity="0"/>
</linearGradient>
<linearGradient id="paint16_linear_8_3762" x1="1360.75" y1="6326.63" x2="1482.56" y2="6326.63" gradientUnits="userSpaceOnUse">
<stop offset="0.0607" stop-color="#28A8E0"/>
<stop offset="0.9984" stop-color="#29ABE2" stop-opacity="0"/>
</linearGradient>
<linearGradient id="paint17_linear_8_3762" x1="1680.61" y1="6531.31" x2="1806.19" y2="6531.31" gradientUnits="userSpaceOnUse">
<stop stop-color="#BD8AAE"/>
<stop offset="1" stop-color="#2484C6" stop-opacity="0"/>
</linearGradient>
<linearGradient id="paint18_linear_8_3762" x1="1696.54" y1="6496.17" x2="1884.27" y2="6496.17" gradientUnits="userSpaceOnUse">
<stop stop-color="#21409A"/>
<stop offset="0.9984" stop-color="#29ABE2" stop-opacity="0"/>
</linearGradient>
<linearGradient id="paint19_linear_8_3762" x1="1483.22" y1="6452.96" x2="1710.44" y2="6452.96" gradientUnits="userSpaceOnUse">
<stop stop-color="#A7A9AC"/>
<stop offset="1" stop-color="#2484C6" stop-opacity="0"/>
</linearGradient>
<linearGradient id="paint20_linear_8_3762" x1="1658.69" y1="6347.17" x2="1760.69" y2="6347.17" gradientUnits="userSpaceOnUse">
<stop stop-color="#A7A9AC"/>
<stop offset="1" stop-color="#2484C6" stop-opacity="0"/>
</linearGradient>
<linearGradient id="paint21_linear_8_3762" x1="1644.17" y1="6398.36" x2="1732.76" y2="6398.36" gradientUnits="userSpaceOnUse">
<stop offset="0.0607" stop-color="#28A8E0"/>
<stop offset="0.9984" stop-color="#29ABE2" stop-opacity="0"/>
</linearGradient>
<linearGradient id="paint22_linear_8_3762" x1="1599.97" y1="6465.17" x2="1689.94" y2="6465.17" gradientUnits="userSpaceOnUse">
<stop stop-color="#A7A9AC"/>
<stop offset="1" stop-color="#2484C6" stop-opacity="0"/>
</linearGradient>
<linearGradient id="paint23_linear_8_3762" x1="1335.71" y1="6236.57" x2="1351.63" y2="6236.57" gradientUnits="userSpaceOnUse">
<stop offset="0.1616" stop-color="#BD8AAE"/>
<stop offset="1" stop-color="#2484C6" stop-opacity="0"/>
</linearGradient>
<linearGradient id="paint24_linear_8_3762" x1="1335.1" y1="6236.84" x2="1353.73" y2="6236.84" gradientUnits="userSpaceOnUse">
<stop offset="0.1616" stop-color="#BD8AAE"/>
<stop offset="1" stop-color="#2484C6" stop-opacity="0"/>
</linearGradient>
<linearGradient id="paint25_linear_8_3762" x1="1415.21" y1="6176.11" x2="1430.34" y2="6176.11" gradientUnits="userSpaceOnUse">
<stop offset="0.0607" stop-color="#28A8E0"/>
<stop offset="0.9984" stop-color="#29ABE2" stop-opacity="0"/>
</linearGradient>
<linearGradient id="paint26_linear_8_3762" x1="1412.85" y1="6176.72" x2="1430.46" y2="6176.72" gradientUnits="userSpaceOnUse">
<stop offset="0.0607" stop-color="#28A8E0"/>
<stop offset="0.9984" stop-color="#29ABE2" stop-opacity="0"/>
</linearGradient>
<linearGradient id="paint27_linear_8_3762" x1="1443.72" y1="6216.27" x2="1451.59" y2="6216.27" gradientUnits="userSpaceOnUse">
<stop stop-color="#21409A"/>
<stop offset="0.9984" stop-color="#29ABE2" stop-opacity="0"/>
</linearGradient>
<linearGradient id="paint28_linear_8_3762" x1="1441.87" y1="6217.12" x2="1452.18" y2="6217.12" gradientUnits="userSpaceOnUse">
<stop stop-color="#21409A"/>
<stop offset="0.9984" stop-color="#29ABE2" stop-opacity="0"/>
</linearGradient>
<clipPath id="clip0_8_3762">
<rect width="1920" height="890.383" fill="white" transform="translate(1920 6734.38) rotate(-180)"/>
</clipPath>
</defs>
</svg>
