<svg width="933" height="738" viewBox="0 0 933 738" fill="none" xmlns="http://www.w3.org/2000/svg">
<path d="M925.544 417.331V437.315C925.544 444.721 921.585 451.56 915.165 455.246L515.006 685.004C496.198 695.803 473.068 695.772 454.29 684.922L79.2043 468.213C73.8915 465.143 70.6191 459.472 70.6191 453.334V433.645C71.867 428.669 75.024 424.104 80.0806 421.179L118.672 398.893L191.393 400.552L868.505 416.027L925.544 417.331Z" fill="url(#paint0_linear_643_2)"/>
<path d="M915.533 436.449L909.601 439.877L894.124 448.821L510.467 670.446C492.094 681.058 469.464 681.058 451.1 670.446L107.767 472.122L87.9684 460.681L80.0714 456.116C66.6335 448.356 66.6335 428.949 80.0807 421.179L491.74 183.418C505.476 175.489 522.397 175.47 536.151 183.38L915.505 401.493C928.971 409.244 928.99 428.679 915.533 436.449Z" fill="#2A2F6D"/>
<path d="M915.533 436.449L909.601 439.877L894.124 448.821L521.465 233.141L107.767 472.122L87.9684 460.681L80.0714 456.116C66.6335 448.356 66.6335 428.949 80.0807 421.179L491.74 183.418C505.476 175.489 522.397 175.47 536.151 183.38L915.505 401.493C928.971 409.244 928.99 428.679 915.533 436.449Z" fill="#242D60"/>
<path d="M925.542 420.676C925.03 426.881 921.696 432.89 915.531 436.449L909.599 439.877L868.503 416.027L526.092 217.33C520.039 213.827 512.57 213.827 506.526 217.339L191.392 400.552L87.9669 460.681L80.0699 456.116C75.0225 453.2 71.8656 448.644 70.6177 443.669C69.7889 440.38 69.7889 436.924 70.6177 433.645C71.8656 428.669 75.0225 424.104 80.0792 421.179L118.67 398.893L491.738 183.418C505.474 175.489 522.395 175.47 536.15 183.38L915.503 401.493C921.696 405.052 925.049 411.098 925.542 417.331C925.635 418.44 925.635 419.567 925.542 420.676Z" fill="url(#paint1_linear_643_2)"/>
<g opacity="0.49">
<path opacity="0.49" d="M109.744 678.999L3.71825 617.752C-0.122228 615.534 -0.122228 609.987 3.71825 607.768L121.358 539.824C125.284 537.557 130.119 537.552 134.048 539.812L242.453 602.142C246.303 604.356 246.309 609.91 242.464 612.131L126.708 678.998C121.459 682.031 114.992 682.031 109.744 678.999Z" fill="url(#paint2_linear_643_2)"/>
</g>
<g opacity="0.49">
<path opacity="0.49" d="M648.93 360.987C627.384 348.516 627.74 328.264 649.72 315.982C671.7 303.699 706.368 303.699 726.76 315.982C747.151 328.264 746.797 348.515 725.969 360.987C705.143 373.458 670.475 373.458 648.93 360.987Z" fill="url(#paint3_linear_643_2)"/>
</g>
<g opacity="0.49">
<path opacity="0.49" d="M398.419 313.546C385.558 306.102 385.77 294.014 398.891 286.682C412.011 279.35 432.704 279.35 444.877 286.682C457.049 294.013 456.837 306.102 444.405 313.546C431.973 320.99 411.279 320.99 398.419 313.546Z" fill="url(#paint4_linear_643_2)"/>
</g>
<g opacity="0.49">
<path opacity="0.49" d="M752.432 464.977C745.413 460.914 745.528 454.315 752.69 450.312C759.853 446.311 771.149 446.311 777.793 450.312C784.438 454.314 784.322 460.913 777.535 464.977C770.748 469.04 759.452 469.04 752.432 464.977Z" fill="url(#paint5_linear_643_2)"/>
</g>
<g opacity="0.46">
<path opacity="0.46" d="M236.539 252.662L76.217 345.941C70.1406 349.477 62.5165 345.111 62.4858 338.078L62.2716 288.307C62.2576 285.038 63.9897 282.009 66.8151 280.366L227.138 187.086C233.215 183.551 240.839 187.917 240.869 194.95L241.084 244.72C241.097 247.989 239.365 251.017 236.539 252.662Z" fill="#CDE9F9"/>
</g>
<g opacity="0.46">
<path opacity="0.46" d="M434.845 175.017L274.523 268.296C268.446 271.832 260.822 267.465 260.791 260.433L260.577 210.662C260.563 207.393 262.295 204.364 265.121 202.721L425.443 109.441C431.519 105.906 439.144 110.271 439.174 117.305L439.388 167.075C439.402 170.344 437.67 173.373 434.845 175.017Z" fill="#CDE9F9"/>
</g>
<g opacity="0.46">
<path opacity="0.46" d="M449.44 74.5523L289.117 167.833C283.041 171.368 275.417 167.003 275.386 159.969L275.172 110.199C275.158 106.93 276.89 103.901 279.716 102.257L440.038 8.97787C446.114 5.44219 453.738 9.80799 453.769 16.8411L453.983 66.6117C453.997 69.8809 452.264 72.9088 449.44 74.5523Z" fill="#CDE9F9"/>
</g>
<g opacity="0.49">
<path opacity="0.49" d="M257.901 728.356C234.634 715.544 234.412 694.452 257.406 681.485C280.401 668.517 317.445 668.408 339.726 681.243C362.007 694.079 362.23 715.171 340.221 728.114C318.21 741.059 281.167 741.167 257.901 728.356Z" fill="url(#paint6_linear_643_2)"/>
</g>
<g opacity="0.46">
<path opacity="0.46" d="M636.272 25.5457V209.135C636.272 218.111 641.057 226.405 648.827 230.893L894.38 372.789C911.123 382.464 932.057 370.376 932.057 351.031V166.411C932.057 157.407 927.241 149.092 919.435 144.614L673.882 3.74838C657.138 -5.8571 636.272 6.23593 636.272 25.5457Z" fill="url(#paint7_linear_643_2)"/>
</g>
<path d="M758.436 81.2482V85.4025L775.881 95.4701V91.3148L758.436 81.2482Z" fill="white"/>
<path d="M758.436 88.8375V92.9928L775.881 103.059V98.9051L758.436 88.8375Z" fill="white"/>
<path d="M758.436 96.4269V100.582L775.881 110.65V106.494L758.436 96.4269Z" fill="white"/>
<path d="M890.094 184.146V179.992L782.426 117.861V122.016L890.094 184.146Z" fill="white"/>
<path d="M758.436 104.017V108.171L775.881 118.239V114.084L758.436 104.017Z" fill="white"/>
<path d="M758.436 111.607V115.762L775.881 125.828V121.673L758.436 111.607Z" fill="white"/>
<path d="M890.094 191.735V187.581L782.426 125.451V129.605L890.094 191.735Z" fill="white"/>
<path d="M758.436 134.376V138.531L775.881 148.597V144.443L758.436 134.376Z" fill="white"/>
<path d="M758.436 141.966V146.121L775.881 156.187V152.032L758.436 141.966Z" fill="white"/>
<path d="M758.436 172.324V176.479L775.881 186.546V182.391L758.436 172.324Z" fill="white"/>
<path d="M758.436 179.914V184.069L775.881 194.135V189.981L758.436 179.914Z" fill="white"/>
<path d="M850.351 232.955L782.426 193.758V197.913L850.351 237.109V232.955Z" fill="white"/>
<path d="M853.931 235.021V239.176L890.094 260.043V255.889L853.931 235.021Z" fill="white"/>
<path d="M816.552 205.861L782.426 186.168V190.323L816.552 210.017V205.861Z" fill="white"/>
<path d="M820.133 207.927V212.082L890.094 252.453V248.299L820.133 207.927Z" fill="white"/>
<path d="M880.891 220.218V224.374L890.094 229.684V225.53L880.891 220.218Z" fill="white"/>
<path d="M830.804 183.727L782.426 155.809V159.964L830.804 187.882V183.727Z" fill="white"/>
<path d="M810.982 111.57L782.426 95.0918V99.2471L810.982 115.724V111.57Z" fill="white"/>
<path d="M857.787 138.58L814.561 113.636V117.791L857.787 142.735V138.58Z" fill="white"/>
<path d="M832.594 131.632L802.16 114.069V118.224L832.594 135.787V131.632Z" fill="white"/>
<path d="M864.526 150.058L836.174 133.697V137.852L864.526 154.213V150.058Z" fill="white"/>
<path d="M868.106 152.124V156.279L890.093 168.966V164.812L868.106 152.124Z" fill="white"/>
<path d="M788.05 113.517V117.672L810.981 130.903V126.749L788.05 113.517Z" fill="white"/>
<path d="M881.123 167.225L814.561 128.815V132.971L881.123 171.379V167.225Z" fill="white"/>
<path d="M843.014 168.004L799.516 142.902V147.056L843.014 172.158V168.004Z" fill="white"/>
<path d="M881.123 189.994L846.594 170.07V174.225L881.123 194.149V189.994Z" fill="white"/>
<path d="M877.311 210.563L834.385 185.792V189.948L877.311 214.718V210.563Z" fill="white"/>
<path d="M853.931 204.661V208.817L877.311 222.307V218.153L853.931 204.661Z" fill="white"/>
<path d="M790.845 168.257L782.426 163.399V167.554L790.845 172.413V168.257Z" fill="white"/>
<path d="M806.615 177.357V181.512L850.351 206.75V202.596L806.615 177.357Z" fill="white"/>
<path d="M803.035 175.291L794.425 170.324V174.478L803.035 179.447V175.291Z" fill="white"/>
<path d="M842.259 205.517L794.425 177.913V182.068L842.259 209.671V205.517Z" fill="white"/>
<path d="M655.594 27.9754V151.958C655.594 156.021 657.775 159.772 661.306 161.78L720.921 195.675C726.066 198.6 732.452 194.883 732.452 188.962V67.7147C732.452 63.43 730.14 59.4788 726.407 57.3798L664.656 22.6696C660.601 20.3907 655.594 23.3227 655.594 27.9754Z" fill="url(#paint8_linear_643_2)"/>
<path opacity="0.5" d="M772.779 212.945L804.986 231.55C806.296 232.308 807.104 233.706 807.104 235.22V303.018C807.104 305.342 804.589 306.794 802.578 305.633L770.988 287.385C769.755 286.673 768.996 285.357 768.996 283.933V215.13C768.996 213.188 771.098 211.974 772.779 212.945Z" fill="url(#paint9_linear_643_2)"/>
<path d="M772.885 214.606C772.531 214.404 772.241 214.569 772.241 214.973C772.241 215.377 772.531 215.878 772.885 216.085C773.239 216.291 773.528 216.126 773.528 215.717C773.529 215.308 773.24 214.808 772.885 214.606Z" stroke="white" stroke-width="0.25" stroke-miterlimit="10"/>
<path d="M774.95 215.821C774.596 215.619 774.307 215.784 774.307 216.188C774.307 216.592 774.596 217.093 774.95 217.299C775.304 217.506 775.594 217.341 775.594 216.932C775.594 216.523 775.304 216.023 774.95 215.821Z" stroke="white" stroke-width="0.25" stroke-miterlimit="10"/>
<path d="M776.98 216.933C776.626 216.731 776.337 216.896 776.337 217.3C776.337 217.705 776.626 218.205 776.98 218.412C777.334 218.619 777.624 218.454 777.624 218.045C777.624 217.636 777.334 217.135 776.98 216.933Z" stroke="white" stroke-width="0.25" stroke-miterlimit="10"/>
<path d="M821.659 245.147V286.194C821.659 287.965 822.602 289.602 824.134 290.49L851.004 306.055C852.984 307.202 855.462 305.772 855.462 303.483V263.185C855.462 261.063 854.327 259.102 852.485 258.048L825.793 242.75C823.952 241.695 821.659 243.025 821.659 245.147Z" fill="white"/>
<path d="M863.971 269.627V310.31C863.971 312.316 865.04 314.169 866.777 315.172L884.561 325.445C886.692 326.677 889.358 325.138 889.358 322.675V283.479C889.358 280.914 887.99 278.543 885.769 277.261L868.263 267.148C866.356 266.047 863.971 267.424 863.971 269.627Z" fill="#17A1DB"/>
<path d="M138.681 384.843C138.681 384.843 132.08 379.852 124.118 381.201C116.156 382.549 105.269 386.322 103.464 389.881C101.658 393.439 103.234 401.537 110.768 402.297C118.303 403.056 125.331 403.359 126.848 405.028C128.365 406.698 121.504 410.775 125.39 412.455C129.276 414.135 142.018 410.037 143.232 406.242C144.445 402.448 138.681 384.843 138.681 384.843Z" fill="url(#paint10_linear_643_2)"/>
<path d="M360.31 535.848C360.31 535.848 372.674 541.483 375.783 547.534C378.892 553.585 378.728 555.343 374.873 553.909C371.017 552.475 368.653 550.756 368.653 550.756C368.653 550.756 370.164 562.023 372.445 564.987C374.726 567.951 376.693 575.003 364.254 576.217C351.815 577.431 342.41 578.039 339.224 561.344C336.038 544.65 337.567 536.557 337.567 536.557L360.31 535.848Z" fill="url(#paint11_linear_643_2)"/>
<path d="M354.185 353.502C353.743 356.792 353.039 359.716 352.123 362.311C347.229 376.277 336.395 380.845 329.259 381.82C320.806 382.982 282.607 367.509 282.607 367.509C282.607 367.509 270.782 349.948 278.655 329.916C285.848 311.618 306.118 302.482 325.021 305.724C326.805 306.018 328.58 306.436 330.332 306.969C350.593 313.099 356.976 332.543 354.185 353.502Z" fill="white"/>
<g opacity="0.38">
<path opacity="0.38" d="M354.185 353.502C353.743 356.792 353.039 359.716 352.123 362.311C347.229 376.277 336.395 380.845 329.259 381.82C325.732 382.302 317.049 379.896 308.106 376.924C295.602 372.773 282.607 367.509 282.607 367.509C282.607 367.509 270.782 349.948 278.655 329.916C281.708 322.162 287.1 316.047 293.753 311.839C302.787 306.1 314.129 303.857 325.021 305.724C326.805 306.018 328.58 306.436 330.332 306.969C350.593 313.099 356.976 332.543 354.185 353.502Z" fill="url(#paint12_linear_643_2)"/>
</g>
<g opacity="0.52">
<path opacity="0.52" d="M308.106 376.924C295.602 372.773 282.607 367.509 282.607 367.509C282.607 367.509 270.782 349.948 278.655 329.916C281.708 322.162 287.1 316.047 293.753 311.839C286.241 320.903 284.203 333.248 287.493 349.195C289.915 360.951 299.521 370.505 308.106 376.924Z" fill="url(#paint13_linear_643_2)"/>
</g>
<path d="M365.444 538.07C365.444 538.07 359.856 541.368 350.749 541.946C341.65 542.524 335.28 540.101 335.28 540.101C335.28 540.101 320.11 486.978 318.9 474.54C317.68 462.093 316.469 445.043 316.469 445.043C316.469 445.043 316.218 445.304 315.761 445.807C311.627 450.326 290.478 474.27 282.488 499.732C273.613 528.008 243.767 578.318 232.936 596.998C222.115 615.678 205.734 614.765 196.627 614.765C195.211 614.765 192.855 614.635 189.884 614.402C173.774 613.172 139.653 609.203 139.653 609.203C139.653 609.203 133.507 627.305 119.1 632.569C104.703 637.833 104.051 635.784 103.483 627.51C102.915 619.246 117.442 581.374 124.418 578.952C131.402 576.52 133.544 581.57 149.766 579.8C165.989 578.039 201.534 574.471 201.534 574.471C201.534 574.471 208.584 562.843 213.529 546.157C217.692 532.126 218.353 520.024 218.455 516.53C218.474 515.869 218.474 515.515 218.474 515.515C218.474 515.515 180.246 543.744 173.876 546.474C167.534 549.194 103.781 558.222 90.3245 558.306H90.1382C90.1382 558.306 82.8559 574.396 72.2396 581.076C61.6141 587.756 49.1819 589.703 49.4799 585.995C49.7872 582.287 58.8855 555.884 74.3629 540.4C74.3629 540.4 78.9074 534.94 87.1024 536.459C87.1024 536.459 151.983 524.459 158.529 516.642C165.076 508.835 197.642 459.363 206.237 443.273C214.833 427.183 219.899 410.721 219.899 410.721C219.899 410.721 219.778 410.73 219.545 410.74C216.956 410.851 200.668 411.485 194.503 409.799C187.808 407.963 142.018 408.066 142.018 408.066C142.018 408.066 136.058 403.668 134.661 396.587C134.382 395.218 134.279 393.746 134.428 392.181C135.341 382.566 136.859 383.367 136.859 383.367C136.859 383.367 188.236 382.873 206.237 378.625C206.237 378.625 223.996 373.109 231.074 369.019C238.16 364.929 262.522 358.147 297.742 365.749C332.952 373.361 369.821 389.777 363.106 421.137C356.401 452.497 351.419 459.904 356.01 483.847C360.601 507.782 359.502 531.595 365.444 538.07Z" fill="white"/>
<g opacity="0.04">
<path opacity="0.04" d="M365.444 538.075C365.444 538.075 365.025 538.327 364.224 538.69C362.613 539.445 359.456 540.702 355.097 541.448C353.756 541.671 352.304 541.848 350.749 541.951C341.65 542.528 335.28 540.106 335.28 540.106C335.28 540.106 329.944 521.407 325.344 503.594C325.344 503.585 325.344 503.566 325.335 503.557C322.187 491.371 319.393 479.604 318.9 474.545C317.68 462.098 316.469 445.048 316.469 445.048C316.469 445.048 316.218 445.309 315.761 445.812C315.566 446.026 315.342 446.278 315.072 446.576C315.072 446.576 315.072 446.576 315.072 446.585C314.653 447.051 314.15 447.61 313.573 448.262C306.728 456.116 289.519 477.34 282.488 499.737C273.613 528.013 243.767 578.323 232.936 597.003C222.115 615.683 205.734 614.77 196.627 614.77C195.211 614.77 192.855 614.639 189.884 614.406C173.774 613.177 139.653 609.208 139.653 609.208C139.653 609.208 133.507 627.31 119.1 632.574C104.703 637.838 104.051 635.788 103.483 627.515C102.915 619.251 117.442 581.379 124.418 578.957C129.279 577.261 131.793 579.189 138.33 579.925C141.189 580.252 144.831 580.345 149.766 579.804C165.989 578.044 201.534 574.475 201.534 574.475C201.534 574.475 208.584 562.848 213.529 546.162C217.692 532.131 218.353 520.029 218.455 516.535C218.474 515.873 218.474 515.519 218.474 515.519C218.474 515.519 218.204 515.724 217.701 516.088C212.253 520.094 179.706 543.982 173.876 546.479C167.534 549.199 103.781 558.227 90.3245 558.311H90.1382C90.1382 558.311 82.8559 574.401 72.2396 581.081C61.6141 587.761 49.1819 589.708 49.4799 586C49.7872 582.292 58.8855 555.888 74.3629 540.404C74.3629 540.404 78.9074 534.945 87.1024 536.463C87.1024 536.463 151.983 524.463 158.529 516.647C165.076 508.839 197.642 459.368 206.237 443.278C214.833 427.188 219.899 410.725 219.899 410.725C219.899 410.725 219.778 410.735 219.545 410.744C216.956 410.856 200.668 411.489 194.503 409.803C187.808 407.968 142.018 408.07 142.018 408.07C142.018 408.07 136.058 403.673 134.661 396.592C134.382 395.223 134.279 393.751 134.428 392.185C135.341 382.571 136.859 383.372 136.859 383.372C136.859 383.372 188.236 382.878 206.237 378.63C206.237 378.63 222.925 373.45 230.394 369.406C230.627 369.276 230.859 369.145 231.074 369.024C238.16 364.934 262.522 358.152 297.742 365.754C332.952 373.366 369.821 389.782 363.106 421.142C356.401 452.501 351.419 459.908 356.01 483.852C360.601 507.787 359.502 531.6 365.444 538.075Z" fill="url(#paint14_linear_643_2)"/>
</g>
<path d="M121.669 581.192C121.669 581.192 131.143 579.253 129.982 592.608C128.821 605.964 122.024 621.877 118.232 628.021C114.439 634.164 104.02 635.868 103.602 629.036C103.184 622.203 109.814 598.459 121.669 581.192Z" fill="#17A1DB"/>
<g opacity="0.52">
<path opacity="0.52" d="M330.728 404.115C323.148 414.364 318.184 434.087 315.763 445.807C311.628 450.326 290.479 474.27 282.489 499.732C273.614 528.008 243.768 578.318 232.937 596.998C222.116 615.678 205.736 614.765 196.628 614.765C195.212 614.765 192.856 614.635 189.886 614.402C199.804 612.222 211.407 608.579 219.388 602.626C236.066 590.179 234.856 560.43 265.196 498.884C295.536 437.339 341.959 388.938 330.728 404.115Z" fill="url(#paint15_linear_643_2)"/>
</g>
<path d="M76.416 538.629C76.416 538.629 84.3726 535.393 82.8556 545.409C81.3385 555.425 71.0231 572.12 64.3489 577.887C57.6746 583.654 49.3399 583.805 52.4447 576.443C55.5504 569.082 63.4017 549.929 76.416 538.629Z" fill="#17A1DB"/>
<path d="M276.93 525.735C276.324 529.574 257.867 567.641 254.552 569.859C252.838 570.995 249.961 570.902 247.782 569.57C245.733 568.322 244.28 565.983 244.969 562.555C246.264 556.089 255.315 533.412 262.886 521.673C264.097 519.8 266.416 518.999 268.511 519.726C269.442 520.043 270.458 520.434 271.463 520.872C274.425 522.148 277.218 523.872 276.93 525.735Z" fill="#CDE9F9"/>
<path d="M219.06 510.479C219.051 512.342 219.489 513.526 218.474 515.519C218.474 515.519 180.246 543.749 173.876 546.479C172.284 547.159 167.078 548.24 159.954 549.479C138.703 553.168 100.4 558.246 90.3242 558.311C90.6967 552.572 90.7433 548.295 90.7433 548.295C90.7433 548.295 119.873 544.047 153.854 535.848C187.826 527.659 220.038 486.852 220.038 486.852C219.191 489.815 219.088 497.548 219.069 503.957C219.06 506.454 219.069 508.746 219.06 510.479Z" fill="url(#paint16_linear_643_2)"/>
<path d="M211.369 615.389C208.464 617.346 172.965 619.796 153.855 612.427C153.855 612.427 154.237 610.824 154.992 609.212C155.727 607.629 156.817 606.045 158.251 605.961C161.129 605.812 186.766 607.517 196.628 607.275C204.748 607.07 211.472 611.374 211.956 614.001C212.068 614.56 211.882 615.045 211.369 615.389Z" fill="#CDE9F9"/>
<path d="M155.336 550.089C155.066 550.9 154.265 551.757 152.635 552.539C148.24 554.663 109.705 560.552 102.422 560.114C102.422 560.114 102.18 559.154 102.106 557.989C101.984 556.424 102.161 554.496 103.586 554.058C106.063 553.303 152.263 546.008 153.799 546.893C154.777 547.452 155.801 548.71 155.336 550.089Z" fill="#CDE9F9"/>
<path d="M266.716 471.418C261.762 477.269 234.662 469.778 225.154 466.946C216.037 464.226 202.078 461.775 205.235 449.906C205.375 449.403 205.533 448.872 205.738 448.331C210.59 435.111 239.03 394.546 242.913 385.882C246.797 377.208 252.04 371.916 255.373 372.251C255.373 372.251 295.874 376.034 308.464 382.267C310.215 383.133 311.425 384.046 311.919 384.997C315.951 392.832 271.661 465.567 266.716 471.418Z" fill="url(#paint17_linear_643_2)"/>
<path d="M295.788 390.493C295.583 393.549 293.497 398.021 291.001 397.695C288.049 397.295 253.481 390.82 249.141 389.739C249.02 389.702 248.918 389.674 248.843 389.655C246.217 388.872 249.132 382.91 252.568 380.99C252.568 380.99 294.838 386.161 295.648 388.789C295.788 389.254 295.834 389.841 295.788 390.493Z" fill="#3C7FBE"/>
<path d="M286.615 407.394C286.345 410.45 284.287 414.735 281.847 414.409C279.072 414.037 248.266 408.27 241.049 406.695C240.378 406.546 239.913 406.434 239.689 406.369C237.054 405.587 239.978 399.624 243.414 397.714C243.414 397.714 285.684 402.875 286.494 405.503C286.652 406.015 286.689 406.667 286.615 407.394Z" fill="#3C7FBE"/>
<path d="M277.041 422.785C277.013 423.018 276.771 423.661 276.37 424.611C273.577 431.254 262.849 452.887 259.803 455.365C256.814 457.797 248.237 454.555 244.224 452.403C243.562 452.058 243.032 451.732 242.659 451.471C240.024 449.608 258.025 420.353 258.025 420.353C261.666 417.121 277.274 420.912 277.041 422.785Z" fill="#BD8AAE"/>
<path d="M363.72 410.499C363.72 410.499 351.439 414.133 345.291 413.222C339.143 412.312 339.071 430.523 340.285 431.889C341.498 433.255 356.804 434.621 360.68 431.889C360.68 431.889 364.942 416.247 363.72 410.499Z" fill="#CDE9F9"/>
<path d="M311.311 385.703C311.311 385.703 320.442 374.963 328.241 374.97C328.241 374.97 316.214 369.131 312.474 369.474C308.733 369.817 299.81 380.137 299.81 380.137C299.81 380.137 310.402 383.375 311.311 385.703Z" fill="#AECFDC"/>
<path d="M260.727 373.583C260.727 373.583 269.288 363.515 275.054 362.569C275.054 362.569 265.846 362.486 261.727 362.569C257.608 362.652 251.279 374.153 251.279 374.153C251.279 374.153 252.465 371.733 260.727 373.583Z" fill="#AECFDC"/>
<path d="M190.985 407.28C196.514 407.28 200.996 402.218 200.996 395.974C200.996 389.729 196.514 384.667 190.985 384.667C185.455 384.667 180.973 389.729 180.973 395.974C180.973 402.218 185.455 407.28 190.985 407.28Z" fill="#AECFDC"/>
<path d="M271.645 463.926C271.645 463.926 274.518 473.758 292.347 477.831L288.357 485.312C288.357 485.312 270.039 485.498 266.1 472.125L271.645 463.926Z" fill="#AECFDC"/>
<path d="M229.388 389.362C229.276 389.614 226.753 395.008 224.499 400.133C223.27 402.918 222.124 405.629 221.482 407.399C221.091 408.471 220.401 409.617 219.545 410.744C216.956 410.856 200.668 411.49 194.503 409.803C189.819 408.517 166.026 408.182 152.141 408.098C146.162 408.061 142.018 408.07 142.018 408.07C142.018 408.07 136.058 403.673 134.661 396.592C141.413 396.229 155.083 395.81 173.271 396.909C199.374 398.483 228.755 389.549 229.388 389.362Z" fill="url(#paint18_linear_643_2)"/>
<path d="M333.48 494.872C339.009 494.872 343.491 489.81 343.491 483.565C343.491 477.321 339.009 472.258 333.48 472.258C327.95 472.258 323.468 477.321 323.468 483.565C323.468 489.81 327.95 494.872 333.48 494.872Z" fill="#AECFDC"/>
<g opacity="0.52">
<path opacity="0.52" d="M355.098 541.443C353.757 541.667 352.305 541.844 350.749 541.946C341.651 542.524 335.281 540.101 335.281 540.101C335.281 540.101 320.111 486.978 318.901 474.54C317.681 462.093 316.47 445.044 316.47 445.044C316.47 445.044 316.219 445.304 315.762 445.807C315.269 446.357 315.881 445.651 314.931 446.732C320.593 425.956 326.565 411.261 327.198 409.892C326.788 410.879 323.538 419.292 323.464 437.665C323.38 457.258 330.727 480.605 335.281 506.711C337.954 522.008 347.583 534.083 355.098 541.443Z" fill="url(#paint19_linear_643_2)"/>
</g>
<path d="M354.185 353.502C353.742 356.792 353.039 359.716 352.123 362.311C349.643 364.128 345.315 366.068 338.686 365.201C327.123 363.694 314.914 339.936 316.526 323.522C317.508 313.542 321.804 308.294 325.02 305.723C326.804 306.017 328.579 306.435 330.331 306.968C350.593 313.099 356.976 332.543 354.185 353.502Z" fill="url(#paint20_linear_643_2)"/>
<path d="M317.205 362.812C315.79 364.294 313.646 365.096 312.607 364.433C310.602 363.156 306.6 358.415 305.684 352.898C304.997 348.772 306.976 344.531 310.217 343.393C311.306 343.008 312.533 342.976 313.851 343.417C313.851 343.417 315.119 353.683 317.885 357.621C319.218 359.504 318.515 361.445 317.205 362.812Z" fill="#CDE9F9"/>
<path d="M317.205 362.812C315.79 364.294 313.646 365.096 312.607 364.433C310.602 363.156 306.6 358.415 305.684 352.898C304.997 348.772 306.976 344.531 310.217 343.393C309.841 345.522 309.701 348.084 310.241 350.803C311.158 355.354 314.751 360.036 317.205 362.812Z" fill="url(#paint21_linear_643_2)"/>
<path d="M295.788 390.493C285.385 388.09 252.466 383.758 252.466 383.758C250.426 385.435 249.514 388.202 249.141 389.739C249.02 389.702 248.918 389.674 248.843 389.655C246.217 388.872 249.132 382.91 252.568 380.99C252.568 380.99 294.838 386.161 295.648 388.789C295.788 389.254 295.834 389.841 295.788 390.493Z" fill="#306097"/>
<path d="M286.615 407.394C277.507 404.413 243.87 400.22 243.87 400.22C243.87 400.22 243.666 401.264 242.399 402.978C241.598 404.059 241.216 405.652 241.049 406.695C240.378 406.546 239.913 406.434 239.689 406.369C237.054 405.586 239.978 399.624 243.414 397.714C243.414 397.714 285.684 402.875 286.494 405.503C286.652 406.015 286.689 406.667 286.615 407.394Z" fill="#306097"/>
<path d="M277.041 422.785C277.013 423.018 276.771 423.661 276.37 424.611C265.791 420.475 259.245 422.906 259.245 422.906C259.245 422.906 258.537 424.425 255.399 430.099C252.819 434.757 246.421 447.875 244.224 452.403C243.562 452.058 243.032 451.732 242.659 451.471C240.024 449.608 258.025 420.353 258.025 420.353C261.666 417.121 277.274 420.912 277.041 422.785Z" fill="#A17194"/>
<path d="M266.716 471.418C261.762 477.269 234.662 469.778 225.154 466.946C216.037 464.226 202.078 461.775 205.235 449.906C208.802 451.928 214.994 454.35 225.704 456.782C252.17 462.782 257.832 465.241 263.094 459.157C267.489 454.07 298.5 402.484 308.464 382.267C310.215 383.133 311.425 384.046 311.919 384.997C315.951 392.832 271.661 465.567 266.716 471.418Z" fill="url(#paint22_linear_643_2)"/>
<g opacity="0.52">
<path opacity="0.52" d="M271.463 520.872C270.709 521.226 269.862 521.766 268.986 522.577C266.109 525.241 259.739 539.188 251.991 556.303C248.825 563.291 247.837 567.287 247.782 569.57C245.733 568.322 244.28 565.983 244.969 562.555C246.264 556.089 255.315 533.412 262.886 521.673C264.097 519.8 266.416 518.999 268.511 519.726C269.442 520.043 270.458 520.434 271.463 520.872Z" fill="url(#paint23_linear_643_2)"/>
</g>
<g opacity="0.52">
<path opacity="0.52" d="M211.956 614.001C208.473 612.352 202.513 610.153 195.268 610.06C184.679 609.93 160.663 609.045 154.991 609.212C155.727 607.629 156.816 606.045 158.251 605.961C161.128 605.812 186.765 607.517 196.627 607.275C204.748 607.07 211.472 611.374 211.956 614.001Z" fill="url(#paint24_linear_643_2)"/>
</g>
<path d="M155.336 550.089C154.33 549.698 152.607 549.101 151.574 549.204C150.056 549.353 118.505 553.76 109.863 555.278C105.942 555.958 103.549 557.02 102.106 557.989C101.984 556.424 102.161 554.496 103.586 554.058C106.063 553.303 152.263 546.008 153.799 546.893C154.777 547.452 155.801 548.71 155.336 550.089Z" fill="url(#paint25_linear_643_2)"/>
<path opacity="0.2" d="M225.757 547.685C223.932 564.381 204.776 586.387 204.776 586.387L140.231 590.486L140.194 586.387C140.426 583.349 139.532 581.3 138.331 579.921C141.19 580.247 144.831 580.34 149.767 579.8C165.989 578.039 201.535 574.471 201.535 574.471C201.535 574.471 208.585 562.843 213.53 546.157C217.692 532.126 218.353 520.024 218.456 516.53C218.474 515.869 218.474 515.515 218.474 515.515C218.474 515.515 218.204 515.72 217.702 516.083C219.033 504.158 219.331 492.456 219.331 492.456C219.331 492.456 227.573 530.99 225.757 547.685Z" fill="url(#paint26_linear_643_2)"/>
<path d="M224.499 400.132C223.27 402.918 222.124 405.629 221.482 407.399C221.09 408.471 220.401 409.617 219.544 410.744C216.956 410.856 200.668 411.49 194.503 409.803C189.819 408.517 166.026 408.182 152.141 408.098C156.834 406.757 164.722 405.462 176.977 406.067C194.308 406.924 215.186 402.424 224.499 400.132Z" fill="#758E9B"/>
<path d="M325.335 503.557C322.187 491.371 319.393 479.604 318.9 474.545C317.68 462.098 316.469 445.048 316.469 445.048C316.469 445.048 316.218 445.309 315.761 445.812C315.566 446.026 315.342 446.278 315.072 446.576C317.345 438.48 319.784 430.412 319.784 430.412C319.784 430.412 320.483 435.582 320.92 458.65C321.172 471.48 323.407 489.805 325.335 503.557Z" fill="#758E9B"/>
<path d="M218.474 515.519C218.474 515.519 180.246 543.749 173.876 546.479C172.284 547.159 167.078 548.239 159.954 549.479C188.776 536.938 209.133 515.929 219.07 503.957C219.061 506.454 219.07 508.746 219.061 510.479C219.051 512.342 219.489 513.526 218.474 515.519Z" fill="#758E9B"/>
<path d="M365.443 538.075C365.443 538.075 365.024 538.327 364.223 538.69C358.766 532.224 355.526 513.526 355.097 503.957C354.52 490.979 347.182 471.405 355.097 440.138C363.013 408.871 361.746 400.375 348.094 389.362C334.442 378.35 312.474 369.471 277.04 366.378C260.752 364.953 243.878 366.891 230.394 369.406C230.626 369.276 230.859 369.145 231.073 369.024C238.16 364.934 262.522 358.152 297.742 365.754C332.952 373.366 369.82 389.782 363.106 421.142C356.401 452.501 351.419 459.908 356.01 483.852C360.601 507.787 359.502 531.6 365.443 538.075Z" fill="url(#paint27_linear_643_2)"/>
<path d="M515.663 659.08C588.675 659.08 647.862 599.866 647.862 526.821C647.862 453.777 588.675 394.563 515.663 394.563C442.652 394.563 383.464 453.777 383.464 526.821C383.464 599.866 442.652 659.08 515.663 659.08Z" fill="#3C7FBE"/>
<path d="M383.469 526.373C383.469 526.523 383.464 526.671 383.464 526.821C383.464 536.228 384.453 545.403 386.319 554.253L502.843 658.459C507.062 658.866 511.338 659.081 515.663 659.081C538.149 659.081 559.32 653.457 577.859 643.55L383.469 526.373Z" fill="url(#paint28_linear_643_2)"/>
<path d="M427.539 428.244C409.705 444.212 396.232 464.949 389.121 488.455L614.639 614.488C620.813 607.515 626.263 599.887 630.871 591.719L427.539 428.244Z" fill="url(#paint29_linear_643_2)"/>
<path d="M485.64 397.991L639.28 573.774C644.821 559.182 647.863 543.359 647.863 526.821C647.863 514.455 646.162 502.488 642.989 491.136L501.075 395.368C495.832 395.944 490.68 396.819 485.64 397.991Z" fill="url(#paint30_linear_643_2)"/>
<path d="M500.935 463.031C510.737 463.031 518.682 455.082 518.682 445.276C518.682 435.471 510.737 427.522 500.935 427.522C491.134 427.522 483.188 435.471 483.188 445.276C483.188 455.082 491.134 463.031 500.935 463.031Z" fill="url(#paint31_linear_643_2)"/>
<path d="M493.94 579.474C509.245 579.474 521.653 567.061 521.653 551.748C521.653 536.436 509.245 524.023 493.94 524.023C478.634 524.023 466.227 536.436 466.227 551.748C466.227 567.061 478.634 579.474 493.94 579.474Z" fill="url(#paint32_linear_643_2)"/>
<path d="M583.129 522.923C591.085 522.923 597.535 516.471 597.535 508.511C597.535 500.552 591.085 494.099 583.129 494.099C575.173 494.099 568.724 500.552 568.724 508.511C568.724 516.471 575.173 522.923 583.129 522.923Z" fill="url(#paint33_linear_643_2)"/>
<path d="M515.663 394.563C442.651 394.563 383.464 453.777 383.464 526.821C383.464 527.79 383.48 528.755 383.5 529.718C385.041 461.214 441.026 406.155 509.869 406.155C579.681 406.155 636.275 462.774 636.275 532.617C636.275 601.491 581.24 657.502 512.767 659.043C513.73 659.063 514.695 659.079 515.662 659.079C588.674 659.079 647.862 599.865 647.862 526.82C647.863 453.777 588.675 394.563 515.663 394.563Z" fill="url(#paint34_linear_643_2)"/>
<path d="M425.678 537.017C433.634 537.017 440.083 530.564 440.083 522.605C440.083 514.645 433.634 508.193 425.678 508.193C417.722 508.193 411.272 514.645 411.272 522.605C411.272 530.564 417.722 537.017 425.678 537.017Z" fill="url(#paint35_linear_643_2)"/>
<path d="M583.129 593.887C587.78 593.887 591.55 590.115 591.55 585.462C591.55 580.81 587.78 577.038 583.129 577.038C578.479 577.038 574.709 580.81 574.709 585.462C574.709 590.115 578.479 593.887 583.129 593.887Z" fill="url(#paint36_linear_643_2)"/>
<path d="M480.044 609.697C480.044 614.35 476.274 618.121 471.624 618.121C466.973 618.121 463.203 614.35 463.203 609.697C463.203 605.044 466.973 601.273 471.624 601.273C476.274 601.273 480.044 605.044 480.044 609.697Z" fill="url(#paint37_linear_643_2)"/>
<path d="M418.345 300.218C448.092 300.218 472.207 276.092 472.207 246.332C472.207 216.572 448.092 192.446 418.345 192.446C388.598 192.446 364.483 216.572 364.483 246.332C364.483 276.092 388.598 300.218 418.345 300.218Z" fill="url(#paint38_linear_643_2)"/>
<path d="M418.345 300.218C448.092 300.218 472.207 276.092 472.207 246.332C472.207 216.572 448.092 192.446 418.345 192.446C388.598 192.446 364.483 216.572 364.483 246.332C364.483 276.092 388.598 300.218 418.345 300.218Z" fill="url(#paint39_linear_643_2)"/>
<path d="M414.505 286.352C418.498 286.352 421.735 283.113 421.735 279.118C421.735 275.123 418.498 271.885 414.505 271.885C410.511 271.885 407.274 275.123 407.274 279.118C407.274 283.113 410.511 286.352 414.505 286.352Z" fill="url(#paint40_linear_643_2)"/>
<path d="M444.36 239.493C450.595 239.493 455.65 234.435 455.65 228.197C455.65 221.959 450.595 216.902 444.36 216.902C438.124 216.902 433.069 221.959 433.069 228.197C433.069 234.435 438.124 239.493 444.36 239.493Z" fill="url(#paint41_linear_643_2)"/>
<path d="M438.999 244.335C439.042 247.579 436.451 250.242 433.209 250.286C429.968 250.33 427.305 247.737 427.261 244.494C427.218 241.252 429.809 238.587 433.051 238.543C436.292 238.499 438.955 241.092 438.999 244.335Z" fill="url(#paint42_linear_643_2)"/>
<path d="M393.259 228.003C393.303 231.246 390.712 233.91 387.47 233.954C384.229 233.998 381.566 231.405 381.522 228.162C381.478 224.919 384.07 222.255 387.312 222.211C390.553 222.167 393.216 224.76 393.259 228.003Z" fill="url(#paint43_linear_643_2)"/>
<path d="M448.351 269.691C448.376 271.586 446.862 273.144 444.967 273.169C443.073 273.194 441.516 271.679 441.491 269.783C441.465 267.888 442.98 266.33 444.875 266.305C446.769 266.28 448.325 267.796 448.351 269.691Z" fill="url(#paint44_linear_643_2)"/>
<path d="M415.268 220.174C415.293 222.069 413.779 223.626 411.884 223.651C409.99 223.677 408.433 222.162 408.408 220.266C408.381 218.371 409.897 216.813 411.792 216.788C413.686 216.763 415.242 218.279 415.268 220.174Z" fill="url(#paint45_linear_643_2)"/>
<path d="M417.618 192.452C387.874 192.853 364.087 217.302 364.488 247.06C364.494 247.455 364.505 247.847 364.519 248.24C364.771 220.324 387.275 197.585 415.322 197.206C443.762 196.822 467.129 219.576 467.513 248.03C467.892 276.089 445.779 299.21 417.892 300.214C418.284 300.217 418.677 300.219 419.072 300.213C448.816 299.812 472.603 275.363 472.201 245.605C471.8 215.848 447.362 192.05 417.618 192.452Z" fill="url(#paint46_linear_643_2)"/>
<mask id="mask0_643_2" style="mask-type:alpha" maskUnits="userSpaceOnUse" x="340" y="230" width="157" height="32">
<path d="M469.69 230.021C470.112 231.351 470.483 232.703 470.801 234.075C471.128 234.136 471.466 234.192 471.789 234.254C488.298 237.409 492.745 241.363 492.77 243.203C492.795 245.044 488.456 249.117 472.037 252.716C457.78 255.842 438.767 257.713 418.501 257.987C398.236 258.261 379.179 256.903 364.844 254.164C348.335 251.009 343.888 247.054 343.863 245.214C343.838 243.374 348.176 239.301 364.595 235.702C364.916 235.632 365.252 235.565 365.577 235.496C365.859 234.115 366.192 232.754 366.578 231.414C350.759 234.57 340.028 239.237 340.109 245.265C340.264 256.777 379.689 262.268 418.553 261.743C457.417 261.218 496.679 254.664 496.523 243.152C496.442 237.124 485.589 232.748 469.69 230.021Z" fill="url(#paint47_linear_643_2)"/>
</mask>
<g mask="url(#mask0_643_2)">
<path d="M469.69 230.021C470.112 231.351 470.483 232.703 470.801 234.075C471.128 234.136 471.466 234.192 471.789 234.254C488.298 237.409 492.745 241.363 492.77 243.203C492.795 245.044 488.456 249.117 472.037 252.716C457.78 255.842 438.767 257.713 418.501 257.987C398.236 258.261 379.179 256.903 364.844 254.164C348.335 251.009 343.888 247.054 343.863 245.214C343.838 243.374 348.176 239.301 364.595 235.702C364.916 235.632 365.252 235.565 365.577 235.496C365.859 234.115 366.192 232.754 366.578 231.414C350.759 234.57 340.028 239.237 340.109 245.265C340.264 256.777 379.689 262.268 418.553 261.743C457.417 261.218 496.679 254.664 496.523 243.152C496.442 237.124 485.589 232.748 469.69 230.021Z" fill="white"/>
</g>
<path d="M682.321 331.974C723.938 331.974 757.675 298.221 757.675 256.586C757.675 214.95 723.938 181.198 682.321 181.198C640.704 181.198 606.967 214.95 606.967 256.586C606.967 298.221 640.704 331.974 682.321 331.974Z" fill="#E7F6FD"/>
<path d="M682.321 331.974C723.938 331.974 757.675 298.221 757.675 256.586C757.675 214.95 723.938 181.198 682.321 181.198C640.704 181.198 606.967 214.95 606.967 256.586C606.967 298.221 640.704 331.974 682.321 331.974Z" fill="url(#paint48_linear_643_2)"/>
<path d="M757.675 256.586C757.675 245.704 755.367 235.364 751.22 226.021C721.429 225.807 686.413 269.765 657.904 276.625C639.674 281.011 621.18 277.147 608.782 273.086C616.304 306.784 646.37 331.974 682.321 331.974C723.938 331.974 757.675 298.221 757.675 256.586Z" fill="url(#paint49_linear_643_2)"/>
<path d="M757.674 256.586C757.674 251.728 757.212 246.98 756.333 242.378C725.652 248.147 690.997 285.926 662.36 292.244C645.316 296.004 628.065 293.7 614.967 290.408C627.357 315.058 652.861 331.974 682.32 331.974C723.937 331.974 757.674 298.221 757.674 256.586Z" fill="url(#paint50_linear_643_2)"/>
<path d="M682.321 331.974C722.764 331.974 755.762 300.098 757.591 260.088C726.603 265.035 691.389 303.765 662.36 310.168C651.427 312.58 640.407 312.494 630.452 311.255C643.961 324.093 662.218 331.974 682.321 331.974Z" fill="url(#paint51_linear_643_2)"/>
<path d="M754.651 277.772C724.391 284.562 690.476 321.086 662.36 327.288C661.018 327.584 659.673 327.84 658.329 328.063C665.865 330.596 673.931 331.974 682.321 331.974C716.584 331.974 745.501 309.093 754.651 277.772Z" fill="url(#paint52_linear_643_2)"/>
<path d="M682.321 181.198C640.704 181.198 606.967 214.951 606.967 256.586C606.967 257.138 606.976 257.688 606.987 258.237C607.865 219.19 639.778 187.806 679.019 187.806C718.812 187.806 751.07 220.079 751.07 259.89C751.07 299.148 719.7 331.074 680.671 331.953C681.22 331.965 681.769 331.974 682.321 331.974C723.937 331.974 757.675 298.221 757.675 256.586C757.675 214.951 723.937 181.198 682.321 181.198Z" fill="url(#paint53_linear_643_2)"/>
<path d="M475.285 227.789L473.276 219.242L471.266 227.789L463.452 229.799L471.266 231.809L473.276 240.807L475.285 231.809L483.78 229.799L475.285 227.789Z" fill="url(#paint54_linear_643_2)"/>
<path d="M600.287 311.289L598.278 302.742L596.268 311.289L588.455 313.298L596.268 315.309L598.278 324.308L600.287 315.309L608.782 313.298L600.287 311.289Z" fill="url(#paint55_linear_643_2)"/>
<path d="M379.623 300.506L377.613 291.959L375.604 300.506L367.79 302.516L375.604 304.526L377.613 313.525L379.623 304.526L388.118 302.516L379.623 300.506Z" fill="url(#paint56_linear_643_2)"/>
<path d="M695.69 509.558L693.68 501.011L691.672 509.558L683.857 511.568L691.672 513.578L693.68 522.577L695.69 513.578L704.186 511.568L695.69 509.558Z" fill="url(#paint57_linear_643_2)"/>
<path d="M811.124 349.507L809.115 340.96L807.105 349.507L799.291 351.517L807.105 353.527L809.115 362.526L811.124 353.527L819.619 351.517L811.124 349.507Z" fill="url(#paint58_linear_643_2)"/>
<path d="M165.686 431.231L163.677 422.684L161.668 431.231L153.854 433.241L161.668 435.251L163.677 444.25L165.686 435.251L174.182 433.241L165.686 431.231Z" fill="url(#paint59_linear_643_2)"/>
<path d="M401.087 433.511L399.079 424.965L397.069 433.511L389.256 435.522L397.069 437.532L399.079 446.53L401.087 437.532L409.583 435.522L401.087 433.511Z" fill="url(#paint60_linear_643_2)"/>
<path d="M499.22 337.062L497.211 328.515L495.202 337.062L487.388 339.072L495.202 341.083L497.211 350.081L499.22 341.083L507.716 339.072L499.22 337.062Z" fill="url(#paint61_linear_643_2)"/>
<path d="M671.18 397.917L669.171 389.371L667.162 397.917L659.349 399.928L667.162 401.937L669.171 410.936L671.18 401.937L679.676 399.928L671.18 397.917Z" fill="url(#paint62_linear_643_2)"/>
<mask id="mask1_643_2" style="mask-type:alpha" maskUnits="userSpaceOnUse" x="464" y="259" width="105" height="66">
<path d="M568.382 322.409C569.63 320.294 568.929 317.567 566.815 316.319L471.378 259.941C469.264 258.692 466.538 259.394 465.29 261.509C464.042 263.624 464.743 266.351 466.857 267.599L562.295 323.977C564.408 325.226 567.133 324.524 568.382 322.409Z" fill="url(#paint63_linear_643_2)"/>
</mask>
<g mask="url(#mask1_643_2)">
<path d="M568.382 322.409C569.63 320.294 568.929 317.567 566.815 316.319L471.378 259.941C469.264 258.692 466.538 259.394 465.29 261.509C464.042 263.624 464.743 266.351 466.857 267.599L562.295 323.977C564.408 325.226 567.133 324.524 568.382 322.409Z" fill="#E7F6FD"/>
<path d="M567.608 321.953C566.503 323.825 564.089 324.448 562.217 323.342C560.345 322.236 559.723 319.821 560.829 317.948C561.934 316.076 564.348 315.453 566.22 316.559C568.091 317.664 568.714 320.079 567.608 321.953Z" fill="#CDE9F9"/>
</g>
<mask id="mask2_643_2" style="mask-type:alpha" maskUnits="userSpaceOnUse" x="486" y="362" width="105" height="66">
<path d="M590.251 425.118C591.499 423.003 590.798 420.276 588.684 419.028L493.247 362.65C491.133 361.401 488.407 362.103 487.159 364.218C485.911 366.332 486.612 369.059 488.726 370.308L584.164 426.686C586.278 427.935 589.002 427.233 590.251 425.118Z" fill="url(#paint64_linear_643_2)"/>
</mask>
<g mask="url(#mask2_643_2)">
<path d="M590.251 425.118C591.499 423.003 590.798 420.276 588.684 419.028L493.247 362.65C491.133 361.401 488.407 362.103 487.159 364.218C485.911 366.332 486.612 369.059 488.726 370.308L584.164 426.686C586.278 427.935 589.002 427.233 590.251 425.118Z" fill="#E7F6FD"/>
<path d="M589.477 424.661C588.372 426.534 585.958 427.156 584.086 426.05C582.214 424.945 581.592 422.53 582.698 420.657C583.803 418.784 586.217 418.162 588.089 419.268C589.961 420.374 590.583 422.789 589.477 424.661Z" fill="#CDE9F9"/>
</g>
<mask id="mask3_643_2" style="mask-type:alpha" maskUnits="userSpaceOnUse" x="705" y="339" width="105" height="66">
<path d="M809.138 402.117C810.386 400.002 809.685 397.275 807.571 396.027L712.133 339.649C710.019 338.4 707.294 339.102 706.046 341.217C704.798 343.331 705.499 346.058 707.613 347.307L803.05 403.685C805.164 404.934 807.889 404.232 809.138 402.117Z" fill="url(#paint65_linear_643_2)"/>
</mask>
<g mask="url(#mask3_643_2)">
<path d="M809.138 402.117C810.386 400.002 809.685 397.275 807.571 396.027L712.133 339.649C710.019 338.4 707.294 339.102 706.046 341.217C704.798 343.331 705.499 346.058 707.613 347.307L803.05 403.685C805.164 404.934 807.889 404.232 809.138 402.117Z" fill="#E7F6FD"/>
<path d="M808.364 401.66C807.259 403.533 804.845 404.155 802.973 403.049C801.101 401.944 800.479 399.529 801.584 397.656C802.69 395.783 805.104 395.161 806.975 396.267C808.848 397.372 809.469 399.787 808.364 401.66Z" fill="#CDE9F9"/>
</g>
<mask id="mask4_643_2" style="mask-type:alpha" maskUnits="userSpaceOnUse" x="302" y="223" width="106" height="67">
<path d="M406.643 287.036C407.891 284.921 407.19 282.194 405.076 280.945L309.638 224.567C307.524 223.319 304.799 224.02 303.551 226.135C302.303 228.25 303.004 230.977 305.118 232.226L400.555 288.604C402.669 289.853 405.395 289.15 406.643 287.036Z" fill="url(#paint66_linear_643_2)"/>
</mask>
<g mask="url(#mask4_643_2)">
<path d="M406.643 287.036C407.891 284.921 407.19 282.194 405.076 280.945L309.638 224.567C307.524 223.319 304.799 224.02 303.551 226.135C302.303 228.25 303.004 230.977 305.118 232.226L400.555 288.604C402.669 289.853 405.395 289.15 406.643 287.036Z" fill="#E7F6FD"/>
<path d="M405.869 286.579C404.763 288.452 402.35 289.074 400.478 287.968C398.606 286.862 397.984 284.447 399.089 282.575C400.195 280.702 402.608 280.08 404.48 281.186C406.353 282.291 406.974 284.705 405.869 286.579Z" fill="#CDE9F9"/>
</g>
<mask id="mask5_643_2" style="mask-type:alpha" maskUnits="userSpaceOnUse" x="571" y="348" width="105" height="66">
<path d="M675.355 411.678C676.603 409.563 675.901 406.836 673.787 405.587L578.35 349.209C576.236 347.961 573.51 348.662 572.263 350.777C571.015 352.892 571.716 355.619 573.83 356.868L669.267 413.246C671.381 414.494 674.106 413.792 675.355 411.678Z" fill="url(#paint67_linear_643_2)"/>
</mask>
<g mask="url(#mask5_643_2)">
<path d="M675.355 411.678C676.603 409.563 675.901 406.836 673.787 405.587L578.35 349.209C576.236 347.961 573.51 348.662 572.263 350.777C571.015 352.892 571.716 355.619 573.83 356.868L669.267 413.246C671.381 414.494 674.106 413.792 675.355 411.678Z" fill="#E7F6FD"/>
<path d="M674.582 411.22C673.476 413.093 671.062 413.715 669.191 412.609C667.319 411.503 666.697 409.089 667.802 407.216C668.908 405.343 671.321 404.721 673.193 405.827C675.065 406.933 675.687 409.348 674.582 411.22Z" fill="#CDE9F9"/>
</g>
<path d="M773.71 453.503C789.433 448.416 798.058 431.54 792.973 415.81C787.888 400.079 771.02 391.451 755.296 396.538C739.573 401.625 730.948 418.501 736.033 434.231C741.118 449.962 757.986 458.59 773.71 453.503Z" fill="#E7F6FD"/>
<path d="M764.494 454.9C781.019 454.9 794.415 441.497 794.415 424.965C794.415 408.433 781.019 395.031 764.494 395.031C747.969 395.031 734.573 408.433 734.573 424.965C734.573 441.497 747.969 454.9 764.494 454.9Z" fill="url(#paint68_linear_643_2)"/>
<path d="M768.181 415.127C768.657 417.295 767.287 419.438 765.12 419.915C762.953 420.391 760.811 419.02 760.335 416.852C759.859 414.684 761.229 412.541 763.396 412.064C765.563 411.587 767.705 412.959 768.181 415.127Z" fill="url(#paint69_linear_643_2)"/>
<path d="M752.302 415.987C753.045 419.371 750.905 422.719 747.522 423.462C744.139 424.206 740.793 422.065 740.05 418.68C739.307 415.295 741.447 411.948 744.83 411.204C748.214 410.461 751.559 412.602 752.302 415.987Z" fill="url(#paint70_linear_643_2)"/>
<path d="M767.833 435.794C768.22 437.554 767.107 439.293 765.349 439.68C763.59 440.067 761.851 438.953 761.464 437.194C761.078 435.434 762.191 433.695 763.949 433.308C765.708 432.922 767.447 434.034 767.833 435.794Z" fill="url(#paint71_linear_643_2)"/>
<path d="M746.592 433.263C746.978 435.022 745.866 436.762 744.107 437.149C742.348 437.535 740.61 436.423 740.223 434.663C739.837 432.903 740.949 431.164 742.708 430.777C744.466 430.389 746.205 431.503 746.592 433.263Z" fill="url(#paint72_linear_643_2)"/>
<path d="M783.434 434.316C783.66 435.345 783.009 436.361 781.982 436.588C780.954 436.814 779.938 436.163 779.712 435.135C779.486 434.107 780.137 433.09 781.164 432.864C782.192 432.637 783.209 433.288 783.434 434.316Z" fill="url(#paint73_linear_643_2)"/>
<path d="M753.616 407.321C753.842 408.35 753.191 409.366 752.164 409.593C751.136 409.818 750.12 409.168 749.894 408.139C749.667 407.111 750.318 406.094 751.346 405.868C752.373 405.642 753.389 406.293 753.616 407.321Z" fill="url(#paint74_linear_643_2)"/>
<path d="M762.641 448.408C762.867 449.436 762.216 450.453 761.188 450.679C760.16 450.906 759.144 450.254 758.918 449.226C758.692 448.197 759.343 447.181 760.371 446.954C761.399 446.729 762.415 447.379 762.641 448.408Z" fill="url(#paint75_linear_643_2)"/>
<path d="M780.021 409.893C780.247 410.921 779.596 411.938 778.569 412.164C777.541 412.39 776.525 411.739 776.299 410.712C776.073 409.683 776.723 408.667 777.751 408.44C778.779 408.214 779.794 408.864 780.021 409.893Z" fill="url(#paint76_linear_643_2)"/>
<path d="M758.072 395.729C741.931 399.277 731.723 415.243 735.27 431.39C735.318 431.604 735.368 431.817 735.419 432.028C732.434 416.81 742.136 401.918 757.355 398.572C772.787 395.179 788.047 404.945 791.438 420.384C794.783 435.609 785.337 450.665 770.275 454.334C770.489 454.292 770.702 454.248 770.917 454.202C787.057 450.653 797.265 434.687 793.718 418.539C790.171 402.393 774.212 392.18 758.072 395.729Z" fill="url(#paint77_linear_643_2)"/>
<path d="M499.322 119.919L601.516 178.952C606.49 181.825 609.554 187.135 609.554 192.88V259.073C609.554 265.067 603.036 268.786 597.879 265.734L496.512 205.75C491.978 203.066 489.196 198.187 489.196 192.916V125.765C489.196 120.568 494.821 117.319 499.322 119.919Z" fill="url(#paint78_linear_643_2)"/>
<path d="M489.082 122.478L591.276 181.511C596.25 184.385 599.314 189.694 599.314 195.44V261.632C599.314 267.626 592.796 271.345 587.638 268.293L486.272 208.309C481.738 205.626 478.956 200.747 478.956 195.475V128.326C478.956 123.128 484.582 119.879 489.082 122.478Z" fill="#E7F6FD"/>
<path d="M591.565 268.918C590.267 268.918 589.026 268.574 587.877 267.894L486.51 207.909C482.137 205.322 479.422 200.558 479.422 195.477V128.326C479.422 124.854 482.245 122.029 485.717 122.029C486.817 122.029 487.87 122.316 488.849 122.882L591.043 181.915C595.858 184.696 598.849 189.879 598.849 195.44V261.632C598.849 265.65 595.581 268.918 591.565 268.918Z" fill="url(#paint79_linear_643_2)"/>
<path d="M485.718 122.495C486.734 122.495 487.709 122.76 488.617 123.285L590.811 182.318C595.481 185.016 598.383 190.044 598.383 195.44V261.632C598.383 264.911 595.777 268.452 591.565 268.452C590.351 268.452 589.19 268.128 588.113 267.491L486.747 207.507C482.516 205.003 479.887 200.393 479.887 195.475V128.326C479.887 124.724 482.914 122.495 485.718 122.495ZM485.717 121.563C482.191 121.563 478.956 124.384 478.956 128.326V195.477C478.956 200.748 481.738 205.628 486.272 208.311L587.638 268.295C588.904 269.044 590.251 269.385 591.564 269.385C595.602 269.385 599.314 266.157 599.314 261.634V195.442C599.314 189.696 596.25 184.386 591.276 181.513L489.082 122.48C487.994 121.849 486.841 121.563 485.717 121.563Z" fill="white"/>
<path d="M504.422 144.095L501.512 150.872C501.971 151.299 502.43 151.748 502.882 152.218C512.548 162.18 517.267 177.484 513.432 186.412C513.291 186.731 513.143 187.039 512.984 187.341C512.929 187.45 512.867 187.554 512.806 187.659C510.009 192.582 504.655 193.785 498.717 191.403C497.791 191.035 496.846 190.572 495.895 190.022C495.641 189.876 495.387 189.723 495.132 189.564C494.669 189.275 494.315 189.035 493.967 188.799L493.808 188.686C493.046 188.148 492.288 187.563 491.526 186.911C491.434 186.83 491.337 186.746 491.239 186.662C490.959 186.415 490.678 186.161 490.397 185.901C490.293 185.806 490.189 185.711 490.086 185.61C489.72 185.265 489.354 184.905 488.995 184.536C488.409 183.931 487.848 183.311 487.3 182.678L484.388 189.46C484.943 190.083 485.503 190.702 486.083 191.298C486.601 191.829 487.119 192.339 487.643 192.832C487.79 192.973 487.937 193.113 488.088 193.25C488.485 193.62 488.888 193.979 489.29 194.331C489.424 194.451 489.558 194.57 489.692 194.683C490.772 195.603 491.858 196.448 492.938 197.205C493.024 197.269 493.109 197.325 493.195 197.381C493.689 197.731 494.184 198.051 494.672 198.361L494.842 198.467C495.179 198.676 495.515 198.878 495.85 199.071C496.65 199.534 497.445 199.952 498.237 200.33C498.835 200.613 499.398 200.853 499.959 201.079C509.018 204.674 517.128 202.405 520.754 193.961C526.196 181.3 519.494 159.579 505.792 145.449C505.337 144.982 504.879 144.532 504.422 144.095Z" fill="url(#paint80_linear_643_2)"/>
<path d="M548.312 175.751L548.304 178.826C548.299 180.639 546.335 181.767 544.769 180.857L530.271 172.443C529.543 172.02 529.096 171.241 529.099 170.399L529.107 167.324C529.112 165.511 531.076 164.384 532.642 165.294L547.139 173.708C547.867 174.13 548.314 174.909 548.312 175.751Z" fill="#E7F6FD"/>
<path d="M594.172 217.523L594.164 220.605C594.158 222.414 592.2 223.543 590.633 222.637L530.233 187.75C529.502 187.328 529.053 186.547 529.055 185.704L529.064 182.623C529.069 180.813 531.028 179.685 532.595 180.59L592.996 215.477C593.726 215.899 594.175 216.679 594.172 217.523Z" fill="#E7F6FD"/>
<g opacity="0.53">
<g opacity="0.53">
<path opacity="0.53" d="M569.183 233.757L569.174 236.838C569.169 238.649 567.21 239.777 565.643 238.871L530.144 218.367C529.414 217.945 528.965 217.164 528.968 216.321L528.976 213.239C528.981 211.429 530.94 210.302 532.507 211.206L568.006 231.71C568.737 232.133 569.186 232.913 569.183 233.757Z" fill="#E7F6FD"/>
</g>
</g>
<path d="M584.763 227.421L584.754 230.503C584.75 232.313 582.79 233.442 581.223 232.536L530.189 203.058C529.459 202.636 529.01 201.855 529.012 201.012L529.02 197.93C529.025 196.12 530.985 194.993 532.551 195.897L583.587 225.375C584.316 225.797 584.766 226.578 584.763 227.421Z" fill="#E7F6FD"/>
<path d="M271.586 703.408C254.346 693.448 254.346 677.096 271.586 667.07C288.827 657.043 317.039 657.043 334.28 667.07C351.52 677.096 351.52 693.448 334.28 703.408C317.04 713.367 288.827 713.366 271.586 703.408Z" fill="#2A2F6D"/>
<path d="M274.483 689.073C257.957 680.436 257.957 666.253 274.483 657.557C291.009 648.86 318.051 648.86 334.577 657.557C351.103 666.253 351.103 680.436 334.577 689.073C318.051 697.711 291.008 697.711 274.483 689.073Z" fill="#2A2F6D"/>
<path d="M347.018 674.641H346.376V689.284H347.018V674.641Z" fill="#2A2F6D"/>
<path d="M347.01 672.625L340.644 662.628L333.789 658.034C327.881 655.515 320.627 654.284 312.945 654.284V654.929C314.17 654.929 315.379 654.963 316.568 655.026C311.95 654.945 306.582 655.243 300.47 655.966C304.591 655.287 308.785 654.929 312.942 654.929L312.944 654.284C312.943 654.284 312.943 654.284 312.942 654.284C300.379 654.285 286.681 657.573 275.905 663.884C275.141 664.331 274.412 664.79 273.701 665.254L259.498 666.961V686.23C259.498 686.23 259.512 686.235 259.534 686.243C259.778 691.476 262.896 696.334 269.064 699.946C275.493 703.711 284.23 705.539 293.599 705.539C306.161 705.539 319.859 702.251 330.635 695.94C341.45 689.605 347.053 681.552 347.014 674.173C347.073 673.19 347.01 672.625 347.01 672.625ZM284.644 704.282C282.682 704.006 280.794 703.637 278.997 703.181C280.934 703.638 282.816 703.998 284.644 704.282ZM278.782 703.129C278.709 703.111 278.635 703.091 278.562 703.071C278.637 703.09 278.707 703.111 278.782 703.129Z" fill="#2A2F6D"/>
<path d="M301.303 692.528C299.022 692.528 296.572 692.477 293.593 692.369C282.764 691.976 277.534 690.64 269.264 686.151C263.328 682.93 260.029 678.018 259.971 672.321H259.942V554.63L259.97 554.629C259.921 544.943 268.254 534.819 276.119 530.209C286.879 523.902 300.757 523.373 312.921 523.372C323.839 523.372 332.831 527.687 337.22 530.259C339.742 531.737 341.781 533.448 343.301 535.344L342.795 535.736C343.248 536.347 343.651 536.923 344.024 537.498L344.566 537.161C345.524 538.77 346.143 540.487 346.402 542.291L346.427 542.463L346.42 542.483L346.433 542.59C346.523 543.323 346.552 544.064 346.524 544.79L346.52 544.91L346.553 544.976V670.767L346.527 670.766C346.355 677.885 341.244 683.213 330.444 687.537C321.7 691.034 312.985 692.528 301.303 692.528Z" fill="url(#paint81_linear_643_2)"/>
<path d="M312.922 523.838C323.729 523.838 332.637 528.113 336.985 530.661C339.45 532.106 341.442 533.774 342.927 535.622L342.421 536.013C342.87 536.618 343.267 537.186 343.634 537.752L344.174 537.415C345.096 538.968 345.691 540.622 345.939 542.357L345.948 542.418L345.943 542.432L345.969 542.645C346.055 543.355 346.085 544.07 346.058 544.773L346.048 545.022L346.087 545.093V669.938H346.059L346.06 670.753C345.894 677.662 340.876 682.857 330.269 687.103C321.587 690.579 312.928 692.062 301.311 692.062C299.034 692.062 296.588 692.012 293.612 691.903C282.868 691.514 277.682 690.19 269.488 685.741C263.708 682.604 260.494 677.836 260.439 672.316H260.41V554.627H260.438C260.419 550.969 261.871 546.481 264.421 542.313C266.469 538.965 270.203 534.217 276.356 530.611C287.016 524.363 300.821 523.839 312.923 523.838H312.922ZM312.922 522.907C312.921 522.907 312.921 522.907 312.92 522.907C300.358 522.907 286.66 523.491 275.883 529.806C265.07 536.145 259.466 547.248 259.505 554.632L259.477 551.59V674.603L259.505 672.325C259.56 677.761 262.552 683.037 269.042 686.56C277.457 691.128 282.894 692.447 293.577 692.834C296.24 692.931 298.809 692.993 301.309 692.993C311.542 692.993 320.659 691.953 330.614 687.968C341.969 683.422 346.819 677.844 346.99 670.775L346.988 669.936C346.995 670.218 346.996 670.497 346.99 670.775L347.017 685.862V544.876C347.005 544.854 347 544.831 346.988 544.809C347.018 544.043 346.984 543.284 346.894 542.533C346.959 542.344 347.017 542.224 347.017 542.224H346.861C346.183 537.504 343.091 533.16 337.455 529.858C331.025 526.089 322.289 522.907 312.922 522.907ZM344.414 537.244C344.058 536.696 343.65 536.106 343.168 535.458C343.633 536.037 344.049 536.632 344.414 537.244Z" fill="white"/>
<g opacity="0.5">
<path opacity="0.5" d="M346.181 673.082V549.976C346.181 549.976 338.465 537.519 325.202 538.854C311.939 540.189 309.798 547.752 309.798 547.752V684.783C309.798 684.783 309.963 688.126 312.118 689.284C318.646 692.787 328.656 691.201 343.929 679.231C346.185 677.464 345.192 676.081 346.181 673.082Z" fill="url(#paint82_linear_643_2)"/>
</g>
<path opacity="0.43" d="M291.576 667.765C293.425 665.776 294.578 663.003 294.578 659.937C294.578 653.901 290.121 648.989 284.643 648.989C279.164 648.989 274.707 653.9 274.707 659.937C274.707 663.004 275.86 665.776 277.709 667.765C277.764 667.825 277.824 667.878 277.88 667.935C278.042 668.101 278.203 668.268 278.374 668.422C278.545 668.576 278.724 668.717 278.904 668.859C278.974 668.913 279.039 668.973 279.11 669.025C279.355 669.208 279.609 669.377 279.87 669.535C279.885 669.544 279.899 669.555 279.914 669.564C280.746 670.062 281.651 670.434 282.61 670.653C282.621 670.656 282.632 670.66 282.644 670.662C282.933 670.728 283.227 670.774 283.524 670.811C283.56 670.815 283.595 670.824 283.631 670.828C283.964 670.865 284.301 670.885 284.643 670.885C284.646 670.885 284.65 670.884 284.654 670.884C284.991 670.884 285.325 670.865 285.654 670.828C285.697 670.824 285.738 670.812 285.781 670.807C286.071 670.77 286.359 670.725 286.64 670.661C286.658 670.658 286.675 670.651 286.692 670.647C287.644 670.427 288.544 670.058 289.37 669.562C289.387 669.552 289.403 669.54 289.421 669.529C289.679 669.373 289.931 669.205 290.174 669.025C290.248 668.97 290.315 668.908 290.387 668.852C290.565 668.712 290.742 668.573 290.911 668.421C291.083 668.266 291.245 668.098 291.407 667.932C291.463 667.876 291.522 667.824 291.576 667.765Z" fill="#2A2F6D"/>
<path d="M284.944 656.013C284.297 654.683 282.734 654.108 281.378 654.695C278.614 655.893 275.254 657 271.517 657.97C251.355 663.206 220.214 664.436 212.066 653.731C206.33 646.203 213.64 631.995 232.656 613.725C248.711 598.288 255.351 585.133 252.976 573.496C249.26 555.338 224.098 545.816 201.887 537.413C185.19 531.087 167.925 524.556 167.264 516.562C166.174 503.276 179.528 488.985 190.917 479.333C200.567 471.156 210.504 464.855 214.846 462.229C216.098 461.472 216.522 459.859 215.804 458.582L215.261 457.615C214.513 456.286 212.819 455.831 211.512 456.616C200.742 463.082 158.555 490.199 160.773 517.101C161.769 529.194 179.295 535.828 199.587 543.505C220.214 551.312 243.589 560.163 246.587 574.809C248.459 583.939 242.248 595.455 228.13 609.02C205.789 630.504 198.647 646.873 206.879 657.681C212.839 665.507 226.268 668.395 240.786 668.395C251.709 668.395 263.248 666.755 272.662 664.342C277.831 663.019 282.357 661.463 285.793 659.814V659.758C285.793 658.404 285.487 657.128 284.944 656.013Z" fill="#198ACB"/>
<path d="M293.245 629.212C298.092 629.212 302.022 625.28 302.022 620.431C302.022 615.581 298.092 611.65 293.245 611.65C288.397 611.65 284.468 615.581 284.468 620.431C284.468 625.28 288.397 629.212 293.245 629.212Z" fill="url(#paint83_linear_643_2)"/>
<path d="M306.126 646.264C309.467 646.264 312.176 643.554 312.176 640.211C312.176 636.868 309.467 634.158 306.126 634.158C302.784 634.158 300.075 636.868 300.075 640.211C300.075 643.554 302.784 646.264 306.126 646.264Z" fill="url(#paint84_linear_643_2)"/>
<path d="M320.84 654.397C322.958 654.397 324.676 652.679 324.676 650.56C324.676 648.44 322.958 646.722 320.84 646.722C318.721 646.722 317.004 648.44 317.004 650.56C317.004 652.679 318.721 654.397 320.84 654.397Z" fill="url(#paint85_linear_643_2)"/>
<path d="M677.841 454.764C684.543 454.764 689.976 449.329 689.976 442.624C689.976 435.919 684.543 430.483 677.841 430.483C671.139 430.483 665.706 435.919 665.706 442.624C665.706 449.329 671.139 454.764 677.841 454.764Z" fill="url(#paint86_linear_643_2)"/>
<path d="M745.415 337.508C752.117 337.508 757.55 332.072 757.55 325.367C757.55 318.662 752.117 313.227 745.415 313.227C738.713 313.227 733.28 318.662 733.28 325.367C733.28 332.072 738.713 337.508 745.415 337.508Z" fill="url(#paint87_linear_643_2)"/>
<path d="M513.276 278.446C519.978 278.446 525.411 273.01 525.411 266.305C525.411 259.6 519.978 254.165 513.276 254.165C506.574 254.165 501.141 259.6 501.141 266.305C501.141 273.01 506.574 278.446 513.276 278.446Z" fill="url(#paint88_linear_643_2)"/>
<path d="M442.405 392.618C449.107 392.618 454.54 387.182 454.54 380.477C454.54 373.772 449.107 368.337 442.405 368.337C435.703 368.337 430.27 373.772 430.27 380.477C430.27 387.182 435.703 392.618 442.405 392.618Z" fill="url(#paint89_linear_643_2)"/>
<path d="M855.283 421.778C861.985 421.778 867.419 416.342 867.419 409.637C867.419 402.932 861.985 397.497 855.283 397.497C848.581 397.497 843.148 402.932 843.148 409.637C843.148 416.342 848.581 421.778 855.283 421.778Z" fill="url(#paint90_linear_643_2)"/>
<defs>
<linearGradient id="paint0_linear_643_2" x1="70.6192" y1="545.988" x2="925.544" y2="545.988" gradientUnits="userSpaceOnUse">
<stop stop-color="#BD8AAE"/>
<stop offset="1" stop-color="#2484C6" stop-opacity="0"/>
</linearGradient>
<linearGradient id="paint1_linear_643_2" x1="69.9962" y1="319.07" x2="925.612" y2="319.07" gradientUnits="userSpaceOnUse">
<stop offset="0.0536" stop-color="#1F479A"/>
<stop offset="0.2572" stop-color="#3C7FBE"/>
<stop offset="0.6965" stop-color="#28A8E0"/>
<stop offset="0.9493" stop-color="#29ABE2" stop-opacity="0"/>
</linearGradient>
<linearGradient id="paint2_linear_643_2" x1="0.836866" y1="609.696" x2="245.344" y2="609.696" gradientUnits="userSpaceOnUse">
<stop offset="0.2572" stop-color="#3C7FBE"/>
<stop offset="0.6965" stop-color="#28A8E0"/>
<stop offset="0.9493" stop-color="#29ABE2" stop-opacity="0"/>
</linearGradient>
<linearGradient id="paint3_linear_643_2" x1="633.001" y1="338.555" x2="741.826" y2="338.555" gradientUnits="userSpaceOnUse">
<stop offset="0.2572" stop-color="#3C7FBE"/>
<stop offset="0.6965" stop-color="#28A8E0"/>
<stop offset="0.9493" stop-color="#29ABE2" stop-opacity="0"/>
</linearGradient>
<linearGradient id="paint4_linear_643_2" x1="388.91" y1="300.157" x2="453.87" y2="300.157" gradientUnits="userSpaceOnUse">
<stop offset="0.2572" stop-color="#3C7FBE"/>
<stop offset="0.6965" stop-color="#28A8E0"/>
<stop offset="0.9493" stop-color="#29ABE2" stop-opacity="0"/>
</linearGradient>
<linearGradient id="paint5_linear_643_2" x1="747.242" y1="457.667" x2="782.701" y2="457.667" gradientUnits="userSpaceOnUse">
<stop offset="0.2572" stop-color="#3C7FBE"/>
<stop offset="0.6965" stop-color="#28A8E0"/>
<stop offset="0.9493" stop-color="#29ABE2" stop-opacity="0"/>
</linearGradient>
<linearGradient id="paint6_linear_643_2" x1="240.305" y1="704.791" x2="356.583" y2="704.791" gradientUnits="userSpaceOnUse">
<stop offset="0.2572" stop-color="#3C7FBE"/>
<stop offset="0.6965" stop-color="#28A8E0"/>
<stop offset="0.9493" stop-color="#29ABE2" stop-opacity="0"/>
</linearGradient>
<linearGradient id="paint7_linear_643_2" x1="636.273" y1="188.289" x2="932.057" y2="188.289" gradientUnits="userSpaceOnUse">
<stop offset="0.0607" stop-color="#28A8E0"/>
<stop offset="0.9984" stop-color="#29ABE2" stop-opacity="0"/>
</linearGradient>
<linearGradient id="paint8_linear_643_2" x1="655.593" y1="109.287" x2="732.451" y2="109.287" gradientUnits="userSpaceOnUse">
<stop offset="0.0607" stop-color="#28A8E0"/>
<stop offset="0.9984" stop-color="#29ABE2" stop-opacity="0"/>
</linearGradient>
<linearGradient id="paint9_linear_643_2" x1="768.997" y1="259.323" x2="807.104" y2="259.323" gradientUnits="userSpaceOnUse">
<stop stop-color="#21409A"/>
<stop offset="0.9984" stop-color="#BD8AAE"/>
</linearGradient>
<linearGradient id="paint10_linear_643_2" x1="102.783" y1="396.905" x2="143.4" y2="396.905" gradientUnits="userSpaceOnUse">
<stop stop-color="#21409A"/>
<stop offset="0.9984" stop-color="#BD8AAE"/>
</linearGradient>
<linearGradient id="paint11_linear_643_2" x1="337.201" y1="556.302" x2="377.955" y2="556.302" gradientUnits="userSpaceOnUse">
<stop stop-color="#21409A"/>
<stop offset="0.9984" stop-color="#BD8AAE"/>
</linearGradient>
<linearGradient id="paint12_linear_643_2" x1="275.951" y1="343.481" x2="354.806" y2="343.481" gradientUnits="userSpaceOnUse">
<stop stop-color="#CDE9F9"/>
<stop offset="0.5583" stop-color="#E7F6FD"/>
</linearGradient>
<linearGradient id="paint13_linear_643_2" x1="275.951" y1="344.381" x2="308.106" y2="344.381" gradientUnits="userSpaceOnUse">
<stop stop-color="#BD8AAE"/>
<stop offset="1" stop-color="#2484C6" stop-opacity="0"/>
</linearGradient>
<linearGradient id="paint14_linear_643_2" x1="49.4747" y1="498.891" x2="365.444" y2="498.891" gradientUnits="userSpaceOnUse">
<stop offset="0.0607" stop-color="#28A8E0"/>
<stop offset="0.9984" stop-color="#29ABE2" stop-opacity="0"/>
</linearGradient>
<linearGradient id="paint15_linear_643_2" x1="189.885" y1="508.039" x2="332.444" y2="508.039" gradientUnits="userSpaceOnUse">
<stop stop-color="#BD8AAE"/>
<stop offset="1" stop-color="#2484C6" stop-opacity="0"/>
</linearGradient>
<linearGradient id="paint16_linear_643_2" x1="90.3244" y1="522.581" x2="220.038" y2="522.581" gradientUnits="userSpaceOnUse">
<stop stop-color="#2484C6" stop-opacity="0"/>
<stop offset="0.9639" stop-color="#AECFDC"/>
</linearGradient>
<linearGradient id="paint17_linear_643_2" x1="204.779" y1="422.915" x2="312.178" y2="422.915" gradientUnits="userSpaceOnUse">
<stop offset="0.0607" stop-color="#28A8E0"/>
<stop offset="0.9984" stop-color="#29ABE2" stop-opacity="0"/>
</linearGradient>
<linearGradient id="paint18_linear_643_2" x1="134.661" y1="400.158" x2="229.388" y2="400.158" gradientUnits="userSpaceOnUse">
<stop stop-color="#2484C6" stop-opacity="0"/>
<stop offset="0.9639" stop-color="#AECFDC"/>
</linearGradient>
<linearGradient id="paint19_linear_643_2" x1="314.93" y1="475.964" x2="355.098" y2="475.964" gradientUnits="userSpaceOnUse">
<stop stop-color="#BD8AAE"/>
<stop offset="1" stop-color="#2484C6" stop-opacity="0"/>
</linearGradient>
<linearGradient id="paint20_linear_643_2" x1="316.382" y1="335.568" x2="354.806" y2="335.568" gradientUnits="userSpaceOnUse">
<stop stop-color="#21409A"/>
<stop offset="0.9984" stop-color="#BD8AAE"/>
</linearGradient>
<linearGradient id="paint21_linear_643_2" x1="305.547" y1="354.031" x2="317.205" y2="354.031" gradientUnits="userSpaceOnUse">
<stop stop-color="#CDE9F9"/>
<stop offset="0.5583" stop-color="#E7F6FD"/>
</linearGradient>
<linearGradient id="paint22_linear_643_2" x1="204.779" y1="427.93" x2="312.178" y2="427.93" gradientUnits="userSpaceOnUse">
<stop stop-color="#BD8AAE"/>
<stop offset="1" stop-color="#2484C6" stop-opacity="0"/>
</linearGradient>
<linearGradient id="paint23_linear_643_2" x1="244.795" y1="544.515" x2="271.463" y2="544.515" gradientUnits="userSpaceOnUse">
<stop stop-color="#BD8AAE"/>
<stop offset="1" stop-color="#2484C6" stop-opacity="0"/>
</linearGradient>
<linearGradient id="paint24_linear_643_2" x1="154.991" y1="609.977" x2="211.955" y2="609.977" gradientUnits="userSpaceOnUse">
<stop stop-color="#BD8AAE"/>
<stop offset="1" stop-color="#2484C6" stop-opacity="0"/>
</linearGradient>
<linearGradient id="paint25_linear_643_2" x1="102.074" y1="552.404" x2="155.451" y2="552.404" gradientUnits="userSpaceOnUse">
<stop stop-color="#2484C6" stop-opacity="0"/>
<stop offset="0.9639" stop-color="#AECFDC"/>
</linearGradient>
<linearGradient id="paint26_linear_643_2" x1="138.331" y1="541.471" x2="226.018" y2="541.471" gradientUnits="userSpaceOnUse">
<stop stop-color="#2484C6" stop-opacity="0"/>
<stop offset="0.9639" stop-color="#AECFDC"/>
</linearGradient>
<linearGradient id="paint27_linear_643_2" x1="230.394" y1="450.502" x2="365.444" y2="450.502" gradientUnits="userSpaceOnUse">
<stop stop-color="#BD8AAE"/>
<stop offset="1" stop-color="#2484C6" stop-opacity="0"/>
</linearGradient>
<linearGradient id="paint28_linear_643_2" x1="545.229" y1="654.453" x2="365.959" y2="527.813" gradientUnits="userSpaceOnUse">
<stop stop-color="#21409A"/>
<stop offset="0.9984" stop-color="#29ABE2" stop-opacity="0"/>
</linearGradient>
<linearGradient id="paint29_linear_643_2" x1="592.014" y1="588.223" x2="412.744" y2="461.584" gradientUnits="userSpaceOnUse">
<stop stop-color="#21409A"/>
<stop offset="0.9984" stop-color="#29ABE2" stop-opacity="0"/>
</linearGradient>
<linearGradient id="paint30_linear_643_2" x1="634.649" y1="527.869" x2="455.379" y2="401.23" gradientUnits="userSpaceOnUse">
<stop stop-color="#21409A"/>
<stop offset="0.9984" stop-color="#29ABE2" stop-opacity="0"/>
</linearGradient>
<linearGradient id="paint31_linear_643_2" x1="483.188" y1="445.276" x2="518.683" y2="445.276" gradientUnits="userSpaceOnUse">
<stop offset="0.0607" stop-color="#28A8E0"/>
<stop offset="0.9984" stop-color="#29ABE2" stop-opacity="0"/>
</linearGradient>
<linearGradient id="paint32_linear_643_2" x1="466.227" y1="551.748" x2="521.652" y2="551.748" gradientUnits="userSpaceOnUse">
<stop offset="0.0607" stop-color="#28A8E0"/>
<stop offset="0.9984" stop-color="#29ABE2" stop-opacity="0"/>
</linearGradient>
<linearGradient id="paint33_linear_643_2" x1="568.724" y1="508.511" x2="597.535" y2="508.511" gradientUnits="userSpaceOnUse">
<stop offset="0.0607" stop-color="#28A8E0"/>
<stop offset="0.9984" stop-color="#29ABE2" stop-opacity="0"/>
</linearGradient>
<linearGradient id="paint34_linear_643_2" x1="383.464" y1="526.822" x2="647.863" y2="526.822" gradientUnits="userSpaceOnUse">
<stop offset="0.0607" stop-color="#28A8E0"/>
<stop offset="0.9984" stop-color="#29ABE2" stop-opacity="0"/>
</linearGradient>
<linearGradient id="paint35_linear_643_2" x1="411.272" y1="522.605" x2="440.083" y2="522.605" gradientUnits="userSpaceOnUse">
<stop offset="0.0607" stop-color="#28A8E0"/>
<stop offset="0.9984" stop-color="#29ABE2" stop-opacity="0"/>
</linearGradient>
<linearGradient id="paint36_linear_643_2" x1="574.71" y1="585.462" x2="591.55" y2="585.462" gradientUnits="userSpaceOnUse">
<stop offset="0.0607" stop-color="#28A8E0"/>
<stop offset="0.9984" stop-color="#29ABE2" stop-opacity="0"/>
</linearGradient>
<linearGradient id="paint37_linear_643_2" x1="463.203" y1="609.696" x2="480.044" y2="609.696" gradientUnits="userSpaceOnUse">
<stop offset="0.0607" stop-color="#28A8E0"/>
<stop offset="0.9984" stop-color="#29ABE2" stop-opacity="0"/>
</linearGradient>
<linearGradient id="paint38_linear_643_2" x1="364.519" y1="247.035" x2="472.234" y2="245.57" gradientUnits="userSpaceOnUse">
<stop stop-color="#1592D1"/>
<stop offset="1" stop-color="#82CDBD"/>
</linearGradient>
<linearGradient id="paint39_linear_643_2" x1="364.519" y1="247.035" x2="472.234" y2="245.57" gradientUnits="userSpaceOnUse">
<stop stop-color="#BD8AAE"/>
<stop offset="1" stop-color="#2484C6" stop-opacity="0"/>
</linearGradient>
<linearGradient id="paint40_linear_643_2" x1="419.187" y1="273.701" x2="409.705" y2="284.678" gradientUnits="userSpaceOnUse">
<stop stop-color="#1592D1"/>
<stop offset="1" stop-color="#40C4DC"/>
</linearGradient>
<linearGradient id="paint41_linear_643_2" x1="451.652" y1="219.753" x2="436.845" y2="236.894" gradientUnits="userSpaceOnUse">
<stop stop-color="#1592D1"/>
<stop offset="1" stop-color="#40C4DC"/>
</linearGradient>
<linearGradient id="paint42_linear_643_2" x1="436.936" y1="240.01" x2="429.239" y2="248.921" gradientUnits="userSpaceOnUse">
<stop stop-color="#1592D1"/>
<stop offset="1" stop-color="#40C4DC"/>
</linearGradient>
<linearGradient id="paint43_linear_643_2" x1="391.195" y1="223.68" x2="383.498" y2="232.59" gradientUnits="userSpaceOnUse">
<stop stop-color="#1592D1"/>
<stop offset="1" stop-color="#40C4DC"/>
</linearGradient>
<linearGradient id="paint44_linear_643_2" x1="447.16" y1="267.15" x2="442.661" y2="272.358" gradientUnits="userSpaceOnUse">
<stop stop-color="#1592D1"/>
<stop offset="1" stop-color="#40C4DC"/>
</linearGradient>
<linearGradient id="paint45_linear_643_2" x1="414.074" y1="217.633" x2="409.575" y2="222.841" gradientUnits="userSpaceOnUse">
<stop stop-color="#1592D1"/>
<stop offset="1" stop-color="#40C4DC"/>
</linearGradient>
<linearGradient id="paint46_linear_643_2" x1="364.484" y1="246.332" x2="472.206" y2="246.332" gradientUnits="userSpaceOnUse">
<stop offset="0.0607" stop-color="#28A8E0"/>
<stop offset="0.9984" stop-color="#29ABE2" stop-opacity="0"/>
</linearGradient>
<linearGradient id="paint47_linear_643_2" x1="416.566" y1="222.7" x2="419.563" y2="258.794" gradientUnits="userSpaceOnUse">
<stop stop-color="#666666"/>
<stop offset="1" stop-color="#999999"/>
</linearGradient>
<linearGradient id="paint48_linear_643_2" x1="691.248" y1="227.888" x2="668.713" y2="300.267" gradientUnits="userSpaceOnUse">
<stop stop-color="#BD8AAE"/>
<stop offset="1" stop-color="#2484C6" stop-opacity="0"/>
</linearGradient>
<linearGradient id="paint49_linear_643_2" x1="676.256" y1="300.84" x2="693.082" y2="223.954" gradientUnits="userSpaceOnUse">
<stop stop-color="#BD8AAE"/>
<stop offset="1" stop-color="#2484C6" stop-opacity="0"/>
</linearGradient>
<linearGradient id="paint50_linear_643_2" x1="689.382" y1="299.552" x2="686.077" y2="269.217" gradientUnits="userSpaceOnUse">
<stop stop-color="#BD8AAE"/>
<stop offset="1" stop-color="#2484C6" stop-opacity="0"/>
</linearGradient>
<linearGradient id="paint51_linear_643_2" x1="688.822" y1="311.996" x2="701.172" y2="255.563" gradientUnits="userSpaceOnUse">
<stop stop-color="#BD8AAE"/>
<stop offset="1" stop-color="#2484C6" stop-opacity="0"/>
</linearGradient>
<linearGradient id="paint52_linear_643_2" x1="708.415" y1="323.375" x2="706.011" y2="297.846" gradientUnits="userSpaceOnUse">
<stop stop-color="#BD8AAE"/>
<stop offset="1" stop-color="#2484C6" stop-opacity="0"/>
</linearGradient>
<linearGradient id="paint53_linear_643_2" x1="606.967" y1="256.586" x2="757.675" y2="256.586" gradientUnits="userSpaceOnUse">
<stop stop-color="#64CDF6"/>
<stop offset="1" stop-color="white" stop-opacity="0"/>
</linearGradient>
<linearGradient id="paint54_linear_643_2" x1="463.453" y1="230.025" x2="483.781" y2="230.025" gradientUnits="userSpaceOnUse">
<stop stop-color="#CDE8F9"/>
<stop offset="1" stop-color="white" stop-opacity="0"/>
</linearGradient>
<linearGradient id="paint55_linear_643_2" x1="588.455" y1="313.525" x2="608.783" y2="313.525" gradientUnits="userSpaceOnUse">
<stop stop-color="#CDE8F9"/>
<stop offset="1" stop-color="white" stop-opacity="0"/>
</linearGradient>
<linearGradient id="paint56_linear_643_2" x1="367.79" y1="302.742" x2="388.118" y2="302.742" gradientUnits="userSpaceOnUse">
<stop stop-color="#CDE8F9"/>
<stop offset="1" stop-color="white" stop-opacity="0"/>
</linearGradient>
<linearGradient id="paint57_linear_643_2" x1="683.858" y1="511.794" x2="704.186" y2="511.794" gradientUnits="userSpaceOnUse">
<stop stop-color="#CDE8F9"/>
<stop offset="1" stop-color="white" stop-opacity="0"/>
</linearGradient>
<linearGradient id="paint58_linear_643_2" x1="799.291" y1="351.743" x2="819.62" y2="351.743" gradientUnits="userSpaceOnUse">
<stop stop-color="#CDE8F9"/>
<stop offset="1" stop-color="white" stop-opacity="0"/>
</linearGradient>
<linearGradient id="paint59_linear_643_2" x1="153.854" y1="433.467" x2="174.182" y2="433.467" gradientUnits="userSpaceOnUse">
<stop stop-color="#CDE8F9"/>
<stop offset="1" stop-color="white" stop-opacity="0"/>
</linearGradient>
<linearGradient id="paint60_linear_643_2" x1="389.256" y1="435.748" x2="409.584" y2="435.748" gradientUnits="userSpaceOnUse">
<stop stop-color="#CDE8F9"/>
<stop offset="1" stop-color="white" stop-opacity="0"/>
</linearGradient>
<linearGradient id="paint61_linear_643_2" x1="487.388" y1="339.298" x2="507.716" y2="339.298" gradientUnits="userSpaceOnUse">
<stop stop-color="#CDE8F9"/>
<stop offset="1" stop-color="white" stop-opacity="0"/>
</linearGradient>
<linearGradient id="paint62_linear_643_2" x1="659.348" y1="400.153" x2="679.676" y2="400.153" gradientUnits="userSpaceOnUse">
<stop stop-color="#CDE8F9"/>
<stop offset="1" stop-color="white" stop-opacity="0"/>
</linearGradient>
<linearGradient id="paint63_linear_643_2" x1="490.723" y1="246.297" x2="543.067" y2="337.624" gradientUnits="userSpaceOnUse">
<stop/>
<stop offset="0.0867" stop-color="#070707"/>
<stop offset="0.217" stop-color="#1C1C1C"/>
<stop offset="0.3749" stop-color="#3E3E3E"/>
<stop offset="0.5544" stop-color="#6D6D6D"/>
<stop offset="0.7519" stop-color="#A9A9A9"/>
<stop offset="0.9617" stop-color="#F1F1F1"/>
<stop offset="1" stop-color="white"/>
</linearGradient>
<linearGradient id="paint64_linear_643_2" x1="512.597" y1="349.006" x2="564.941" y2="440.333" gradientUnits="userSpaceOnUse">
<stop/>
<stop offset="0.0867" stop-color="#070707"/>
<stop offset="0.217" stop-color="#1C1C1C"/>
<stop offset="0.3749" stop-color="#3E3E3E"/>
<stop offset="0.5544" stop-color="#6D6D6D"/>
<stop offset="0.7519" stop-color="#A9A9A9"/>
<stop offset="0.9617" stop-color="#F1F1F1"/>
<stop offset="1" stop-color="white"/>
</linearGradient>
<linearGradient id="paint65_linear_643_2" x1="731.484" y1="325.996" x2="783.828" y2="417.323" gradientUnits="userSpaceOnUse">
<stop/>
<stop offset="0.0867" stop-color="#070707"/>
<stop offset="0.217" stop-color="#1C1C1C"/>
<stop offset="0.3749" stop-color="#3E3E3E"/>
<stop offset="0.5544" stop-color="#6D6D6D"/>
<stop offset="0.7519" stop-color="#A9A9A9"/>
<stop offset="0.9617" stop-color="#F1F1F1"/>
<stop offset="1" stop-color="white"/>
</linearGradient>
<linearGradient id="paint66_linear_643_2" x1="328.982" y1="210.93" x2="381.326" y2="302.257" gradientUnits="userSpaceOnUse">
<stop/>
<stop offset="0.0867" stop-color="#070707"/>
<stop offset="0.217" stop-color="#1C1C1C"/>
<stop offset="0.3749" stop-color="#3E3E3E"/>
<stop offset="0.5544" stop-color="#6D6D6D"/>
<stop offset="0.7519" stop-color="#A9A9A9"/>
<stop offset="0.9617" stop-color="#F1F1F1"/>
<stop offset="1" stop-color="white"/>
</linearGradient>
<linearGradient id="paint67_linear_643_2" x1="597.7" y1="335.562" x2="650.044" y2="426.888" gradientUnits="userSpaceOnUse">
<stop/>
<stop offset="0.0867" stop-color="#070707"/>
<stop offset="0.217" stop-color="#1C1C1C"/>
<stop offset="0.3749" stop-color="#3E3E3E"/>
<stop offset="0.5544" stop-color="#6D6D6D"/>
<stop offset="0.7519" stop-color="#A9A9A9"/>
<stop offset="0.9617" stop-color="#F1F1F1"/>
<stop offset="1" stop-color="white"/>
</linearGradient>
<linearGradient id="paint68_linear_643_2" x1="735.328" y1="431.374" x2="793.782" y2="418.534" gradientUnits="userSpaceOnUse">
<stop offset="0.0607" stop-color="#28A8E0"/>
<stop offset="0.9984" stop-color="#29ABE2" stop-opacity="0"/>
</linearGradient>
<linearGradient id="paint69_linear_643_2" x1="766.245" y1="412.52" x2="762.313" y2="419.555" gradientUnits="userSpaceOnUse">
<stop stop-color="#21409A"/>
<stop offset="0.9984" stop-color="#29ABE2" stop-opacity="0"/>
</linearGradient>
<linearGradient id="paint70_linear_643_2" x1="749.245" y1="411.928" x2="743.104" y2="422.912" gradientUnits="userSpaceOnUse">
<stop stop-color="#21409A"/>
<stop offset="0.9984" stop-color="#29ABE2" stop-opacity="0"/>
</linearGradient>
<linearGradient id="paint71_linear_643_2" x1="766.274" y1="433.676" x2="763.082" y2="439.387" gradientUnits="userSpaceOnUse">
<stop stop-color="#21409A"/>
<stop offset="0.9984" stop-color="#29ABE2" stop-opacity="0"/>
</linearGradient>
<linearGradient id="paint72_linear_643_2" x1="745.031" y1="431.146" x2="741.839" y2="436.856" gradientUnits="userSpaceOnUse">
<stop stop-color="#21409A"/>
<stop offset="0.9984" stop-color="#29ABE2" stop-opacity="0"/>
</linearGradient>
<linearGradient id="paint73_linear_643_2" x1="782.549" y1="433.071" x2="780.683" y2="436.409" gradientUnits="userSpaceOnUse">
<stop stop-color="#21409A"/>
<stop offset="0.9984" stop-color="#29ABE2" stop-opacity="0"/>
</linearGradient>
<linearGradient id="paint74_linear_643_2" x1="752.727" y1="406.076" x2="750.861" y2="409.413" gradientUnits="userSpaceOnUse">
<stop stop-color="#21409A"/>
<stop offset="0.9984" stop-color="#29ABE2" stop-opacity="0"/>
</linearGradient>
<linearGradient id="paint75_linear_643_2" x1="761.755" y1="447.164" x2="759.889" y2="450.502" gradientUnits="userSpaceOnUse">
<stop stop-color="#21409A"/>
<stop offset="0.9984" stop-color="#29ABE2" stop-opacity="0"/>
</linearGradient>
<linearGradient id="paint76_linear_643_2" x1="779.133" y1="408.647" x2="777.268" y2="411.984" gradientUnits="userSpaceOnUse">
<stop stop-color="#21409A"/>
<stop offset="0.9984" stop-color="#29ABE2" stop-opacity="0"/>
</linearGradient>
<linearGradient id="paint77_linear_643_2" x1="734.566" y1="424.679" x2="794.421" y2="424.679" gradientUnits="userSpaceOnUse">
<stop offset="0.0607" stop-color="#28A8E0"/>
<stop offset="0.9984" stop-color="#29ABE2" stop-opacity="0"/>
</linearGradient>
<linearGradient id="paint78_linear_643_2" x1="489.196" y1="192.914" x2="609.554" y2="192.914" gradientUnits="userSpaceOnUse">
<stop offset="0.2572" stop-color="#3C7FBE"/>
<stop offset="0.6965" stop-color="#28A8E0"/>
<stop offset="0.9493" stop-color="#29ABE2" stop-opacity="0"/>
</linearGradient>
<linearGradient id="paint79_linear_643_2" x1="479.422" y1="195.474" x2="598.849" y2="195.474" gradientUnits="userSpaceOnUse">
<stop stop-color="#BD8AAE"/>
<stop offset="1" stop-color="#2484C6" stop-opacity="0"/>
</linearGradient>
<linearGradient id="paint80_linear_643_2" x1="484.387" y1="173.409" x2="522.647" y2="173.409" gradientUnits="userSpaceOnUse">
<stop stop-color="#1592D1"/>
<stop offset="1" stop-color="#40C4DC"/>
</linearGradient>
<linearGradient id="paint81_linear_643_2" x1="259.942" y1="607.95" x2="346.551" y2="607.95" gradientUnits="userSpaceOnUse">
<stop offset="0.0607" stop-color="#28A8E0"/>
<stop offset="0.9984" stop-color="#29ABE2" stop-opacity="0"/>
</linearGradient>
<linearGradient id="paint82_linear_643_2" x1="346.181" y1="614.837" x2="309.798" y2="614.837" gradientUnits="userSpaceOnUse">
<stop offset="0.4247" stop-color="white"/>
<stop offset="1" stop-color="#2484C6" stop-opacity="0"/>
</linearGradient>
<linearGradient id="paint83_linear_643_2" x1="284.666" y1="622.258" x2="301.811" y2="618.495" gradientUnits="userSpaceOnUse">
<stop stop-color="#CDE8F9"/>
<stop offset="1" stop-color="white" stop-opacity="0"/>
</linearGradient>
<linearGradient id="paint84_linear_643_2" x1="300.204" y1="641.491" x2="312.024" y2="638.897" gradientUnits="userSpaceOnUse">
<stop stop-color="#CDE8F9"/>
<stop offset="1" stop-color="white" stop-opacity="0"/>
</linearGradient>
<linearGradient id="paint85_linear_643_2" x1="317.023" y1="651.402" x2="324.519" y2="649.759" gradientUnits="userSpaceOnUse">
<stop stop-color="#CDE8F9"/>
<stop offset="1" stop-color="white" stop-opacity="0"/>
</linearGradient>
<linearGradient id="paint86_linear_643_2" x1="666.002" y1="445.234" x2="689.707" y2="440.028" gradientUnits="userSpaceOnUse">
<stop offset="0.0607" stop-color="#28A8E0"/>
<stop offset="0.9984" stop-color="#29ABE2" stop-opacity="0"/>
</linearGradient>
<linearGradient id="paint87_linear_643_2" x1="733.573" y1="327.981" x2="757.278" y2="322.775" gradientUnits="userSpaceOnUse">
<stop offset="0.0607" stop-color="#28A8E0"/>
<stop offset="0.9984" stop-color="#29ABE2" stop-opacity="0"/>
</linearGradient>
<linearGradient id="paint88_linear_643_2" x1="501.427" y1="268.912" x2="525.132" y2="263.706" gradientUnits="userSpaceOnUse">
<stop offset="0.0607" stop-color="#28A8E0"/>
<stop offset="0.9984" stop-color="#29ABE2" stop-opacity="0"/>
</linearGradient>
<linearGradient id="paint89_linear_643_2" x1="430.559" y1="383.081" x2="454.264" y2="377.875" gradientUnits="userSpaceOnUse">
<stop stop-color="#BD8AAE"/>
<stop offset="1" stop-color="#2484C6" stop-opacity="0"/>
</linearGradient>
<linearGradient id="paint90_linear_643_2" x1="843.447" y1="412.253" x2="867.152" y2="407.047" gradientUnits="userSpaceOnUse">
<stop stop-color="#BD8AAE"/>
<stop offset="1" stop-color="#2484C6" stop-opacity="0"/>
</linearGradient>
</defs>
</svg>
