<svg width="476" height="358" viewBox="0 0 476 358" fill="none" xmlns="http://www.w3.org/2000/svg">
<g opacity="0.28">
<path opacity="0.28" d="M250.813 307.181L147.686 247.468C143.95 245.305 143.95 239.898 147.686 237.735L262.11 171.492C265.927 169.282 270.63 169.277 274.452 171.48L379.895 232.25C383.639 234.408 383.645 239.823 379.905 241.989L267.314 307.181C262.208 310.137 255.918 310.137 250.813 307.181Z" fill="#CDE9F9"/>
</g>
<g opacity="0.46">
<path opacity="0.46" d="M147.877 143.486L96.5325 173.134C94.5865 174.258 92.1569 172.85 92.1569 170.598V154.66C92.1569 153.614 92.7144 152.646 93.6194 152.124L144.964 122.475C146.91 121.351 149.339 122.76 149.339 125.012V140.949C149.339 141.996 148.782 142.963 147.877 143.486Z" fill="#CDE9F9"/>
</g>
<g opacity="0.46">
<path opacity="0.46" d="M211.334 118.896L159.99 148.545C158.044 149.669 155.614 148.26 155.614 146.008V130.07C155.614 129.024 156.171 128.056 157.076 127.534L208.421 97.885C210.367 96.7612 212.796 98.1699 212.796 100.422V116.359C212.796 117.406 212.239 118.374 211.334 118.896Z" fill="#CDE9F9"/>
</g>
<g opacity="0.46">
<path opacity="0.46" d="M216.134 86.7461L164.79 116.395C162.844 117.519 160.414 116.11 160.414 113.858V97.9207C160.414 96.8739 160.972 95.9064 161.877 95.384L213.221 65.7353C215.167 64.6115 217.597 66.0203 217.597 68.2721V84.2093C217.597 85.2565 217.039 86.2237 216.134 86.7461Z" fill="#CDE9F9"/>
</g>
<path d="M369.657 126.66V243.905C369.657 245.945 368.563 247.828 366.79 248.83L359.914 252.715L358.29 142.74L358.097 129.649L228.369 52.5627L234.735 48.8753C236.827 47.6641 239.403 47.6641 241.494 48.8753L366.572 121.299C367.715 121.961 368.592 122.957 369.113 124.124C369.467 124.909 369.657 125.771 369.657 126.66Z" fill="#CDE9F9"/>
<path d="M369.657 126.66V243.905C369.657 245.945 368.563 247.828 366.79 248.83L359.914 252.715L358.29 142.74V130.231L369.113 124.124C369.467 124.909 369.657 125.771 369.657 126.66Z" fill="#AECFDC"/>
<path d="M228.37 172.656V52.5612L355.579 126.217C358.262 127.771 359.915 130.642 359.915 133.749V252.715L231.851 178.696C229.697 177.452 228.37 175.148 228.37 172.656Z" fill="#7CCAF1"/>
<path d="M228.37 172.656V52.5612L355.579 126.217C358.262 127.771 359.915 130.642 359.915 133.749V252.715L231.851 178.696C229.697 177.452 228.37 175.148 228.37 172.656Z" fill="url(#paint0_linear_8_2687)"/>
<path d="M235.296 144.003L265.166 161.298C266.515 162.079 267.347 163.523 267.347 165.085V165.152C267.347 166.507 265.883 167.355 264.712 166.677L234.886 149.407C233.869 148.818 233.242 147.73 233.242 146.552V145.192C233.242 144.135 234.383 143.474 235.296 144.003Z" fill="#17A1DB"/>
<path d="M235.296 152.265L265.166 169.56C266.515 170.341 267.347 171.784 267.347 173.346V173.413C267.347 174.769 265.883 175.616 264.712 174.939L234.886 157.669C233.869 157.08 233.242 155.991 233.242 154.813V153.453C233.242 152.396 234.383 151.736 235.296 152.265Z" fill="#E7F6FD"/>
<path d="M235.296 160.332L265.166 177.627C266.515 178.408 267.347 179.851 267.347 181.413V181.48C267.347 182.836 265.883 183.683 264.712 183.005L234.886 165.736C233.869 165.147 233.242 164.059 233.242 162.881V161.521C233.242 160.464 234.383 159.803 235.296 160.332Z" fill="#17A1DB"/>
<path d="M235.296 168.593L265.166 185.888C266.515 186.669 267.347 188.113 267.347 189.675V189.742C267.347 191.098 265.883 191.945 264.712 191.267L234.886 173.997C233.869 173.408 233.242 172.32 233.242 171.142V169.782C233.242 168.725 234.383 168.065 235.296 168.593Z" fill="#17A1DB"/>
<path d="M278.402 94.0824L353.164 137.372C354.073 137.898 354.633 138.87 354.633 139.923V218.643C354.633 220.513 352.614 221.682 350.999 220.747L279.316 179.241C277.685 178.297 276.681 176.553 276.681 174.665V95.0789C276.681 94.1931 277.637 93.6397 278.402 94.0824Z" fill="url(#paint1_linear_8_2687)"/>
<path d="M273.939 95.8725L348.702 139.162C349.611 139.688 350.171 140.66 350.171 141.713V220.433C350.171 222.303 348.151 223.472 346.536 222.537L274.853 181.031C273.222 180.088 272.218 178.343 272.218 176.455V96.8689C272.218 95.9832 273.174 95.4298 273.939 95.8725Z" fill="white"/>
<path d="M276.897 112.423V152.124C276.897 153.425 277.594 154.626 278.722 155.269L297.767 166.122C299.411 167.059 301.45 165.869 301.45 163.973V125.148C301.45 123.776 300.712 122.511 299.519 121.838L279.792 110.724C278.497 109.994 276.897 110.933 276.897 112.423Z" fill="url(#paint2_linear_8_2687)"/>
<path d="M306.277 128.672L306.317 140.943C306.32 142.042 306.905 143.057 307.853 143.609L342.568 163.812C343.78 164.517 345.299 163.64 345.299 162.235V150.397C345.299 149.208 344.666 148.108 343.639 147.514L308.683 127.274C307.612 126.654 306.274 127.431 306.277 128.672Z" fill="#BD8AAE"/>
<path d="M308.463 149.714L343.715 170.126C344.695 170.693 345.299 171.742 345.299 172.876V173.703C345.299 175.028 343.868 175.856 342.724 175.194L307.712 154.922C306.819 154.404 306.268 153.448 306.268 152.414V150.985C306.268 149.856 307.488 149.15 308.463 149.714Z" fill="#BD8AAE"/>
<path d="M306.322 162.598V186.286C306.322 187.308 306.866 188.253 307.748 188.765L323.217 197.747C324.357 198.409 325.783 197.584 325.783 196.263V173.008C325.783 171.783 325.129 170.652 324.07 170.043L308.702 161.215C307.643 160.606 306.322 161.373 306.322 162.598Z" fill="#306097"/>
<path d="M330.682 176.725V200.203C330.682 201.361 331.298 202.43 332.298 203.009L342.537 208.938C343.764 209.648 345.299 208.76 345.299 207.338V184.719C345.299 183.239 344.511 181.871 343.233 181.131L333.154 175.295C332.055 174.659 330.682 175.454 330.682 176.725Z" fill="#3C7FBE"/>
<path d="M287.389 165.521C283.369 163.218 280.081 165.097 280.081 169.697C280.081 174.296 283.369 179.989 287.389 182.347C291.408 184.705 294.697 182.826 294.697 178.171C294.697 173.517 291.408 167.824 287.389 165.521Z" fill="#3C7FBE"/>
<path d="M272.219 100.302L350.144 145.638V141.68C350.144 140.648 349.595 139.694 348.703 139.178L273.916 95.8596C273.162 95.4225 272.219 95.9685 272.219 96.8423V100.302V100.302Z" fill="#3C7FBE"/>
<path d="M275.614 98.2663C274.909 97.8621 274.332 98.1921 274.332 98.9993C274.332 99.8066 274.909 100.806 275.614 101.22C276.32 101.634 276.897 101.304 276.897 100.487C276.897 99.67 276.32 98.6706 275.614 98.2663Z" fill="white"/>
<path d="M279.727 100.694C279.021 100.289 278.444 100.619 278.444 101.427C278.444 102.234 279.021 103.233 279.727 103.647C280.432 104.061 281.01 103.731 281.01 102.914C281.01 102.097 280.432 101.098 279.727 100.694Z" fill="#E7F6FD"/>
<path d="M283.774 102.914C283.068 102.51 282.491 102.839 282.491 103.647C282.491 104.455 283.069 105.454 283.774 105.868C284.48 106.282 285.057 105.952 285.057 105.135C285.057 104.318 284.48 103.319 283.774 102.914Z" fill="#CDE9F9"/>
<path d="M241.387 73.3733L270.211 90.0627C271.384 90.7417 272.106 91.9968 272.106 93.3548V154.173C272.106 156.258 269.856 157.561 268.056 156.518L239.785 140.149C238.682 139.51 238.002 138.33 238.002 137.053V75.3327C238.002 73.5908 239.883 72.5022 241.387 73.3733Z" fill="url(#paint3_linear_8_2687)"/>
<path d="M236.627 74.2683L265.451 90.9577C266.624 91.6367 267.346 92.8918 267.346 94.2498V155.068C267.346 157.153 265.096 158.456 263.295 157.413L235.025 141.044C233.922 140.405 233.242 139.225 233.242 137.948V76.2278C233.242 74.4858 235.123 73.3972 236.627 74.2683Z" fill="#222457"/>
<path d="M236.627 74.2683L265.451 90.9577C266.624 91.6367 267.346 92.8918 267.346 94.2498V155.068C267.346 157.153 265.096 158.456 263.295 157.413L235.025 141.044C233.922 140.405 233.242 139.225 233.242 137.948V76.2278C233.242 74.4858 235.123 73.3972 236.627 74.2683Z" fill="url(#paint4_linear_8_2687)"/>
<path d="M235.588 78.9148V79.8393L239.461 82.0795V81.155L235.588 78.9148Z" fill="#CDE9F9"/>
<path d="M235.588 80.6036V81.5282L239.461 83.7683V82.8438L235.588 80.6036Z" fill="#CDE9F9"/>
<path d="M235.588 82.2925V83.2173L239.461 85.4575V84.533L235.588 82.2925Z" fill="#CDE9F9"/>
<path d="M264.817 101.813V100.888L240.914 87.062V87.9868L264.817 101.813Z" fill="#CDE9F9"/>
<path d="M235.588 83.9817V84.9059L239.461 87.1464V86.2216L235.588 83.9817Z" fill="#CDE9F9"/>
<path d="M235.588 85.6705V86.5951L239.461 88.8353V87.9107L235.588 85.6705Z" fill="#CDE9F9"/>
<path d="M264.817 103.501V102.577L240.914 88.7511V89.6756L264.817 103.501Z" fill="#CDE9F9"/>
<path d="M235.588 90.7374V91.6616L239.461 93.9018V92.9773L235.588 90.7374Z" fill="#CDE9F9"/>
<path d="M235.588 92.4263V93.3508L239.461 95.591V94.6665L235.588 92.4263Z" fill="#CDE9F9"/>
<path d="M235.588 99.1818V100.106L239.461 102.346V101.422L235.588 99.1818Z" fill="#CDE9F9"/>
<path d="M235.588 100.871V101.796L239.461 104.035V103.111L235.588 100.871Z" fill="#CDE9F9"/>
<path d="M255.994 112.674L240.914 103.952V104.876L255.994 113.598V112.674Z" fill="#CDE9F9"/>
<path d="M256.788 113.133V114.058L264.817 118.702V117.777L256.788 113.133Z" fill="#CDE9F9"/>
<path d="M248.49 106.645L240.914 102.263V103.187L248.49 107.569V106.645Z" fill="#CDE9F9"/>
<path d="M249.285 107.105V108.029L264.817 117.013V116.088L249.285 107.105Z" fill="#CDE9F9"/>
<path d="M262.774 109.84V110.764L264.817 111.946V111.022L262.774 109.84Z" fill="#CDE9F9"/>
<path d="M251.654 101.719L240.914 95.507V96.4315L251.654 102.644V101.719Z" fill="#CDE9F9"/>
<path d="M247.253 85.6622L240.914 81.9954V82.9202L247.253 86.5867V85.6622Z" fill="#CDE9F9"/>
<path d="M257.645 91.6727L248.048 86.1219V87.0468L257.645 92.5976V91.6727Z" fill="#CDE9F9"/>
<path d="M252.052 90.1268L245.295 86.2186V87.1432L252.052 91.0513V90.1268Z" fill="#CDE9F9"/>
<path d="M259.141 94.227L252.846 90.5862V91.511L259.141 95.1516V94.227Z" fill="#CDE9F9"/>
<path d="M259.936 94.6868V95.6113L264.817 98.4347V97.5102L259.936 94.6868Z" fill="#CDE9F9"/>
<path d="M242.163 86.0957V87.0202L247.253 89.9645V89.04L242.163 86.0957Z" fill="#CDE9F9"/>
<path d="M262.825 98.0472L248.048 89.5V90.4245L262.825 98.9718V98.0472Z" fill="#CDE9F9"/>
<path d="M254.365 98.2205L244.708 92.6345V93.5591L254.365 99.145V98.2205Z" fill="#CDE9F9"/>
<path d="M262.825 103.114L255.16 98.6799V99.6048L262.825 104.039V103.114Z" fill="#CDE9F9"/>
<path d="M261.979 107.691L252.449 102.179V103.103L261.979 108.616V107.691Z" fill="#CDE9F9"/>
<path d="M256.788 106.378V107.302L261.979 110.305V109.38L256.788 106.378Z" fill="#CDE9F9"/>
<path d="M242.783 98.277L240.914 97.1958V98.1203L242.783 99.2015V98.277Z" fill="#CDE9F9"/>
<path d="M246.284 100.302V101.227L255.994 106.843V105.918L246.284 100.302Z" fill="#CDE9F9"/>
<path d="M245.489 99.8422L243.578 98.7366V99.6611L245.489 100.767V99.8422Z" fill="#CDE9F9"/>
<path d="M254.197 106.568L243.578 100.426V101.35L254.197 107.492V106.568Z" fill="#CDE9F9"/>
<path d="M235.588 105.715V106.639L239.461 108.88V107.955L235.588 105.715Z" fill="#BD8AAE"/>
<path d="M235.588 107.404V108.329L239.461 110.569V109.644L235.588 107.404Z" fill="#BD8AAE"/>
<path d="M235.588 109.093V110.017L239.461 112.258V111.333L235.588 109.093Z" fill="#BD8AAE"/>
<path d="M264.817 128.613V127.688L240.914 113.862V114.787L264.817 128.613Z" fill="#BD8AAE"/>
<path d="M235.588 110.782V111.706L239.461 113.947V113.022L235.588 110.782Z" fill="#BD8AAE"/>
<path d="M235.588 112.471V113.395L239.461 115.635V114.711L235.588 112.471Z" fill="#BD8AAE"/>
<path d="M264.817 130.302V129.377L240.914 115.551V116.476L264.817 130.302Z" fill="#BD8AAE"/>
<path d="M235.588 117.538V118.462L239.461 120.702V119.778L235.588 117.538Z" fill="#BD8AAE"/>
<path d="M235.588 119.226V120.151L239.461 122.391V121.467L235.588 119.226Z" fill="#BD8AAE"/>
<path d="M235.588 125.982V126.907L239.461 129.147V128.222L235.588 125.982Z" fill="#BD8AAE"/>
<path d="M235.588 127.671V128.596L239.461 130.836V129.911L235.588 127.671Z" fill="#BD8AAE"/>
<path d="M255.994 139.474L240.914 130.752V131.677L255.994 140.399V139.474Z" fill="#BD8AAE"/>
<path d="M256.788 139.934V140.858L264.817 145.502V144.578L256.788 139.934Z" fill="#BD8AAE"/>
<path d="M248.49 133.445L240.914 129.063V129.987L248.49 134.37V133.445Z" fill="#BD8AAE"/>
<path d="M249.285 133.905V134.829L264.817 143.813V142.889L249.285 133.905Z" fill="#BD8AAE"/>
<path d="M262.774 136.64V137.564L264.817 138.746V137.822L262.774 136.64Z" fill="#BD8AAE"/>
<path d="M251.654 128.52L240.914 122.307V123.232L251.654 129.444V128.52Z" fill="#BD8AAE"/>
<path d="M247.253 112.463L240.914 108.796V109.72L247.253 113.387V112.463Z" fill="#BD8AAE"/>
<path d="M257.645 118.473L248.048 112.922V113.847L257.645 119.398V118.473Z" fill="#BD8AAE"/>
<path d="M252.052 116.927L245.295 113.019V113.943L252.052 117.851V116.927Z" fill="#BD8AAE"/>
<path d="M259.141 121.027L252.846 117.387V118.311L259.141 121.952V121.027Z" fill="#BD8AAE"/>
<path d="M259.936 121.487V122.412L264.817 125.235V124.31L259.936 121.487Z" fill="#BD8AAE"/>
<path d="M242.163 112.896V113.82L247.253 116.765V115.84L242.163 112.896Z" fill="#BD8AAE"/>
<path d="M262.825 124.847L248.048 116.3V117.225L262.825 125.772V124.847Z" fill="#BD8AAE"/>
<path d="M254.365 125.021L244.708 119.435V120.359L254.365 125.945V125.021Z" fill="#BD8AAE"/>
<path d="M262.825 129.914L255.16 125.48V126.405L262.825 130.839V129.914Z" fill="#BD8AAE"/>
<path d="M261.979 134.491L252.449 128.979V129.904L261.979 135.416V134.491Z" fill="#BD8AAE"/>
<path d="M256.788 133.178V134.103L261.979 137.105V136.18L256.788 133.178Z" fill="#BD8AAE"/>
<path d="M242.783 125.077L240.914 123.996V124.921L242.783 126.002V125.077Z" fill="#BD8AAE"/>
<path d="M246.284 127.102V128.027L255.994 133.643V132.718L246.284 127.102Z" fill="#BD8AAE"/>
<path d="M245.489 126.642L243.578 125.537V126.461L245.489 127.567V126.642Z" fill="#BD8AAE"/>
<path d="M254.197 133.368L243.578 127.226V128.151L254.197 134.293V133.368Z" fill="#BD8AAE"/>
<path d="M242.2 135.213C242.1 135.315 242.052 135.513 242.052 135.805L242.048 137.1V137.133C242.047 137.38 241.969 137.512 241.812 137.53C241.655 137.547 241.43 137.471 241.141 137.304L241.138 138.206C241.428 138.373 241.652 138.557 241.808 138.759C241.964 138.961 242.042 139.196 242.042 139.463L242.038 140.744C242.037 141.035 242.083 141.288 242.182 141.507C242.278 141.725 242.432 141.932 242.643 142.129C242.854 142.327 243.146 142.532 243.516 142.747L243.519 141.893C243.279 141.745 243.117 141.6 243.031 141.457C242.946 141.311 242.904 141.143 242.905 140.947L242.908 139.721V139.673C242.91 139.183 242.642 138.739 242.1 138.332V138.284C242.635 138.503 242.904 138.352 242.914 137.834L242.917 136.607C242.918 136.409 242.962 136.29 243.049 136.247C243.135 136.203 243.297 136.249 243.534 136.377L243.537 135.524C243.172 135.312 242.882 135.181 242.668 135.132C242.451 135.081 242.297 135.109 242.2 135.213Z" fill="#CDE9F9"/>
<path d="M247.247 140.676C247.096 140.48 247.019 140.258 247.019 140.011V139.978L247.023 138.683C247.024 138.265 246.915 137.907 246.691 137.606C246.47 137.306 246.087 137 245.539 136.683L245.537 137.536C245.774 137.683 245.938 137.826 246.024 137.969C246.11 138.109 246.151 138.28 246.151 138.479L246.147 139.705C246.156 140.234 246.429 140.699 246.964 141.099V141.147C246.697 141.041 246.494 141.019 246.355 141.087C246.214 141.155 246.143 141.31 246.142 141.556V141.592L246.138 142.819C246.138 143.017 246.096 143.14 246.009 143.184C245.923 143.224 245.759 143.18 245.521 143.051L245.519 143.905C246.064 144.221 246.448 144.355 246.672 144.314C246.895 144.271 247.008 144.041 247.009 143.621L247.012 142.34C247.013 142.073 247.092 141.929 247.244 141.905C247.398 141.883 247.62 141.957 247.914 142.128L247.917 141.226C247.623 141.056 247.401 140.874 247.247 140.676Z" fill="#CDE9F9"/>
<path d="M250.491 139.886C250.392 139.988 250.344 140.186 250.343 140.478L250.339 141.773V141.807C250.339 142.053 250.26 142.185 250.103 142.202C249.946 142.22 249.722 142.144 249.432 141.977L249.43 142.878C249.719 143.046 249.944 143.23 250.1 143.432C250.256 143.634 250.334 143.868 250.333 144.136L250.33 145.416C250.329 145.708 250.375 145.961 250.474 146.18C250.57 146.398 250.723 146.605 250.934 146.802C251.145 147 251.438 147.205 251.808 147.419L251.81 146.566C251.57 146.418 251.409 146.273 251.323 146.13C251.237 145.984 251.196 145.816 251.197 145.62L251.2 144.394V144.346C251.201 143.856 250.933 143.412 250.391 143.004L250.391 142.956C250.926 143.176 251.196 143.025 251.205 142.506L251.209 141.28C251.209 141.082 251.254 140.963 251.34 140.92C251.427 140.876 251.588 140.922 251.826 141.05L251.828 140.196C251.463 139.985 251.173 139.853 250.959 139.805C250.742 139.755 250.588 139.783 250.491 139.886Z" fill="#CDE9F9"/>
<path d="M255.539 145.35C255.388 145.153 255.31 144.931 255.311 144.685V144.651L255.315 143.356C255.316 142.938 255.207 142.58 254.983 142.279C254.762 141.979 254.379 141.673 253.831 141.356L253.829 142.21C254.066 142.356 254.23 142.499 254.316 142.642C254.402 142.782 254.443 142.954 254.442 143.152L254.439 144.378C254.448 144.907 254.721 145.372 255.255 145.772V145.82C254.989 145.714 254.785 145.693 254.647 145.76C254.505 145.829 254.435 145.983 254.434 146.23V146.266L254.43 147.492C254.43 147.691 254.388 147.814 254.301 147.857C254.215 147.898 254.05 147.854 253.813 147.725L253.811 148.579C254.356 148.894 254.739 149.029 254.964 148.988C255.187 148.945 255.3 148.715 255.301 148.294L255.304 147.014C255.305 146.747 255.384 146.603 255.536 146.579C255.69 146.557 255.912 146.631 256.206 146.801L256.209 145.9C255.914 145.73 255.693 145.547 255.539 145.35Z" fill="#CDE9F9"/>
<path d="M236.146 76.0869C236.146 76.4497 236.406 76.8984 236.723 77.0842C237.039 77.2701 237.299 77.1221 237.299 76.7549C237.299 76.3876 237.039 75.9389 236.723 75.7576C236.405 75.5762 236.146 75.7241 236.146 76.0869Z" fill="#E7F6FD"/>
<path d="M237.993 77.1771C237.993 77.5399 238.253 77.9885 238.57 78.1744C238.887 78.3603 239.146 78.2123 239.146 77.8451C239.146 77.4778 238.887 77.0291 238.57 76.8477C238.253 76.6663 237.993 76.8146 237.993 77.1771Z" fill="#E7F6FD"/>
<path d="M240.387 77.8453C240.071 77.6636 239.811 77.8119 239.811 78.1747C239.811 78.5375 240.071 78.9862 240.387 79.172C240.704 79.3579 240.964 79.2099 240.964 78.8427C240.964 78.4754 240.704 78.027 240.387 77.8453Z" fill="#E7F6FD"/>
<path d="M171.18 241.11C156.015 232.329 156.015 217.911 171.18 209.071C186.346 200.23 211.162 200.23 226.327 209.071C241.492 217.911 241.492 232.329 226.327 241.11C211.162 249.891 186.346 249.891 171.18 241.11Z" fill="#2A2F6D"/>
<path d="M179.155 182.541C183 182.541 186.116 177.668 186.116 171.658C186.116 165.648 183 160.776 179.155 160.776C175.311 160.776 172.194 165.648 172.194 171.658C172.194 177.668 175.311 182.541 179.155 182.541Z" fill="url(#paint5_linear_8_2687)"/>
<path d="M217.76 157.481C216.696 158.931 215.453 160.332 214 161.651C201.228 173.249 187.673 173.207 181.175 172.304C179.1 172.016 177.71 169.958 178.257 167.992L179.048 165.15L178.164 168.326L178.248 168.018C178.675 166.457 180.194 165.485 181.839 165.717C186.995 166.444 198.405 166.576 209.332 156.653C216.431 150.207 217.207 140.922 217.089 136.257C217.047 134.585 218.242 133.185 219.91 132.985C221.929 132.743 223.771 134.33 223.824 136.355C223.953 141.249 223.257 149.991 217.76 157.481Z" fill="#CDE9F9"/>
<path d="M224.163 117.882C224.163 117.882 216.683 121.556 215.452 128.111C214.221 134.666 218.577 141.321 224.163 140.923C229.75 140.526 235.052 135.66 235.052 135.66L231.927 128.509C231.927 128.509 228.404 132.454 225.147 132.617C221.891 132.779 219.682 126.026 226.657 122.947L224.163 117.882Z" fill="url(#paint6_linear_8_2687)"/>
<path d="M236.675 213.969V199.703L225.044 201.104C219.847 198.883 213.467 197.797 206.71 197.797V198.367C207.787 198.367 208.85 198.396 209.897 198.452C205.835 198.381 201.113 198.643 195.737 199.281C199.362 198.682 203.051 198.367 206.708 198.367L206.71 197.797C206.709 197.797 206.708 197.797 206.708 197.797C195.657 197.798 183.608 200.697 174.129 206.262C173.457 206.656 172.816 207.061 172.189 207.47L159.697 208.975V225.964C159.697 225.964 159.709 225.968 159.728 225.976C159.943 230.59 162.686 234.872 168.111 238.057C173.766 241.377 181.451 242.989 189.692 242.989C200.742 242.989 212.791 240.089 222.271 234.524C231.784 228.939 236.713 221.839 236.679 215.332C236.729 214.467 236.675 213.969 236.675 213.969ZM181.815 241.881C180.089 241.637 178.428 241.313 176.848 240.91C178.552 241.313 180.207 241.629 181.815 241.881ZM176.659 240.864C176.594 240.847 176.53 240.83 176.465 240.813C176.531 240.83 176.592 240.848 176.659 240.864Z" fill="#2A2F6D"/>
<path d="M232.036 182.03L233.604 192.845L223.379 211.994" stroke="#C4CACB" stroke-width="5" stroke-miterlimit="10"/>
<path d="M228.929 186.486C228.929 186.486 229.392 183.67 231.277 183.504C231.277 183.504 231.738 183.417 231.99 182.997C232.242 182.576 232.383 183.31 232.103 183.952C231.822 184.594 231.822 184.594 231.822 184.594C231.822 184.594 233.289 183.296 233.122 182.873C232.954 182.45 234.547 183.039 234.38 184.006C234.212 184.973 235.314 185.502 234.889 187.171C234.464 188.841 233.604 190.436 231.958 190.668C230.313 190.901 228.929 186.486 228.929 186.486Z" fill="#FDE0D9"/>
<path d="M198.462 155.377V149.521C198.462 146.104 196.764 143.226 190.846 144.937C184.928 146.648 183.672 150.959 185.645 155.377C186.494 157.278 187.408 158.987 188.568 160.247V165.746L195.754 165.232L195.424 162.163C199.739 160.946 198.462 155.377 198.462 155.377Z" fill="#FDE0D9"/>
<path d="M179.151 182.03L176.356 177.966C176.356 177.966 178.34 167.067 181.555 165.466C187.416 162.546 202.655 161.406 210.238 167.19C217.821 172.973 216.256 190.264 219.722 189.636C223.187 189.009 229.253 185.602 229.253 185.602C229.253 185.602 232.581 185.419 231.958 190.668C231.958 190.668 222.41 203.523 215.286 204.279C208.162 205.035 201.145 194.517 201.145 194.517L179.151 182.03Z" fill="#BD8AAE"/>
<path d="M226.722 211.728C226.722 211.728 218.064 176.948 212.555 175.748C207.848 174.722 177.395 173.638 168.622 173.344C166.883 173.286 165.241 174.181 164.385 175.701C163.469 177.328 162.681 179.702 163.279 182.619C164.45 188.336 172.563 204.521 168.004 216.777C168.003 216.777 187.465 228.045 226.722 211.728Z" fill="#222457"/>
<path d="M232.273 184.8C233.411 184.8 234.333 183.875 234.333 182.734C234.333 181.593 233.411 180.668 232.273 180.668C231.135 180.668 230.213 181.593 230.213 182.734C230.213 183.875 231.135 184.8 232.273 184.8Z" fill="#2A2F6D"/>
<path d="M196.061 152.895C196.061 152.895 195.768 152.054 195.055 151.928C194.342 151.802 194.426 155.334 195.055 156.09C195.684 156.847 196.061 156.468 196.061 156.468C196.061 156.468 196.019 158.528 194.761 159.453C193.503 160.378 194.65 161.766 191.708 161.766C188.766 161.766 184.993 160.588 183.693 159.243C182.393 157.898 181.628 152.685 184.778 149.91C184.778 149.91 183.651 143.772 191.03 142.931C198.408 142.09 199.331 142.511 200.169 141.502C201.008 140.493 200.924 139.904 200.924 139.904C200.924 139.904 201.513 142.931 200.632 143.604C200.632 143.604 201.18 144.108 201.513 142.931C201.513 142.931 201.917 145.79 200.624 147.808C199.331 149.826 196.564 151.592 196.061 152.895Z" fill="#2A2F6D"/>
<path d="M196.474 231.48C194.467 231.48 192.311 231.436 189.688 231.34C180.168 230.995 175.572 229.817 168.304 225.862C163.095 223.028 160.199 218.709 160.148 213.7H160.123V109.933L160.147 109.932C160.13 106.64 161.427 102.611 163.706 98.8783C165.53 95.8896 168.855 91.6515 174.334 88.4325C183.792 82.8763 195.993 82.4106 206.687 82.41C216.282 82.4097 224.186 86.2111 228.043 88.4769C230.256 89.7771 232.046 91.2822 233.381 92.9505L232.936 93.2956C233.334 93.8335 233.687 94.341 234.016 94.8473L234.492 94.5498C235.332 95.9636 235.874 97.4735 236.101 99.0576L236.121 99.2008L236.115 99.2175L236.128 99.3202C236.206 99.9664 236.233 100.618 236.208 101.256L236.203 101.376L236.233 101.432V212.327L236.21 212.327C236.059 218.587 231.571 223.275 222.085 227.081C214.402 230.164 206.743 231.48 196.474 231.48Z" fill="url(#paint7_linear_8_2687)"/>
<path d="M206.689 82.8579C216.178 82.8579 224 86.6205 227.818 88.8636C229.977 90.1325 231.723 91.5976 233.023 93.2184L232.578 93.563C232.971 94.094 233.319 94.5943 233.642 95.0919L234.117 94.7951C234.923 96.1546 235.442 97.6036 235.659 99.1221L235.664 99.1576L235.66 99.1696L235.685 99.3748C235.76 99.9971 235.786 100.624 235.762 101.239L235.753 101.477L235.787 101.542V211.599L235.762 211.599L235.763 212.328C235.612 218.381 231.213 222.937 221.919 226.666C214.292 229.726 206.682 231.032 196.474 231.032C194.472 231.032 192.321 230.988 189.704 230.893C180.267 230.55 175.712 229.384 168.517 225.469C163.457 222.715 160.643 218.534 160.594 213.695H160.569V109.93L160.593 109.93C160.577 106.719 161.85 102.776 164.086 99.112C165.884 96.1671 169.16 91.9905 174.56 88.8186C183.921 83.3191 196.052 82.8582 206.687 82.8576H206.689V82.8579ZM206.689 81.9629C206.688 81.9629 206.688 81.9629 206.688 81.9629C195.637 81.9635 183.588 82.4775 174.109 88.0465C164.597 93.6346 159.668 103.425 159.701 109.935L159.677 107.253V215.713L159.702 213.705C159.75 218.497 162.381 223.149 168.091 226.256C175.493 230.283 180.275 231.446 189.673 231.787C192.015 231.872 194.275 231.927 196.475 231.927C205.476 231.927 213.495 231.011 222.252 227.497C232.24 223.49 236.507 218.571 236.657 212.338L236.655 211.598C236.662 211.847 236.662 212.093 236.657 212.338L236.68 225.64V101.333C236.669 101.313 236.665 101.293 236.655 101.274C236.681 100.598 236.652 99.9288 236.572 99.2671C236.629 99.1007 236.68 98.9947 236.68 98.9947H236.543C235.948 94.833 233.227 91.0036 228.269 88.0913C222.614 84.769 214.929 81.9629 206.689 81.9629ZM234.39 94.6039C234.077 94.1206 233.718 93.6006 233.295 93.0293C233.704 93.5394 234.07 94.0645 234.39 94.6039Z" fill="#FDFEFE"/>
<g opacity="0.5">
<path opacity="0.5" d="M166.156 220.912V112.371C166.156 112.371 172.943 101.387 184.609 102.564C196.276 103.741 198.159 110.409 198.159 110.409V231.229C198.159 231.229 198.61 226.249 196.714 227.269C190.972 230.357 178.449 234.949 170.734 221.82C169.635 219.95 167.026 223.557 166.156 220.912Z" fill="url(#paint8_linear_8_2687)"/>
</g>
<path d="M215.186 193.394C219.03 193.394 222.146 188.522 222.146 182.512C222.146 176.502 219.03 171.63 215.186 171.63C211.341 171.63 208.225 176.502 208.225 182.512C208.225 188.522 211.341 193.394 215.186 193.394Z" fill="url(#paint9_linear_8_2687)"/>
<path d="M246.452 204.978C244.656 204.978 242.794 204.805 240.874 204.414C223.988 200.973 215.987 190.001 212.86 184.218C211.862 182.371 212.691 180.028 214.594 179.304L217.345 178.259L214.271 179.427L214.568 179.313C216.074 178.732 217.755 179.382 218.544 180.848C221.016 185.444 227.674 194.737 242.12 197.68C251.506 199.592 259.422 194.715 263.099 191.855C264.417 190.829 266.249 190.965 267.399 192.193C268.79 193.68 268.608 196.109 267.013 197.352C263.159 200.358 255.725 204.978 246.452 204.978Z" fill="#CDE9F9"/>
<path d="M269.397 179.496C269.397 179.496 261.917 183.171 260.686 189.726C259.455 196.281 263.811 202.935 269.397 202.538C274.984 202.141 280.286 197.274 280.286 197.274L277.161 190.124C277.161 190.124 273.638 194.069 270.381 194.232C267.125 194.394 264.916 187.641 271.891 184.562L269.397 179.496Z" fill="url(#paint10_linear_8_2687)"/>
<path d="M236.68 215.746H236.115V228.657H236.68V215.746Z" fill="#2A2F6D"/>
<path d="M270.637 221.183H236.176V258.046H270.637V221.183Z" fill="url(#paint11_linear_8_2687)"/>
<path d="M253.406 267.371C262.941 267.371 270.671 262.895 270.671 257.374C270.671 251.854 262.941 247.378 253.406 247.378C243.871 247.378 236.142 251.854 236.142 257.374C236.142 262.895 243.871 267.371 253.406 267.371Z" fill="#3C7FBE"/>
<path d="M253.406 231.506C262.941 231.506 270.671 227.031 270.671 221.51C270.671 215.989 262.941 211.514 253.406 211.514C243.871 211.514 236.142 215.989 236.142 221.51C236.142 227.031 243.871 231.506 253.406 231.506Z" fill="#17A1DB"/>
<path d="M250.992 211.649L250.987 210.734L250.984 211.581L250.989 212.497L250.992 211.649Z" fill="#2A2F6D"/>
<path d="M259.381 212.751L258.27 213.398L258.267 214.245L259.378 213.598L259.381 212.751Z" fill="#2A2F6D"/>
<path d="M246.454 213.398L245.336 212.751L245.334 213.598L246.452 214.245L246.454 213.398Z" fill="#2A2F6D"/>
<path d="M248.827 216.332C248.832 216.302 248.841 216.272 248.849 216.241C248.859 216.205 248.868 216.169 248.88 216.134C248.891 216.104 248.904 216.075 248.917 216.047C248.933 216.009 248.949 215.972 248.969 215.935C248.983 215.908 249.001 215.882 249.017 215.856C249.043 215.814 249.07 215.772 249.101 215.731C249.119 215.706 249.138 215.683 249.158 215.659C249.204 215.603 249.255 215.549 249.309 215.496C249.329 215.476 249.347 215.456 249.368 215.438C249.402 215.407 249.441 215.377 249.478 215.347C249.511 215.32 249.542 215.294 249.578 215.268C249.618 215.238 249.663 215.21 249.706 215.182C249.751 215.152 249.793 215.122 249.842 215.094C249.948 215.032 250.062 214.976 250.178 214.924C250.212 214.909 250.246 214.894 250.28 214.88C250.371 214.842 250.465 214.806 250.56 214.774C250.595 214.762 250.628 214.749 250.663 214.738C250.723 214.719 250.785 214.703 250.846 214.686C250.893 214.673 250.939 214.659 250.987 214.648C251.052 214.632 251.118 214.619 251.183 214.606C251.229 214.597 251.273 214.587 251.319 214.578C251.453 214.555 251.588 214.536 251.725 214.522C251.767 214.517 251.809 214.515 251.851 214.511C251.931 214.504 252.012 214.499 252.092 214.495C252.144 214.493 252.196 214.492 252.247 214.49C252.312 214.489 252.378 214.489 252.443 214.49C252.497 214.49 252.552 214.492 252.606 214.494C252.666 214.496 252.727 214.5 252.787 214.504C252.842 214.508 252.897 214.513 252.952 214.518C253.011 214.523 253.071 214.53 253.13 214.538C253.183 214.544 253.236 214.552 253.29 214.56C253.353 214.57 253.416 214.581 253.479 214.593C253.529 214.603 253.578 214.613 253.627 214.623C253.701 214.64 253.775 214.658 253.848 214.678C253.889 214.688 253.93 214.699 253.971 214.711C254.102 214.749 254.229 214.792 254.353 214.84C254.415 214.864 254.474 214.891 254.534 214.917C254.564 214.931 254.596 214.943 254.626 214.957C254.716 215 254.804 215.046 254.888 215.094C255.591 215.501 255.942 216.035 255.94 216.568L255.942 215.721C255.944 215.188 255.593 214.654 254.89 214.247C254.806 214.198 254.719 214.153 254.628 214.11C254.598 214.096 254.567 214.083 254.536 214.07C254.483 214.046 254.43 214.021 254.375 213.999C254.369 213.997 254.362 213.995 254.356 213.993C254.232 213.945 254.104 213.902 253.972 213.863C253.962 213.86 253.952 213.856 253.942 213.853C253.912 213.844 253.881 213.838 253.851 213.83C253.777 213.811 253.704 213.792 253.629 213.776C253.609 213.771 253.59 213.765 253.57 213.761C253.541 213.755 253.51 213.751 253.481 213.746C253.418 213.734 253.355 213.723 253.292 213.713C253.266 213.709 253.242 213.703 253.216 213.7C253.188 213.696 253.16 213.694 253.133 213.69C253.073 213.683 253.014 213.676 252.954 213.67C252.926 213.667 252.898 213.663 252.869 213.661C252.843 213.658 252.816 213.658 252.79 213.656C252.729 213.652 252.669 213.649 252.608 213.646C252.578 213.645 252.548 213.642 252.518 213.641C252.494 213.641 252.469 213.642 252.446 213.642C252.38 213.641 252.314 213.641 252.249 213.643C252.217 213.643 252.184 213.642 252.153 213.643C252.134 213.644 252.115 213.646 252.095 213.647C252.015 213.651 251.934 213.657 251.854 213.663C251.821 213.666 251.789 213.666 251.757 213.67C251.747 213.671 251.737 213.673 251.727 213.674C251.591 213.688 251.455 213.707 251.321 213.731C251.315 213.732 251.308 213.732 251.302 213.733C251.263 213.74 251.226 213.75 251.188 213.758C251.121 213.771 251.055 213.785 250.99 213.8C250.942 213.812 250.897 213.825 250.85 213.838C250.788 213.855 250.726 213.872 250.666 213.891C250.653 213.895 250.64 213.898 250.626 213.902C250.605 213.909 250.585 213.919 250.563 213.926C250.468 213.959 250.374 213.994 250.283 214.033C250.249 214.047 250.214 214.061 250.181 214.076C250.065 214.129 249.952 214.184 249.845 214.247C249.83 214.255 249.816 214.264 249.801 214.273C249.769 214.292 249.741 214.314 249.71 214.334C249.666 214.362 249.621 214.391 249.581 214.42C249.546 214.446 249.514 214.473 249.481 214.499C249.444 214.529 249.406 214.559 249.372 214.59C249.365 214.596 249.356 214.602 249.35 214.608C249.336 214.621 249.326 214.635 249.313 214.648C249.258 214.702 249.207 214.756 249.161 214.811C249.151 214.823 249.138 214.835 249.128 214.847C249.119 214.859 249.113 214.871 249.104 214.884C249.073 214.925 249.045 214.967 249.02 215.008C249.009 215.026 248.994 215.043 248.984 215.061C248.979 215.07 248.976 215.079 248.972 215.088C248.952 215.125 248.936 215.162 248.92 215.199C248.91 215.221 248.897 215.242 248.889 215.264C248.887 215.272 248.885 215.279 248.883 215.287C248.87 215.322 248.862 215.358 248.852 215.393C248.846 215.417 248.836 215.441 248.832 215.466C248.83 215.472 248.831 215.479 248.829 215.485C248.822 215.523 248.82 215.56 248.816 215.598C248.814 215.622 248.809 215.647 248.808 215.671C248.808 215.682 248.807 215.692 248.807 215.703L248.805 216.55C248.805 216.515 248.811 216.48 248.814 216.445C248.817 216.407 248.82 216.37 248.827 216.332Z" fill="#2A2F6D"/>
<path d="M259.374 216.502C259.357 216.553 259.337 216.604 259.317 216.654C259.303 216.689 259.289 216.724 259.274 216.758C259.259 216.79 259.245 216.823 259.229 216.855C259.212 216.889 259.194 216.923 259.176 216.957C259.16 216.989 259.142 217.02 259.124 217.051C259.101 217.09 259.077 217.129 259.052 217.169C259.033 217.197 259.015 217.226 258.995 217.255C258.968 217.295 258.938 217.335 258.909 217.375C258.889 217.401 258.87 217.427 258.849 217.453C258.791 217.527 258.729 217.6 258.663 217.671C258.654 217.681 258.645 217.69 258.635 217.7C258.577 217.762 258.516 217.824 258.451 217.884C258.401 217.932 258.35 217.979 258.296 218.026L258.294 218.873C258.338 218.835 258.381 218.796 258.423 218.757C258.433 218.748 258.44 218.74 258.449 218.731C258.513 218.671 258.574 218.61 258.632 218.548C258.642 218.538 258.652 218.528 258.661 218.518C258.727 218.447 258.789 218.374 258.847 218.301C258.852 218.294 258.858 218.288 258.862 218.282C258.878 218.262 258.892 218.242 258.907 218.221C258.936 218.182 258.966 218.142 258.993 218.102C259.013 218.073 259.031 218.044 259.05 218.015C259.075 217.976 259.1 217.937 259.122 217.898C259.13 217.885 259.139 217.872 259.146 217.859C259.157 217.841 259.165 217.822 259.175 217.804C259.193 217.77 259.21 217.736 259.227 217.702C259.243 217.67 259.258 217.637 259.272 217.605C259.287 217.57 259.302 217.536 259.315 217.502C259.321 217.486 259.329 217.471 259.335 217.456C259.348 217.42 259.361 217.384 259.372 217.349H260.948L260.951 216.502H259.374Z" fill="#2A2F6D"/>
<path d="M246.478 218.873L246.48 218.026C245.932 217.557 245.567 217.038 245.385 216.502H243.809L243.807 217.349H245.383C245.564 217.886 245.929 218.405 246.478 218.873Z" fill="#2A2F6D"/>
<path d="M256.378 219.143C256.189 219.218 255.994 219.285 255.796 219.348C255.687 219.383 255.574 219.412 255.463 219.443C255.358 219.471 255.256 219.503 255.15 219.529C255.036 219.556 254.92 219.579 254.804 219.602C254.697 219.625 254.591 219.649 254.482 219.669C254.243 219.711 254.002 219.747 253.758 219.774L253.756 220.622C254 220.594 254.241 220.558 254.479 220.516C254.491 220.514 254.503 220.513 254.515 220.511C254.613 220.493 254.708 220.469 254.804 220.449C254.919 220.425 255.034 220.403 255.147 220.376C255.254 220.35 255.358 220.318 255.463 220.289C255.573 220.258 255.685 220.229 255.794 220.195C255.807 220.191 255.82 220.188 255.833 220.184C256.018 220.124 256.199 220.06 256.375 219.99L257.494 220.637L259.412 219.52L259.414 218.673L257.496 219.79L256.378 219.143Z" fill="#2A2F6D"/>
<path d="M251.038 219.774C250.867 219.755 250.698 219.729 250.53 219.702C250.409 219.683 250.289 219.662 250.17 219.639C250.065 219.619 249.961 219.598 249.857 219.575C249.715 219.544 249.575 219.509 249.435 219.472C249.326 219.442 249.215 219.414 249.107 219.382C249.059 219.367 249.011 219.352 248.964 219.337C248.777 219.277 248.592 219.214 248.412 219.144C248.412 219.144 248.411 219.143 248.411 219.143L247.298 219.792L245.368 218.674L245.365 219.521L247.296 220.639L248.409 219.991C248.588 220.061 248.774 220.124 248.962 220.185C249.009 220.2 249.057 220.214 249.105 220.229C249.153 220.244 249.201 220.26 249.249 220.274C249.309 220.291 249.372 220.303 249.433 220.319C249.572 220.356 249.713 220.391 249.855 220.423C249.901 220.433 249.946 220.447 249.992 220.456C250.049 220.468 250.109 220.476 250.167 220.487C250.286 220.51 250.407 220.531 250.528 220.55C250.583 220.558 250.637 220.571 250.692 220.578C250.806 220.594 250.92 220.609 251.034 220.622L251.035 220.622L251.04 221.538H253.761L253.763 220.69H251.043L251.038 219.774Z" fill="#2A2F6D"/>
<path d="M257.496 219.791L256.378 219.143C255.573 219.46 254.681 219.671 253.758 219.774L253.763 220.69H251.042L251.037 219.774C250.113 219.671 249.219 219.46 248.411 219.143L247.298 219.792L245.368 218.674L246.48 218.026C245.932 217.557 245.566 217.038 245.385 216.502H243.809L243.8 214.922H245.376C245.551 214.386 245.913 213.868 246.454 213.398L245.336 212.751L247.254 211.633L248.372 212.28C249.179 211.965 250.069 211.753 250.992 211.649L250.987 210.734H253.707L253.712 211.649C254.636 211.753 255.53 211.964 256.339 212.28L257.45 211.633L259.381 212.751L258.27 213.398C258.817 213.868 259.184 214.386 259.365 214.922H260.941L260.95 216.503H259.374C259.199 217.039 258.839 217.558 258.296 218.026L259.414 218.673L257.496 219.791ZM249.861 217.178C251.258 217.988 253.516 217.986 254.905 217.177C256.293 216.368 256.287 215.057 254.89 214.248C253.492 213.438 251.233 213.438 249.844 214.248C248.455 215.057 248.463 216.369 249.861 217.178Z" fill="white"/>
<path d="M254.339 221.092L254.335 220.344L254.333 221.036L254.337 221.784L254.339 221.092Z" fill="#BD8AAE"/>
<path d="M261.192 221.992L260.284 222.521L260.283 223.213L261.19 222.684L261.192 221.992Z" fill="#BD8AAE"/>
<path d="M250.632 222.521L249.718 221.992L249.716 222.684L250.63 223.213L250.632 222.521Z" fill="#BD8AAE"/>
<path d="M252.57 224.918C252.574 224.893 252.582 224.868 252.588 224.843C252.596 224.814 252.603 224.785 252.613 224.756C252.622 224.732 252.633 224.709 252.643 224.685C252.657 224.654 252.67 224.624 252.686 224.594C252.698 224.572 252.712 224.55 252.725 224.529C252.746 224.494 252.769 224.46 252.794 224.427C252.809 224.407 252.825 224.387 252.841 224.368C252.878 224.323 252.92 224.278 252.964 224.235C252.981 224.219 252.995 224.203 253.012 224.187C253.04 224.162 253.072 224.138 253.102 224.113C253.129 224.091 253.155 224.069 253.183 224.048C253.216 224.024 253.252 224.001 253.288 223.978C253.325 223.954 253.36 223.93 253.399 223.907C253.486 223.856 253.579 223.811 253.674 223.767C253.701 223.755 253.729 223.743 253.756 223.732C253.831 223.701 253.907 223.672 253.986 223.645C254.014 223.635 254.041 223.625 254.07 223.616C254.119 223.6 254.169 223.587 254.219 223.573C254.257 223.562 254.295 223.551 254.334 223.542C254.387 223.529 254.441 223.518 254.494 223.507C254.531 223.5 254.568 223.491 254.605 223.485C254.714 223.465 254.825 223.45 254.937 223.439C254.971 223.435 255.005 223.433 255.04 223.43C255.105 223.424 255.171 223.419 255.237 223.417C255.279 223.415 255.321 223.414 255.363 223.413C255.417 223.412 255.47 223.412 255.523 223.413C255.568 223.413 255.612 223.414 255.657 223.416C255.706 223.418 255.756 223.421 255.805 223.424C255.85 223.427 255.894 223.431 255.939 223.435C255.988 223.44 256.036 223.445 256.085 223.452C256.128 223.457 256.172 223.463 256.215 223.47C256.267 223.478 256.318 223.488 256.369 223.497C256.41 223.505 256.45 223.513 256.49 223.522C256.551 223.535 256.611 223.55 256.671 223.566C256.704 223.575 256.738 223.584 256.771 223.593C256.878 223.624 256.982 223.66 257.084 223.699C257.134 223.718 257.182 223.74 257.231 223.762C257.256 223.773 257.282 223.783 257.306 223.795C257.38 223.83 257.452 223.867 257.52 223.907C258.094 224.239 258.381 224.675 258.38 225.111L258.382 224.419C258.383 223.983 258.096 223.547 257.522 223.215C257.453 223.175 257.382 223.138 257.308 223.103C257.284 223.091 257.258 223.081 257.232 223.07C257.189 223.05 257.146 223.03 257.101 223.012C257.096 223.01 257.091 223.009 257.085 223.007C256.984 222.967 256.88 222.932 256.772 222.901C256.764 222.899 256.756 222.895 256.747 222.893C256.723 222.886 256.698 222.881 256.673 222.874C256.613 222.858 256.553 222.843 256.492 222.83C256.476 222.826 256.46 222.821 256.444 222.818C256.42 222.813 256.395 222.81 256.371 222.805C256.32 222.795 256.269 222.786 256.217 222.778C256.196 222.775 256.176 222.77 256.155 222.767C256.132 222.764 256.109 222.763 256.087 222.76C256.038 222.753 255.99 222.748 255.941 222.743C255.918 222.741 255.895 222.737 255.872 222.735C255.85 222.734 255.828 222.733 255.806 222.732C255.757 222.729 255.708 222.726 255.658 222.724C255.634 222.723 255.609 222.72 255.584 222.72C255.565 222.719 255.545 222.72 255.526 222.72C255.472 222.72 255.418 222.72 255.365 222.721C255.339 222.721 255.312 222.72 255.286 222.721C255.271 222.722 255.255 222.723 255.239 222.724C255.173 222.727 255.108 222.732 255.042 222.737C255.016 222.74 254.989 222.74 254.963 222.743C254.954 222.743 254.947 222.745 254.939 222.746C254.827 222.758 254.716 222.773 254.607 222.792C254.602 222.793 254.597 222.794 254.591 222.795C254.56 222.8 254.529 222.809 254.498 222.815C254.444 222.826 254.389 222.837 254.336 222.85C254.297 222.859 254.26 222.87 254.222 222.88C254.171 222.894 254.121 222.908 254.071 222.923C254.061 222.927 254.05 222.929 254.039 222.933C254.021 222.938 254.005 222.946 253.988 222.952C253.91 222.979 253.833 223.008 253.758 223.039C253.73 223.051 253.703 223.063 253.675 223.075C253.581 223.118 253.488 223.164 253.401 223.214C253.388 223.221 253.377 223.228 253.365 223.235C253.338 223.252 253.315 223.269 253.29 223.286C253.254 223.309 253.218 223.332 253.185 223.356C253.156 223.377 253.13 223.399 253.104 223.42C253.073 223.445 253.042 223.469 253.014 223.495C253.008 223.5 253.002 223.505 252.996 223.51C252.985 223.52 252.977 223.532 252.966 223.542C252.921 223.586 252.88 223.63 252.842 223.675C252.834 223.685 252.823 223.695 252.815 223.705C252.808 223.715 252.803 223.725 252.795 223.735C252.77 223.768 252.748 223.802 252.727 223.837C252.718 223.851 252.707 223.865 252.698 223.879C252.694 223.886 252.692 223.894 252.688 223.901C252.672 223.931 252.658 223.962 252.645 223.992C252.638 224.01 252.627 224.027 252.621 224.045C252.618 224.051 252.618 224.058 252.615 224.064C252.605 224.093 252.598 224.121 252.59 224.151C252.585 224.171 252.577 224.19 252.573 224.21C252.572 224.215 252.572 224.221 252.571 224.226C252.566 224.256 252.564 224.287 252.561 224.318C252.559 224.338 252.555 224.357 252.554 224.377C252.554 224.386 252.554 224.395 252.554 224.403L252.552 225.095C252.552 225.067 252.557 225.038 252.559 225.009C252.562 224.979 252.564 224.949 252.57 224.918Z" fill="#BD8AAE"/>
<path d="M261.187 225.057C261.173 225.099 261.157 225.14 261.14 225.182C261.129 225.21 261.117 225.238 261.105 225.266C261.093 225.293 261.081 225.319 261.068 225.345C261.054 225.373 261.04 225.401 261.025 225.429C261.011 225.455 260.997 225.48 260.983 225.505C260.964 225.538 260.944 225.57 260.923 225.602C260.908 225.625 260.893 225.649 260.877 225.672C260.855 225.705 260.83 225.737 260.806 225.77C260.79 225.791 260.774 225.813 260.757 225.834C260.71 225.894 260.659 225.954 260.605 226.012C260.598 226.02 260.59 226.028 260.583 226.035C260.535 226.086 260.485 226.137 260.432 226.186C260.391 226.225 260.349 226.264 260.305 226.302L260.303 226.994C260.34 226.963 260.375 226.931 260.409 226.899C260.417 226.893 260.423 226.885 260.43 226.878C260.483 226.829 260.533 226.779 260.58 226.728C260.587 226.72 260.596 226.712 260.603 226.704C260.657 226.646 260.708 226.586 260.755 226.527C260.759 226.521 260.764 226.517 260.768 226.512C260.781 226.495 260.792 226.478 260.804 226.462C260.828 226.43 260.852 226.397 260.875 226.364C260.891 226.341 260.906 226.317 260.921 226.294C260.941 226.262 260.962 226.23 260.98 226.197C260.987 226.187 260.994 226.177 261 226.166C261.008 226.151 261.015 226.136 261.023 226.121C261.038 226.093 261.052 226.066 261.066 226.038C261.079 226.011 261.091 225.984 261.103 225.958C261.115 225.93 261.127 225.902 261.138 225.874C261.143 225.861 261.149 225.849 261.154 225.836C261.165 225.807 261.175 225.778 261.184 225.749H262.472L262.474 225.057H261.187V225.057Z" fill="#BD8AAE"/>
<path d="M250.651 226.994L250.653 226.302C250.205 225.919 249.906 225.495 249.758 225.057H248.47L248.468 225.749H249.756C249.904 226.187 250.203 226.612 250.651 226.994Z" fill="#BD8AAE"/>
<path d="M258.739 227.215C258.585 227.276 258.425 227.331 258.264 227.382C258.175 227.41 258.083 227.434 257.992 227.459C257.907 227.483 257.822 227.508 257.736 227.53C257.643 227.552 257.548 227.57 257.453 227.59C257.366 227.608 257.279 227.628 257.19 227.644C256.996 227.678 256.798 227.708 256.599 227.73L256.597 228.422C256.796 228.4 256.993 228.371 257.188 228.336C257.198 228.334 257.208 228.333 257.217 228.332C257.297 228.317 257.375 228.298 257.453 228.281C257.547 228.262 257.641 228.244 257.733 228.221C257.821 228.2 257.905 228.174 257.991 228.15C258.082 228.125 258.173 228.102 258.262 228.074C258.272 228.07 258.284 228.068 258.294 228.065C258.445 228.016 258.593 227.963 258.737 227.906L259.651 228.435L261.218 227.522L261.22 226.83L259.653 227.744L258.739 227.215Z" fill="#BD8AAE"/>
<path d="M254.376 227.73C254.237 227.715 254.099 227.693 253.961 227.671C253.862 227.656 253.764 227.639 253.667 227.62C253.581 227.604 253.496 227.586 253.412 227.568C253.295 227.542 253.18 227.513 253.067 227.483C252.977 227.459 252.887 227.436 252.799 227.409C252.76 227.397 252.721 227.385 252.682 227.373C252.529 227.324 252.378 227.272 252.231 227.215L252.23 227.215L251.321 227.744L249.744 226.831L249.742 227.523L251.319 228.436L252.228 227.906C252.375 227.964 252.527 228.016 252.68 228.065C252.719 228.077 252.758 228.089 252.797 228.101C252.837 228.113 252.875 228.127 252.915 228.138C252.964 228.152 253.015 228.161 253.065 228.175C253.179 228.205 253.294 228.234 253.41 228.259C253.448 228.268 253.484 228.279 253.522 228.287C253.569 228.296 253.617 228.303 253.665 228.312C253.762 228.33 253.861 228.347 253.96 228.363C254.005 228.37 254.049 228.38 254.094 228.386C254.187 228.399 254.28 228.411 254.373 228.422H254.374L254.378 229.17H256.601L256.603 228.477H254.38L254.376 227.73Z" fill="#BD8AAE"/>
<path d="M259.653 227.744L258.739 227.215C258.082 227.474 257.353 227.646 256.599 227.73L256.603 228.478H254.38L254.376 227.73C253.621 227.646 252.891 227.474 252.23 227.215L251.321 227.744L249.744 226.831L250.653 226.302C250.205 225.919 249.906 225.495 249.758 225.057H248.47L248.463 223.766H249.751C249.894 223.327 250.189 222.904 250.632 222.521L249.718 221.992L251.285 221.078L252.199 221.607C252.857 221.349 253.585 221.176 254.339 221.092L254.335 220.344H256.557L256.561 221.092C257.316 221.176 258.046 221.349 258.708 221.607L259.615 221.078L261.192 221.992L260.285 222.521C260.731 222.904 261.031 223.327 261.179 223.766H262.467L262.474 225.057H261.187C261.043 225.495 260.75 225.919 260.306 226.302L261.219 226.831L259.653 227.744ZM253.415 225.609C254.557 226.27 256.401 226.27 257.535 225.608C258.67 224.947 258.665 223.876 257.523 223.215C256.381 222.554 254.536 222.554 253.401 223.215C252.267 223.876 252.273 224.948 253.415 225.609Z" fill="white"/>
<path d="M332.115 221.347L304.997 205.654C304.167 205.175 303.216 205.196 302.282 205.763L302.282 205.762L296.327 209.21L299.095 212.974L300.127 214.159V241.101C300.127 242.705 300.98 244.187 302.365 244.99L322.661 256.758L322.869 257.889L327.01 263.709L333.38 259.954C333.392 259.948 333.402 259.942 333.413 259.935L333.456 259.911V259.907C334.024 259.551 334.426 258.926 334.426 258.157L334.427 225.36C334.427 223.704 333.546 222.173 332.115 221.347Z" fill="url(#paint12_linear_8_2687)"/>
<path d="M325.776 225.083L298.338 209.207C296.999 208.433 295.326 209.402 295.326 210.952V243.888C295.326 245.491 296.179 246.974 297.564 247.777L324.999 263.682C326.371 264.478 328.088 263.485 328.088 261.895L328.089 229.097C328.089 227.44 327.207 225.91 325.776 225.083Z" fill="url(#paint13_linear_8_2687)"/>
<path d="M327.051 263.686L327.011 263.71L327.007 263.704C327.021 263.697 327.037 263.694 327.051 263.686Z" fill="url(#paint14_linear_8_2687)"/>
<path d="M328.089 261.894L328.089 229.097C328.089 228.544 327.959 228.02 327.775 227.516L334.139 223.84C334.309 224.325 334.428 224.83 334.428 225.36L334.427 258.157C334.427 258.926 334.025 259.551 333.456 259.907V259.91L333.413 259.935C333.403 259.941 333.392 259.948 333.381 259.954L327.065 263.677C327.663 263.329 328.089 262.686 328.089 261.894Z" fill="url(#paint15_linear_8_2687)"/>
<path d="M328.995 274.909L328.767 273.672L308.293 261.802C307.05 261.081 306.278 259.739 306.278 258.299V231.19L305.149 229.892L302.687 226.545L307.968 223.488L307.973 223.491L308.219 223.344C308.637 223.089 309.057 222.961 309.468 222.961C309.817 222.961 310.157 223.055 310.479 223.241L337.596 238.933C338.885 239.678 339.686 241.067 339.686 242.559L339.685 275.356C339.685 275.924 339.408 276.423 338.924 276.726L338.859 276.767L332.841 280.314L328.995 274.909Z" fill="url(#paint16_linear_8_2687)"/>
<path d="M309.468 223.408C309.738 223.408 310.003 223.482 310.256 223.628L337.374 239.321C338.525 239.986 339.24 241.226 339.24 242.559L339.239 275.356C339.239 275.766 339.038 276.127 338.689 276.346L338.646 276.373L338.634 276.381L332.968 279.721L329.416 274.73L329.244 273.794L329.17 273.388L328.813 273.181L308.517 261.414C307.411 260.773 306.725 259.58 306.725 258.299V231.358V231.022L306.505 230.769L305.497 229.611L303.343 226.682L307.785 224.11L307.796 224.123L308.45 223.726C308.797 223.515 309.14 223.408 309.468 223.408ZM309.468 222.513C308.983 222.513 308.482 222.66 307.987 222.961L307.986 222.96L302.032 226.408L304.8 230.173L305.832 231.358V258.3C305.832 259.904 306.685 261.386 308.07 262.189L328.366 273.956L328.574 275.088L332.715 280.908L339.085 277.153C339.096 277.147 339.107 277.14 339.118 277.134L339.16 277.109V277.106C339.729 276.75 340.131 276.125 340.131 275.356L340.132 242.559C340.132 240.903 339.25 239.372 337.819 238.546L310.701 222.854C310.312 222.628 309.896 222.513 309.468 222.513Z" fill="#FDFEFE"/>
<path d="M331.731 280.713C331.449 280.713 331.179 280.639 330.927 280.493L303.493 264.588C302.249 263.867 301.477 262.525 301.477 261.086V228.15C301.477 227.181 302.29 226.58 303.043 226.58C303.315 226.58 303.576 226.652 303.82 226.793L331.258 242.669C332.547 243.414 333.347 244.803 333.347 246.295L333.347 279.093C333.347 279.539 333.173 279.952 332.857 280.256C332.554 280.546 332.144 280.713 331.731 280.713Z" fill="url(#paint17_linear_8_2687)"/>
<path d="M303.043 227.028C303.235 227.028 303.422 227.079 303.597 227.18L331.035 243.057C332.186 243.722 332.901 244.963 332.901 246.295L332.9 279.093C332.9 279.817 332.293 280.266 331.731 280.266C331.529 280.266 331.333 280.212 331.15 280.106L303.716 264.2C302.61 263.559 301.923 262.366 301.923 261.086V228.15C301.923 227.457 302.504 227.028 303.043 227.028ZM303.043 226.133C301.994 226.133 301.031 226.975 301.031 228.15V261.086C301.031 262.689 301.884 264.172 303.269 264.975L330.704 280.88C331.036 281.073 331.388 281.16 331.731 281.16C332.806 281.16 333.793 280.298 333.793 279.093L333.794 246.295C333.794 244.639 332.912 243.109 331.481 242.281L304.043 226.405C303.719 226.218 303.377 226.133 303.043 226.133Z" fill="#FDFEFE"/>
<path d="M332.756 280.884L332.715 280.908L332.712 280.903C332.726 280.895 332.742 280.892 332.756 280.884Z" fill="url(#paint18_linear_8_2687)"/>
<path d="M332.756 280.884L332.756 280.884L332.756 280.884ZM332.756 280.884C332.742 280.892 332.726 280.895 332.712 280.903L332.715 280.908L332.756 280.884Z" fill="#FDFEFE"/>
<path d="M334.205 279.51C334.227 279.374 334.239 279.234 334.239 279.093L334.239 246.295C334.239 245.859 334.167 245.407 334.019 244.92L339.578 241.709C339.651 242.01 339.686 242.288 339.686 242.559L339.685 275.356C339.685 275.924 339.408 276.423 338.924 276.725L338.848 276.773L334.205 279.51Z" fill="url(#paint19_linear_8_2687)"/>
<path d="M339.237 242.423C339.239 242.468 339.24 242.514 339.24 242.559L339.24 275.356C339.24 275.766 339.039 276.127 338.689 276.345L338.63 276.383L334.686 278.708L334.686 246.295C334.686 245.921 334.638 245.537 334.541 245.135L339.237 242.423ZM339.844 241.039L333.48 244.715C333.664 245.218 333.794 245.743 333.794 246.295L333.793 279.093C333.793 279.878 333.374 280.516 332.785 280.867L339.086 277.153C339.097 277.147 339.108 277.14 339.118 277.134L339.161 277.109V277.105C339.73 276.75 340.132 276.125 340.132 275.356L340.132 242.559C340.132 242.029 340.013 241.524 339.844 241.039ZM332.785 280.867L332.77 280.876C332.775 280.873 332.78 280.87 332.785 280.867Z" fill="#FDFEFE"/>
<path d="M316.968 244.406C316.967 244.797 316.902 245.047 316.78 245.175C316.654 245.296 316.461 245.283 316.197 245.129C316.008 245.02 315.811 244.869 315.605 244.675L315.601 245.987C315.801 246.198 316.068 246.398 316.408 246.594C316.768 246.803 317.093 246.888 317.376 246.846C317.662 246.806 317.881 246.636 318.035 246.334C318.193 246.034 318.273 245.619 318.275 245.088L318.297 237.244L316.991 236.487L316.968 244.406Z" fill="white"/>
<path d="M320.607 244.642L322.439 245.703L322.836 247.976L324.146 248.735L322.427 239.602L320.653 238.575L318.892 245.692L320.198 246.449L320.607 244.642ZM321.379 241.133C321.444 240.788 321.499 240.469 321.539 240.175C321.556 240.338 321.602 240.673 321.679 241.179C321.757 241.681 321.805 241.998 321.827 242.126L322.196 244.223L320.872 243.456C321.143 242.25 321.314 241.479 321.379 241.133Z" fill="white"/>
<path d="M327.32 250.572L328.996 243.438L327.682 242.677L326.758 247.09C326.653 247.573 326.569 248.127 326.499 248.754C326.419 247.92 326.343 247.274 326.258 246.801L325.355 241.33L324.041 240.569L325.66 249.611L327.32 250.572Z" fill="white"/>
<path d="M330.151 252.211L330.56 250.405L332.388 251.463L332.786 253.737L334.1 254.497L332.377 245.362L330.606 244.337L328.845 251.455L330.151 252.211ZM331.328 246.894C331.394 246.548 331.448 246.23 331.492 245.938C331.506 246.098 331.552 246.434 331.629 246.94C331.706 247.442 331.759 247.761 331.78 247.889L332.149 249.986L330.821 249.217C331.096 248.012 331.263 247.239 331.328 246.894Z" fill="white"/>
<path d="M328.804 255.024L318.892 249.267V249.773L328.804 255.53V255.024Z" fill="white"/>
<path d="M318.892 250.766L334.1 259.587V259.081L318.892 250.26V250.766Z" fill="white"/>
<path d="M329.468 255.904L334.1 258.594V258.088L329.468 255.399V255.904Z" fill="white"/>
<path d="M328.804 256.961L318.892 251.204V251.71L328.804 257.467V256.961Z" fill="white"/>
<path d="M318.892 252.703L334.1 261.524V261.018L318.892 252.198V252.703Z" fill="white"/>
<path d="M329.468 257.841L334.1 260.532V260.026L329.468 257.336V257.841Z" fill="white"/>
<path d="M328.804 259.761L318.892 254.004V254.51L328.804 260.266V259.761Z" fill="white"/>
<path d="M318.892 255.503L334.1 264.323V263.818L318.892 254.997V255.503Z" fill="white"/>
<path d="M329.468 260.641L334.1 263.33V262.825L329.468 260.135V260.641Z" fill="white"/>
<path d="M328.804 261.698L318.892 255.941V256.447L328.804 262.204V261.698Z" fill="white"/>
<path d="M318.892 257.44L334.1 266.261V265.755L318.892 256.934V257.44Z" fill="white"/>
<path d="M329.468 262.578L334.1 265.268V264.762L329.468 262.073V262.578Z" fill="white"/>
<path d="M328.804 264.497L318.892 258.74V259.246L328.804 265.003V264.497Z" fill="white"/>
<path d="M318.892 260.239L334.1 269.06V268.554L318.892 259.734V260.239Z" fill="white"/>
<path d="M329.468 265.377L334.1 268.067V267.561L329.468 264.872V265.377Z" fill="white"/>
<path d="M328.804 266.434L318.892 260.678V261.183L328.804 266.94V266.434Z" fill="white"/>
<path d="M318.892 262.177L334.1 270.997V270.492L318.892 261.671V262.177Z" fill="white"/>
<path d="M329.468 267.315L334.1 270.005V269.499L329.468 266.809V267.315Z" fill="white"/>
<path d="M328.804 269.234L318.892 263.477V263.983L328.804 269.739V269.234Z" fill="white"/>
<path d="M318.892 264.975L334.1 273.796V273.291L318.892 264.47V264.975Z" fill="white"/>
<path d="M329.468 270.114L334.1 272.804V272.298L329.468 269.608V270.114Z" fill="white"/>
<path d="M328.804 271.171L318.892 265.414V265.92L328.804 271.676V271.171Z" fill="white"/>
<path d="M318.892 266.913L334.1 275.734V275.228L318.892 266.407V266.913Z" fill="white"/>
<path d="M329.468 272.051L334.1 274.741V274.235L329.468 271.545V272.051Z" fill="white"/>
<g opacity="0.46">
<path opacity="0.46" d="M303.034 279.048L251.69 308.696C249.744 309.82 247.314 308.411 247.314 306.16V290.222C247.314 289.175 247.872 288.208 248.777 287.686L300.121 258.037C302.067 256.913 304.497 258.322 304.497 260.574V276.511C304.496 277.558 303.939 278.525 303.034 279.048Z" fill="#CDE9F9"/>
</g>
<g opacity="0.46">
<path opacity="0.46" d="M366.491 254.458L315.147 284.107C313.201 285.23 310.771 283.822 310.771 281.57V265.633C310.771 264.586 311.329 263.618 312.234 263.096L363.578 233.447C365.524 232.323 367.954 233.732 367.954 235.984V251.921C367.954 252.968 367.396 253.935 366.491 254.458Z" fill="#CDE9F9"/>
</g>
<g opacity="0.46">
<path opacity="0.46" d="M371.292 222.308L319.947 251.957C318.001 253.081 315.572 251.672 315.572 249.42V233.483C315.572 232.436 316.129 231.469 317.034 230.946L368.379 201.297C370.324 200.174 372.754 201.582 372.754 203.834V219.771C372.754 220.818 372.196 221.786 371.292 222.308Z" fill="#CDE9F9"/>
</g>
<defs>
<linearGradient id="paint0_linear_8_2687" x1="228.37" y1="152.638" x2="359.915" y2="152.638" gradientUnits="userSpaceOnUse">
<stop stop-color="#21409A"/>
<stop offset="0.9984" stop-color="#29ABE2" stop-opacity="0"/>
</linearGradient>
<linearGradient id="paint1_linear_8_2687" x1="276.681" y1="157.501" x2="354.633" y2="157.501" gradientUnits="userSpaceOnUse">
<stop offset="0.5191" stop-color="#21285A"/>
<stop offset="0.7064" stop-color="#21295A" stop-opacity="0.6104"/>
<stop offset="0.7739" stop-color="#222D5E" stop-opacity="0.4701"/>
<stop offset="0.822" stop-color="#233463" stop-opacity="0.37"/>
<stop offset="0.861" stop-color="#253E6B" stop-opacity="0.2891"/>
<stop offset="0.8943" stop-color="#274A77" stop-opacity="0.2198"/>
<stop offset="0.9238" stop-color="#2A5986" stop-opacity="0.1584"/>
<stop offset="0.9505" stop-color="#2E6D9A" stop-opacity="0.1029"/>
<stop offset="0.975" stop-color="#2F85B5" stop-opacity="0.0519"/>
<stop offset="0.9969" stop-color="#2CA5D9" stop-opacity="0.01"/>
<stop offset="1" stop-color="#29ABE2" stop-opacity="0"/>
</linearGradient>
<linearGradient id="paint2_linear_8_2687" x1="276.897" y1="138.46" x2="301.45" y2="138.46" gradientUnits="userSpaceOnUse">
<stop offset="0.0607" stop-color="#28A8E0"/>
<stop offset="0.9984" stop-color="#29ABE2" stop-opacity="0"/>
</linearGradient>
<linearGradient id="paint3_linear_8_2687" x1="238.002" y1="114.976" x2="272.106" y2="114.976" gradientUnits="userSpaceOnUse">
<stop offset="0.5191" stop-color="#21285A"/>
<stop offset="0.7064" stop-color="#21295A" stop-opacity="0.6104"/>
<stop offset="0.7739" stop-color="#222D5E" stop-opacity="0.4701"/>
<stop offset="0.822" stop-color="#233463" stop-opacity="0.37"/>
<stop offset="0.861" stop-color="#253E6B" stop-opacity="0.2891"/>
<stop offset="0.8943" stop-color="#274A77" stop-opacity="0.2198"/>
<stop offset="0.9238" stop-color="#2A5986" stop-opacity="0.1584"/>
<stop offset="0.9505" stop-color="#2E6D9A" stop-opacity="0.1029"/>
<stop offset="0.975" stop-color="#2F85B5" stop-opacity="0.0519"/>
<stop offset="0.9969" stop-color="#2CA5D9" stop-opacity="0.01"/>
<stop offset="1" stop-color="#29ABE2" stop-opacity="0"/>
</linearGradient>
<linearGradient id="paint4_linear_8_2687" x1="233.242" y1="115.871" x2="267.346" y2="115.871" gradientUnits="userSpaceOnUse">
<stop stop-color="#21409A"/>
<stop offset="0.9984" stop-color="#29ABE2" stop-opacity="0"/>
</linearGradient>
<linearGradient id="paint5_linear_8_2687" x1="172.194" y1="171.658" x2="186.116" y2="171.658" gradientUnits="userSpaceOnUse">
<stop stop-color="#6B385F"/>
<stop offset="0.4197" stop-color="#6F3B62" stop-opacity="0.7323"/>
<stop offset="0.5218" stop-color="#764268" stop-opacity="0.6035"/>
<stop offset="0.6937" stop-color="#8C567A" stop-opacity="0.3865"/>
<stop offset="0.9131" stop-color="#B5799B" stop-opacity="0.1096"/>
<stop offset="1" stop-color="#CC8DAE" stop-opacity="0"/>
</linearGradient>
<linearGradient id="paint6_linear_8_2687" x1="215.243" y1="129.411" x2="235.052" y2="129.411" gradientUnits="userSpaceOnUse">
<stop stop-color="#6B385F"/>
<stop offset="0.4197" stop-color="#6F3B62" stop-opacity="0.7323"/>
<stop offset="0.5218" stop-color="#764268" stop-opacity="0.6035"/>
<stop offset="0.6937" stop-color="#8C567A" stop-opacity="0.3865"/>
<stop offset="0.9131" stop-color="#B5799B" stop-opacity="0.1096"/>
<stop offset="1" stop-color="#CC8DAE" stop-opacity="0"/>
</linearGradient>
<linearGradient id="paint7_linear_8_2687" x1="160.123" y1="156.945" x2="236.233" y2="156.945" gradientUnits="userSpaceOnUse">
<stop offset="0.0607" stop-color="#28A8E0"/>
<stop offset="0.9984" stop-color="#29ABE2" stop-opacity="0"/>
</linearGradient>
<linearGradient id="paint8_linear_8_2687" x1="166.155" y1="166.852" x2="198.206" y2="166.852" gradientUnits="userSpaceOnUse">
<stop offset="0.4247" stop-color="white"/>
<stop offset="1" stop-color="#2484C6" stop-opacity="0"/>
</linearGradient>
<linearGradient id="paint9_linear_8_2687" x1="208.225" y1="182.512" x2="222.146" y2="182.512" gradientUnits="userSpaceOnUse">
<stop stop-color="#6B385F"/>
<stop offset="0.4197" stop-color="#6F3B62" stop-opacity="0.7323"/>
<stop offset="0.5218" stop-color="#764268" stop-opacity="0.6035"/>
<stop offset="0.6937" stop-color="#8C567A" stop-opacity="0.3865"/>
<stop offset="0.9131" stop-color="#B5799B" stop-opacity="0.1096"/>
<stop offset="1" stop-color="#CC8DAE" stop-opacity="0"/>
</linearGradient>
<linearGradient id="paint10_linear_8_2687" x1="260.477" y1="191.026" x2="280.286" y2="191.026" gradientUnits="userSpaceOnUse">
<stop stop-color="#6B385F"/>
<stop offset="0.4197" stop-color="#6F3B62" stop-opacity="0.7323"/>
<stop offset="0.5218" stop-color="#764268" stop-opacity="0.6035"/>
<stop offset="0.6937" stop-color="#8C567A" stop-opacity="0.3865"/>
<stop offset="0.9131" stop-color="#B5799B" stop-opacity="0.1096"/>
<stop offset="1" stop-color="#CC8DAE" stop-opacity="0"/>
</linearGradient>
<linearGradient id="paint11_linear_8_2687" x1="236.164" y1="239.615" x2="270.649" y2="239.615" gradientUnits="userSpaceOnUse">
<stop offset="0.0607" stop-color="#28A8E0"/>
<stop offset="0.9984" stop-color="#29ABE2" stop-opacity="0"/>
</linearGradient>
<linearGradient id="paint12_linear_8_2687" x1="296.327" y1="234.512" x2="334.427" y2="234.512" gradientUnits="userSpaceOnUse">
<stop stop-color="#21409A"/>
<stop offset="0.9984" stop-color="#29ABE2" stop-opacity="0"/>
</linearGradient>
<linearGradient id="paint13_linear_8_2687" x1="295.326" y1="236.448" x2="328.089" y2="236.448" gradientUnits="userSpaceOnUse">
<stop stop-color="#21409A"/>
<stop offset="0.9984" stop-color="#29ABE2" stop-opacity="0"/>
</linearGradient>
<linearGradient id="paint14_linear_8_2687" x1="327.007" y1="263.698" x2="327.051" y2="263.698" gradientUnits="userSpaceOnUse">
<stop stop-color="#21409A"/>
<stop offset="0.9984" stop-color="#29ABE2" stop-opacity="0"/>
</linearGradient>
<linearGradient id="paint15_linear_8_2687" x1="327.065" y1="243.759" x2="334.428" y2="243.759" gradientUnits="userSpaceOnUse">
<stop stop-color="#21409A"/>
<stop offset="0.9984" stop-color="#29ABE2" stop-opacity="0"/>
</linearGradient>
<linearGradient id="paint16_linear_8_2687" x1="302.687" y1="251.637" x2="339.686" y2="251.637" gradientUnits="userSpaceOnUse">
<stop offset="0.0607" stop-color="#28A8E0"/>
<stop offset="0.9984" stop-color="#29ABE2" stop-opacity="0"/>
</linearGradient>
<linearGradient id="paint17_linear_8_2687" x1="301.477" y1="253.647" x2="333.347" y2="253.647" gradientUnits="userSpaceOnUse">
<stop offset="0.0607" stop-color="#28A8E0"/>
<stop offset="0.9984" stop-color="#29ABE2" stop-opacity="0"/>
</linearGradient>
<linearGradient id="paint18_linear_8_2687" x1="332.712" y1="280.896" x2="332.756" y2="280.896" gradientUnits="userSpaceOnUse">
<stop offset="0.0607" stop-color="#28A8E0"/>
<stop offset="0.9984" stop-color="#29ABE2" stop-opacity="0"/>
</linearGradient>
<linearGradient id="paint19_linear_8_2687" x1="334.019" y1="260.61" x2="339.686" y2="260.61" gradientUnits="userSpaceOnUse">
<stop offset="0.0607" stop-color="#28A8E0"/>
<stop offset="0.9984" stop-color="#29ABE2" stop-opacity="0"/>
</linearGradient>
</defs>
</svg>
